<svg width="100" height="84" viewBox="0 0 100 84" fill="none" xmlns="http://www.w3.org/2000/svg">
<mask id="path-1-inside-1_1_968" fill="white">
<path fill-rule="evenodd" clip-rule="evenodd" d="M76.3204 0H22.8306V38.8182H0L50 84L100 38.8182H76.3204V0Z"/>
</mask>
<path fill-rule="evenodd" clip-rule="evenodd" d="M76.3204 0H22.8306V38.8182H0L50 84L100 38.8182H76.3204V0Z" fill="#0066FF"/>
<path d="M22.8306 0V-0.75H22.0806V0H22.8306ZM76.3204 0H77.0704V-0.75H76.3204V0ZM22.8306 38.8182V39.5682H23.5806V38.8182H22.8306ZM0 38.8182V38.0682H-1.94863L-0.50284 39.3746L0 38.8182ZM50 84L49.4972 84.5564L50 85.0108L50.5029 84.5564L50 84ZM100 38.8182L100.503 39.3746L101.949 38.0682H100V38.8182ZM76.3204 38.8182H75.5704V39.5682H76.3204V38.8182ZM22.8306 0.75H76.3204V-0.75H22.8306V0.75ZM23.5806 38.8182V0H22.0806V38.8182H23.5806ZM0 39.5682H22.8306V38.0682H0V39.5682ZM50.5029 83.4435L0.50284 38.2617L-0.50284 39.3746L49.4972 84.5564L50.5029 83.4435ZM99.4972 38.2617L49.4972 83.4435L50.5029 84.5564L100.503 39.3746L99.4972 38.2617ZM76.3204 39.5682H100V38.0682H76.3204V39.5682ZM75.5704 0V38.8182H77.0704V0H75.5704Z" fill="black" mask="url(#path-1-inside-1_1_968)"/>
</svg>
