<svg width="516" height="55" viewBox="0 0 516 55" fill="none" xmlns="http://www.w3.org/2000/svg">
<rect x="0.239312" y="0.239312" width="514.617" height="53.9801" rx="4.54694" fill="#FF0400"/>
<path d="M22.1099 38.2292H29.2192C30.8234 38.2292 32.1932 37.9792 33.3286 37.4792C34.464 36.9688 35.3338 36.2449 35.938 35.3074C36.5526 34.3595 36.8599 33.224 36.8599 31.9011V31.8699C36.8599 30.8699 36.6515 29.9792 36.2349 29.198C35.8182 28.4063 35.2192 27.7605 34.438 27.2605C33.6567 26.7605 32.7244 26.448 31.6411 26.323V26.2605C32.4224 26.1459 33.1203 25.849 33.7349 25.3699C34.3494 24.8803 34.8338 24.2813 35.188 23.573C35.5422 22.8647 35.7192 22.1199 35.7192 21.3386V21.3074C35.7192 20.1824 35.4484 19.198 34.9067 18.3542C34.3651 17.5105 33.6099 16.8542 32.6411 16.3855C31.6724 15.9167 30.5422 15.6824 29.2505 15.6824H22.1099V18.1667H28.6099C29.9744 18.1667 31.0265 18.4636 31.7661 19.0574C32.5057 19.6407 32.8755 20.4897 32.8755 21.6042V21.6355C32.8755 22.8542 32.4328 23.7865 31.5474 24.4324C30.6724 25.0782 29.4015 25.4011 27.7349 25.4011H22.1099V27.823H28.5317C29.7297 27.823 30.7297 27.9688 31.5317 28.2605C32.3442 28.5522 32.9536 28.9897 33.3599 29.573C33.7661 30.1563 33.9692 30.8855 33.9692 31.7605V31.7917C33.9692 33.0834 33.5265 34.0678 32.6411 34.7449C31.7661 35.4115 30.4849 35.7449 28.7974 35.7449H22.1099V38.2292ZM20.7036 38.2292H23.5161V15.6824H20.7036V38.2292ZM39.6255 38.2292H42.3442V28.198C42.3442 27.3751 42.4849 26.672 42.7661 26.0886C43.0578 25.4949 43.464 25.0417 43.9849 24.7292C44.5161 24.4167 45.1307 24.2605 45.8286 24.2605C46.1619 24.2605 46.4588 24.2761 46.7192 24.3074C46.9901 24.3386 47.1776 24.3751 47.2817 24.4167V21.7761C47.1776 21.7553 47.0265 21.7345 46.8286 21.7136C46.6411 21.6824 46.4276 21.6667 46.188 21.6667C45.2713 21.6667 44.4797 21.9428 43.813 22.4949C43.1463 23.047 42.6776 23.7917 42.4067 24.7292H42.3442V21.9792H39.6255V38.2292ZM55.4067 38.5417C56.2922 38.5417 57.1151 38.422 57.8755 38.1824C58.6359 37.9324 59.313 37.5886 59.9067 37.1511C60.5005 36.7032 60.9849 36.1876 61.3599 35.6042C61.7453 35.0209 62.0057 34.3959 62.1411 33.7292L62.1724 33.573H59.5005L59.4536 33.7136C59.2974 34.1824 59.0369 34.599 58.6724 34.9636C58.3078 35.3282 57.8547 35.6147 57.313 35.823C56.7713 36.0313 56.1567 36.1355 55.4692 36.1355C54.4901 36.1355 53.6411 35.922 52.9224 35.4949C52.2036 35.0574 51.6463 34.4324 51.2505 33.6199C50.8651 32.8074 50.6724 31.8282 50.6724 30.6824V29.6355C50.6724 28.4272 50.8703 27.4115 51.2661 26.5886C51.6619 25.7553 52.2036 25.1303 52.8911 24.7136C53.5786 24.2865 54.3547 24.073 55.2192 24.073C56.0838 24.073 56.8494 24.2761 57.5161 24.6824C58.1828 25.0782 58.7036 25.6876 59.0786 26.5105C59.464 27.3334 59.6567 28.3751 59.6567 29.6355V30.6824L61.0317 28.7136H49.2817V30.8386H62.3755V29.8386C62.3755 28.2136 62.089 26.7865 61.5161 25.5574C60.9432 24.3282 60.1203 23.3751 59.0474 22.698C57.9849 22.0105 56.714 21.6667 55.2349 21.6667C53.7557 21.6667 52.4692 22.0261 51.3755 22.7449C50.2817 23.4532 49.4328 24.448 48.8286 25.7292C48.2244 27.0001 47.9224 28.474 47.9224 30.1511V30.1667C47.9224 31.8647 48.2192 33.3438 48.813 34.6042C49.4172 35.8542 50.2765 36.823 51.3911 37.5105C52.5161 38.198 53.8547 38.5417 55.4067 38.5417ZM69.8755 38.5417C70.6047 38.5417 71.2922 38.422 71.938 38.1824C72.5942 37.9324 73.1828 37.5886 73.7036 37.1511C74.2244 36.7032 74.6411 36.1824 74.9536 35.5886H75.0161V38.2292H77.7349V26.9949C77.7349 25.9115 77.4797 24.974 76.9692 24.1824C76.4588 23.3803 75.7349 22.7605 74.7974 22.323C73.8703 21.8855 72.7661 21.6667 71.4849 21.6667C70.214 21.6667 69.1151 21.8855 68.188 22.323C67.2609 22.7501 66.5317 23.3282 66.0005 24.0574C65.4797 24.7865 65.1776 25.599 65.0942 26.4949L65.0786 26.6667H67.7036L67.7349 26.5261C67.8911 25.797 68.2869 25.2084 68.9224 24.7605C69.5682 24.3022 70.4119 24.073 71.4536 24.073C72.589 24.073 73.464 24.3595 74.0786 24.9324C74.7036 25.4949 75.0161 26.2709 75.0161 27.2605V32.0574C75.0161 32.8386 74.813 33.5417 74.4067 34.1667C74.0109 34.7917 73.4692 35.2865 72.7817 35.6511C72.1047 36.0053 71.339 36.1824 70.4849 36.1824C69.5057 36.1824 68.7192 35.9532 68.1255 35.4949C67.5422 35.0365 67.2505 34.4167 67.2505 33.6355V33.6042C67.2505 32.8438 67.5474 32.2345 68.1411 31.7761C68.7453 31.3178 69.589 31.0574 70.6724 30.9949L76.3755 30.6511V28.5417L70.3599 28.8855C68.4953 28.9897 67.0474 29.4584 66.0161 30.2917C64.9849 31.1147 64.4692 32.2188 64.4692 33.6042V33.6355C64.4692 34.6147 64.6932 35.474 65.1411 36.2136C65.5994 36.9532 66.2349 37.5261 67.0474 37.9324C67.8599 38.3386 68.8026 38.5417 69.8755 38.5417ZM87.2974 38.5417C88.464 38.5417 89.4849 38.2709 90.3599 37.7292C91.2453 37.1772 91.9432 36.4272 92.4536 35.4792H92.5161V38.2292H95.2349V15.6824H92.5161V24.698H92.4536C91.9432 23.7605 91.2349 23.0209 90.3286 22.4792C89.4224 21.9376 88.3963 21.6667 87.2505 21.6667C85.8963 21.6667 84.7036 22.0157 83.6724 22.7136C82.6411 23.4011 81.8338 24.3751 81.2505 25.6355C80.6776 26.8959 80.3911 28.3803 80.3911 30.0886V30.1042C80.3911 31.8126 80.6776 33.3022 81.2505 34.573C81.8234 35.8334 82.6255 36.8126 83.6567 37.5105C84.6984 38.198 85.9119 38.5417 87.2974 38.5417ZM87.8286 36.1355C86.8703 36.1355 86.0422 35.8959 85.3442 35.4167C84.6463 34.9272 84.1099 34.2292 83.7349 33.323C83.3599 32.4167 83.1724 31.3438 83.1724 30.1042V30.0886C83.1724 28.849 83.3599 27.7813 83.7349 26.8855C84.1099 25.9897 84.6463 25.297 85.3442 24.8074C86.0422 24.3178 86.8703 24.073 87.8286 24.073C88.7453 24.073 89.5526 24.323 90.2505 24.823C90.9588 25.323 91.5161 26.0261 91.9224 26.9324C92.3286 27.8282 92.5317 28.8803 92.5317 30.0886V30.1042C92.5317 31.3126 92.3286 32.3699 91.9224 33.2761C91.5265 34.1824 90.9744 34.8855 90.2661 35.3855C89.5578 35.8855 88.7453 36.1355 87.8286 36.1355Z" fill="black"/>
<path d="M127.266 27.6199L111.797 21.698V24.1667L127.11 29.9011V28.323L111.797 34.0574V36.4636L127.266 30.5417V27.6199Z" fill="black"/>
<path d="M153.813 38.6042C155.386 38.6042 156.813 38.3126 158.095 37.7292C159.376 37.1459 160.444 36.323 161.298 35.2605C162.152 34.1876 162.72 32.9324 163.001 31.4949L163.032 31.3386H160.188L160.142 31.4792C159.819 32.4688 159.36 33.3022 158.767 33.9792C158.173 34.6459 157.459 35.1511 156.626 35.4949C155.803 35.8386 154.866 36.0105 153.813 36.0105C152.324 36.0105 151.022 35.6355 149.907 34.8855C148.793 34.1355 147.928 33.0834 147.313 31.7292C146.709 30.3647 146.407 28.7709 146.407 26.948V26.9324C146.407 25.099 146.709 23.5105 147.313 22.1667C147.928 20.8126 148.787 19.7657 149.892 19.0261C151.006 18.2761 152.313 17.9011 153.813 17.9011C154.876 17.9011 155.824 18.073 156.657 18.4167C157.491 18.7605 158.194 19.2553 158.767 19.9011C159.35 20.5365 159.787 21.3126 160.079 22.2292L160.188 22.573H163.032L163.001 22.4167C162.72 20.9897 162.147 19.7449 161.282 18.6824C160.428 17.6199 159.36 16.7917 158.079 16.198C156.798 15.6042 155.376 15.3074 153.813 15.3074C151.72 15.3074 149.902 15.7865 148.36 16.7449C146.819 17.6928 145.626 19.0365 144.782 20.7761C143.938 22.5157 143.517 24.5678 143.517 26.9324V26.948C143.517 29.3126 143.938 31.3699 144.782 33.1199C145.626 34.8595 146.819 36.2084 148.36 37.1667C149.912 38.1251 151.73 38.6042 153.813 38.6042ZM165.938 38.2292H168.657V28.198C168.657 27.3751 168.798 26.672 169.079 26.0886C169.371 25.4949 169.777 25.0417 170.298 24.7292C170.829 24.4167 171.444 24.2605 172.142 24.2605C172.475 24.2605 172.772 24.2761 173.032 24.3074C173.303 24.3386 173.491 24.3751 173.595 24.4167V21.7761C173.491 21.7553 173.34 21.7345 173.142 21.7136C172.954 21.6824 172.741 21.6667 172.501 21.6667C171.584 21.6667 170.793 21.9428 170.126 22.4949C169.459 23.047 168.991 23.7917 168.72 24.7292H168.657V21.9792H165.938V38.2292ZM181.36 38.5417C182.183 38.5417 182.918 38.4272 183.563 38.198C184.209 37.9688 184.761 37.6563 185.22 37.2605C185.688 36.8647 186.069 36.4167 186.36 35.9167H186.423V38.2292H189.142V21.9792H186.423V31.5417C186.423 32.2292 186.324 32.8595 186.126 33.4324C185.928 33.9949 185.642 34.4792 185.267 34.8855C184.892 35.2813 184.444 35.5886 183.923 35.8074C183.412 36.0261 182.834 36.1355 182.188 36.1355C180.938 36.1355 180.001 35.7865 179.376 35.0886C178.761 34.3803 178.454 33.3647 178.454 32.0417V21.9792H175.735V32.5261C175.735 33.7553 175.954 34.823 176.392 35.7292C176.84 36.6251 177.48 37.3178 178.313 37.8074C179.157 38.297 180.173 38.5417 181.36 38.5417ZM192.688 38.2292H195.407V28.0417C195.407 27.2813 195.569 26.6042 195.892 26.0105C196.215 25.4167 196.652 24.948 197.204 24.6042C197.767 24.2501 198.407 24.073 199.126 24.073C199.803 24.073 200.386 24.2084 200.876 24.4792C201.376 24.7501 201.761 25.1303 202.032 25.6199C202.313 26.1095 202.454 26.6824 202.454 27.3386V38.2292H205.173V27.9011C205.173 27.1615 205.329 26.5053 205.642 25.9324C205.954 25.349 206.386 24.8959 206.938 24.573C207.491 24.2397 208.126 24.073 208.845 24.073C209.563 24.073 210.173 24.2136 210.673 24.4949C211.173 24.7761 211.553 25.1824 211.813 25.7136C212.084 26.2449 212.22 26.8855 212.22 27.6355V38.2292H214.938V27.0105C214.938 25.9272 214.72 24.9897 214.282 24.198C213.845 23.3959 213.23 22.7761 212.438 22.3386C211.647 21.8907 210.715 21.6667 209.642 21.6667C208.881 21.6667 208.168 21.7917 207.501 22.0417C206.845 22.2917 206.261 22.6511 205.751 23.1199C205.251 23.5782 204.85 24.1355 204.548 24.7917H204.485C204.256 24.1251 203.923 23.5626 203.485 23.1042C203.048 22.6355 202.527 22.2813 201.923 22.0417C201.329 21.7917 200.662 21.6667 199.923 21.6667C198.881 21.6667 197.97 21.9167 197.188 22.4167C196.407 22.9063 195.834 23.5522 195.47 24.3542H195.407V21.9792H192.688V38.2292ZM226.485 38.5417C227.871 38.5417 229.079 38.198 230.11 37.5105C231.152 36.8126 231.959 35.8334 232.532 34.573C233.105 33.3022 233.392 31.8126 233.392 30.1042V30.0886C233.392 28.3803 233.1 26.8959 232.517 25.6355C231.944 24.3751 231.142 23.4011 230.11 22.7136C229.09 22.0157 227.897 21.6667 226.532 21.6667C225.772 21.6667 225.058 21.7917 224.392 22.0417C223.725 22.2813 223.131 22.6303 222.61 23.0886C222.1 23.5365 221.673 24.073 221.329 24.698H221.267V15.6824H218.548V38.2292H221.267V35.4792H221.329C221.673 36.1147 222.095 36.6615 222.595 37.1199C223.105 37.5678 223.688 37.9167 224.345 38.1667C225.001 38.4167 225.715 38.5417 226.485 38.5417ZM225.954 36.1355C225.037 36.1355 224.225 35.8855 223.517 35.3855C222.808 34.8855 222.251 34.1824 221.845 33.2761C221.449 32.3699 221.251 31.3126 221.251 30.1042V30.0886C221.251 28.8803 221.454 27.8282 221.86 26.9324C222.267 26.0261 222.819 25.323 223.517 24.823C224.225 24.323 225.037 24.073 225.954 24.073C226.912 24.073 227.741 24.3178 228.438 24.8074C229.136 25.297 229.673 25.9897 230.048 26.8855C230.423 27.7813 230.61 28.849 230.61 30.0886V30.1042C230.61 31.3438 230.423 32.4167 230.048 33.323C229.673 34.2292 229.136 34.9272 228.438 35.4167C227.741 35.8959 226.912 36.1355 225.954 36.1355Z" fill="black"/>
<path d="M264.954 27.6199L249.485 21.698V24.1667L264.798 29.9011V28.323L249.485 34.0574V36.4636L264.954 30.5417V27.6199Z" fill="black"/>
<path d="M283.486 38.2292H290.595C292.199 38.2292 293.569 37.9792 294.705 37.4792C295.84 36.9688 296.71 36.2449 297.314 35.3074C297.929 34.3595 298.236 33.224 298.236 31.9011V31.8699C298.236 30.8699 298.028 29.9792 297.611 29.198C297.194 28.4063 296.595 27.7605 295.814 27.2605C295.033 26.7605 294.1 26.448 293.017 26.323V26.2605C293.798 26.1459 294.496 25.849 295.111 25.3699C295.725 24.8803 296.21 24.2813 296.564 23.573C296.918 22.8647 297.095 22.1199 297.095 21.3386V21.3074C297.095 20.1824 296.824 19.198 296.283 18.3542C295.741 17.5105 294.986 16.8542 294.017 16.3855C293.048 15.9167 291.918 15.6824 290.626 15.6824H283.486V18.1667H289.986C291.35 18.1667 292.403 18.4636 293.142 19.0574C293.882 19.6407 294.251 20.4897 294.251 21.6042V21.6355C294.251 22.8542 293.809 23.7865 292.923 24.4324C292.048 25.0782 290.778 25.4011 289.111 25.4011H283.486V27.823H289.908C291.106 27.823 292.106 27.9688 292.908 28.2605C293.72 28.5522 294.33 28.9897 294.736 29.573C295.142 30.1563 295.345 30.8855 295.345 31.7605V31.7917C295.345 33.0834 294.903 34.0678 294.017 34.7449C293.142 35.4115 291.861 35.7449 290.173 35.7449H283.486V38.2292ZM282.08 38.2292H284.892V15.6824H282.08V38.2292ZM301.001 38.2292H303.72V28.198C303.72 27.3751 303.861 26.672 304.142 26.0886C304.434 25.4949 304.84 25.0417 305.361 24.7292C305.892 24.4167 306.507 24.2605 307.205 24.2605C307.538 24.2605 307.835 24.2761 308.095 24.3074C308.366 24.3386 308.554 24.3751 308.658 24.4167V21.7761C308.554 21.7553 308.403 21.7345 308.205 21.7136C308.017 21.6824 307.804 21.6667 307.564 21.6667C306.647 21.6667 305.856 21.9428 305.189 22.4949C304.522 23.047 304.054 23.7917 303.783 24.7292H303.72V21.9792H301.001V38.2292ZM316.783 38.5417C317.668 38.5417 318.491 38.422 319.251 38.1824C320.012 37.9324 320.689 37.5886 321.283 37.1511C321.876 36.7032 322.361 36.1876 322.736 35.6042C323.121 35.0209 323.382 34.3959 323.517 33.7292L323.548 33.573H320.876L320.83 33.7136C320.673 34.1824 320.413 34.599 320.048 34.9636C319.684 35.3282 319.231 35.6147 318.689 35.823C318.147 36.0313 317.533 36.1355 316.845 36.1355C315.866 36.1355 315.017 35.922 314.298 35.4949C313.58 35.0574 313.022 34.4324 312.626 33.6199C312.241 32.8074 312.048 31.8282 312.048 30.6824V29.6355C312.048 28.4272 312.246 27.4115 312.642 26.5886C313.038 25.7553 313.58 25.1303 314.267 24.7136C314.955 24.2865 315.731 24.073 316.595 24.073C317.46 24.073 318.225 24.2761 318.892 24.6824C319.559 25.0782 320.08 25.6876 320.455 26.5105C320.84 27.3334 321.033 28.3751 321.033 29.6355V30.6824L322.408 28.7136H310.658V30.8386H323.751V29.8386C323.751 28.2136 323.465 26.7865 322.892 25.5574C322.319 24.3282 321.496 23.3751 320.423 22.698C319.361 22.0105 318.09 21.6667 316.611 21.6667C315.132 21.6667 313.845 22.0261 312.751 22.7449C311.658 23.4532 310.809 24.448 310.205 25.7292C309.6 27.0001 309.298 28.474 309.298 30.1511V30.1667C309.298 31.8647 309.595 33.3438 310.189 34.6042C310.793 35.8542 311.653 36.823 312.767 37.5105C313.892 38.198 315.231 38.5417 316.783 38.5417ZM331.251 38.5417C331.981 38.5417 332.668 38.422 333.314 38.1824C333.97 37.9324 334.559 37.5886 335.08 37.1511C335.6 36.7032 336.017 36.1824 336.33 35.5886H336.392V38.2292H339.111V26.9949C339.111 25.9115 338.856 24.974 338.345 24.1824C337.835 23.3803 337.111 22.7605 336.173 22.323C335.246 21.8855 334.142 21.6667 332.861 21.6667C331.59 21.6667 330.491 21.8855 329.564 22.323C328.637 22.7501 327.908 23.3282 327.376 24.0574C326.856 24.7865 326.554 25.599 326.47 26.4949L326.455 26.6667H329.08L329.111 26.5261C329.267 25.797 329.663 25.2084 330.298 24.7605C330.944 24.3022 331.788 24.073 332.83 24.073C333.965 24.073 334.84 24.3595 335.455 24.9324C336.08 25.4949 336.392 26.2709 336.392 27.2605V32.0574C336.392 32.8386 336.189 33.5417 335.783 34.1667C335.387 34.7917 334.845 35.2865 334.158 35.6511C333.481 36.0053 332.715 36.1824 331.861 36.1824C330.882 36.1824 330.095 35.9532 329.501 35.4949C328.918 35.0365 328.626 34.4167 328.626 33.6355V33.6042C328.626 32.8438 328.923 32.2345 329.517 31.7761C330.121 31.3178 330.965 31.0574 332.048 30.9949L337.751 30.6511V28.5417L331.736 28.8855C329.871 28.9897 328.423 29.4584 327.392 30.2917C326.361 31.1147 325.845 32.2188 325.845 33.6042V33.6355C325.845 34.6147 326.069 35.474 326.517 36.2136C326.975 36.9532 327.611 37.5261 328.423 37.9324C329.236 38.3386 330.179 38.5417 331.251 38.5417ZM348.673 38.5417C349.84 38.5417 350.861 38.2709 351.736 37.7292C352.621 37.1772 353.319 36.4272 353.83 35.4792H353.892V38.2292H356.611V15.6824H353.892V24.698H353.83C353.319 23.7605 352.611 23.0209 351.705 22.4792C350.798 21.9376 349.772 21.6667 348.626 21.6667C347.272 21.6667 346.08 22.0157 345.048 22.7136C344.017 23.4011 343.21 24.3751 342.626 25.6355C342.054 26.8959 341.767 28.3803 341.767 30.0886V30.1042C341.767 31.8126 342.054 33.3022 342.626 34.573C343.199 35.8334 344.001 36.8126 345.033 37.5105C346.074 38.198 347.288 38.5417 348.673 38.5417ZM349.205 36.1355C348.246 36.1355 347.418 35.8959 346.72 35.4167C346.022 34.9272 345.486 34.2292 345.111 33.323C344.736 32.4167 344.548 31.3438 344.548 30.1042V30.0886C344.548 28.849 344.736 27.7813 345.111 26.8855C345.486 25.9897 346.022 25.297 346.72 24.8074C347.418 24.3178 348.246 24.073 349.205 24.073C350.121 24.073 350.929 24.323 351.626 24.823C352.335 25.323 352.892 26.0261 353.298 26.9324C353.705 27.8282 353.908 28.8803 353.908 30.0886V30.1042C353.908 31.3126 353.705 32.3699 353.298 33.2761C352.903 34.1824 352.35 34.8855 351.642 35.3855C350.934 35.8855 350.121 36.1355 349.205 36.1355Z" fill="black"/>
<path d="M388.643 27.6199L373.174 21.698V24.1667L388.486 29.9011V28.323L373.174 34.0574V36.4636L388.643 30.5417V27.6199Z" fill="black"/>
<path d="M415.189 38.6042C416.762 38.6042 418.189 38.3126 419.471 37.7292C420.752 37.1459 421.82 36.323 422.674 35.2605C423.528 34.1876 424.096 32.9324 424.377 31.4949L424.408 31.3386H421.564L421.518 31.4792C421.195 32.4688 420.736 33.3022 420.143 33.9792C419.549 34.6459 418.835 35.1511 418.002 35.4949C417.179 35.8386 416.242 36.0105 415.189 36.0105C413.7 36.0105 412.398 35.6355 411.283 34.8855C410.169 34.1355 409.304 33.0834 408.689 31.7292C408.085 30.3647 407.783 28.7709 407.783 26.948V26.9324C407.783 25.099 408.085 23.5105 408.689 22.1667C409.304 20.8126 410.163 19.7657 411.268 19.0261C412.382 18.2761 413.689 17.9011 415.189 17.9011C416.252 17.9011 417.2 18.073 418.033 18.4167C418.867 18.7605 419.57 19.2553 420.143 19.9011C420.726 20.5365 421.163 21.3126 421.455 22.2292L421.564 22.573H424.408L424.377 22.4167C424.096 20.9897 423.523 19.7449 422.658 18.6824C421.804 17.6199 420.736 16.7917 419.455 16.198C418.174 15.6042 416.752 15.3074 415.189 15.3074C413.096 15.3074 411.278 15.7865 409.736 16.7449C408.195 17.6928 407.002 19.0365 406.158 20.7761C405.314 22.5157 404.893 24.5678 404.893 26.9324V26.948C404.893 29.3126 405.314 31.3699 406.158 33.1199C407.002 34.8595 408.195 36.2084 409.736 37.1667C411.288 38.1251 413.106 38.6042 415.189 38.6042ZM427.314 38.2292H430.033V28.198C430.033 27.3751 430.174 26.672 430.455 26.0886C430.747 25.4949 431.153 25.0417 431.674 24.7292C432.205 24.4167 432.82 24.2605 433.518 24.2605C433.851 24.2605 434.148 24.2761 434.408 24.3074C434.679 24.3386 434.867 24.3751 434.971 24.4167V21.7761C434.867 21.7553 434.715 21.7345 434.518 21.7136C434.33 21.6824 434.117 21.6667 433.877 21.6667C432.96 21.6667 432.169 21.9428 431.502 22.4949C430.835 23.047 430.367 23.7917 430.096 24.7292H430.033V21.9792H427.314V38.2292ZM442.736 38.5417C443.559 38.5417 444.294 38.4272 444.939 38.198C445.585 37.9688 446.137 37.6563 446.596 37.2605C447.064 36.8647 447.445 36.4167 447.736 35.9167H447.799V38.2292H450.518V21.9792H447.799V31.5417C447.799 32.2292 447.7 32.8595 447.502 33.4324C447.304 33.9949 447.018 34.4792 446.643 34.8855C446.268 35.2813 445.82 35.5886 445.299 35.8074C444.788 36.0261 444.21 36.1355 443.564 36.1355C442.314 36.1355 441.377 35.7865 440.752 35.0886C440.137 34.3803 439.83 33.3647 439.83 32.0417V21.9792H437.111V32.5261C437.111 33.7553 437.33 34.823 437.768 35.7292C438.215 36.6251 438.856 37.3178 439.689 37.8074C440.533 38.297 441.549 38.5417 442.736 38.5417ZM454.064 38.2292H456.783V28.0417C456.783 27.2813 456.945 26.6042 457.268 26.0105C457.59 25.4167 458.028 24.948 458.58 24.6042C459.143 24.2501 459.783 24.073 460.502 24.073C461.179 24.073 461.762 24.2084 462.252 24.4792C462.752 24.7501 463.137 25.1303 463.408 25.6199C463.689 26.1095 463.83 26.6824 463.83 27.3386V38.2292H466.549V27.9011C466.549 27.1615 466.705 26.5053 467.018 25.9324C467.33 25.349 467.762 24.8959 468.314 24.573C468.867 24.2397 469.502 24.073 470.221 24.073C470.939 24.073 471.549 24.2136 472.049 24.4949C472.549 24.7761 472.929 25.1824 473.189 25.7136C473.46 26.2449 473.596 26.8855 473.596 27.6355V38.2292H476.314V27.0105C476.314 25.9272 476.096 24.9897 475.658 24.198C475.221 23.3959 474.606 22.7761 473.814 22.3386C473.023 21.8907 472.09 21.6667 471.018 21.6667C470.257 21.6667 469.544 21.7917 468.877 22.0417C468.221 22.2917 467.637 22.6511 467.127 23.1199C466.627 23.5782 466.226 24.1355 465.924 24.7917H465.861C465.632 24.1251 465.299 23.5626 464.861 23.1042C464.424 22.6355 463.903 22.2813 463.299 22.0417C462.705 21.7917 462.038 21.6667 461.299 21.6667C460.257 21.6667 459.346 21.9167 458.564 22.4167C457.783 22.9063 457.21 23.5522 456.846 24.3542H456.783V21.9792H454.064V38.2292ZM487.861 38.5417C489.247 38.5417 490.455 38.198 491.486 37.5105C492.528 36.8126 493.335 35.8334 493.908 34.573C494.481 33.3022 494.768 31.8126 494.768 30.1042V30.0886C494.768 28.3803 494.476 26.8959 493.893 25.6355C493.32 24.3751 492.518 23.4011 491.486 22.7136C490.465 22.0157 489.273 21.6667 487.908 21.6667C487.148 21.6667 486.434 21.7917 485.768 22.0417C485.101 22.2813 484.507 22.6303 483.986 23.0886C483.476 23.5365 483.049 24.073 482.705 24.698H482.643V15.6824H479.924V38.2292H482.643V35.4792H482.705C483.049 36.1147 483.471 36.6615 483.971 37.1199C484.481 37.5678 485.064 37.9167 485.721 38.1667C486.377 38.4167 487.09 38.5417 487.861 38.5417ZM487.33 36.1355C486.413 36.1355 485.601 35.8855 484.893 35.3855C484.184 34.8855 483.627 34.1824 483.221 33.2761C482.825 32.3699 482.627 31.3126 482.627 30.1042V30.0886C482.627 28.8803 482.83 27.8282 483.236 26.9324C483.643 26.0261 484.195 25.323 484.893 24.823C485.601 24.323 486.413 24.073 487.33 24.073C488.288 24.073 489.117 24.3178 489.814 24.8074C490.512 25.297 491.049 25.9897 491.424 26.8855C491.799 27.7813 491.986 28.849 491.986 30.0886V30.1042C491.986 31.3438 491.799 32.4167 491.424 33.323C491.049 34.2292 490.512 34.9272 489.814 35.4167C489.117 35.8959 488.288 36.1355 487.33 36.1355Z" fill="black"/>
<rect x="0.239312" y="0.239312" width="514.617" height="53.9801" rx="4.54694" stroke="black" stroke-width="0.478625"/>
</svg>
