<svg width="510" height="55" viewBox="0 0 510 55" fill="none" xmlns="http://www.w3.org/2000/svg">
<rect x="0.239312" y="0.239312" width="508.617" height="53.9801" rx="4.54694" fill="#FF0400"/>
<path d="M22.1099 38.2292H29.2192C30.8234 38.2292 32.1932 37.9792 33.3286 37.4792C34.464 36.9688 35.3338 36.2449 35.938 35.3074C36.5526 34.3595 36.8599 33.224 36.8599 31.9011V31.8699C36.8599 30.8699 36.6515 29.9792 36.2349 29.198C35.8182 28.4063 35.2192 27.7605 34.438 27.2605C33.6567 26.7605 32.7244 26.448 31.6411 26.323V26.2605C32.4224 26.1459 33.1203 25.849 33.7349 25.3699C34.3494 24.8803 34.8338 24.2813 35.188 23.573C35.5422 22.8647 35.7192 22.1199 35.7192 21.3386V21.3074C35.7192 20.1824 35.4484 19.198 34.9067 18.3542C34.3651 17.5105 33.6099 16.8542 32.6411 16.3855C31.6724 15.9167 30.5422 15.6824 29.2505 15.6824H22.1099V18.1667H28.6099C29.9744 18.1667 31.0265 18.4636 31.7661 19.0574C32.5057 19.6407 32.8755 20.4897 32.8755 21.6042V21.6355C32.8755 22.8542 32.4328 23.7865 31.5474 24.4324C30.6724 25.0782 29.4015 25.4011 27.7349 25.4011H22.1099V27.823H28.5317C29.7297 27.823 30.7297 27.9688 31.5317 28.2605C32.3442 28.5522 32.9536 28.9897 33.3599 29.573C33.7661 30.1563 33.9692 30.8855 33.9692 31.7605V31.7917C33.9692 33.0834 33.5265 34.0678 32.6411 34.7449C31.7661 35.4115 30.4849 35.7449 28.7974 35.7449H22.1099V38.2292ZM20.7036 38.2292H23.5161V15.6824H20.7036V38.2292ZM39.6255 38.2292H42.3442V28.198C42.3442 27.3751 42.4849 26.672 42.7661 26.0886C43.0578 25.4949 43.464 25.0417 43.9849 24.7292C44.5161 24.4167 45.1307 24.2605 45.8286 24.2605C46.1619 24.2605 46.4588 24.2761 46.7192 24.3074C46.9901 24.3386 47.1776 24.3751 47.2817 24.4167V21.7761C47.1776 21.7553 47.0265 21.7345 46.8286 21.7136C46.6411 21.6824 46.4276 21.6667 46.188 21.6667C45.2713 21.6667 44.4797 21.9428 43.813 22.4949C43.1463 23.047 42.6776 23.7917 42.4067 24.7292H42.3442V21.9792H39.6255V38.2292ZM55.4067 38.5417C56.2922 38.5417 57.1151 38.422 57.8755 38.1824C58.6359 37.9324 59.313 37.5886 59.9067 37.1511C60.5005 36.7032 60.9849 36.1876 61.3599 35.6042C61.7453 35.0209 62.0057 34.3959 62.1411 33.7292L62.1724 33.573H59.5005L59.4536 33.7136C59.2974 34.1824 59.0369 34.599 58.6724 34.9636C58.3078 35.3282 57.8547 35.6147 57.313 35.823C56.7713 36.0313 56.1567 36.1355 55.4692 36.1355C54.4901 36.1355 53.6411 35.922 52.9224 35.4949C52.2036 35.0574 51.6463 34.4324 51.2505 33.6199C50.8651 32.8074 50.6724 31.8282 50.6724 30.6824V29.6355C50.6724 28.4272 50.8703 27.4115 51.2661 26.5886C51.6619 25.7553 52.2036 25.1303 52.8911 24.7136C53.5786 24.2865 54.3547 24.073 55.2192 24.073C56.0838 24.073 56.8494 24.2761 57.5161 24.6824C58.1828 25.0782 58.7036 25.6876 59.0786 26.5105C59.464 27.3334 59.6567 28.3751 59.6567 29.6355V30.6824L61.0317 28.7136H49.2817V30.8386H62.3755V29.8386C62.3755 28.2136 62.089 26.7865 61.5161 25.5574C60.9432 24.3282 60.1203 23.3751 59.0474 22.698C57.9849 22.0105 56.714 21.6667 55.2349 21.6667C53.7557 21.6667 52.4692 22.0261 51.3755 22.7449C50.2817 23.4532 49.4328 24.448 48.8286 25.7292C48.2244 27.0001 47.9224 28.474 47.9224 30.1511V30.1667C47.9224 31.8647 48.2192 33.3438 48.813 34.6042C49.4172 35.8542 50.2765 36.823 51.3911 37.5105C52.5161 38.198 53.8547 38.5417 55.4067 38.5417ZM69.8755 38.5417C70.6047 38.5417 71.2922 38.422 71.938 38.1824C72.5942 37.9324 73.1828 37.5886 73.7036 37.1511C74.2244 36.7032 74.6411 36.1824 74.9536 35.5886H75.0161V38.2292H77.7349V26.9949C77.7349 25.9115 77.4797 24.974 76.9692 24.1824C76.4588 23.3803 75.7349 22.7605 74.7974 22.323C73.8703 21.8855 72.7661 21.6667 71.4849 21.6667C70.214 21.6667 69.1151 21.8855 68.188 22.323C67.2609 22.7501 66.5317 23.3282 66.0005 24.0574C65.4797 24.7865 65.1776 25.599 65.0942 26.4949L65.0786 26.6667H67.7036L67.7349 26.5261C67.8911 25.797 68.2869 25.2084 68.9224 24.7605C69.5682 24.3022 70.4119 24.073 71.4536 24.073C72.589 24.073 73.464 24.3595 74.0786 24.9324C74.7036 25.4949 75.0161 26.2709 75.0161 27.2605V32.0574C75.0161 32.8386 74.813 33.5417 74.4067 34.1667C74.0109 34.7917 73.4692 35.2865 72.7817 35.6511C72.1047 36.0053 71.339 36.1824 70.4849 36.1824C69.5057 36.1824 68.7192 35.9532 68.1255 35.4949C67.5422 35.0365 67.2505 34.4167 67.2505 33.6355V33.6042C67.2505 32.8438 67.5474 32.2345 68.1411 31.7761C68.7453 31.3178 69.589 31.0574 70.6724 30.9949L76.3755 30.6511V28.5417L70.3599 28.8855C68.4953 28.9897 67.0474 29.4584 66.0161 30.2917C64.9849 31.1147 64.4692 32.2188 64.4692 33.6042V33.6355C64.4692 34.6147 64.6932 35.474 65.1411 36.2136C65.5994 36.9532 66.2349 37.5261 67.0474 37.9324C67.8599 38.3386 68.8026 38.5417 69.8755 38.5417ZM87.2974 38.5417C88.464 38.5417 89.4849 38.2709 90.3599 37.7292C91.2453 37.1772 91.9432 36.4272 92.4536 35.4792H92.5161V38.2292H95.2349V15.6824H92.5161V24.698H92.4536C91.9432 23.7605 91.2349 23.0209 90.3286 22.4792C89.4224 21.9376 88.3963 21.6667 87.2505 21.6667C85.8963 21.6667 84.7036 22.0157 83.6724 22.7136C82.6411 23.4011 81.8338 24.3751 81.2505 25.6355C80.6776 26.8959 80.3911 28.3803 80.3911 30.0886V30.1042C80.3911 31.8126 80.6776 33.3022 81.2505 34.573C81.8234 35.8334 82.6255 36.8126 83.6567 37.5105C84.6984 38.198 85.9119 38.5417 87.2974 38.5417ZM87.8286 36.1355C86.8703 36.1355 86.0422 35.8959 85.3442 35.4167C84.6463 34.9272 84.1099 34.2292 83.7349 33.323C83.3599 32.4167 83.1724 31.3438 83.1724 30.1042V30.0886C83.1724 28.849 83.3599 27.7813 83.7349 26.8855C84.1099 25.9897 84.6463 25.297 85.3442 24.8074C86.0422 24.3178 86.8703 24.073 87.8286 24.073C88.7453 24.073 89.5526 24.323 90.2505 24.823C90.9588 25.323 91.5161 26.0261 91.9224 26.9324C92.3286 27.8282 92.5317 28.8803 92.5317 30.0886V30.1042C92.5317 31.3126 92.3286 32.3699 91.9224 33.2761C91.5265 34.1824 90.9744 34.8855 90.2661 35.3855C89.5578 35.8855 88.7453 36.1355 87.8286 36.1355Z" fill="black"/>
<path d="M127.266 27.6199L111.797 21.698V24.1667L127.11 29.9011V28.323L111.797 34.0574V36.4636L127.266 30.5417V27.6199Z" fill="black"/>
<path d="M153.813 38.6042C155.386 38.6042 156.813 38.3126 158.095 37.7292C159.376 37.1459 160.444 36.323 161.298 35.2605C162.152 34.1876 162.72 32.9324 163.001 31.4949L163.032 31.3386H160.188L160.142 31.4792C159.819 32.4688 159.36 33.3022 158.767 33.9792C158.173 34.6459 157.459 35.1511 156.626 35.4949C155.803 35.8386 154.866 36.0105 153.813 36.0105C152.324 36.0105 151.022 35.6355 149.907 34.8855C148.793 34.1355 147.928 33.0834 147.313 31.7292C146.709 30.3647 146.407 28.7709 146.407 26.948V26.9324C146.407 25.099 146.709 23.5105 147.313 22.1667C147.928 20.8126 148.787 19.7657 149.892 19.0261C151.006 18.2761 152.313 17.9011 153.813 17.9011C154.876 17.9011 155.824 18.073 156.657 18.4167C157.491 18.7605 158.194 19.2553 158.767 19.9011C159.35 20.5365 159.787 21.3126 160.079 22.2292L160.188 22.573H163.032L163.001 22.4167C162.72 20.9897 162.147 19.7449 161.282 18.6824C160.428 17.6199 159.36 16.7917 158.079 16.198C156.798 15.6042 155.376 15.3074 153.813 15.3074C151.72 15.3074 149.902 15.7865 148.36 16.7449C146.819 17.6928 145.626 19.0365 144.782 20.7761C143.938 22.5157 143.517 24.5678 143.517 26.9324V26.948C143.517 29.3126 143.938 31.3699 144.782 33.1199C145.626 34.8595 146.819 36.2084 148.36 37.1667C149.912 38.1251 151.73 38.6042 153.813 38.6042ZM165.938 38.2292H168.657V28.198C168.657 27.3751 168.798 26.672 169.079 26.0886C169.371 25.4949 169.777 25.0417 170.298 24.7292C170.829 24.4167 171.444 24.2605 172.142 24.2605C172.475 24.2605 172.772 24.2761 173.032 24.3074C173.303 24.3386 173.491 24.3751 173.595 24.4167V21.7761C173.491 21.7553 173.34 21.7345 173.142 21.7136C172.954 21.6824 172.741 21.6667 172.501 21.6667C171.584 21.6667 170.793 21.9428 170.126 22.4949C169.459 23.047 168.991 23.7917 168.72 24.7292H168.657V21.9792H165.938V38.2292ZM181.36 38.5417C182.6 38.5417 183.631 38.297 184.454 37.8074C185.287 37.3074 185.923 36.6772 186.36 35.9167H186.423V38.2292H189.142V21.9792H186.423V31.5417C186.423 32.4584 186.246 33.2657 185.892 33.9636C185.548 34.6511 185.058 35.1876 184.423 35.573C183.787 35.948 183.043 36.1355 182.188 36.1355C180.938 36.1355 180.001 35.7865 179.376 35.0886C178.761 34.3803 178.454 33.3647 178.454 32.0417V21.9792H175.735V32.5261C175.735 33.7553 175.954 34.823 176.392 35.7292C176.84 36.6251 177.48 37.3178 178.313 37.8074C179.157 38.297 180.173 38.5417 181.36 38.5417ZM192.688 38.2292H195.407V28.0417C195.407 27.2813 195.569 26.6042 195.892 26.0105C196.215 25.4167 196.652 24.948 197.204 24.6042C197.767 24.2501 198.407 24.073 199.126 24.073C200.136 24.073 200.944 24.3699 201.548 24.9636C202.152 25.5574 202.454 26.349 202.454 27.3386V38.2292H205.173V27.9011C205.173 27.1615 205.329 26.5053 205.642 25.9324C205.954 25.349 206.386 24.8959 206.938 24.573C207.491 24.2397 208.126 24.073 208.845 24.073C209.918 24.073 210.746 24.3907 211.329 25.0261C211.923 25.6511 212.22 26.5209 212.22 27.6355V38.2292H214.938V27.0105C214.938 25.9272 214.72 24.9897 214.282 24.198C213.845 23.3959 213.23 22.7761 212.438 22.3386C211.647 21.8907 210.715 21.6667 209.642 21.6667C208.881 21.6667 208.168 21.7917 207.501 22.0417C206.845 22.2917 206.261 22.6511 205.751 23.1199C205.251 23.5782 204.85 24.1355 204.548 24.7917H204.485C204.256 24.1251 203.923 23.5626 203.485 23.1042C203.048 22.6355 202.527 22.2813 201.923 22.0417C201.329 21.7917 200.662 21.6667 199.923 21.6667C198.881 21.6667 197.97 21.9167 197.188 22.4167C196.407 22.9063 195.834 23.5522 195.47 24.3542H195.407V21.9792H192.688V38.2292ZM224.173 38.5417C225.381 38.5417 226.459 38.3386 227.407 37.9324C228.366 37.5157 229.116 36.9428 229.657 36.2136C230.209 35.4845 230.485 34.6459 230.485 33.698V33.6824C230.485 32.5261 230.152 31.6042 229.485 30.9167C228.819 30.2188 227.662 29.672 226.017 29.2761L223.438 28.6511C222.543 28.4324 221.897 28.1303 221.501 27.7449C221.105 27.3595 220.907 26.8907 220.907 26.3386V26.323C220.907 25.8438 221.032 25.4272 221.282 25.073C221.543 24.7084 221.912 24.4272 222.392 24.2292C222.871 24.0313 223.438 23.9324 224.095 23.9324C225.105 23.9324 225.902 24.172 226.485 24.6511C227.079 25.1303 227.428 25.7657 227.532 26.5574L227.548 26.6667H230.142L230.126 26.4636C230.063 25.5574 229.777 24.7449 229.267 24.0261C228.767 23.297 228.074 22.724 227.188 22.3074C226.313 21.8803 225.282 21.6667 224.095 21.6667C222.928 21.6667 221.892 21.8699 220.985 22.2761C220.09 22.6824 219.386 23.2449 218.876 23.9636C218.376 24.6824 218.126 25.5105 218.126 26.448V26.4636C218.126 27.6303 218.501 28.5834 219.251 29.323C220.001 30.0522 221.142 30.599 222.673 30.9636L225.251 31.5886C226.178 31.8178 226.819 32.1095 227.173 32.4636C227.527 32.8178 227.704 33.2865 227.704 33.8699V33.8855C227.704 34.3751 227.563 34.8022 227.282 35.1667C227.001 35.5209 226.6 35.797 226.079 35.9949C225.558 36.1824 224.928 36.2761 224.188 36.2761C223.084 36.2761 222.225 36.0522 221.61 35.6042C220.996 35.1459 220.605 34.5105 220.438 33.698L220.407 33.5417H217.688L217.704 33.6824C217.819 34.6511 218.142 35.5001 218.673 36.2292C219.215 36.9584 219.949 37.5261 220.876 37.9324C221.803 38.3386 222.902 38.5417 224.173 38.5417Z" fill="black"/>
<path d="M261.954 27.6199L246.485 21.698V24.1667L261.798 29.9011V28.323L246.485 34.0574V36.4636L261.954 30.5417V27.6199Z" fill="black"/>
<path d="M280.486 38.2292H287.595C289.199 38.2292 290.569 37.9792 291.705 37.4792C292.84 36.9688 293.71 36.2449 294.314 35.3074C294.929 34.3595 295.236 33.224 295.236 31.9011V31.8699C295.236 30.8699 295.028 29.9792 294.611 29.198C294.194 28.4063 293.595 27.7605 292.814 27.2605C292.033 26.7605 291.1 26.448 290.017 26.323V26.2605C290.798 26.1459 291.496 25.849 292.111 25.3699C292.725 24.8803 293.21 24.2813 293.564 23.573C293.918 22.8647 294.095 22.1199 294.095 21.3386V21.3074C294.095 20.1824 293.824 19.198 293.283 18.3542C292.741 17.5105 291.986 16.8542 291.017 16.3855C290.048 15.9167 288.918 15.6824 287.626 15.6824H280.486V18.1667H286.986C288.35 18.1667 289.403 18.4636 290.142 19.0574C290.882 19.6407 291.251 20.4897 291.251 21.6042V21.6355C291.251 22.8542 290.809 23.7865 289.923 24.4324C289.048 25.0782 287.778 25.4011 286.111 25.4011H280.486V27.823H286.908C288.106 27.823 289.106 27.9688 289.908 28.2605C290.72 28.5522 291.33 28.9897 291.736 29.573C292.142 30.1563 292.345 30.8855 292.345 31.7605V31.7917C292.345 33.0834 291.903 34.0678 291.017 34.7449C290.142 35.4115 288.861 35.7449 287.173 35.7449H280.486V38.2292ZM279.08 38.2292H281.892V15.6824H279.08V38.2292ZM298.001 38.2292H300.72V28.198C300.72 27.3751 300.861 26.672 301.142 26.0886C301.434 25.4949 301.84 25.0417 302.361 24.7292C302.892 24.4167 303.507 24.2605 304.205 24.2605C304.538 24.2605 304.835 24.2761 305.095 24.3074C305.366 24.3386 305.554 24.3751 305.658 24.4167V21.7761C305.554 21.7553 305.403 21.7345 305.205 21.7136C305.017 21.6824 304.804 21.6667 304.564 21.6667C303.647 21.6667 302.856 21.9428 302.189 22.4949C301.522 23.047 301.054 23.7917 300.783 24.7292H300.72V21.9792H298.001V38.2292ZM313.783 38.5417C314.668 38.5417 315.491 38.422 316.251 38.1824C317.012 37.9324 317.689 37.5886 318.283 37.1511C318.876 36.7032 319.361 36.1876 319.736 35.6042C320.121 35.0209 320.382 34.3959 320.517 33.7292L320.548 33.573H317.876L317.83 33.7136C317.673 34.1824 317.413 34.599 317.048 34.9636C316.684 35.3282 316.231 35.6147 315.689 35.823C315.147 36.0313 314.533 36.1355 313.845 36.1355C312.866 36.1355 312.017 35.922 311.298 35.4949C310.58 35.0574 310.022 34.4324 309.626 33.6199C309.241 32.8074 309.048 31.8282 309.048 30.6824V29.6355C309.048 28.4272 309.246 27.4115 309.642 26.5886C310.038 25.7553 310.58 25.1303 311.267 24.7136C311.955 24.2865 312.731 24.073 313.595 24.073C314.46 24.073 315.225 24.2761 315.892 24.6824C316.559 25.0782 317.08 25.6876 317.455 26.5105C317.84 27.3334 318.033 28.3751 318.033 29.6355V30.6824L319.408 28.7136H307.658V30.8386H320.751V29.8386C320.751 28.2136 320.465 26.7865 319.892 25.5574C319.319 24.3282 318.496 23.3751 317.423 22.698C316.361 22.0105 315.09 21.6667 313.611 21.6667C312.132 21.6667 310.845 22.0261 309.751 22.7449C308.658 23.4532 307.809 24.448 307.205 25.7292C306.6 27.0001 306.298 28.474 306.298 30.1511V30.1667C306.298 31.8647 306.595 33.3438 307.189 34.6042C307.793 35.8542 308.653 36.823 309.767 37.5105C310.892 38.198 312.231 38.5417 313.783 38.5417ZM328.251 38.5417C328.981 38.5417 329.668 38.422 330.314 38.1824C330.97 37.9324 331.559 37.5886 332.08 37.1511C332.6 36.7032 333.017 36.1824 333.33 35.5886H333.392V38.2292H336.111V26.9949C336.111 25.9115 335.856 24.974 335.345 24.1824C334.835 23.3803 334.111 22.7605 333.173 22.323C332.246 21.8855 331.142 21.6667 329.861 21.6667C328.59 21.6667 327.491 21.8855 326.564 22.323C325.637 22.7501 324.908 23.3282 324.376 24.0574C323.856 24.7865 323.554 25.599 323.47 26.4949L323.455 26.6667H326.08L326.111 26.5261C326.267 25.797 326.663 25.2084 327.298 24.7605C327.944 24.3022 328.788 24.073 329.83 24.073C330.965 24.073 331.84 24.3595 332.455 24.9324C333.08 25.4949 333.392 26.2709 333.392 27.2605V32.0574C333.392 32.8386 333.189 33.5417 332.783 34.1667C332.387 34.7917 331.845 35.2865 331.158 35.6511C330.481 36.0053 329.715 36.1824 328.861 36.1824C327.882 36.1824 327.095 35.9532 326.501 35.4949C325.918 35.0365 325.626 34.4167 325.626 33.6355V33.6042C325.626 32.8438 325.923 32.2345 326.517 31.7761C327.121 31.3178 327.965 31.0574 329.048 30.9949L334.751 30.6511V28.5417L328.736 28.8855C326.871 28.9897 325.423 29.4584 324.392 30.2917C323.361 31.1147 322.845 32.2188 322.845 33.6042V33.6355C322.845 34.6147 323.069 35.474 323.517 36.2136C323.975 36.9532 324.611 37.5261 325.423 37.9324C326.236 38.3386 327.179 38.5417 328.251 38.5417ZM345.673 38.5417C346.84 38.5417 347.861 38.2709 348.736 37.7292C349.621 37.1772 350.319 36.4272 350.83 35.4792H350.892V38.2292H353.611V15.6824H350.892V24.698H350.83C350.319 23.7605 349.611 23.0209 348.705 22.4792C347.798 21.9376 346.772 21.6667 345.626 21.6667C344.272 21.6667 343.08 22.0157 342.048 22.7136C341.017 23.4011 340.21 24.3751 339.626 25.6355C339.054 26.8959 338.767 28.3803 338.767 30.0886V30.1042C338.767 31.8126 339.054 33.3022 339.626 34.573C340.199 35.8334 341.001 36.8126 342.033 37.5105C343.074 38.198 344.288 38.5417 345.673 38.5417ZM346.205 36.1355C345.246 36.1355 344.418 35.8959 343.72 35.4167C343.022 34.9272 342.486 34.2292 342.111 33.323C341.736 32.4167 341.548 31.3438 341.548 30.1042V30.0886C341.548 28.849 341.736 27.7813 342.111 26.8855C342.486 25.9897 343.022 25.297 343.72 24.8074C344.418 24.3178 345.246 24.073 346.205 24.073C347.121 24.073 347.929 24.323 348.626 24.823C349.335 25.323 349.892 26.0261 350.298 26.9324C350.705 27.8282 350.908 28.8803 350.908 30.0886V30.1042C350.908 31.3126 350.705 32.3699 350.298 33.2761C349.903 34.1824 349.35 34.8855 348.642 35.3855C347.934 35.8855 347.121 36.1355 346.205 36.1355Z" fill="black"/>
<path d="M385.643 27.6199L370.174 21.698V24.1667L385.486 29.9011V28.323L370.174 34.0574V36.4636L385.643 30.5417V27.6199Z" fill="black"/>
<path d="M412.189 38.6042C413.762 38.6042 415.189 38.3126 416.471 37.7292C417.752 37.1459 418.82 36.323 419.674 35.2605C420.528 34.1876 421.096 32.9324 421.377 31.4949L421.408 31.3386H418.564L418.518 31.4792C418.195 32.4688 417.736 33.3022 417.143 33.9792C416.549 34.6459 415.835 35.1511 415.002 35.4949C414.179 35.8386 413.242 36.0105 412.189 36.0105C410.7 36.0105 409.398 35.6355 408.283 34.8855C407.169 34.1355 406.304 33.0834 405.689 31.7292C405.085 30.3647 404.783 28.7709 404.783 26.948V26.9324C404.783 25.099 405.085 23.5105 405.689 22.1667C406.304 20.8126 407.163 19.7657 408.268 19.0261C409.382 18.2761 410.689 17.9011 412.189 17.9011C413.252 17.9011 414.2 18.073 415.033 18.4167C415.867 18.7605 416.57 19.2553 417.143 19.9011C417.726 20.5365 418.163 21.3126 418.455 22.2292L418.564 22.573H421.408L421.377 22.4167C421.096 20.9897 420.523 19.7449 419.658 18.6824C418.804 17.6199 417.736 16.7917 416.455 16.198C415.174 15.6042 413.752 15.3074 412.189 15.3074C410.096 15.3074 408.278 15.7865 406.736 16.7449C405.195 17.6928 404.002 19.0365 403.158 20.7761C402.314 22.5157 401.893 24.5678 401.893 26.9324V26.948C401.893 29.3126 402.314 31.3699 403.158 33.1199C404.002 34.8595 405.195 36.2084 406.736 37.1667C408.288 38.1251 410.106 38.6042 412.189 38.6042ZM424.314 38.2292H427.033V28.198C427.033 27.3751 427.174 26.672 427.455 26.0886C427.747 25.4949 428.153 25.0417 428.674 24.7292C429.205 24.4167 429.82 24.2605 430.518 24.2605C430.851 24.2605 431.148 24.2761 431.408 24.3074C431.679 24.3386 431.867 24.3751 431.971 24.4167V21.7761C431.867 21.7553 431.715 21.7345 431.518 21.7136C431.33 21.6824 431.117 21.6667 430.877 21.6667C429.96 21.6667 429.169 21.9428 428.502 22.4949C427.835 23.047 427.367 23.7917 427.096 24.7292H427.033V21.9792H424.314V38.2292ZM439.736 38.5417C440.976 38.5417 442.007 38.297 442.83 37.8074C443.663 37.3074 444.299 36.6772 444.736 35.9167H444.799V38.2292H447.518V21.9792H444.799V31.5417C444.799 32.4584 444.622 33.2657 444.268 33.9636C443.924 34.6511 443.434 35.1876 442.799 35.573C442.163 35.948 441.419 36.1355 440.564 36.1355C439.314 36.1355 438.377 35.7865 437.752 35.0886C437.137 34.3803 436.83 33.3647 436.83 32.0417V21.9792H434.111V32.5261C434.111 33.7553 434.33 34.823 434.768 35.7292C435.215 36.6251 435.856 37.3178 436.689 37.8074C437.533 38.297 438.549 38.5417 439.736 38.5417ZM451.064 38.2292H453.783V28.0417C453.783 27.2813 453.945 26.6042 454.268 26.0105C454.59 25.4167 455.028 24.948 455.58 24.6042C456.143 24.2501 456.783 24.073 457.502 24.073C458.512 24.073 459.32 24.3699 459.924 24.9636C460.528 25.5574 460.83 26.349 460.83 27.3386V38.2292H463.549V27.9011C463.549 27.1615 463.705 26.5053 464.018 25.9324C464.33 25.349 464.762 24.8959 465.314 24.573C465.867 24.2397 466.502 24.073 467.221 24.073C468.294 24.073 469.122 24.3907 469.705 25.0261C470.299 25.6511 470.596 26.5209 470.596 27.6355V38.2292H473.314V27.0105C473.314 25.9272 473.096 24.9897 472.658 24.198C472.221 23.3959 471.606 22.7761 470.814 22.3386C470.023 21.8907 469.09 21.6667 468.018 21.6667C467.257 21.6667 466.544 21.7917 465.877 22.0417C465.221 22.2917 464.637 22.6511 464.127 23.1199C463.627 23.5782 463.226 24.1355 462.924 24.7917H462.861C462.632 24.1251 462.299 23.5626 461.861 23.1042C461.424 22.6355 460.903 22.2813 460.299 22.0417C459.705 21.7917 459.038 21.6667 458.299 21.6667C457.257 21.6667 456.346 21.9167 455.564 22.4167C454.783 22.9063 454.21 23.5522 453.846 24.3542H453.783V21.9792H451.064V38.2292ZM482.549 38.5417C483.757 38.5417 484.835 38.3386 485.783 37.9324C486.742 37.5157 487.492 36.9428 488.033 36.2136C488.585 35.4845 488.861 34.6459 488.861 33.698V33.6824C488.861 32.5261 488.528 31.6042 487.861 30.9167C487.195 30.2188 486.038 29.672 484.393 29.2761L481.814 28.6511C480.919 28.4324 480.273 28.1303 479.877 27.7449C479.481 27.3595 479.283 26.8907 479.283 26.3386V26.323C479.283 25.8438 479.408 25.4272 479.658 25.073C479.919 24.7084 480.288 24.4272 480.768 24.2292C481.247 24.0313 481.814 23.9324 482.471 23.9324C483.481 23.9324 484.278 24.172 484.861 24.6511C485.455 25.1303 485.804 25.7657 485.908 26.5574L485.924 26.6667H488.518L488.502 26.4636C488.439 25.5574 488.153 24.7449 487.643 24.0261C487.143 23.297 486.45 22.724 485.564 22.3074C484.689 21.8803 483.658 21.6667 482.471 21.6667C481.304 21.6667 480.268 21.8699 479.361 22.2761C478.465 22.6824 477.762 23.2449 477.252 23.9636C476.752 24.6824 476.502 25.5105 476.502 26.448V26.4636C476.502 27.6303 476.877 28.5834 477.627 29.323C478.377 30.0522 479.518 30.599 481.049 30.9636L483.627 31.5886C484.554 31.8178 485.195 32.1095 485.549 32.4636C485.903 32.8178 486.08 33.2865 486.08 33.8699V33.8855C486.08 34.3751 485.939 34.8022 485.658 35.1667C485.377 35.5209 484.976 35.797 484.455 35.9949C483.934 36.1824 483.304 36.2761 482.564 36.2761C481.46 36.2761 480.601 36.0522 479.986 35.6042C479.372 35.1459 478.981 34.5105 478.814 33.698L478.783 33.5417H476.064L476.08 33.6824C476.195 34.6511 476.518 35.5001 477.049 36.2292C477.59 36.9584 478.325 37.5261 479.252 37.9324C480.179 38.3386 481.278 38.5417 482.549 38.5417Z" fill="black"/>
<rect x="0.239312" y="0.239312" width="508.617" height="53.9801" rx="4.54694" stroke="black" stroke-width="0.478625"/>
</svg>
