<svg width="516" height="68" viewBox="0 0 516 68" fill="none" xmlns="http://www.w3.org/2000/svg">
<rect x="0.375" y="0.375" width="515.25" height="67.25" rx="9.625" fill="#00B026"/>
<path d="M217.094 45H224.203C225.807 45 227.177 44.75 228.312 44.25C229.448 43.7396 230.318 43.0156 230.922 42.0781C231.536 41.1302 231.844 39.9948 231.844 38.6719V38.6406C231.844 37.6406 231.635 36.75 231.219 35.9688C230.802 35.1771 230.203 34.5312 229.422 34.0312C228.641 33.5312 227.708 33.2188 226.625 33.0938V33.0312C227.406 32.9167 228.104 32.6198 228.719 32.1406C229.333 31.651 229.818 31.0521 230.172 30.3438C230.526 29.6354 230.703 28.8906 230.703 28.1094V28.0781C230.703 26.9531 230.432 25.9688 229.891 25.125C229.349 24.2812 228.594 23.625 227.625 23.1562C226.656 22.6875 225.526 22.4531 224.234 22.4531H217.094V24.9375H223.594C224.958 24.9375 226.01 25.2344 226.75 25.8281C227.49 26.4115 227.859 27.2604 227.859 28.375V28.4062C227.859 29.625 227.417 30.5573 226.531 31.2031C225.656 31.849 224.385 32.1719 222.719 32.1719H217.094V34.5938H223.516C224.714 34.5938 225.714 34.7396 226.516 35.0312C227.328 35.3229 227.938 35.7604 228.344 36.3438C228.75 36.9271 228.953 37.6562 228.953 38.5312V38.5625C228.953 39.8542 228.51 40.8385 227.625 41.5156C226.75 42.1823 225.469 42.5156 223.781 42.5156H217.094V45ZM215.688 45H218.5V22.4531H215.688V45ZM240.156 45.3125C240.979 45.3125 241.714 45.1979 242.359 44.9688C243.005 44.7396 243.557 44.4271 244.016 44.0312C244.484 43.6354 244.865 43.1875 245.156 42.6875H245.219V45H247.938V28.75H245.219V38.3125C245.219 39 245.12 39.6302 244.922 40.2031C244.724 40.7656 244.438 41.25 244.062 41.6562C243.688 42.0521 243.24 42.3594 242.719 42.5781C242.208 42.7969 241.63 42.9062 240.984 42.9062C239.734 42.9062 238.797 42.5573 238.172 41.8594C237.557 41.151 237.25 40.1354 237.25 38.8125V28.75H234.531V39.2969C234.531 40.526 234.75 41.5938 235.188 42.5C235.635 43.3958 236.276 44.0885 237.109 44.5781C237.953 45.0677 238.969 45.3125 240.156 45.3125ZM256.766 45.3125C257.036 45.3125 257.302 45.2969 257.562 45.2656C257.833 45.2448 258.052 45.224 258.219 45.2031V43C258.104 43.0104 257.969 43.026 257.812 43.0469C257.667 43.0573 257.51 43.0625 257.344 43.0625C256.615 43.0625 256.062 42.9115 255.688 42.6094C255.312 42.2969 255.125 41.7083 255.125 40.8438V31H258.219V28.75H255.125V24.3594H252.312V28.75H249.938V31H252.312V40.8594C252.312 42.4115 252.682 43.5417 253.422 44.25C254.161 44.9583 255.276 45.3125 256.766 45.3125ZM266.422 45.3125C266.693 45.3125 266.958 45.2969 267.219 45.2656C267.49 45.2448 267.708 45.224 267.875 45.2031V43C267.76 43.0104 267.625 43.026 267.469 43.0469C267.323 43.0573 267.167 43.0625 267 43.0625C266.271 43.0625 265.719 42.9115 265.344 42.6094C264.969 42.2969 264.781 41.7083 264.781 40.8438V31L267.875 31V28.75L264.781 28.75V24.3594H261.969V28.75H259.594V31H261.969V40.8594C261.969 42.4115 262.339 43.5417 263.078 44.25C263.818 44.9583 264.932 45.3125 266.422 45.3125ZM277.062 45.3125C278.562 45.3125 279.875 44.9688 281 44.2812C282.125 43.5938 283 42.6198 283.625 41.3594C284.26 40.099 284.578 38.6042 284.578 36.875V36.8438C284.578 35.1146 284.26 33.625 283.625 32.375C283 31.1146 282.12 30.1458 280.984 29.4687C279.859 28.7812 278.547 28.4375 277.047 28.4375C275.557 28.4375 274.245 28.7812 273.109 29.4687C271.984 30.1458 271.104 31.1146 270.469 32.375C269.844 33.625 269.531 35.1146 269.531 36.8438V36.875C269.531 38.5938 269.844 40.0885 270.469 41.3594C271.104 42.6198 271.984 43.5938 273.109 44.2812C274.245 44.9688 275.562 45.3125 277.062 45.3125ZM277.078 42.9062C276.12 42.9062 275.281 42.6719 274.562 42.2031C273.854 41.724 273.302 41.0365 272.906 40.1406C272.51 39.2344 272.312 38.1458 272.312 36.875V36.8438C272.312 35.5729 272.51 34.4948 272.906 33.6094C273.302 32.7135 273.854 32.0312 274.562 31.5625C275.281 31.0833 276.109 30.8437 277.047 30.8437C278.005 30.8437 278.839 31.0781 279.547 31.5469C280.266 32.0156 280.818 32.6979 281.203 33.5938C281.599 34.4896 281.797 35.5729 281.797 36.8438V36.875C281.797 38.1458 281.599 39.2344 281.203 40.1406C280.818 41.0365 280.271 41.724 279.562 42.2031C278.865 42.6719 278.036 42.9062 277.078 42.9062ZM287.328 45H290.047V35.4375C290.047 34.5104 290.219 33.7031 290.562 33.0156C290.917 32.3281 291.411 31.7969 292.047 31.4219C292.682 31.0365 293.427 30.8437 294.281 30.8437C295.531 30.8437 296.464 31.1979 297.078 31.9062C297.703 32.6042 298.016 33.6146 298.016 34.9375V45H300.734V34.4531C300.734 32.599 300.24 31.1354 299.25 30.0625C298.271 28.9792 296.891 28.4375 295.109 28.4375C293.88 28.4375 292.849 28.6875 292.016 29.1875C291.182 29.6771 290.547 30.3021 290.109 31.0625H290.047V28.75H287.328V45Z" fill="black"/>
<rect x="0.375" y="0.375" width="515.25" height="67.25" rx="9.625" stroke="black" stroke-width="0.75"/>
</svg>
