<svg width="375" height="106" viewBox="0 0 375 106" fill="none" xmlns="http://www.w3.org/2000/svg">
<path d="M0.999969 92.4115C0.999969 95.888 2.4265 99.0344 4.73474 101.313C7.04298 103.589 10.2303 105 13.7519 105H279.523C286.566 105 292.272 99.3644 292.272 92.4141C292.272 88.9376 290.846 85.7912 288.537 83.5125C286.229 81.2364 283.042 79.8256 279.52 79.8256H243.881C239.899 79.8256 236.669 76.6376 236.669 72.7064C236.669 68.7753 239.899 65.5872 243.881 65.5872H322.579C329.622 65.5872 335.328 59.9516 335.328 53.0013C335.328 49.5248 333.902 46.3784 331.594 44.0997C329.285 41.8236 326.098 40.4128 322.577 40.4128H298.12C294.138 40.4128 290.909 37.2248 290.909 33.2936C290.909 29.3625 294.138 26.1744 298.12 26.1744H361.251C368.291 26.1744 374 20.5388 374 13.5859C374 10.112 372.573 6.96557 370.265 4.68691C367.957 2.40825 364.77 1 361.251 1H132.788C125.745 1 120.039 6.6356 120.039 13.5859C120.039 17.0624 121.465 20.2088 123.773 22.4875C126.082 24.7636 129.269 26.1744 132.791 26.1744H207.307C211.289 26.1744 214.518 29.3625 214.518 33.2936C214.518 37.2248 211.289 40.4128 207.307 40.4128H154.007C146.964 40.4128 141.258 46.0484 141.258 52.9987C141.258 56.4752 142.684 59.6216 144.992 61.9003C147.301 64.1764 150.488 65.5872 154.009 65.5872H183.585C187.567 65.5872 190.797 68.7753 190.797 72.7064C190.797 76.6376 187.567 79.8256 183.585 79.8256H13.7545C6.71134 79.8256 1.00522 85.4612 1.00522 92.4115H0.999969Z" fill="white" stroke="black" stroke-width="0.5" stroke-linecap="round" stroke-linejoin="round"/>
</svg>
