<svg width="550" height="200" viewBox="0 0 550 200" fill="none" xmlns="http://www.w3.org/2000/svg">
<path d="M544.517 69.9162C542.128 69.0912 539.795 68.2672 537.412 67.3582C537.956 66.8862 538.477 66.3792 538.988 65.8819C539.227 65.6488 539.464 65.4179 539.7 65.1937L539.701 65.1929L542.422 62.5964L542.422 62.5962L547.864 57.4106L547.871 57.4044L547.877 57.3978L553.063 51.9557L553.063 51.9555L555.66 49.2345L555.66 49.2337C555.871 49.0115 556.086 48.7893 556.302 48.5658C556.956 47.8878 557.623 47.1974 558.233 46.4575L563.151 40.7697L563.152 40.7685C563.573 40.2771 564.001 39.7876 564.431 39.2966C565.652 37.8996 566.884 36.4904 568.001 34.9915L572.663 29.0791L572.663 29.0789L574.995 26.1247L575.001 26.1171L575.007 26.1092L576.823 23.5465C577.964 25.8129 579.096 28.1046 580.201 30.4158C581.315 32.7452 582.328 35.0345 583.362 37.3711C583.437 37.5396 583.512 37.7083 583.587 37.8773C585.808 42.9004 587.955 48.0271 590.026 53.2576L590.027 53.2592C592.138 58.5209 593.962 63.7146 595.773 69.0615C597.519 74.2183 599.143 79.4341 600.721 84.7584C598.142 84.3115 595.507 83.7716 592.907 83.2371C590.111 82.6624 587.33 82.0565 584.573 81.4273C579.068 80.1691 573.645 78.8228 568.301 77.3887C562.874 75.8351 557.535 74.2194 552.284 72.5416C549.66 71.6874 547.071 70.8124 544.519 69.9168L544.517 69.9162Z" fill="#FFD600" stroke="black" stroke-width="0.75"/>
<path d="M516.762 119.313C526.655 124.513 536.676 129.007 547.178 133.342C547.168 133.203 547.158 133.063 547.147 132.924M516.762 119.313L545.863 116.53C546.205 119.344 546.524 122.182 546.82 125.043C547.1 127.761 547.339 130.441 547.535 133.084C547.406 133.03 547.277 132.977 547.147 132.924M516.762 119.313C511.786 116.721 506.92 114.07 502.161 111.359L516.762 119.313ZM547.147 132.924C536.715 128.613 526.761 124.145 516.937 118.981L516.936 118.98C511.964 116.391 507.101 113.742 502.347 111.034C500.019 109.707 497.589 108.255 495.228 106.81C493.043 105.473 490.911 104.123 488.757 102.752M547.147 132.924C546.954 130.345 546.72 127.731 546.447 125.082C546.151 122.223 545.833 119.387 545.491 116.575L545.491 116.573C544.839 110.944 543.992 105.344 543.16 99.9095C542.33 94.4863 541.213 88.9674 540.054 83.5269M488.757 102.752L536.748 67.8569C536.643 67.951 536.538 68.0449 536.433 68.1388M488.757 102.752C505.78 92.8595 521.754 81.2621 536.433 68.1388M488.757 102.752L536.433 68.1388M540.054 83.5269L540.421 83.4481L540.054 83.5261C540.054 83.5263 540.054 83.5266 540.054 83.5269ZM540.054 83.5269C538.934 78.3207 537.726 73.1914 536.433 68.1388" fill="black" stroke="black" stroke-width="0.75"/>
<path d="M458.09 149.127L458.09 149.127C455.941 147.371 453.818 145.601 451.721 143.814L451.72 143.813C449.635 142.046 447.532 140.137 445.511 138.287L445.509 138.285C441.523 134.688 437.677 131.058 433.969 127.394C452.666 121.259 470.682 113.22 487.735 103.402C487.971 108.654 488.112 113.963 488.157 119.331C488.157 124.812 488.002 130.318 487.753 135.904C487.629 138.701 487.481 141.505 487.295 144.324L487.007 148.557L487.007 148.56L486.845 150.683L486.643 152.77C486.643 152.77 486.643 152.77 486.643 152.77C486.103 158.142 485.465 163.567 484.727 169.046C482.537 167.566 480.374 166.068 478.238 164.552C478.238 164.552 478.238 164.552 478.238 164.552L474.805 162.106L471.373 159.544C471.373 159.544 471.373 159.543 471.373 159.543C466.826 156.126 462.399 152.654 458.09 149.127Z" fill="#0066FF" stroke="black" stroke-width="0.75"/>
<path d="M394.252 166.318L394.251 166.317C392.522 164.192 390.799 161.927 389.12 159.703C387.443 157.482 385.788 155.23 384.164 152.984C381.046 148.671 378.053 144.348 375.184 140.016C394.751 137.942 414.051 133.852 432.778 127.813C432.372 130.32 431.945 132.848 431.478 135.363C430.973 138.078 430.415 140.701 429.839 143.384C428.685 148.759 427.408 154.17 426.01 159.618L426.009 159.62C424.62 165.115 423.052 170.394 421.351 175.778C419.709 180.973 417.988 186.138 416.132 191.365L413.619 188.746L413.616 188.743L410.712 185.567C410.712 185.567 410.712 185.567 410.712 185.566C408.785 183.443 406.893 181.315 405.034 179.182C401.316 174.915 397.722 170.627 394.252 166.318Z" fill="#FFD600" stroke="black" stroke-width="0.75"/>
<path d="M360.675 169.829C355.757 179.523 350.349 189.203 344.451 198.868C338.562 189.203 333.154 179.523 328.225 169.829C323.318 159.922 318.889 150.017 314.961 140.112C334.569 142.121 354.331 142.121 373.939 140.112C370.012 150.014 365.583 159.861 360.675 169.829Z" fill="black" stroke="black" stroke-width="0.75"/>
<path d="M294.634 166.277L294.633 166.279C291.168 170.593 287.575 174.88 283.851 179.142L283.851 179.143C281.987 181.281 280.094 183.409 278.173 185.527C278.173 185.527 278.173 185.528 278.173 185.528L275.27 188.702L275.266 188.707L272.767 191.358C270.912 186.13 269.168 180.923 267.535 175.739C265.849 170.354 264.28 165.075 262.875 159.579C261.469 154.079 260.203 148.704 259.046 143.344C258.471 140.667 257.925 137.993 257.407 135.322C256.94 132.814 256.513 130.292 256.107 127.773C274.833 133.813 294.133 137.902 313.699 139.976C310.816 144.309 307.823 148.632 304.72 152.945C303.1 155.188 301.448 157.427 299.765 159.664C298.085 161.888 296.363 164.153 294.634 166.277Z" fill="#0066FF" stroke="black" stroke-width="0.75"/>
<path d="M204.173 169.044C203.442 163.577 202.816 158.152 202.296 152.771L202.296 152.771L202.095 150.683L201.932 148.56L201.932 148.557L201.644 144.324C201.644 144.323 201.644 144.323 201.644 144.323C201.458 141.504 201.31 138.701 201.186 135.904L200.811 135.92L201.186 135.904C200.937 130.318 200.798 124.811 200.782 119.328C200.767 114.054 200.961 108.663 201.204 103.401C218.256 113.219 236.272 121.258 254.967 127.393C251.227 131.062 247.381 134.693 243.43 138.286C243.188 138.504 242.945 138.723 242.701 138.943C240.881 140.586 239.031 142.255 237.217 143.815C235.16 145.585 233.002 147.371 230.849 149.127C226.535 152.643 222.108 156.115 217.566 159.544C217.566 159.544 217.566 159.544 217.566 159.544L214.134 162.106L210.704 164.551C210.703 164.551 210.703 164.551 210.702 164.552C208.542 166.063 206.365 167.56 204.173 169.044Z" fill="#FFD600" stroke="black" stroke-width="0.75"/>
<path d="M141.752 132.926C141.943 130.296 142.157 127.68 142.393 125.077C142.646 122.278 142.964 119.446 143.347 116.579L143.348 116.576C144.042 110.946 144.831 105.392 145.717 99.9126L145.717 99.9104C146.563 94.4784 147.681 88.9353 148.824 83.5255C149.922 78.326 151.149 73.1903 152.445 68.1387C167.124 81.2627 183.099 92.8607 200.124 102.754C197.993 104.121 195.835 105.473 193.65 106.81L193.648 106.811C191.319 108.255 188.898 109.706 186.533 111.032L186.53 111.034C181.776 113.752 176.914 116.401 171.943 118.98L171.94 118.982C162.146 124.176 152.185 128.644 141.752 132.926Z" fill="black" stroke="black" stroke-width="0.75"/>
<path d="M108.741 30.3749C109.846 28.0644 110.978 25.7734 112.118 23.5077L113.935 26.0704L113.941 26.0783L113.947 26.0859L116.279 29.0401L116.279 29.0403L120.941 34.9527C122.184 36.6214 123.567 38.196 124.923 39.7405C125.214 40.072 125.504 40.4021 125.791 40.7315C125.791 40.7316 125.791 40.7318 125.791 40.732L130.707 46.4166C131.287 47.1409 131.948 47.8198 132.593 48.4819C132.826 48.7213 133.057 48.9585 133.281 49.1949L133.282 49.1957L135.879 51.9167L135.879 51.9169L141.064 57.359L141.071 57.3655L141.077 57.3718L146.519 62.5574L146.52 62.5575L149.241 65.1541L149.241 65.1549C149.463 65.3655 149.685 65.5799 149.909 65.7957C150.438 66.3063 150.974 66.8242 151.536 67.3169C149.151 68.2269 146.816 69.0517 144.424 69.8774C141.837 70.771 139.25 71.6488 136.656 72.5032C131.406 74.2015 126.067 75.817 120.641 77.3497C115.303 78.7891 109.866 80.1353 104.331 81.3883L104.33 81.3885C101.57 82.0203 98.792 82.6235 95.9958 83.1983L95.9957 83.1983L95.9909 83.1993C93.3943 83.7691 90.7605 84.3115 88.1817 84.7584C89.7622 79.4357 91.4245 74.1904 93.1689 69.0223C94.9796 63.6756 96.8041 58.482 98.915 53.2204C101.029 47.9514 103.134 42.8632 105.355 37.8383C106.468 35.3272 107.597 32.8394 108.741 30.3749Z" fill="#0066FF" stroke="black" stroke-width="0.75"/>
<path d="M72.2565 -15.8158C75.4262 -20.1417 78.6485 -24.3572 81.9235 -28.4623C89.9878 -10.5077 99.8639 6.5768 111.398 22.5256C100.855 24.0922 89.8873 25.366 79.0869 25.9373L79.0847 25.9374C73.523 26.2636 67.8965 26.4811 62.205 26.5899L62.203 26.5899C59.334 26.6597 56.5567 26.6365 53.7283 26.5899C53.321 26.5832 52.9138 26.5766 52.5066 26.5701C50.2838 26.5343 48.0615 26.4985 45.8259 26.4364C48.433 21.5833 51.1026 16.8266 53.8348 12.1664C56.76 7.28926 59.7629 2.51575 62.8433 -2.1541C64.3974 -4.48518 65.9514 -6.78774 67.5054 -9.06178L69.8358 -12.4564L71.022 -14.131L72.2565 -15.8158Z" fill="#FFD600" stroke="black" stroke-width="0.75"/>
</svg>
