<svg width="550" height="200" viewBox="0 0 550 200" fill="none" xmlns="http://www.w3.org/2000/svg">
<path d="M471.075 25.9523L471.072 25.9522C460.272 25.3809 449.304 24.1071 438.761 22.5405C450.295 6.59183 460.171 -10.4925 468.236 -28.447C471.506 -24.342 474.728 -20.1265 477.903 -15.8006L479.136 -14.1186L479.139 -14.1137L480.322 -12.4438L480.325 -12.4393L482.654 -9.04688C482.654 -9.04671 482.654 -9.04654 482.654 -9.04637C484.208 -6.77258 485.762 -4.47029 487.316 -2.13948C490.381 2.52022 493.384 7.29397 496.325 12.1817C499.062 16.822 501.732 21.5733 504.334 26.4356C501.685 26.5098 499.052 26.5662 496.434 26.6047C495.487 26.6047 494.547 26.6108 493.609 26.6169C491.735 26.6289 489.867 26.641 487.954 26.6048C482.258 26.496 476.631 26.2785 471.075 25.9523Z" fill="#FFD600" stroke="black" stroke-width="0.75"/>
<path d="M400.698 64.9216C400.454 65.1533 400.212 65.3889 399.97 65.6246C399.414 66.166 398.857 66.7082 398.27 67.2057C398.403 67.2568 398.536 67.3076 398.668 67.3582M400.698 64.9216L413.425 72.8986M400.698 64.9216L403.419 62.3249M400.698 64.9216L462.096 85.1594C462.056 85.0257 462.017 84.892 461.977 84.7584M398.668 67.3582C398.56 67.4519 398.451 67.5442 398.342 67.6348C400.797 68.5753 403.196 69.423 405.65 70.2707C408.206 71.1674 410.797 72.0433 413.425 72.8986M398.668 67.3582C399.212 66.8862 399.733 66.3792 400.243 65.8819C400.483 65.6488 400.72 65.4179 400.956 65.1937L400.957 65.1929L403.678 62.5964M398.668 67.3582L403.678 62.5964M413.425 72.8986L413.541 72.542C413.541 72.5419 413.541 72.5417 413.54 72.5416C413.54 72.5415 413.54 72.5414 413.539 72.5414L413.425 72.8986ZM403.678 62.5964L403.419 62.3249M403.678 62.5964L403.678 62.5962M403.678 62.5962L409.12 57.4106L409.127 57.4044L409.133 57.3978L414.319 51.9557L414.048 51.6971L414.319 51.9555L416.915 49.2345L416.916 49.2337C417.127 49.0115 417.341 48.7893 417.557 48.5658C418.212 47.8879 418.879 47.1975 419.489 46.4575M403.678 62.5962L445.828 81.4273M403.678 62.5962L403.419 62.3249M419.489 46.4575L424.407 40.7697L424.408 40.7685C424.829 40.2771 425.257 39.7876 425.686 39.2966C426.908 37.8996 428.14 36.4904 429.257 34.9915M419.489 46.4575L419.486 46.4609L419.202 46.2156M419.489 46.4575C419.49 46.4563 419.491 46.4552 419.491 46.454L419.202 46.2156M429.257 34.9915L433.918 29.0791L433.624 28.8467M429.257 34.9915L429.254 34.9955L428.959 34.7633M429.257 34.9915C429.258 34.9901 429.259 34.9888 429.26 34.9874L428.959 34.7633M433.624 28.8467L433.919 29.0789L436.251 26.1247L436.257 26.1171L436.262 26.1092L438.079 23.5465M433.624 28.8467L435.957 25.8923L437.888 23.1674C437.952 23.2937 438.015 23.4201 438.079 23.5465M433.624 28.8467L428.959 34.7633M438.079 23.5465C439.22 25.8129 440.352 28.1046 441.457 30.4158C442.571 32.7453 443.584 35.0346 444.618 37.3712C444.693 37.5396 444.768 37.7083 444.842 37.8773M438.079 23.5465L438.325 23.2002C439.496 25.526 440.66 27.8795 441.795 30.254C442.912 32.5886 443.927 34.8827 444.961 37.2182C445.035 37.3871 445.11 37.5562 445.185 37.7255M444.842 37.8773C447.064 42.9004 449.21 48.0271 451.282 53.2576L451.283 53.2592C453.393 58.5209 455.218 63.7146 457.029 69.0615C458.775 74.2183 460.399 79.4341 461.977 84.7584M444.842 37.8773C444.842 37.8773 444.842 37.8772 444.842 37.8772L445.185 37.7255M444.842 37.8773L445.185 37.7255M461.977 84.7584C459.398 84.3115 456.763 83.7716 454.163 83.2371C451.367 82.6624 448.586 82.0565 445.828 81.4273M461.977 84.7584C462.115 84.7822 462.252 84.8058 462.389 84.8291C460.794 79.4402 459.152 74.1611 457.384 68.9412C455.572 63.5922 453.745 58.3909 451.631 53.1196C449.557 47.8845 447.409 42.7532 445.185 37.7255M445.828 81.4273C445.828 81.4273 445.829 81.4273 445.829 81.4273L445.745 81.7929L445.828 81.4273ZM428.959 34.7633C427.851 36.251 426.632 37.6454 425.412 39.0404C424.981 39.5336 424.55 40.0269 424.123 40.5244L419.202 46.2156M419.202 46.2156C418.602 46.9444 417.948 47.6207 417.295 48.2971C417.078 48.5226 416.86 48.7481 416.644 48.9756L414.047 51.6968L408.862 57.1391L403.419 62.3249M429.557 77.3887C429.556 77.3884 429.555 77.3881 429.554 77.3878L429.457 77.75L429.56 77.3895C429.559 77.3892 429.558 77.3889 429.557 77.3887Z" fill="#0066FF" stroke="black" stroke-width="0.75"/>
<path d="M378.019 119.313C387.911 124.513 397.933 129.007 408.435 133.342C408.425 133.203 408.415 133.063 408.404 132.924M378.019 119.313L407.12 116.53C407.462 119.344 407.781 122.182 408.077 125.043C408.357 127.761 408.596 130.441 408.792 133.084C408.663 133.03 408.533 132.977 408.404 132.924M378.019 119.313C373.043 116.721 368.176 114.07 363.418 111.359L378.019 119.313ZM408.404 132.924C397.972 128.613 388.018 124.145 378.194 118.981L378.192 118.98C373.221 116.391 368.358 113.742 363.604 111.034M408.404 132.924C408.211 130.345 407.977 127.731 407.703 125.082C407.408 122.223 407.09 119.387 406.748 116.575L406.748 116.573C406.096 110.944 405.249 105.344 404.417 99.9095C403.587 94.4863 402.469 88.9674 401.311 83.5269M363.604 111.034L401.678 83.448M363.604 111.034C361.276 109.707 358.846 108.255 356.484 106.81C354.3 105.473 352.168 104.123 350.013 102.752M363.604 111.034L350.013 102.752M401.311 83.5269L401.678 83.448M401.311 83.5269C401.311 83.5266 401.311 83.5263 401.311 83.5261L401.678 83.448M401.311 83.5269C400.19 78.3207 398.983 73.1914 397.69 68.1388M401.678 83.448C400.542 78.1723 399.317 72.9753 398.005 67.8569C397.9 67.951 397.795 68.0449 397.69 68.1388M397.69 68.1388C383.011 81.2621 367.037 92.8595 350.013 102.752M397.69 68.1388C397.655 68.0024 397.62 67.8659 397.585 67.7296C382.837 80.9324 366.778 92.5917 349.657 102.525L350.013 102.752" fill="black" stroke="black" stroke-width="0.75"/>
<path d="M319.347 149.127L319.347 149.127C323.655 152.653 328.083 156.125 332.629 159.543C332.629 159.543 332.63 159.543 332.63 159.544L336.062 162.106L339.494 164.552L319.347 149.127ZM319.347 149.127C317.198 147.371 315.075 145.601 312.978 143.814L312.977 143.813M319.347 149.127L312.977 143.813M312.977 143.813C310.891 142.046 308.789 140.137 306.768 138.287L306.766 138.285M312.977 143.813L306.766 138.285M306.766 138.285C302.78 134.688 298.933 131.058 295.226 127.394C313.922 121.259 331.939 113.22 348.992 103.402C349.228 108.654 349.369 113.963 349.414 119.331C349.414 124.812 349.259 130.318 349.01 135.904C348.886 138.701 348.738 141.505 348.552 144.324L348.264 148.557L348.264 148.56L348.101 150.683L347.9 152.77C347.9 152.77 347.9 152.77 347.9 152.77C347.36 158.142 346.721 163.567 345.984 169.046M306.766 138.285L345.984 169.046M345.984 169.046C343.794 167.566 341.631 166.068 339.495 164.553L345.984 169.046Z" fill="#FFD600" stroke="black" stroke-width="0.75"/>
<path d="M255.508 166.318L255.507 166.317C253.778 164.192 252.055 161.927 250.376 159.703C248.699 157.482 247.044 155.23 245.42 152.984C242.302 148.671 239.309 144.348 236.44 140.016C256.007 137.942 275.307 133.852 294.034 127.813C293.628 130.32 293.201 132.848 292.734 135.363C292.229 138.078 291.671 140.701 291.095 143.384C289.94 148.759 288.664 154.17 287.266 159.618L287.265 159.62C285.876 165.115 284.308 170.394 282.606 175.778C280.965 180.973 279.244 186.138 277.387 191.365L274.875 188.746L274.872 188.743L271.968 185.567C271.968 185.567 271.968 185.567 271.968 185.567C270.042 183.444 268.149 181.316 266.29 179.182C262.572 174.915 258.978 170.627 255.508 166.318ZM277.678 191.667C277.631 191.799 277.584 191.931 277.537 192.062L277.247 191.76L277.678 191.667Z" fill="#0066FF" stroke="black" stroke-width="0.75"/>
<path d="M221.932 169.829C217.014 179.523 211.606 189.203 205.707 198.868C199.819 189.203 194.411 179.523 189.482 169.829C184.575 159.922 180.146 150.017 176.218 140.112C195.826 142.121 215.588 142.121 235.196 140.112C231.268 150.014 226.84 159.861 221.932 169.829Z" fill="black" stroke="black" stroke-width="0.75"/>
<path d="M155.89 166.277L155.889 166.279C152.424 170.593 148.831 174.88 145.107 179.142L145.107 179.143C143.243 181.281 141.35 183.41 139.429 185.528C139.429 185.528 139.428 185.528 139.428 185.528L136.525 188.702L136.522 188.707L134.023 191.358C132.168 186.13 130.424 180.923 128.79 175.739C127.104 170.354 125.536 165.075 124.131 159.579C122.725 154.079 121.459 148.704 120.302 143.344C119.727 140.667 119.181 137.993 118.663 135.322C118.196 132.814 117.768 130.292 117.362 127.773C136.089 133.813 155.389 137.902 174.955 139.976C172.072 144.309 169.079 148.632 165.976 152.945C164.355 155.188 162.703 157.427 161.02 159.664C159.341 161.888 157.619 164.153 155.89 166.277Z" fill="#FFD600" stroke="black" stroke-width="0.75"/>
<path d="M65.4302 169.044C64.6985 163.577 64.0729 158.152 63.5533 152.771L63.5533 152.771L63.3515 150.683L63.1887 148.56L63.1885 148.557L62.9011 144.324C62.9011 144.323 62.9011 144.323 62.901 144.323C62.7147 141.504 62.5671 138.701 62.4428 135.904L62.0682 135.92L62.4428 135.904C62.1942 130.318 62.0544 124.811 62.0389 119.328C62.024 114.054 62.2176 108.663 62.4608 103.401C79.5128 113.219 97.5286 121.258 116.224 127.393C112.484 131.062 108.638 134.693 104.687 138.286C104.444 138.504 104.202 138.723 103.958 138.943C102.137 140.586 100.287 142.255 98.4739 143.815C96.4171 145.585 94.2585 147.371 92.106 149.127C87.7925 152.643 83.3649 156.115 78.8232 159.543C78.8229 159.544 78.8226 159.544 78.8223 159.544L75.3909 162.106L71.9605 164.551C71.96 164.551 71.9595 164.551 71.959 164.552C69.7984 166.063 67.6221 167.56 65.4302 169.044Z" fill="#0066FF" stroke="black" stroke-width="0.75"/>
<path d="M3.00924 132.926C3.2003 130.296 3.4137 127.68 3.64945 125.077C3.90293 122.278 4.22109 119.446 4.60398 116.579L4.60444 116.576C5.29843 110.946 6.08824 105.392 6.97381 99.9126L6.97414 99.9104C7.81998 94.4784 8.93783 88.9353 10.0804 83.5255C11.1786 78.326 12.4063 73.1903 13.7015 68.1387C28.3807 81.2627 44.3559 92.8607 61.3807 102.754C59.2494 104.121 57.0915 105.473 54.9069 106.81L54.905 106.811C52.5756 108.255 50.1548 109.706 47.7897 111.032L47.7869 111.034C43.0333 113.752 38.1708 116.401 33.1994 118.98L33.1964 118.982C23.403 124.176 13.4423 128.644 3.00924 132.926Z" fill="black" stroke="black" stroke-width="0.75"/>
<path d="M-26.6251 23.5077C-27.7653 25.7734 -28.8971 28.0645 -30.0022 30.3751C-31.1464 32.8395 -32.275 35.3272 -33.3882 37.8383C-35.6094 42.8632 -37.7146 47.9514 -39.8284 53.2204C-41.9393 58.482 -43.7638 63.6756 -45.5745 69.0223C-47.3189 74.1904 -48.9813 79.4357 -50.5617 84.7584C-47.9829 84.3115 -45.3491 83.7691 -42.7525 83.1993L-42.7477 83.1983L-42.7477 83.1983C-39.9514 82.6235 -37.1734 82.0203 -34.4135 81.3885L-34.4126 81.3883C-28.8774 80.1353 -23.4407 78.7891 -18.1026 77.3497C-12.6763 75.8171 -7.3382 74.2017 -2.08821 72.5034C0.506332 71.649 3.09346 70.771 5.6811 69.8774C8.07219 69.0517 10.4073 68.2269 12.7923 67.3169C12.2307 66.8242 11.6943 66.3063 11.1655 65.7957C10.9421 65.58 10.72 65.3656 10.4979 65.1549L10.4971 65.1541L7.77617 62.5575L7.77597 62.5574L2.33383 57.3718L2.32728 57.3655L2.32103 57.359L-2.86458 51.9169L-2.86477 51.9167L-5.46132 49.1957L-5.46208 49.1949C-5.68634 48.9585 -5.91734 48.7213 -6.15046 48.4819C-6.79521 47.8198 -7.45626 47.1409 -8.03623 46.4167L-12.9521 40.732L-26.6251 23.5077ZM-26.6251 23.5077L-24.8085 26.0704L-24.8029 26.0783L-24.7969 26.0859L-22.4646 29.0401L-22.4644 29.0403L-17.8028 34.9527C-16.559 36.6214 -15.1765 38.196 -13.8204 39.7406C-13.5295 40.0718 -13.2398 40.4018 -12.953 40.7309L-26.6251 23.5077Z" fill="#FFD600" stroke="black" stroke-width="0.75"/>
</svg>
