<svg width="269" height="279" viewBox="0 0 269 279" fill="none" xmlns="http://www.w3.org/2000/svg">
<g clip-path="url(#clip0_32_2091)">
<path d="M141.525 53.4416L53.5488 146.038L105.316 175.926L141.525 53.4416Z" fill="#FFD600" stroke="black" stroke-miterlimit="10"/>
<path d="M167.226 68.2802L79.2505 160.877L131.018 190.764L167.226 68.2802Z" fill="#FFD600" stroke="black" stroke-miterlimit="10"/>
<path d="M192.928 83.119L104.952 175.715L156.719 205.603L192.928 83.119Z" fill="#FFD600" stroke="black" stroke-miterlimit="10"/>
</g>
<path d="M183.5 339C136.832 339 99 301.168 99 254.5C99 207.832 136.832 170 183.5 170C230.168 170 268 207.832 268 254.5C268 301.168 230.168 339 183.5 339Z" fill="white" stroke="black" stroke-width="0.75" stroke-miterlimit="10"/>
<path d="M143.98 254.06C143.98 276.21 161.56 294.15 183.21 294.15C204.86 294.15 222.44 276.21 222.44 254.06C222.44 231.91 204.86 213.97 183.21 213.97C161.56 213.97 143.98 231.91 143.98 254.06V254.06Z" fill="#0066FF" stroke="black" stroke-width="0.75"/>
<path d="M161.69 254.06C161.69 266.22 171.34 276.06 183.21 276.06C195.08 276.06 204.73 266.22 204.73 254.06C204.73 241.9 195.08 232.06 183.21 232.06C171.34 232.06 161.69 241.9 161.69 254.06Z" fill="black" stroke="black" stroke-width="0.75"/>
<path d="M197.27 254.009C190.831 254.009 185.61 248.789 185.61 242.349C185.61 235.91 190.831 230.689 197.27 230.689C203.71 230.689 208.93 235.91 208.93 242.349C208.93 248.789 203.71 254.009 197.27 254.009Z" fill="white" stroke="black" stroke-width="0.75"/>
<path d="M14.5 170C-32.1681 170 -70 132.168 -70 85.5C-70 38.8319 -32.1681 1 14.5 1C61.1681 1 99 38.8319 99 85.5C99 132.168 61.1681 170 14.5 170Z" fill="white" stroke="black" stroke-width="0.75" stroke-miterlimit="10"/>
<path d="M-25.0201 85.0597C-25.0201 107.21 -7.44006 125.15 14.2099 125.15C35.8599 125.15 53.4399 107.21 53.4399 85.0597C53.4399 62.9097 35.8599 44.9697 14.2099 44.9697C-7.44006 44.9697 -25.0201 62.9097 -25.0201 85.0597V85.0597Z" fill="#00B026" stroke="black" stroke-width="0.75"/>
<path d="M-7.31002 85.0597C-7.31002 97.2197 2.33998 107.06 14.21 107.06C26.08 107.06 35.73 97.2197 35.73 85.0597C35.73 72.8997 26.08 63.0597 14.21 63.0597C2.33998 63.0597 -7.31002 72.8997 -7.31002 85.0597Z" fill="black" stroke="black" stroke-width="0.75"/>
<path d="M28.2702 85.0095C21.8305 85.0095 16.6102 79.7891 16.6102 73.3495C16.6102 66.9098 21.8305 61.6895 28.2702 61.6895C34.7098 61.6895 39.9302 66.9098 39.9302 73.3495C39.9302 79.7891 34.7098 85.0095 28.2702 85.0095Z" fill="white" stroke="black" stroke-width="0.75"/>
<path d="M54.5 299C7.83194 299 -30 261.168 -30 214.5C-30 167.832 7.83194 130 54.5 130C101.168 130 139 167.832 139 214.5C139 261.168 101.168 299 54.5 299Z" fill="white" stroke="black" stroke-width="0.75" stroke-miterlimit="10"/>
<path d="M14.9799 214.06C14.9799 236.21 32.5599 254.15 54.2099 254.15C75.8599 254.15 93.4399 236.21 93.4399 214.06C93.4399 191.91 75.8599 173.97 54.2099 173.97C32.5599 173.97 14.9799 191.91 14.9799 214.06V214.06Z" fill="#FF0400" stroke="black" stroke-width="0.75"/>
<path d="M32.69 214.06C32.69 226.22 42.34 236.06 54.21 236.06C66.08 236.06 75.73 226.22 75.73 214.06C75.73 201.9 66.08 192.06 54.21 192.06C42.34 192.06 32.69 201.9 32.69 214.06Z" fill="black" stroke="black" stroke-width="0.75"/>
<path d="M68.2702 214.009C61.8305 214.009 56.6102 208.789 56.6102 202.349C56.6102 195.91 61.8305 190.689 68.2702 190.689C74.7098 190.689 79.9302 195.91 79.9302 202.349C79.9302 208.789 74.7098 214.009 68.2702 214.009Z" fill="white" stroke="black" stroke-width="0.75"/>
<defs>
<clipPath id="clip0_32_2091">
<rect width="120" height="126" fill="white" transform="translate(116 37) rotate(30)"/>
</clipPath>
</defs>
</svg>
