<svg width="269" height="279" viewBox="0 0 269 279" fill="none" xmlns="http://www.w3.org/2000/svg">
<g clip-path="url(#clip0_32_2090)">
<path d="M128.398 53.4416L216.374 146.038L164.607 175.926L128.398 53.4416Z" fill="#FFD600" stroke="black" stroke-miterlimit="10"/>
<path d="M102.697 68.2802L190.673 160.877L138.905 190.764L102.697 68.2802Z" fill="#FFD600" stroke="black" stroke-miterlimit="10"/>
<path d="M76.9952 83.119L164.971 175.715L113.204 205.603L76.9952 83.119Z" fill="#FFD600" stroke="black" stroke-miterlimit="10"/>
</g>
<path d="M85.5 339C132.168 339 170 301.168 170 254.5C170 207.832 132.168 170 85.5 170C38.8319 170 1 207.832 1 254.5C1 301.168 38.8319 339 85.5 339Z" fill="white" stroke="black" stroke-width="0.75" stroke-miterlimit="10"/>
<path d="M125.02 254.06C125.02 276.21 107.44 294.15 85.7901 294.15C64.1401 294.15 46.5601 276.21 46.5601 254.06C46.5601 231.91 64.1401 213.97 85.7901 213.97C107.44 213.97 125.02 231.91 125.02 254.06V254.06Z" fill="#0066FF" stroke="black" stroke-width="0.75"/>
<path d="M107.31 254.06C107.31 266.22 97.66 276.06 85.79 276.06C73.92 276.06 64.27 266.22 64.27 254.06C64.27 241.9 73.92 232.06 85.79 232.06C97.66 232.06 107.31 241.9 107.31 254.06Z" fill="black" stroke="black" stroke-width="0.75"/>
<path d="M71.7298 254.009C78.1695 254.009 83.3898 248.789 83.3898 242.349C83.3898 235.91 78.1695 230.689 71.7298 230.689C65.2902 230.689 60.0698 235.91 60.0698 242.349C60.0698 248.789 65.2902 254.009 71.7298 254.009Z" fill="white" stroke="black" stroke-width="0.75"/>
<path d="M254.5 170C301.168 170 339 132.168 339 85.5C339 38.8319 301.168 1 254.5 1C207.832 1 170 38.8319 170 85.5C170 132.168 207.832 170 254.5 170Z" fill="white" stroke="black" stroke-width="0.75" stroke-miterlimit="10"/>
<path d="M294.02 85.0597C294.02 107.21 276.44 125.15 254.79 125.15C233.14 125.15 215.56 107.21 215.56 85.0597C215.56 62.9097 233.14 44.9697 254.79 44.9697C276.44 44.9697 294.02 62.9097 294.02 85.0597V85.0597Z" fill="#00B026" stroke="black" stroke-width="0.75"/>
<path d="M276.31 85.0597C276.31 97.2197 266.66 107.06 254.79 107.06C242.92 107.06 233.27 97.2197 233.27 85.0597C233.27 72.8997 242.92 63.0597 254.79 63.0597C266.66 63.0597 276.31 72.8997 276.31 85.0597Z" fill="black" stroke="black" stroke-width="0.75"/>
<path d="M240.73 85.0095C247.169 85.0095 252.39 79.7891 252.39 73.3495C252.39 66.9098 247.169 61.6895 240.73 61.6895C234.29 61.6895 229.07 66.9098 229.07 73.3495C229.07 79.7891 234.29 85.0095 240.73 85.0095Z" fill="white" stroke="black" stroke-width="0.75"/>
<path d="M214.5 299C261.168 299 299 261.168 299 214.5C299 167.832 261.168 130 214.5 130C167.832 130 130 167.832 130 214.5C130 261.168 167.832 299 214.5 299Z" fill="white" stroke="black" stroke-width="0.75" stroke-miterlimit="10"/>
<path d="M254.02 214.06C254.02 236.21 236.44 254.15 214.79 254.15C193.14 254.15 175.56 236.21 175.56 214.06C175.56 191.91 193.14 173.97 214.79 173.97C236.44 173.97 254.02 191.91 254.02 214.06Z" fill="#FF0400" stroke="black" stroke-width="0.75"/>
<path d="M236.31 214.06C236.31 226.22 226.66 236.06 214.79 236.06C202.92 236.06 193.27 226.22 193.27 214.06C193.27 201.9 202.92 192.06 214.79 192.06C226.66 192.06 236.31 201.9 236.31 214.06Z" fill="black" stroke="black" stroke-width="0.75"/>
<path d="M200.73 214.009C207.169 214.009 212.39 208.789 212.39 202.349C212.39 195.91 207.169 190.689 200.73 190.689C194.29 190.689 189.07 195.91 189.07 202.349C189.07 208.789 194.29 214.009 200.73 214.009Z" fill="white" stroke="black" stroke-width="0.75"/>
<defs>
<clipPath id="clip0_32_2090">
<rect width="120" height="126" fill="white" transform="matrix(-0.866025 0.5 0.5 0.866025 153.923 37)"/>
</clipPath>
</defs>
</svg>
