<svg width="218" height="120" viewBox="0 0 218 120" fill="none" xmlns="http://www.w3.org/2000/svg">
<path d="M216.598 60.1865C193.932 95.7666 154.13 119.373 108.799 119.373C63.4681 119.373 23.6654 95.7666 1 60.1865C23.6654 24.6064 63.4681 1 108.799 1C154.13 1 193.932 24.5946 216.598 60.1865Z" fill="white" stroke="black" stroke-width="0.75" stroke-miterlimit="10"/>
<path d="M154.94 60.1896C154.94 86.2425 134.262 107.344 108.797 107.344C83.3326 107.344 62.655 86.2425 62.655 60.1896C62.655 34.1367 83.3326 13.0356 108.797 13.0356C134.262 13.0356 154.94 34.1367 154.94 60.1896V60.1896Z" fill="#FF5C00" stroke="black" stroke-width="0.75"/>
<path d="M134.11 60.1875C134.11 74.4901 122.76 86.0639 108.798 86.0639C94.8367 86.0639 83.4863 74.4901 83.4863 60.1875C83.4863 45.8849 94.8367 34.311 108.798 34.311C122.76 34.311 134.11 45.8849 134.11 60.1875Z" fill="black" stroke="black" stroke-width="0.75"/>
<path d="M92.2713 60.1405C99.8456 60.1405 105.986 54.0003 105.986 46.426C105.986 38.8516 99.8456 32.7114 92.2713 32.7114C84.697 32.7114 78.5568 38.8516 78.5568 46.426C78.5568 54.0003 84.697 60.1405 92.2713 60.1405Z" fill="white" stroke="black" stroke-width="0.75"/>
</svg>
