<svg width="735" height="442" viewBox="0 0 735 442" fill="none" xmlns="http://www.w3.org/2000/svg">
<g clip-path="url(#clip0_90_682)">
<path d="M636 396.418C690.354 396.418 734.418 352.354 734.418 298C734.418 243.645 690.354 199.582 636 199.582C581.645 199.582 537.582 243.645 537.582 298C537.582 352.354 581.645 396.418 636 396.418Z" fill="black" stroke="black" stroke-miterlimit="10"/>
<path d="M682.029 297.487C682.029 323.286 661.554 344.181 636.338 344.181C611.122 344.181 590.646 323.286 590.646 297.487C590.646 271.689 611.122 250.794 636.338 250.794C661.554 250.794 682.029 271.689 682.029 297.487V297.487Z" fill="black" stroke="black"/>
<path d="M661.402 297.488C661.402 311.65 650.163 323.111 636.338 323.111C622.513 323.111 611.273 311.65 611.273 297.488C611.273 283.325 622.513 271.864 636.338 271.864C650.163 271.864 661.402 283.325 661.402 297.488Z" fill="black" stroke="black"/>
<path d="M619.962 297.429C627.462 297.429 633.542 291.349 633.542 283.849C633.542 276.348 627.462 270.268 619.962 270.268C612.462 270.268 606.381 276.348 606.381 283.849C606.381 291.349 612.462 297.429 619.962 297.429Z" fill="black" stroke="black"/>
<path d="M624.469 333.125C630.062 333.125 634.859 332.078 638.859 329.984C642.859 327.891 645.922 324.984 648.047 321.266C650.203 317.516 651.281 313.188 651.281 308.281V264.359H642.844V307.719C642.844 311.188 642.125 314.25 640.688 316.906C639.25 319.531 637.156 321.594 634.406 323.094C631.688 324.594 628.375 325.344 624.469 325.344C620.562 325.344 617.234 324.594 614.484 323.094C611.734 321.594 609.625 319.531 608.156 316.906C606.719 314.25 606 311.188 606 307.719V264.359H597.562V308.281C597.562 313.188 598.641 317.516 600.797 321.266C602.953 324.984 606.031 327.891 610.031 329.984C614.062 332.078 618.875 333.125 624.469 333.125ZM664.406 332H672.844V264.359H664.406V332Z" fill="white"/>
</g>
<rect x="0.93791" y="372.436" width="742.997" height="78.2371" rx="6.17938" transform="rotate(-30 0.93791 372.436)" fill="black"/>
<path d="M55.9981 405.447L65.0835 400.202C67.1336 399.018 68.6996 397.688 69.7817 396.211C70.8561 394.721 71.4335 393.154 71.5139 391.51C71.5999 389.845 71.1549 388.168 70.1788 386.477L70.1558 386.437C69.4179 385.159 68.4946 384.175 67.3857 383.484C66.2691 382.78 65.0271 382.396 63.6598 382.334C62.2925 382.271 60.8705 382.56 59.3939 383.199L59.3478 383.119C60.2616 382.396 60.9345 381.502 61.3663 380.436C61.7905 379.357 61.9676 378.234 61.8976 377.068C61.8276 375.901 61.5043 374.819 60.9279 373.82L60.9048 373.78C60.0748 372.343 59.0024 371.285 57.6876 370.606C56.3729 369.927 54.9236 369.646 53.3397 369.762C51.7558 369.877 50.1386 370.412 48.4879 371.365L39.3625 376.633L41.1956 379.808L49.5022 375.012C51.2461 374.006 52.8096 373.609 54.1929 373.822C55.5684 374.022 56.6674 374.834 57.4897 376.258L57.5128 376.298C58.412 377.855 58.5341 379.374 57.8791 380.852C57.2374 382.323 55.8516 383.673 53.7217 384.903L46.5333 389.053L48.3202 392.148L56.527 387.41C58.0579 386.526 59.4434 385.975 60.6836 385.756C61.9372 385.529 63.0387 385.639 63.9883 386.084C64.9378 386.53 65.7354 387.312 66.381 388.43L66.4041 388.47C67.3571 390.121 67.5176 391.705 66.8857 393.224C66.2593 394.722 64.8679 396.093 62.7114 397.338L54.1651 402.272L55.9981 405.447ZM54.201 406.485L57.7953 404.409L41.1596 375.596L37.5654 377.671L54.201 406.485ZM78.3822 392.524L81.8566 390.518L74.4553 377.698C73.8481 376.647 73.5091 375.644 73.4381 374.691C73.3727 373.717 73.5576 372.839 73.9926 372.055C74.441 371.264 75.1111 370.61 76.003 370.095C76.429 369.85 76.8199 369.65 77.1757 369.498C77.5449 369.338 77.8114 369.247 77.9753 369.223L76.027 365.848C75.8785 365.899 75.6701 365.983 75.4018 366.103C75.1391 366.201 74.8547 366.339 74.5485 366.516C73.3771 367.192 72.569 368.129 72.1244 369.326C71.6798 370.524 71.6303 371.821 71.9759 373.219L71.896 373.265L69.867 369.751L66.3926 371.757L78.3822 392.524ZM98.7803 381.279C99.9119 380.626 100.875 379.866 101.67 378.998C102.457 378.118 103.069 377.179 103.505 376.182C103.933 375.171 104.172 374.155 104.221 373.133C104.283 372.103 104.155 371.112 103.836 370.16L103.76 369.938L100.346 371.909L100.39 372.123C100.536 372.838 100.511 373.562 100.314 374.297C100.117 375.032 99.749 375.732 99.2105 376.398C98.672 377.064 97.9634 377.651 97.0848 378.158C95.8335 378.88 94.591 379.234 93.3574 379.218C92.1161 379.19 90.9427 378.802 89.8374 378.056C88.7454 377.302 87.7767 376.193 86.9312 374.728L86.1588 373.391C85.2673 371.846 84.7709 370.402 84.6696 369.059C84.5606 367.702 84.7916 366.503 85.3628 365.464C85.9263 364.411 86.7605 363.565 87.8654 362.927C88.9702 362.289 90.0985 361.984 91.2503 362.011C92.3943 362.025 93.5095 362.42 94.5959 363.195C95.6956 363.962 96.7104 365.151 97.6404 366.762L98.4128 368.1L98.7174 364.569L83.7015 373.239L85.2694 375.954L102.002 366.293L101.265 365.015C100.066 362.939 98.6467 361.326 97.0076 360.178C95.3686 359.03 93.6137 358.419 91.743 358.346C89.8779 358.251 88.0002 358.749 86.1099 359.841C84.2196 360.932 82.8408 362.34 81.9733 364.066C81.0982 365.778 80.7473 367.676 80.9205 369.759C81.0861 371.829 81.7875 373.935 83.0249 376.079L83.0364 376.099C84.2892 378.268 85.76 379.94 87.4487 381.112C89.1431 382.264 90.9561 382.868 92.8877 382.924C94.8327 382.973 96.7969 382.424 98.7803 381.279ZM117.271 370.604C118.202 370.066 118.993 369.405 119.641 368.623C120.295 367.819 120.794 366.946 121.137 366.002C121.472 365.045 121.62 364.072 121.581 363.083L121.661 363.037L123.61 366.412L127.084 364.406L118.795 350.049C117.996 348.664 116.978 347.654 115.741 347.019C114.497 346.371 113.115 346.113 111.594 346.246C110.086 346.371 108.514 346.906 106.877 347.851C105.253 348.789 104.01 349.879 103.148 351.122C102.278 352.352 101.773 353.629 101.632 354.953C101.504 356.269 101.718 357.53 102.272 358.736L102.379 358.967L105.733 357.031L105.67 356.828C105.331 355.781 105.403 354.737 105.884 353.695C106.372 352.633 107.281 351.718 108.612 350.949C110.063 350.111 111.393 349.832 112.601 350.111C113.814 350.368 114.786 351.129 115.517 352.394L119.056 358.524C119.632 359.523 119.891 360.571 119.833 361.67C119.789 362.76 119.461 363.792 118.852 364.765C118.248 365.718 117.4 366.509 116.309 367.139C115.057 367.861 113.883 368.149 112.786 368.001C111.703 367.846 110.873 367.269 110.296 366.271L110.273 366.231C109.712 365.259 109.642 364.261 110.062 363.237C110.496 362.206 111.382 361.251 112.721 360.371L119.755 355.724L118.199 353.028L110.765 357.906C109.235 358.914 108.05 359.997 107.21 361.157C106.384 362.308 105.921 363.489 105.822 364.7C105.736 365.904 106.035 367.098 106.719 368.283L106.742 368.323C107.464 369.574 108.385 370.507 109.503 371.122C110.634 371.729 111.869 371.992 113.207 371.912C114.545 371.831 115.9 371.395 117.271 370.604ZM139.535 357.75C140.533 357.173 141.353 356.487 141.994 355.691C142.648 354.887 143.136 354.011 143.458 353.062C143.772 352.1 143.908 351.089 143.865 350.031L143.945 349.985L145.974 353.5L149.448 351.494L132.812 322.68L129.338 324.686L135.99 336.207L135.91 336.254C135.023 335.701 134.081 335.33 133.085 335.142C132.081 334.941 131.065 334.933 130.036 335.119C129.013 335.283 128.009 335.65 127.024 336.219C125.294 337.218 124.027 338.544 123.224 340.197C122.413 341.836 122.1 343.676 122.285 345.718C122.483 347.751 123.212 349.859 124.472 352.042L124.484 352.062C125.744 354.246 127.209 355.938 128.879 357.139C130.541 358.327 132.289 358.987 134.121 359.118C135.96 359.228 137.764 358.772 139.535 357.75ZM138.438 354.283C137.214 354.99 135.979 355.294 134.733 355.197C133.48 355.086 132.28 354.59 131.132 353.709C129.984 352.827 128.953 351.595 128.038 350.01L128.026 349.99C127.112 348.406 126.564 346.903 126.382 345.482C126.2 344.06 126.375 342.779 126.905 341.639C127.436 340.498 128.314 339.574 129.538 338.867C130.71 338.191 131.926 337.915 133.187 338.039C134.461 338.155 135.692 338.643 136.88 339.501C138.06 340.346 139.096 341.541 139.987 343.085L139.999 343.105C140.89 344.649 141.411 346.15 141.56 347.608C141.723 349.058 141.536 350.364 141 351.526C140.464 352.687 139.61 353.606 138.438 354.283Z" fill="black"/>
<path d="M182.482 314.344L158.345 318.189L160.166 321.344L183.966 317.374L182.801 315.357L167.464 333.984L169.239 337.059L184.638 318.078L182.482 314.344Z" fill="black"/>
<path d="M223.629 309.304C225.639 308.144 227.248 306.718 228.455 305.027C229.662 303.337 230.419 301.497 230.727 299.509C231.026 297.508 230.826 295.485 230.125 293.44L230.049 293.217L226.415 295.316L226.459 295.53C226.776 297.033 226.806 298.436 226.546 299.739C226.279 301.029 225.74 302.201 224.929 303.256C224.131 304.302 223.06 305.213 221.715 305.99C219.812 307.089 217.871 307.57 215.893 307.434C213.915 307.298 212.034 306.591 210.25 305.314C208.471 304.016 206.909 302.202 205.564 299.873L205.552 299.853C204.2 297.51 203.414 295.257 203.194 293.094C202.981 290.91 203.306 288.938 204.172 287.178C205.043 285.397 206.437 283.954 208.354 282.847C209.712 282.063 211.05 281.583 212.368 281.408C213.687 281.232 214.951 281.346 216.159 281.748C217.373 282.13 218.505 282.799 219.554 283.755L219.948 284.114L223.582 282.015L223.427 281.839C222.014 280.223 220.364 279.055 218.475 278.335C216.599 277.607 214.624 277.337 212.548 277.523C210.473 277.71 208.437 278.379 206.44 279.532C203.764 281.077 201.795 283.031 200.532 285.393C199.261 287.742 198.728 290.339 198.934 293.184C199.139 296.03 200.114 298.964 201.858 301.986L201.87 302.006C203.614 305.027 205.672 307.345 208.041 308.959C210.403 310.56 212.922 311.404 215.6 311.491C218.29 311.57 220.967 310.842 223.629 309.304ZM238.847 299.879L242.322 297.873L234.921 285.054C234.313 284.002 233.974 283 233.903 282.047C233.838 281.073 234.023 280.194 234.458 279.41C234.906 278.619 235.576 277.966 236.468 277.451C236.894 277.205 237.285 277.006 237.641 276.854C238.01 276.694 238.277 276.602 238.44 276.578L236.492 273.204C236.344 273.254 236.135 273.339 235.867 273.458C235.604 273.557 235.32 273.694 235.014 273.871C233.842 274.547 233.034 275.484 232.59 276.682C232.145 277.879 232.095 279.177 232.441 280.575L232.361 280.621L230.332 277.106L226.858 279.112L238.847 299.879ZM258.786 288.9C259.838 288.293 260.692 287.604 261.348 286.835C262.004 286.066 262.479 285.259 262.773 284.415C263.08 283.563 263.235 282.71 263.239 281.856L263.319 281.81L265.025 284.765L268.5 282.759L256.51 261.993L253.036 263.999L260.091 276.219C260.598 277.098 260.937 277.976 261.107 278.854C261.269 279.719 261.26 280.549 261.081 281.345C260.893 282.128 260.548 282.851 260.044 283.515C259.553 284.171 258.895 284.737 258.069 285.214C256.472 286.136 255.016 286.382 253.703 285.951C252.395 285.499 251.252 284.428 250.276 282.737L242.852 269.878L239.378 271.884L247.159 285.362C248.066 286.933 249.134 288.136 250.361 288.972C251.595 289.786 252.925 290.199 254.351 290.209C255.79 290.212 257.269 289.776 258.786 288.9ZM273.032 280.142L276.507 278.136L268.99 265.117C268.429 264.145 268.136 263.161 268.111 262.164C268.085 261.167 268.298 260.245 268.75 259.399C269.208 258.531 269.896 257.832 270.814 257.302C271.68 256.802 272.525 256.545 273.351 256.53C274.189 256.507 274.962 256.708 275.67 257.134C276.39 257.552 276.993 258.181 277.477 259.019L285.512 272.937L288.987 270.931L281.367 257.732C280.821 256.787 280.536 255.833 280.513 254.87C280.482 253.894 280.7 252.996 281.167 252.176C281.627 251.343 282.316 250.661 283.234 250.131C284.153 249.601 285.036 249.331 285.882 249.321C286.728 249.312 287.514 249.55 288.239 250.037C288.977 250.516 289.623 251.235 290.176 252.193L297.992 265.732L301.467 263.726L293.189 249.389C292.39 248.004 291.419 246.968 290.276 246.279C289.125 245.577 287.882 245.238 286.547 245.263C285.205 245.275 283.849 245.676 282.477 246.468C281.506 247.029 280.686 247.715 280.019 248.527C279.364 249.33 278.884 250.22 278.578 251.195C278.277 252.15 278.175 253.158 278.274 254.22L278.194 254.266C277.409 253.583 276.568 253.11 275.671 252.847C274.766 252.571 273.839 252.503 272.89 252.642C271.947 252.761 271.003 253.093 270.057 253.639C268.726 254.407 267.746 255.399 267.116 256.615C266.479 257.817 266.224 259.065 266.349 260.359L266.27 260.405L264.517 257.37L261.043 259.376L273.032 280.142ZM313.498 257.312C315.043 256.42 316.27 255.365 317.182 254.147C318.099 252.907 318.635 251.622 318.789 250.29C318.957 248.951 318.691 247.676 317.992 246.464L317.98 246.444C317.127 244.967 316.021 244.034 314.662 243.648C313.295 243.248 311.414 243.402 309.018 244.11L305.262 245.214C304.396 245.466 303.642 245.59 303.002 245.587C302.361 245.584 301.82 245.462 301.379 245.22C300.943 244.957 300.59 244.592 300.321 244.126L300.31 244.106C299.956 243.494 299.809 242.869 299.867 242.232C299.931 241.574 300.196 240.942 300.662 240.335C301.128 239.729 301.781 239.184 302.619 238.699C303.911 237.954 305.106 237.672 306.205 237.854C307.317 238.028 308.232 238.583 308.949 239.518L309.05 239.646L312.364 237.732L312.195 237.484C311.446 236.372 310.481 235.545 309.298 235.003C308.121 234.44 306.813 234.219 305.374 234.34C303.941 234.44 302.465 234.928 300.948 235.804C299.457 236.665 298.282 237.689 297.424 238.877C296.579 240.057 296.095 241.295 295.973 242.59C295.865 243.877 296.156 245.12 296.848 246.318L296.859 246.338C297.436 247.336 298.152 248.085 299.008 248.585C299.865 249.084 300.869 249.348 302.021 249.375C303.178 249.381 304.501 249.168 305.99 248.734L309.746 247.631C311.1 247.239 312.134 247.139 312.848 247.331C313.562 247.522 314.134 247.99 314.564 248.736L314.576 248.756C314.937 249.382 315.072 250.031 314.982 250.705C314.884 251.365 314.575 252.013 314.055 252.651C313.528 253.274 312.792 253.859 311.847 254.405C310.436 255.22 309.172 255.567 308.056 255.448C306.933 255.316 305.965 254.792 305.152 253.877L304.997 253.7L301.523 255.706L301.646 255.875C302.508 257.028 303.547 257.875 304.763 258.415C305.994 258.947 307.351 259.13 308.836 258.966C310.32 258.801 311.874 258.249 313.498 257.312Z" fill="black"/>
<path d="M352.583 216.136L328.446 219.981L330.267 223.136L354.067 219.166L352.902 217.15L337.565 235.776L339.34 238.851L354.739 219.87L352.583 216.136Z" fill="black"/>
<path d="M383.21 216.532L392.295 211.286C394.345 210.102 395.911 208.772 396.993 207.296C398.068 205.806 398.645 204.239 398.725 202.595C398.811 200.93 398.366 199.252 397.39 197.562L397.367 197.522C396.629 196.244 395.706 195.259 394.597 194.568C393.481 193.864 392.239 193.481 390.871 193.418C389.504 193.356 388.082 193.644 386.605 194.284L386.559 194.204C387.473 193.481 388.146 192.587 388.578 191.521C389.002 190.442 389.179 189.319 389.109 188.152C389.039 186.986 388.716 185.903 388.139 184.905L388.116 184.865C387.286 183.427 386.214 182.369 384.899 181.69C383.584 181.012 382.135 180.73 380.551 180.846C378.967 180.962 377.35 181.496 375.699 182.449L366.574 187.718L368.407 190.893L376.714 186.097C378.458 185.09 380.021 184.693 381.404 184.906C382.78 185.106 383.879 185.918 384.701 187.343L384.724 187.382C385.623 188.94 385.746 190.458 385.091 191.937C384.449 193.408 383.063 194.758 380.933 195.988L373.745 200.138L375.532 203.233L383.738 198.495C385.269 197.611 386.655 197.059 387.895 196.84C389.149 196.614 390.25 196.723 391.2 197.169C392.149 197.614 392.947 198.396 393.592 199.515L393.615 199.555C394.569 201.205 394.729 202.79 394.097 204.308C393.471 205.806 392.079 207.177 389.923 208.422L381.377 213.357L383.21 216.532ZM381.412 217.569L385.007 215.494L368.371 186.68L364.777 188.755L381.412 217.569ZM405.594 203.608L409.068 201.602L401.667 188.783C401.06 187.731 400.72 186.729 400.65 185.776C400.584 184.802 400.769 183.923 401.204 183.139C401.652 182.348 402.323 181.695 403.214 181.18C403.64 180.934 404.031 180.735 404.387 180.583C404.756 180.423 405.023 180.331 405.187 180.307L403.238 176.933C403.09 176.983 402.882 177.068 402.613 177.187C402.351 177.286 402.066 177.423 401.76 177.6C400.588 178.276 399.78 179.213 399.336 180.411C398.891 181.608 398.842 182.906 399.187 184.304L399.107 184.35L397.078 180.835L393.604 182.841L405.594 203.608ZM425.992 192.364C427.123 191.71 428.087 190.95 428.882 190.083C429.669 189.202 430.281 188.263 430.716 187.266C431.145 186.256 431.383 185.239 431.432 184.217C431.494 183.188 431.366 182.197 431.047 181.245L430.972 181.022L427.557 182.993L427.601 183.208C427.747 183.922 427.722 184.647 427.525 185.382C427.328 186.116 426.96 186.817 426.422 187.483C425.883 188.149 425.175 188.735 424.296 189.242C423.045 189.965 421.802 190.318 420.569 190.303C419.327 190.274 418.154 189.887 417.049 189.14C415.957 188.386 414.988 187.277 414.143 185.813L413.37 184.475C412.479 182.931 411.982 181.487 411.881 180.143C411.772 178.786 412.003 177.588 412.574 176.548C413.138 175.495 413.972 174.65 415.077 174.012C416.182 173.374 417.31 173.068 418.462 173.096C419.606 173.11 420.721 173.504 421.807 174.279C422.907 175.046 423.922 176.235 424.852 177.846L425.624 179.184L425.929 175.654L410.913 184.323L412.481 187.039L429.214 177.378L428.476 176.1C427.277 174.023 425.858 172.411 424.219 171.263C422.58 170.115 420.825 169.504 418.954 169.43C417.089 169.335 415.212 169.834 413.321 170.925C411.431 172.016 410.052 173.425 409.185 175.15C408.31 176.863 407.959 178.76 408.132 180.843C408.297 182.913 408.999 185.02 410.236 187.163L410.248 187.183C411.501 189.353 412.971 191.024 414.66 192.197C416.355 193.348 418.168 193.952 420.099 194.009C422.044 194.057 424.008 193.509 425.992 192.364ZM444.482 181.688C445.414 181.15 446.204 180.49 446.853 179.707C447.507 178.904 448.005 178.03 448.348 177.087C448.683 176.13 448.831 175.157 448.793 174.168L448.873 174.121L450.821 177.496L454.295 175.49L446.006 161.133C445.207 159.749 444.189 158.739 442.953 158.104C441.709 157.455 440.326 157.198 438.805 157.33C437.298 157.455 435.725 157.99 434.088 158.935C432.464 159.873 431.221 160.964 430.359 162.207C429.489 163.436 428.984 164.713 428.843 166.037C428.716 167.353 428.929 168.614 429.483 169.821L429.59 170.052L432.945 168.115L432.881 167.912C432.543 166.865 432.614 165.821 433.096 164.78C433.583 163.718 434.492 162.802 435.823 162.034C437.274 161.196 438.604 160.916 439.812 161.195C441.026 161.453 441.998 162.214 442.728 163.479L446.267 169.609C446.844 170.607 447.103 171.656 447.045 172.754C447 173.845 446.673 174.877 446.063 175.85C445.459 176.802 444.612 177.593 443.52 178.224C442.269 178.946 441.095 179.233 439.998 179.086C438.914 178.93 438.084 178.354 437.508 177.355L437.484 177.315C436.923 176.343 436.853 175.346 437.274 174.322C437.708 173.29 438.594 172.335 439.932 171.456L446.967 166.809L445.41 164.113L437.976 168.991C436.446 169.999 435.261 171.082 434.422 172.241C433.596 173.393 433.133 174.574 433.033 175.785C432.947 176.988 433.246 178.183 433.93 179.367L433.953 179.407C434.676 180.659 435.596 181.592 436.714 182.206C437.845 182.813 439.08 183.077 440.418 182.996C441.756 182.916 443.111 182.48 444.482 181.688ZM466.746 168.834C467.745 168.258 468.564 167.571 469.205 166.775C469.859 165.972 470.347 165.095 470.669 164.146C470.983 163.184 471.119 162.174 471.076 161.116L471.156 161.07L473.185 164.584L476.659 162.578L460.024 133.764L456.549 135.77L463.201 147.292L463.121 147.338C462.234 146.785 461.293 146.415 460.297 146.227C459.293 146.025 458.277 146.017 457.248 146.203C456.225 146.368 455.221 146.735 454.236 147.303C452.505 148.302 451.238 149.628 450.435 151.281C449.625 152.921 449.312 154.761 449.496 156.802C449.694 158.836 450.423 160.944 451.684 163.127L451.695 163.147C452.956 165.33 454.421 167.022 456.09 168.224C457.753 169.412 459.5 170.071 461.333 170.202C463.171 170.312 464.976 169.856 466.746 168.834ZM465.65 165.367C464.425 166.074 463.19 166.379 461.945 166.282C460.691 166.171 459.491 165.675 458.343 164.793C457.195 163.912 456.164 162.679 455.249 161.095L455.238 161.075C454.323 159.491 453.775 157.988 453.593 156.566C453.412 155.145 453.586 153.864 454.117 152.723C454.647 151.583 455.525 150.659 456.75 149.952C457.921 149.275 459.137 148.999 460.398 149.123C461.672 149.24 462.903 149.727 464.091 150.585C465.271 151.431 466.307 152.625 467.199 154.169L467.21 154.189C468.102 155.733 468.622 157.235 468.772 158.692C468.935 160.143 468.748 161.448 468.211 162.61C467.675 163.772 466.821 164.691 465.65 165.367Z" fill="black"/>
<path d="M509.694 125.428L485.556 129.273L487.377 132.428L511.177 128.459L510.013 126.442L494.675 145.068L496.45 148.143L511.849 129.162L509.694 125.428Z" fill="black"/>
<path d="M550.84 120.389C552.85 119.228 554.459 117.803 555.666 116.112C556.873 114.421 557.63 112.582 557.938 110.594C558.238 108.592 558.037 106.569 557.336 104.525L557.26 104.302L553.626 106.4L553.67 106.614C553.988 108.117 554.017 109.52 553.758 110.824C553.491 112.114 552.952 113.286 552.14 114.34C551.342 115.387 550.271 116.298 548.926 117.074C547.023 118.173 545.082 118.655 543.104 118.519C541.127 118.383 539.245 117.676 537.461 116.399C535.682 115.101 534.12 113.287 532.775 110.957L532.764 110.937C531.411 108.594 530.625 106.341 530.406 104.178C530.192 101.994 530.518 100.023 531.383 98.2627C532.254 96.4819 533.648 95.0381 535.565 93.9314C536.923 93.1474 538.261 92.6677 539.58 92.4921C540.898 92.3166 542.162 92.4301 543.37 92.8327C544.585 93.2144 545.716 93.8833 546.765 94.8396L547.159 95.1982L550.793 93.1L550.638 92.9233C549.225 91.3071 547.575 90.1391 545.686 89.4191C543.81 88.6915 541.835 88.421 539.76 88.6076C537.684 88.7941 535.648 89.4638 533.651 90.6167C530.975 92.1615 529.006 94.115 527.743 96.4772C526.472 98.826 525.939 101.423 526.145 104.269C526.35 107.115 527.325 110.048 529.07 113.07L529.081 113.09C530.826 116.112 532.883 118.43 535.252 120.044C537.614 121.644 540.133 122.488 542.811 122.575C545.501 122.655 548.178 121.926 550.84 120.389ZM566.059 110.964L569.533 108.958L562.132 96.1382C561.525 95.0865 561.185 94.0842 561.114 93.1312C561.049 92.1572 561.234 91.2784 561.669 90.4948C562.117 89.7035 562.787 89.0503 563.679 88.5354C564.105 88.2895 564.496 88.0904 564.852 87.9382C565.221 87.7783 565.488 87.6865 565.652 87.6629L563.703 84.2883C563.555 84.3386 563.346 84.4234 563.078 84.5428C562.815 84.6412 562.531 84.7788 562.225 84.9556C561.053 85.6319 560.245 86.5688 559.801 87.7662C559.356 88.9636 559.307 90.2613 559.652 91.6592L559.572 91.7053L557.543 88.1909L554.069 90.1969L566.059 110.964ZM585.997 99.9843C587.049 99.3771 587.903 98.6888 588.559 97.9195C589.216 97.1501 589.691 96.3434 589.984 95.4994C590.291 94.6477 590.447 93.7947 590.45 92.9405L590.53 92.8944L592.237 95.8497L595.711 93.8437L583.721 73.0771L580.247 75.083L587.302 87.3034C587.81 88.182 588.148 89.0604 588.318 89.9386C588.48 90.8034 588.471 91.6338 588.292 92.4297C588.105 93.2122 587.759 93.9354 587.255 94.5992C586.764 95.2554 586.106 95.8217 585.28 96.2982C583.683 97.2205 582.227 97.4662 580.914 97.0355C579.606 96.5837 578.464 95.5125 577.488 93.8219L570.063 80.9626L566.589 82.9685L574.371 96.4469C575.277 98.0177 576.345 99.2208 577.573 100.056C578.806 100.87 580.136 101.283 581.562 101.294C583.001 101.297 584.48 100.86 585.997 99.9843ZM600.244 91.2268L603.718 89.2208L596.201 76.2017C595.64 75.2299 595.347 74.2455 595.322 73.2485C595.296 72.2515 595.51 71.3296 595.962 70.483C596.419 69.6154 597.107 68.9164 598.026 68.3861C598.891 67.8865 599.736 67.6292 600.562 67.6141C601.401 67.5913 602.174 67.7928 602.881 68.2186C603.602 68.6368 604.204 69.2652 604.688 70.1038L612.724 84.0215L616.198 82.0155L608.578 68.8167C608.032 67.8716 607.747 66.9176 607.724 65.9549C607.693 64.9789 607.911 64.0808 608.378 63.2608C608.838 62.4275 609.527 61.7457 610.446 61.2154C611.364 60.6851 612.247 60.4152 613.093 60.4057C613.94 60.3962 614.725 60.6348 615.45 61.1216C616.188 61.6007 616.834 62.3194 617.387 63.2779L625.204 76.8162L628.678 74.8102L620.401 60.4732C619.601 59.0888 618.63 58.0521 617.487 57.3632C616.336 56.661 615.093 56.3224 613.759 56.3474C612.416 56.3591 611.06 56.7607 609.689 57.5524C608.717 58.1134 607.897 58.7996 607.23 59.611C606.576 60.4147 606.095 61.3043 605.789 62.28C605.488 63.2346 605.387 64.2427 605.485 65.3042L605.405 65.3503C604.62 64.6675 603.779 64.1946 602.882 63.9316C601.977 63.6554 601.05 63.5871 600.101 63.7267C599.158 63.8453 598.214 64.1774 597.269 64.7231C595.937 65.4916 594.957 66.4836 594.328 67.699C593.69 68.9011 593.435 70.1492 593.561 71.4432L593.481 71.4893L591.728 68.4542L588.254 70.4601L600.244 91.2268ZM640.71 68.3962C642.254 67.5047 643.482 66.4496 644.393 65.2311C645.311 63.9915 645.846 62.706 646.001 61.3745C646.168 60.0353 645.902 58.76 645.203 57.5487L645.191 57.5287C644.338 56.0511 643.232 55.1189 641.873 54.7322C640.506 54.3322 638.625 54.4864 636.229 55.1949L632.474 56.2984C631.607 56.5501 630.854 56.6745 630.213 56.6716C629.572 56.6688 629.031 56.5463 628.59 56.3042C628.154 56.0411 627.802 55.6766 627.533 55.2107L627.521 55.1908C627.167 54.5784 627.02 53.9537 627.078 53.3166C627.142 52.6586 627.407 52.0263 627.873 51.4199C628.339 50.8134 628.992 50.2681 629.831 49.7839C631.122 49.0384 632.317 48.7566 633.416 48.9385C634.528 49.1128 635.443 49.6674 636.16 50.6022L636.261 50.7304L639.576 48.8167L639.406 48.5687C638.657 47.4566 637.692 46.6297 636.509 46.0877C635.332 45.5248 634.024 45.3038 632.585 45.4246C631.152 45.5244 629.677 46.0123 628.159 46.8885C626.668 47.7493 625.493 48.7736 624.635 49.9614C623.79 51.1416 623.306 52.3792 623.184 53.6743C623.076 54.9617 623.367 56.2045 624.059 57.4026L624.07 57.4225C624.647 58.4209 625.363 59.1699 626.22 59.6694C627.076 60.169 628.08 60.4324 629.232 60.4596C630.389 60.4659 631.712 60.2522 633.201 59.8185L636.957 58.715C638.311 58.3239 639.345 58.2239 640.059 58.4152C640.773 58.6065 641.345 59.0749 641.775 59.8204L641.787 59.8403C642.148 60.466 642.283 61.1156 642.193 61.789C642.095 62.4491 641.786 63.0978 641.267 63.735C640.739 64.3589 640.003 64.9437 639.058 65.4893C637.647 66.304 636.383 66.6519 635.267 66.5329C634.144 66.4007 633.176 65.8768 632.363 64.9615L632.208 64.7849L628.734 66.7908L628.857 66.959C629.719 68.1125 630.758 68.9591 631.975 69.499C633.205 70.0312 634.562 70.2148 636.047 70.05C637.531 69.8851 639.086 69.3339 640.71 68.3962Z" fill="black"/>
<rect x="0.93791" y="372.436" width="742.997" height="78.2371" rx="6.17938" transform="rotate(-30 0.93791 372.436)" stroke="black" stroke-width="1.3732"/>
<defs>
<clipPath id="clip0_90_682">
<rect width="198" height="198" fill="white" transform="translate(537 199)"/>
</clipPath>
</defs>
</svg>
