<svg width="557" height="73" viewBox="0 0 557 73" fill="none" xmlns="http://www.w3.org/2000/svg">
<rect x="0.375" y="0.375" width="555.897" height="72.25" rx="36.125" fill="#FFD600"/>
<path d="M20.4609 49H23.625V23.6348H20.4609V49ZM28.0723 49H31.1309V38.2422C31.1309 37.1992 31.3242 36.291 31.7109 35.5176C32.1094 34.7441 32.666 34.1465 33.3809 33.7246C34.0957 33.291 34.9336 33.0742 35.8945 33.0742C37.3008 33.0742 38.3496 33.4727 39.041 34.2695C39.7441 35.0547 40.0957 36.1914 40.0957 37.6797V49H43.1543V37.1348C43.1543 35.0488 42.5977 33.4023 41.4844 32.1953C40.3828 30.9766 38.8301 30.3672 36.8262 30.3672C35.4434 30.3672 34.2832 30.6484 33.3457 31.2109C32.4082 31.7617 31.6934 32.4648 31.2012 33.3203H31.1309V30.7188H28.0723V49ZM47.0566 55.1523H50.1152V45.9414H50.1855C50.5723 46.6445 51.0527 47.2539 51.627 47.7695C52.2129 48.2734 52.8809 48.666 53.6309 48.9473C54.3809 49.2168 55.1836 49.3516 56.0391 49.3516C57.5742 49.3516 58.916 48.9648 60.0645 48.1914C61.2246 47.4062 62.127 46.3047 62.7715 44.8867C63.4277 43.4688 63.7559 41.7988 63.7559 39.877V39.8594C63.7559 37.9375 63.4336 36.2676 62.7891 34.8496C62.1445 33.4199 61.2363 32.3184 60.0645 31.5449C58.9043 30.7598 57.5449 30.3672 55.9863 30.3672C55.1191 30.3672 54.3164 30.5078 53.5781 30.7891C52.8398 31.0703 52.1836 31.4688 51.6094 31.9844C51.0469 32.4883 50.5723 33.0977 50.1855 33.8125H50.1152V30.7188H47.0566V55.1523ZM55.3887 46.6445C54.3574 46.6445 53.4434 46.3633 52.6465 45.8008C51.8613 45.2383 51.2402 44.4531 50.7832 43.4453C50.3262 42.4258 50.0977 41.2363 50.0977 39.877V39.8594C50.0977 38.4883 50.3203 37.2988 50.7656 36.291C51.2227 35.2715 51.8496 34.4805 52.6465 33.918C53.4434 33.3555 54.3574 33.0742 55.3887 33.0742C56.4668 33.0742 57.3984 33.3496 58.1836 33.9004C58.9688 34.4395 59.5723 35.2188 59.9941 36.2383C60.416 37.2461 60.627 38.4531 60.627 39.8594V39.877C60.627 41.2598 60.416 42.4609 59.9941 43.4805C59.5723 44.4883 58.9688 45.2676 58.1836 45.8184C57.3984 46.3691 56.4668 46.6445 55.3887 46.6445ZM73.0898 49.3516C74.4844 49.3516 75.6445 49.0762 76.5703 48.5254C77.5078 47.9629 78.2227 47.2539 78.7148 46.3984H78.7852V49H81.8438V30.7188H78.7852V41.4766C78.7852 42.5078 78.5859 43.416 78.1875 44.2012C77.8008 44.9746 77.25 45.5781 76.5352 46.0117C75.8203 46.4336 74.9824 46.6445 74.0215 46.6445C72.6152 46.6445 71.5605 46.252 70.8574 45.4668C70.166 44.6699 69.8203 43.5273 69.8203 42.0391V30.7188H66.7617V42.584C66.7617 43.9668 67.0078 45.168 67.5 46.1875C68.0039 47.1953 68.7246 47.9746 69.6621 48.5254C70.6113 49.0762 71.7539 49.3516 73.0898 49.3516ZM91.7754 49.3516C92.0801 49.3516 92.3789 49.334 92.6719 49.2988C92.9766 49.2754 93.2227 49.252 93.4102 49.2285V46.75C93.2812 46.7617 93.1289 46.7793 92.9531 46.8027C92.7891 46.8145 92.6133 46.8203 92.4258 46.8203C91.6055 46.8203 90.9844 46.6504 90.5625 46.3105C90.1406 45.959 89.9297 45.2969 89.9297 44.3242V33.25H93.4102V30.7188H89.9297V25.7793H86.7656V30.7188H84.0938V33.25H86.7656V44.3418C86.7656 46.0879 87.1816 47.3594 88.0137 48.1562C88.8457 48.9531 90.0996 49.3516 91.7754 49.3516Z" fill="black"/>
<line x1="110.375" y1="17" x2="110.375" y2="56" stroke="black" stroke-width="0.75"/>
<rect x="0.375" y="0.375" width="555.897" height="72.25" rx="36.125" stroke="black" stroke-width="0.75"/>
</svg>
