<svg width="78" height="17" viewBox="0 0 78 17" fill="none" xmlns="http://www.w3.org/2000/svg">
<path d="M42.7462 6.94513C40.4327 10.5769 36.3685 12.9869 31.7416 12.9869C27.1147 12.9869 23.0505 10.5769 20.7371 6.94513C23.0505 3.31333 27.1147 0.90332 31.7416 0.90332C36.3685 0.90332 40.4327 3.31333 42.7462 6.94513Z" fill="white"/>
<path d="M36.4522 6.94519C36.4522 9.60711 34.3403 11.761 31.7413 11.761C29.1424 11.761 27.0305 9.60711 27.0305 6.94519C27.0305 4.28327 29.1424 2.12939 31.7413 2.12939C34.3403 2.12939 36.4522 4.28327 36.4522 6.94519Z" fill="#FF85D5"/>
<path d="M34.3232 6.94512C34.3232 8.40623 33.1644 9.58606 31.7411 9.58606C30.3177 9.58606 29.1589 8.40623 29.1589 6.94512C29.1589 5.484 30.3177 4.3042 31.7411 4.3042C33.1644 4.3042 34.3232 5.484 34.3232 6.94512Z" fill="black"/>
<path d="M30.0534 6.93691C30.8256 6.93691 31.4515 6.31094 31.4515 5.53877C31.4515 4.7666 30.8256 4.14062 30.0534 4.14062C29.2812 4.14062 28.6553 4.7666 28.6553 5.53877C28.6553 6.31094 29.2812 6.93691 30.0534 6.93691Z" fill="white"/>
<path d="M5.36581 14.3878C6.48264 14.3878 7.43994 14.1778 8.23767 13.7622C9.03541 13.3423 9.6484 12.7629 10.0725 12.024C10.5007 11.2766 10.719 10.4117 10.719 9.4334V0.670898H9.03542V9.32425C9.03542 10.017 8.89266 10.6258 8.60715 11.159C8.32165 11.6839 7.90179 12.0953 7.35177 12.3934C6.81015 12.6915 6.14676 12.8427 5.37001 12.8427C4.59327 12.8427 3.92569 12.6915 3.37567 12.3934C2.82566 12.0953 2.40579 11.6839 2.11189 11.159C1.82638 10.63 1.68365 10.017 1.68365 9.32425V0.670898H0V9.4334C0 10.4117 0.21412 11.2766 0.646577 12.024C1.07484 12.7671 1.69204 13.3465 2.48977 13.7622C3.29591 14.182 4.25318 14.3878 5.37001 14.3878H5.36581Z" fill="white"/>
<path d="M16.6389 2.0566C16.3954 2.0566 16.2359 2.06502 16.1603 2.07762V12.5741L16.6389 12.5951H17.655V14.1654H12.9819V12.5951H14.0358L14.5144 12.5741V2.07762C14.4389 2.06502 14.2793 2.0566 14.0358 2.0566H12.9819V0.486328H17.655V2.0566H16.6389Z" fill="white"/>
<path d="M50.8245 13.9478C51.8532 13.9478 52.7391 13.7882 53.4822 13.4691C54.2296 13.1501 54.8048 12.7008 55.2037 12.113C55.6109 11.5252 55.8125 10.8366 55.8125 10.0347V10.0263C55.8125 9.34191 55.6739 8.7541 55.401 8.26707C55.1323 7.77583 54.7082 7.36436 54.1288 7.03267C53.5536 6.70098 52.8063 6.43646 51.8826 6.23913L50.3879 5.91165C49.5104 5.71851 48.8596 5.4456 48.4439 5.08871C48.0282 4.73183 47.8183 4.28259 47.8183 3.73257V3.72417C47.8183 3.28751 47.9401 2.90542 48.1836 2.58213C48.4313 2.25884 48.784 2.00693 49.2332 1.82639C49.6825 1.64585 50.2073 1.55349 50.8035 1.55349C51.3997 1.55349 51.8784 1.64166 52.3108 1.8138C52.7475 1.99014 53.1002 2.23785 53.3689 2.56114C53.6376 2.88444 53.8055 3.2791 53.8727 3.74095L53.8895 3.87111H55.5731L55.5647 3.73257C55.5143 2.99781 55.2792 2.34703 54.8636 1.78861C54.4521 1.226 53.9021 0.789345 53.2093 0.478648C52.5165 0.159553 51.7314 0 50.8539 0C49.9302 0 49.1115 0.163735 48.3935 0.487028C47.684 0.806122 47.1255 1.24699 46.7183 1.8138C46.311 2.37642 46.1053 3.02719 46.1011 3.77034V3.77875C46.1011 4.76542 46.416 5.56316 47.0458 6.17196C47.6798 6.77656 48.658 7.2258 49.9722 7.5197L51.4669 7.8472C52.3948 8.05294 53.0666 8.33424 53.478 8.68693C53.8895 9.04381 54.0952 9.51826 54.0952 10.1103V10.1186C54.0952 10.5805 53.9651 10.9836 53.7005 11.3236C53.4444 11.6679 53.0792 11.9324 52.6047 12.1172C52.1303 12.2977 51.5677 12.3901 50.9211 12.3901C50.2745 12.3901 49.6993 12.3019 49.1996 12.1298C48.7084 11.9493 48.3095 11.6973 48.0114 11.374C47.7133 11.0423 47.5286 10.6519 47.4614 10.2068L47.4446 10.0767H45.761L45.7694 10.2068C45.824 10.9752 46.0675 11.6385 46.4999 12.197C46.9366 12.7596 47.5244 13.192 48.2592 13.4985C49.0023 13.7966 49.8588 13.9478 50.8329 13.9478H50.8245Z" fill="white"/>
<path d="M57.5334 16.9964H59.1625V12.0966H59.2003C59.406 12.4703 59.6622 12.7936 59.9687 13.0707C60.2794 13.3394 60.6362 13.5494 61.0351 13.6963C61.434 13.8391 61.8622 13.9104 62.3157 13.9104C63.1344 13.9104 63.8482 13.7047 64.457 13.2932C65.0742 12.8734 65.5528 12.2898 65.8971 11.534C66.2456 10.7783 66.4219 9.89237 66.4219 8.86791V8.85951C66.4219 7.83505 66.2498 6.94915 65.9055 6.1934C65.5612 5.43345 65.0784 4.84565 64.457 4.43418C63.8398 4.01432 63.1176 3.80859 62.2863 3.80859C61.8244 3.80859 61.3962 3.88416 61.0057 4.03111C60.611 4.18226 60.2626 4.39219 59.9561 4.6651C59.658 4.93381 59.406 5.25711 59.2003 5.63918H59.1625V3.99333H57.5334V16.9964ZM61.9672 12.4703C61.4172 12.4703 60.9301 12.3192 60.5061 12.0211C60.0862 11.723 59.7587 11.3031 59.5152 10.7657C59.2717 10.2241 59.1499 9.59007 59.1499 8.86791V8.85951C59.1499 8.12895 59.2675 7.49498 59.5068 6.96175C59.7503 6.42013 60.082 6.00027 60.5061 5.69797C60.9301 5.39987 61.4172 5.24871 61.9672 5.24871C62.5172 5.24871 63.0378 5.39566 63.4535 5.68956C63.8734 5.97507 64.1925 6.39074 64.415 6.93236C64.6375 7.46978 64.7509 8.11216 64.7509 8.85951V8.86791C64.7509 9.60267 64.6375 10.2409 64.415 10.7867C64.1925 11.3241 63.8692 11.7356 63.4535 12.0295C63.0378 12.3234 62.5382 12.4703 61.9672 12.4703Z" fill="white"/>
<path d="M74.0131 3.99707L71.3218 12.0962H71.2798L68.5969 3.99707H66.8586L70.4694 13.7336L70.2721 14.2837C70.079 14.8337 69.8271 15.199 69.5164 15.3795C69.2099 15.56 68.7984 15.6524 68.282 15.6524C68.1812 15.6524 68.0846 15.6482 67.9923 15.6356C67.9041 15.623 67.8285 15.6104 67.7572 15.5978V16.9246C67.8621 16.9414 67.9923 16.9582 68.1518 16.9708C68.3156 16.9876 68.4709 17.0002 68.6304 17.0002C69.2182 17.0002 69.7137 16.9078 70.1168 16.7189C70.524 16.5299 70.8683 16.2402 71.1538 15.8497C71.4393 15.4551 71.6996 14.9512 71.9306 14.334L75.7261 3.99707H74.0131Z" fill="white"/>
<path d="M76.6041 13.8551C76.9022 13.8551 77.1541 13.7501 77.3598 13.5444C77.5655 13.3386 77.6705 13.0867 77.6705 12.7886C77.6705 12.4905 77.5655 12.2386 77.3598 12.0329C77.1541 11.8271 76.9022 11.7222 76.6041 11.7222C76.306 11.7222 76.054 11.8229 75.8483 12.0329C75.6426 12.2428 75.5376 12.4905 75.5376 12.7886C75.5376 13.0867 75.6384 13.3386 75.8483 13.5444C76.054 13.7501 76.306 13.8551 76.6041 13.8551Z" fill="white"/>
</svg>
