<svg width="540" height="98" viewBox="0 0 540 98" fill="none" xmlns="http://www.w3.org/2000/svg">
<rect x="0.375" y="0.375" width="539.25" height="97.25" rx="47.4875" fill="#FF5C00"/>
<rect x="20.375" y="20.375" width="171.25" height="57.25" rx="28.625" fill="#FF5C00"/>
<path d="M36.1875 60H38.9688V42.2031H40.2188L36.6562 38.7656L51.4531 60H54.1875V37.4531H51.4062V55.25H50.1562L53.7188 58.6875L38.9219 37.4531H36.1875V60ZM62.4219 60.3125C63.151 60.3125 63.8385 60.1927 64.4844 59.9531C65.1406 59.7031 65.7292 59.3594 66.25 58.9219C66.7708 58.474 67.1875 57.9531 67.5 57.3594H67.5625V60H70.2812V48.7656C70.2812 47.6823 70.026 46.7448 69.5156 45.9531C69.0052 45.151 68.2812 44.5312 67.3438 44.0938C66.4167 43.6562 65.3125 43.4375 64.0312 43.4375C62.7604 43.4375 61.6615 43.6562 60.7344 44.0938C59.8073 44.5208 59.0781 45.099 58.5469 45.8281C58.026 46.5573 57.724 47.3698 57.6406 48.2656L57.625 48.4375H60.25L60.2812 48.2969C60.4375 47.5677 60.8333 46.9792 61.4688 46.5312C62.1146 46.0729 62.9583 45.8438 64 45.8438C65.1354 45.8438 66.0104 46.1302 66.625 46.7031C67.25 47.2656 67.5625 48.0417 67.5625 49.0312V53.8281C67.5625 54.6094 67.3594 55.3125 66.9531 55.9375C66.5573 56.5625 66.0156 57.0573 65.3281 57.4219C64.651 57.776 63.8854 57.9531 63.0312 57.9531C62.0521 57.9531 61.2656 57.724 60.6719 57.2656C60.0885 56.8073 59.7969 56.1875 59.7969 55.4062V55.375C59.7969 54.6146 60.0938 54.0052 60.6875 53.5469C61.2917 53.0885 62.1354 52.8281 63.2188 52.7656L68.9219 52.4219V50.3125L62.9062 50.6562C61.6667 50.7292 60.6042 50.9635 59.7188 51.3594C58.8438 51.7552 58.1719 52.2917 57.7031 52.9688C57.2448 53.6458 57.0156 54.4479 57.0156 55.375V55.4062C57.0156 56.3854 57.2396 57.2448 57.6875 57.9844C58.1458 58.724 58.7812 59.2969 59.5938 59.7031C60.4062 60.1094 61.349 60.3125 62.4219 60.3125ZM78.3125 60H81.0938L87.0625 43.75H84.2344L79.7344 57.1094H79.6719L75.1875 43.75H72.3281L78.3125 60ZM89.375 60H92.0938V43.75H89.375V60ZM90.7344 41C91.2135 41 91.6146 40.8333 91.9375 40.5C92.2708 40.1667 92.4375 39.7656 92.4375 39.2969C92.4375 38.8177 92.2708 38.4167 91.9375 38.0938C91.6146 37.7604 91.2135 37.5938 90.7344 37.5938C90.2656 37.5938 89.8646 37.7604 89.5312 38.0938C89.1979 38.4167 89.0312 38.8177 89.0312 39.2969C89.0312 39.7656 89.1979 40.1667 89.5312 40.5C89.8646 40.8333 90.2656 41 90.7344 41ZM102.672 65.7812C104.141 65.7812 105.411 65.5208 106.484 65C107.557 64.4896 108.385 63.7656 108.969 62.8281C109.552 61.901 109.844 60.8073 109.844 59.5469V43.75H107.125V46.5H107.062C106.729 45.8958 106.307 45.3646 105.797 44.9062C105.297 44.4479 104.724 44.0885 104.078 43.8281C103.432 43.5677 102.724 43.4375 101.953 43.4375C100.578 43.4375 99.3698 43.7812 98.3281 44.4688C97.2865 45.1562 96.4688 46.125 95.875 47.375C95.2917 48.6146 95 50.0781 95 51.7656V51.7812C95 53.4688 95.2865 54.9427 95.8594 56.2031C96.4427 57.4531 97.25 58.4271 98.2812 59.125C99.3229 59.8125 100.526 60.1562 101.891 60.1562C102.672 60.1562 103.391 60.0365 104.047 59.7969C104.714 59.5469 105.302 59.2031 105.812 58.7656C106.323 58.3281 106.74 57.8073 107.062 57.2031H107.125V59.2812C107.125 60.5417 106.734 61.5365 105.953 62.2656C105.172 63.0052 104.068 63.375 102.641 63.375C101.536 63.375 100.609 63.2031 99.8594 62.8594C99.1198 62.526 98.6198 62.0677 98.3594 61.4844L98.2969 61.3438H95.5625L95.5938 61.4844C95.7708 62.2865 96.1615 63.0104 96.7656 63.6562C97.3802 64.3125 98.1823 64.8281 99.1719 65.2031C100.172 65.5885 101.339 65.7812 102.672 65.7812ZM102.484 57.75C101.526 57.75 100.693 57.5104 99.9844 57.0312C99.276 56.5417 98.7292 55.8542 98.3438 54.9688C97.9688 54.0729 97.7812 53.0104 97.7812 51.7812V51.7656C97.7812 50.5573 97.9688 49.5104 98.3438 48.625C98.7292 47.7396 99.276 47.0573 99.9844 46.5781C100.693 46.0885 101.526 45.8438 102.484 45.8438C103.401 45.8438 104.208 46.0885 104.906 46.5781C105.604 47.0677 106.146 47.7552 106.531 48.6406C106.927 49.526 107.125 50.5677 107.125 51.7656V51.7812C107.125 52.9792 106.927 54.026 106.531 54.9219C106.146 55.8177 105.604 56.5156 104.906 57.0156C104.219 57.5052 103.411 57.75 102.484 57.75ZM118.109 60.3125C118.839 60.3125 119.526 60.1927 120.172 59.9531C120.828 59.7031 121.417 59.3594 121.938 58.9219C122.458 58.474 122.875 57.9531 123.188 57.3594H123.25V60H125.969V48.7656C125.969 47.6823 125.714 46.7448 125.203 45.9531C124.693 45.151 123.969 44.5312 123.031 44.0938C122.104 43.6562 121 43.4375 119.719 43.4375C118.448 43.4375 117.349 43.6562 116.422 44.0938C115.495 44.5208 114.766 45.099 114.234 45.8281C113.714 46.5573 113.411 47.3698 113.328 48.2656L113.312 48.4375H115.938L115.969 48.2969C116.125 47.5677 116.521 46.9792 117.156 46.5312C117.802 46.0729 118.646 45.8438 119.688 45.8438C120.823 45.8438 121.698 46.1302 122.312 46.7031C122.938 47.2656 123.25 48.0417 123.25 49.0312V53.8281C123.25 54.6094 123.047 55.3125 122.641 55.9375C122.245 56.5625 121.703 57.0573 121.016 57.4219C120.339 57.776 119.573 57.9531 118.719 57.9531C117.74 57.9531 116.953 57.724 116.359 57.2656C115.776 56.8073 115.484 56.1875 115.484 55.4062V55.375C115.484 54.6146 115.781 54.0052 116.375 53.5469C116.979 53.0885 117.823 52.8281 118.906 52.7656L124.609 52.4219V50.3125L118.594 50.6562C117.354 50.7292 116.292 50.9635 115.406 51.3594C114.531 51.7552 113.859 52.2917 113.391 52.9688C112.932 53.6458 112.703 54.4479 112.703 55.375V55.4062C112.703 56.3854 112.927 57.2448 113.375 57.9844C113.833 58.724 114.469 59.2969 115.281 59.7031C116.094 60.1094 117.036 60.3125 118.109 60.3125ZM134.703 60.3125C134.974 60.3125 135.24 60.2969 135.5 60.2656C135.771 60.2448 135.99 60.224 136.156 60.2031V58C136.042 58.0104 135.906 58.026 135.75 58.0469C135.604 58.0573 135.448 58.0625 135.281 58.0625C134.552 58.0625 134 57.9115 133.625 57.6094C133.25 57.2969 133.062 56.7083 133.062 55.8438V46H136.156V43.75H133.062V39.3594H130.25V43.75H127.875V46H130.25V55.8594C130.25 57.4115 130.62 58.5417 131.359 59.25C132.099 59.9583 133.214 60.3125 134.703 60.3125ZM139.25 60H141.969V43.75H139.25V60ZM140.609 41C141.089 41 141.49 40.8333 141.812 40.5C142.146 40.1667 142.312 39.7656 142.312 39.2969C142.312 38.8177 142.146 38.4167 141.812 38.0938C141.49 37.7604 141.089 37.5938 140.609 37.5938C140.141 37.5938 139.74 37.7604 139.406 38.0938C139.073 38.4167 138.906 38.8177 138.906 39.2969C138.906 39.7656 139.073 40.1667 139.406 40.5C139.74 40.8333 140.141 41 140.609 41ZM152.406 60.3125C153.906 60.3125 155.219 59.9688 156.344 59.2812C157.469 58.5938 158.344 57.6198 158.969 56.3594C159.604 55.099 159.922 53.6042 159.922 51.875V51.8438C159.922 50.1146 159.604 48.625 158.969 47.375C158.344 46.1146 157.464 45.1458 156.328 44.4688C155.203 43.7812 153.891 43.4375 152.391 43.4375C150.901 43.4375 149.589 43.7812 148.453 44.4688C147.328 45.1458 146.448 46.1146 145.812 47.375C145.188 48.625 144.875 50.1146 144.875 51.8438V51.875C144.875 53.5938 145.188 55.0885 145.812 56.3594C146.448 57.6198 147.328 58.5938 148.453 59.2812C149.589 59.9688 150.906 60.3125 152.406 60.3125ZM152.422 57.9062C151.464 57.9062 150.625 57.6719 149.906 57.2031C149.198 56.724 148.646 56.0365 148.25 55.1406C147.854 54.2344 147.656 53.1458 147.656 51.875V51.8438C147.656 50.5729 147.854 49.4948 148.25 48.6094C148.646 47.7135 149.198 47.0312 149.906 46.5625C150.625 46.0833 151.453 45.8438 152.391 45.8438C153.349 45.8438 154.182 46.0781 154.891 46.5469C155.609 47.0156 156.161 47.6979 156.547 48.5938C156.943 49.4896 157.141 50.5729 157.141 51.8438V51.875C157.141 53.1458 156.943 54.2344 156.547 55.1406C156.161 56.0365 155.615 56.724 154.906 57.2031C154.208 57.6719 153.38 57.9062 152.422 57.9062ZM162.672 60H165.391V50.4375C165.391 49.5104 165.562 48.7031 165.906 48.0156C166.26 47.3281 166.755 46.7969 167.391 46.4219C168.026 46.0365 168.771 45.8437 169.625 45.8437C170.875 45.8437 171.807 46.1979 172.422 46.9062C173.047 47.6042 173.359 48.6146 173.359 49.9375V60H176.078V49.4531C176.078 47.599 175.583 46.1354 174.594 45.0625C173.615 43.9792 172.234 43.4375 170.453 43.4375C169.224 43.4375 168.193 43.6875 167.359 44.1875C166.526 44.6771 165.891 45.3021 165.453 46.0625H165.391V43.75H162.672V60Z" fill="black"/>
<rect x="20.375" y="20.375" width="171.25" height="57.25" rx="28.625" stroke="black" stroke-width="0.75"/>
<rect x="216.375" y="20.375" width="57.25" height="57.25" rx="28.625" fill="#FF5C00"/>
<rect x="245.347" y="31.3431" width="25.2073" height="25.2073" transform="rotate(45 245.347 31.3431)" fill="black" stroke="black" stroke-width="0.95725"/>
<rect x="216.375" y="20.375" width="57.25" height="57.25" rx="28.625" stroke="black" stroke-width="0.75"/>
<rect x="298.375" y="20.375" width="57.25" height="57.25" rx="28.625" fill="#FF5C00"/>
<path d="M310.766 61.069L327.346 32.3515L343.926 61.069H310.766Z" fill="black" stroke="black" stroke-width="0.95725"/>
<rect x="298.375" y="20.375" width="57.25" height="57.25" rx="28.625" stroke="black" stroke-width="0.75"/>
<rect x="380.375" y="20.375" width="57.25" height="57.25" rx="28.625" fill="#FF5C00"/>
<path d="M413.185 39.059L419.838 35.1172L418.145 42.6632L418.026 43.1938L418.568 43.2445L426.268 43.9664L420.463 49.0762L420.054 49.4355L420.463 49.7947L426.268 54.9046L418.568 55.6264L418.026 55.6772L418.145 56.2077L419.838 63.7538L413.185 59.8119L412.717 59.5348L412.501 60.0339L409.435 67.1338L406.37 60.0339L406.154 59.5348L405.686 59.8119L399.033 63.7538L400.725 56.2077L400.844 55.6772L400.303 55.6264L392.603 54.9046L398.408 49.7947L398.816 49.4355L398.408 49.0762L392.603 43.9664L400.303 43.2445L400.844 43.1938L400.725 42.6632L399.033 35.1172L405.686 39.059L406.154 39.3362L406.37 38.837L409.435 31.7371L412.501 38.837L412.717 39.3362L413.185 39.059Z" fill="black" stroke="black" stroke-width="0.95725"/>
<rect x="380.375" y="20.375" width="57.25" height="57.25" rx="28.625" stroke="black" stroke-width="0.75"/>
<rect x="462.375" y="20.375" width="57.25" height="57.25" rx="28.625" fill="#FF5C00"/>
<path d="M475.66 40.0465L491.347 30.9897L507.033 40.0465V58.1602L491.347 67.2171L475.66 58.1602V40.0465Z" fill="black" stroke="black" stroke-width="0.95725"/>
<rect x="462.375" y="20.375" width="57.25" height="57.25" rx="28.625" stroke="black" stroke-width="0.75"/>
<rect x="0.375" y="0.375" width="539.25" height="97.25" rx="47.4875" stroke="black" stroke-width="0.75"/>
</svg>
