<svg width="420" height="309" viewBox="0 0 420 309" fill="none" xmlns="http://www.w3.org/2000/svg">
<g clip-path="url(#clip0_296_574)">
<rect x="0.0175781" y="0.362549" width="419.938" height="308.637" rx="13.6565" fill="#0066FF"/>
<path d="M41.3462 78.0444H54.5962C57.4295 78.0444 59.9295 77.4299 62.0962 76.2007C64.2629 74.9715 65.9608 73.2632 67.1899 71.0757C68.4399 68.8882 69.0649 66.3674 69.0649 63.5132V63.4507C69.0649 60.5965 68.4399 58.0861 67.1899 55.9194C65.9608 53.7528 64.2629 52.0653 62.0962 50.8569C59.9295 49.6486 57.4295 49.0444 54.5962 49.0444H41.3462V54.0444H53.1587C56.3879 54.0444 58.8879 54.8778 60.6587 56.5444C62.4295 58.2111 63.3149 60.534 63.3149 63.5132V63.5757C63.3149 66.534 62.4295 68.8569 60.6587 70.5444C58.8879 72.2111 56.3879 73.0444 53.1587 73.0444H41.3462V78.0444ZM38.5337 94.1382H44.1587V49.0444H38.5337V94.1382ZM86.5962 94.7632C89.5962 94.7632 92.2212 94.0757 94.4712 92.7007C96.7212 91.3257 98.4712 89.3778 99.7212 86.8569C100.992 84.3361 101.627 81.3465 101.627 77.8882V77.8257C101.627 74.3674 100.992 71.3882 99.7212 68.8882C98.4712 66.3674 96.7108 64.4299 94.4399 63.0757C92.1899 61.7007 89.5649 61.0132 86.5649 61.0132C83.5858 61.0132 80.9608 61.7007 78.6899 63.0757C76.4399 64.4299 74.6795 66.3674 73.4087 68.8882C72.1587 71.3882 71.5337 74.3674 71.5337 77.8257V77.8882C71.5337 81.3257 72.1587 84.3153 73.4087 86.8569C74.6795 89.3778 76.4399 91.3257 78.6899 92.7007C80.9608 94.0757 83.5962 94.7632 86.5962 94.7632ZM86.6274 89.9507C84.7108 89.9507 83.0337 89.4819 81.5962 88.5444C80.1795 87.5861 79.0754 86.2111 78.2837 84.4194C77.492 82.6069 77.0962 80.4299 77.0962 77.8882V77.8257C77.0962 75.284 77.492 73.1278 78.2837 71.3569C79.0754 69.5653 80.1795 68.2007 81.5962 67.2632C83.0337 66.3049 84.6899 65.8257 86.5649 65.8257C88.4816 65.8257 90.1483 66.2944 91.5649 67.2319C93.0024 68.1694 94.1066 69.534 94.8774 71.3257C95.6691 73.1174 96.0649 75.284 96.0649 77.8257V77.8882C96.0649 80.4299 95.6691 82.6069 94.8774 84.4194C94.1066 86.2111 93.0129 87.5861 91.5962 88.5444C90.2004 89.4819 88.5441 89.9507 86.6274 89.9507ZM107.127 105.076H112.565V88.7007H112.69C113.377 89.9507 114.232 91.034 115.252 91.9507C116.294 92.8465 117.482 93.5444 118.815 94.0444C120.148 94.5236 121.575 94.7632 123.096 94.7632C125.825 94.7632 128.211 94.0757 130.252 92.7007C132.315 91.3049 133.919 89.3465 135.065 86.8257C136.232 84.3049 136.815 81.3361 136.815 77.9194V77.8882C136.815 74.4715 136.242 71.5028 135.096 68.9819C133.95 66.4403 132.336 64.4819 130.252 63.1069C128.19 61.7111 125.773 61.0132 123.002 61.0132C121.461 61.0132 120.034 61.2632 118.721 61.7632C117.409 62.2632 116.242 62.9715 115.221 63.8882C114.221 64.784 113.377 65.8674 112.69 67.1382H112.565V61.6382H107.127V105.076ZM121.94 89.9507C120.107 89.9507 118.482 89.4507 117.065 88.4507C115.669 87.4507 114.565 86.0549 113.752 84.2632C112.94 82.4507 112.534 80.3361 112.534 77.9194V77.8882C112.534 75.4507 112.93 73.3361 113.721 71.5444C114.534 69.7319 115.648 68.3257 117.065 67.3257C118.482 66.3257 120.107 65.8257 121.94 65.8257C123.857 65.8257 125.513 66.3153 126.909 67.2944C128.305 68.2528 129.377 69.6382 130.127 71.4507C130.877 73.2424 131.252 75.3882 131.252 77.8882V77.9194C131.252 80.3778 130.877 82.5132 130.127 84.3257C129.377 86.1174 128.305 87.5028 126.909 88.4819C125.513 89.4611 123.857 89.9507 121.94 89.9507ZM153.409 94.7632C155.888 94.7632 157.95 94.2736 159.596 93.2944C161.263 92.2944 162.534 91.034 163.409 89.5132H163.534V94.1382H168.971V61.6382H163.534V80.7632C163.534 82.5965 163.18 84.2111 162.471 85.6069C161.784 86.9819 160.805 88.0549 159.534 88.8257C158.263 89.5757 156.773 89.9507 155.065 89.9507C152.565 89.9507 150.69 89.2528 149.44 87.8569C148.211 86.4403 147.596 84.409 147.596 81.7632V61.6382H142.159V82.7319C142.159 85.1903 142.596 87.3257 143.471 89.1382C144.367 90.9299 145.648 92.3153 147.315 93.2944C149.002 94.2736 151.034 94.7632 153.409 94.7632ZM176.065 105.076H181.502V88.7007H181.627C182.315 89.9507 183.169 91.034 184.19 91.9507C185.232 92.8465 186.419 93.5444 187.752 94.0444C189.086 94.5236 190.513 94.7632 192.034 94.7632C194.763 94.7632 197.148 94.0757 199.19 92.7007C201.252 91.3049 202.857 89.3465 204.002 86.8257C205.169 84.3049 205.752 81.3361 205.752 77.9194V77.8882C205.752 74.4715 205.18 71.5028 204.034 68.9819C202.888 66.4403 201.273 64.4819 199.19 63.1069C197.127 61.7111 194.711 61.0132 191.94 61.0132C190.398 61.0132 188.971 61.2632 187.659 61.7632C186.346 62.2632 185.18 62.9715 184.159 63.8882C183.159 64.784 182.315 65.8674 181.627 67.1382H181.502V61.6382H176.065V105.076ZM190.877 89.9507C189.044 89.9507 187.419 89.4507 186.002 88.4507C184.607 87.4507 183.502 86.0549 182.69 84.2632C181.877 82.4507 181.471 80.3361 181.471 77.9194V77.8882C181.471 75.4507 181.867 73.3361 182.659 71.5444C183.471 69.7319 184.586 68.3257 186.002 67.3257C187.419 66.3257 189.044 65.8257 190.877 65.8257C192.794 65.8257 194.45 66.3153 195.846 67.2944C197.242 68.2528 198.315 69.6382 199.065 71.4507C199.815 73.2424 200.19 75.3882 200.19 77.8882V77.9194C200.19 80.3778 199.815 82.5132 199.065 84.3257C198.315 86.1174 197.242 87.5028 195.846 88.4819C194.45 89.4611 192.794 89.9507 190.877 89.9507Z" fill="black"/>
<g clip-path="url(#clip1_296_574)">
<path d="M375.999 45.7219L373.231 42.9539L362.257 53.9277L351.284 42.9539L348.516 45.7219L359.489 56.6957L348.516 67.6696L351.284 70.4376L362.257 59.4637L373.231 70.4376L375.999 67.6696L365.026 56.6957L375.999 45.7219Z" fill="black"/>
</g>
<line x1="0.700684" y1="222.357" x2="419.956" y2="222.357" stroke="black" stroke-width="1.21369"/>
<line x1="211.77" y1="309" x2="211.77" y2="222.964" stroke="black" stroke-width="1.21369"/>
<path d="M90.2775 276.18H93.09V266.477L101.09 253.633H97.8869L91.7306 263.758H91.6369L85.4806 253.633H82.2775L90.2775 266.477V276.18ZM106.965 276.493C107.85 276.493 108.673 276.373 109.434 276.133C110.194 275.883 110.871 275.54 111.465 275.102C112.059 274.654 112.543 274.139 112.918 273.555C113.304 272.972 113.564 272.347 113.699 271.68L113.731 271.524H111.059L111.012 271.665C110.856 272.133 110.595 272.55 110.231 272.915C109.866 273.279 109.413 273.566 108.871 273.774C108.33 273.982 107.715 274.086 107.028 274.086C106.048 274.086 105.199 273.873 104.481 273.446C103.762 273.008 103.205 272.383 102.809 271.571C102.423 270.758 102.231 269.779 102.231 268.633V267.586C102.231 266.378 102.429 265.362 102.824 264.54C103.22 263.706 103.762 263.081 104.449 262.665C105.137 262.237 105.913 262.024 106.778 262.024C107.642 262.024 108.408 262.227 109.074 262.633C109.741 263.029 110.262 263.639 110.637 264.461C111.022 265.284 111.215 266.326 111.215 267.586V268.633L112.59 266.665H100.84V268.79H113.934V267.79C113.934 266.165 113.647 264.737 113.074 263.508C112.501 262.279 111.679 261.326 110.606 260.649C109.543 259.961 108.272 259.618 106.793 259.618C105.314 259.618 104.028 259.977 102.934 260.696C101.84 261.404 100.991 262.399 100.387 263.68C99.7827 264.951 99.4806 266.425 99.4806 268.102V268.118C99.4806 269.816 99.7775 271.295 100.371 272.555C100.975 273.805 101.835 274.774 102.949 275.461C104.074 276.149 105.413 276.493 106.965 276.493ZM122.449 276.493C123.658 276.493 124.736 276.29 125.684 275.883C126.642 275.467 127.392 274.894 127.934 274.165C128.486 273.435 128.762 272.597 128.762 271.649V271.633C128.762 270.477 128.429 269.555 127.762 268.868C127.095 268.17 125.939 267.623 124.293 267.227L121.715 266.602C120.819 266.383 120.173 266.081 119.778 265.696C119.382 265.31 119.184 264.842 119.184 264.29V264.274C119.184 263.795 119.309 263.378 119.559 263.024C119.819 262.659 120.189 262.378 120.668 262.18C121.147 261.982 121.715 261.883 122.371 261.883C123.382 261.883 124.179 262.123 124.762 262.602C125.356 263.081 125.705 263.717 125.809 264.508L125.824 264.618H128.418L128.403 264.415C128.34 263.508 128.054 262.696 127.543 261.977C127.043 261.248 126.35 260.675 125.465 260.258C124.59 259.831 123.559 259.618 122.371 259.618C121.205 259.618 120.168 259.821 119.262 260.227C118.366 260.633 117.663 261.196 117.153 261.915C116.653 262.633 116.403 263.461 116.403 264.399V264.415C116.403 265.581 116.778 266.534 117.528 267.274C118.278 268.003 119.418 268.55 120.949 268.915L123.528 269.54C124.455 269.769 125.095 270.06 125.449 270.415C125.804 270.769 125.981 271.237 125.981 271.821V271.836C125.981 272.326 125.84 272.753 125.559 273.118C125.278 273.472 124.876 273.748 124.356 273.946C123.835 274.133 123.205 274.227 122.465 274.227C121.361 274.227 120.501 274.003 119.887 273.555C119.272 273.097 118.882 272.461 118.715 271.649L118.684 271.493H115.965L115.981 271.633C116.095 272.602 116.418 273.451 116.949 274.18C117.491 274.909 118.225 275.477 119.153 275.883C120.08 276.29 121.179 276.493 122.449 276.493Z" fill="black"/>
<path d="M298.666 276.18H301.447V258.383H302.697L299.135 254.946L313.932 276.18H316.666V253.633H313.885V271.43H312.635L316.197 274.868L301.4 253.633H298.666V276.18ZM327.354 276.493C328.854 276.493 330.166 276.149 331.291 275.461C332.416 274.774 333.291 273.8 333.916 272.54C334.551 271.279 334.869 269.784 334.869 268.055V268.024C334.869 266.295 334.551 264.805 333.916 263.555C333.291 262.295 332.411 261.326 331.275 260.649C330.15 259.961 328.838 259.618 327.338 259.618C325.848 259.618 324.536 259.961 323.4 260.649C322.275 261.326 321.395 262.295 320.76 263.555C320.135 264.805 319.822 266.295 319.822 268.024V268.055C319.822 269.774 320.135 271.269 320.76 272.54C321.395 273.8 322.275 274.774 323.4 275.461C324.536 276.149 325.854 276.493 327.354 276.493ZM327.369 274.086C326.411 274.086 325.572 273.852 324.854 273.383C324.145 272.904 323.593 272.217 323.197 271.321C322.801 270.415 322.604 269.326 322.604 268.055V268.024C322.604 266.753 322.801 265.675 323.197 264.79C323.593 263.894 324.145 263.211 324.854 262.743C325.572 262.264 326.4 262.024 327.338 262.024C328.296 262.024 329.13 262.258 329.838 262.727C330.557 263.196 331.109 263.878 331.494 264.774C331.89 265.67 332.088 266.753 332.088 268.024V268.055C332.088 269.326 331.89 270.415 331.494 271.321C331.109 272.217 330.562 272.904 329.854 273.383C329.156 273.852 328.327 274.086 327.369 274.086Z" fill="black"/>
</g>
<rect x="0.321002" y="0.665972" width="419.331" height="308.031" rx="13.3531" stroke="black" stroke-width="0.606847"/>
<defs>
<clipPath id="clip0_296_574">
<rect x="0.0175781" y="0.362549" width="419.938" height="308.637" rx="13.6565" fill="white"/>
</clipPath>
<clipPath id="clip1_296_574">
<rect width="47.115" height="47.115" fill="white" transform="translate(338.7 33.1382)"/>
</clipPath>
</defs>
</svg>
