<svg width="516" height="69" viewBox="0 0 516 69" fill="none" xmlns="http://www.w3.org/2000/svg">
<rect x="0.239312" y="0.239312" width="515.521" height="68.5214" rx="4.54694" fill="#FF5C00"/>
<path d="M18.7876 39.1851C18.8412 40.6852 19.2805 41.9711 20.1056 43.0426C20.9306 44.1141 22.0129 44.9392 23.3523 45.5178C24.7024 46.0857 26.1811 46.3697 27.7884 46.3697C29.6207 46.3697 31.153 46.0268 32.3853 45.341C33.6283 44.6445 34.5605 43.7498 35.182 42.6568C35.8142 41.5639 36.1303 40.412 36.1303 39.2011C36.1303 37.7332 35.6427 36.5063 34.6676 35.5204C33.6925 34.5239 32.2406 33.7256 30.3119 33.1256L28.7689 32.6434C27.3652 32.2041 26.3365 31.6897 25.6829 31.1004C25.0399 30.5003 24.7185 29.7556 24.7185 28.8662C24.7185 28.2126 24.9006 27.5965 25.265 27.0179C25.64 26.4392 26.1972 25.9678 26.9366 25.6034C27.6866 25.2391 28.6135 25.057 29.7172 25.057C30.7994 25.057 31.7263 25.2338 32.4978 25.5874C33.2693 25.9303 33.8693 26.4124 34.298 27.0339C34.7373 27.6447 34.973 28.3519 35.0052 29.1556H37.8983C37.8983 27.7626 37.5447 26.5678 36.8375 25.5713C36.141 24.5641 35.1766 23.7926 33.9444 23.2568C32.7228 22.7103 31.3245 22.4371 29.7493 22.4371C28.1742 22.4371 26.7812 22.7157 25.5704 23.2729C24.3702 23.8301 23.4273 24.6069 22.7415 25.6034C22.0665 26.6 21.7289 27.7626 21.7289 29.0913C21.7289 30.6557 22.2004 31.9308 23.1433 32.9166C24.097 33.8917 25.5328 34.6793 27.4509 35.2794L28.9939 35.7615C30.4297 36.2116 31.4691 36.7366 32.112 37.3367C32.7657 37.9367 33.0925 38.7618 33.0925 39.8119C33.0925 40.6584 32.8568 41.3764 32.3853 41.9657C31.9245 42.5443 31.2977 42.989 30.5047 43.2997C29.7118 43.5998 28.8171 43.7498 27.8206 43.7498C26.6526 43.7498 25.6293 43.5569 24.7506 43.1712C23.872 42.7854 23.1701 42.2496 22.6451 41.5639C22.12 40.8781 21.8039 40.0852 21.6968 39.1851H18.7876ZM37.7536 46H40.5664L42.7041 35.9705C42.9077 35.049 43.2506 34.2507 43.7328 33.5756C44.215 32.9006 44.7989 32.3809 45.4847 32.0165C46.1705 31.6522 46.9152 31.4701 47.7189 31.4701C48.7904 31.4701 49.6476 31.7594 50.2905 32.338C50.9442 32.9059 51.271 33.6935 51.271 34.7007C51.271 34.915 51.2549 35.1722 51.2228 35.4722C51.1906 35.7723 51.137 36.0937 51.062 36.4366L49.0208 46H51.8335L53.9712 35.9544C54.0462 35.6008 54.0998 35.2472 54.132 34.8936C54.1748 34.5293 54.1963 34.2025 54.1963 33.9132C54.1963 32.9595 53.9605 32.113 53.489 31.3736C53.0283 30.6343 52.3961 30.0556 51.5924 29.6378C50.7888 29.2091 49.8887 28.9948 48.8922 28.9948C47.6814 28.9948 46.6152 29.2574 45.6937 29.7824C44.7829 30.2967 44.0489 30.9986 43.4917 31.888H43.4274L43.9739 29.2841H41.3058L37.7536 46ZM61.6702 43.9105C60.7379 43.9105 59.9772 43.6801 59.3878 43.2194C58.8092 42.7586 58.5199 42.1371 58.5199 41.3549C58.5199 40.5084 58.8628 39.8387 59.5485 39.3458C60.245 38.8529 61.2201 38.5743 62.4738 38.51L67.0385 38.2689L66.6206 40.1334C66.4599 40.8727 66.1384 41.5264 65.6563 42.0943C65.1741 42.6622 64.5901 43.1069 63.9043 43.4283C63.2185 43.7498 62.4738 43.9105 61.6702 43.9105ZM60.9308 46.2893C61.6166 46.2893 62.2649 46.1929 62.8756 46C63.4864 45.8178 64.049 45.55 64.5633 45.1964C65.0776 44.8427 65.5223 44.4302 65.8973 43.9587H65.9456L65.5116 46H68.1958L70.4942 35.1829C70.5264 34.99 70.5531 34.7757 70.5746 34.54C70.596 34.2935 70.6067 34.0364 70.6067 33.7685C70.6067 32.8255 70.3603 32.0005 69.8674 31.2933C69.3745 30.5753 68.6833 30.0128 67.794 29.6056C66.9153 29.1984 65.8813 28.9948 64.6919 28.9948C63.3953 28.9948 62.2434 29.2199 61.2362 29.6699C60.2397 30.1092 59.4253 30.7146 58.7931 31.4861C58.1716 32.2576 57.7752 33.147 57.6037 34.1542H60.529C60.6469 33.6185 60.8665 33.1524 61.188 32.7559C61.5202 32.3487 61.9595 32.0326 62.506 31.8076C63.0632 31.5719 63.7168 31.454 64.4669 31.454C65.5491 31.454 66.3742 31.7004 66.9421 32.1933C67.51 32.6755 67.794 33.3345 67.794 34.1703C67.794 34.3096 67.7886 34.4489 67.7779 34.5882C67.7779 34.7168 67.7618 34.8507 67.7297 34.99L67.5046 36.0348L62.506 36.2919C60.3736 36.3991 58.702 36.9081 57.4912 37.8189C56.2911 38.7297 55.691 40.0048 55.691 41.6442C55.691 42.555 55.9268 43.3587 56.3982 44.0552C56.8697 44.7517 57.5019 45.2981 58.2949 45.6946C59.0985 46.0911 59.9772 46.2893 60.9308 46.2893ZM81.2631 28.9948C79.5915 28.9948 78.1074 29.4395 76.8109 30.3289C75.525 31.2075 74.5178 32.4023 73.7892 33.9132C73.0605 35.4133 72.6962 37.101 72.6962 38.9761C72.6962 40.3905 72.9534 41.6496 73.4677 42.7533C73.9928 43.8569 74.7643 44.7249 75.7822 45.3571C76.8109 45.9786 78.0753 46.2893 79.5754 46.2893C80.7541 46.2893 81.8417 46.0429 82.8382 45.55C83.8455 45.0571 84.7027 44.3927 85.4099 43.5569C86.1171 42.7104 86.6047 41.7567 86.8725 40.6959H84.1241C83.7705 41.6389 83.2025 42.3997 82.4203 42.9783C81.6381 43.5462 80.7005 43.8302 79.6076 43.8302C78.7932 43.8302 78.0806 43.6319 77.4699 43.2355C76.8698 42.839 76.3983 42.2711 76.0554 41.5317C75.7233 40.7924 75.5572 39.9084 75.5572 38.8797C75.5572 37.7867 75.6965 36.7902 75.9751 35.8901C76.2537 34.9793 76.6448 34.1971 77.1484 33.5435C77.652 32.8791 78.2467 32.3648 78.9325 32.0005C79.629 31.6362 80.3951 31.454 81.2309 31.454C82.4739 31.454 83.4329 31.7969 84.108 32.4827C84.7938 33.1684 85.1581 33.9828 85.2009 34.9257H87.9173C87.9173 34.8829 87.9173 34.8615 87.9173 34.8615C87.9173 34.8615 87.9173 34.8454 87.9173 34.8132C87.9173 33.8167 87.6708 32.8738 87.1779 31.9844C86.685 31.095 85.9457 30.3771 84.9599 29.8306C83.974 29.2734 82.7418 28.9948 81.2631 28.9948ZM91.1801 46L92.5463 39.619L94.8929 37.7867L99.1201 46H102.254L97.1592 36.1794L105.501 29.2841H101.917L93.2856 36.3723H93.2213L96.1145 22.8068H93.2856L88.3512 46H91.1801ZM112.734 46.2893C114.03 46.2893 115.188 46.0107 116.206 45.4535C117.234 44.8963 118.102 44.1409 118.809 43.1872C119.527 42.2336 120.074 41.1674 120.449 39.9887C120.824 38.7993 121.011 37.5778 121.011 36.3241C121.011 34.7811 120.749 33.4631 120.224 32.3701C119.71 31.2772 118.981 30.4414 118.038 29.8628C117.106 29.2841 116.007 28.9948 114.743 28.9948C113.682 28.9948 112.68 29.2681 111.737 29.8146C110.805 30.361 110.109 31.0575 109.648 31.904C109.637 31.904 109.626 31.904 109.616 31.904C109.616 31.904 109.61 31.904 109.6 31.904L111.512 22.8068H108.748L103.813 46H106.465L107.189 42.5443H107.269C107.451 43.2515 107.805 43.8891 108.33 44.457C108.866 45.0249 109.514 45.475 110.275 45.8071C111.036 46.1286 111.855 46.2893 112.734 46.2893ZM112.702 43.8141C111.384 43.8141 110.318 43.3748 109.503 42.4961C108.7 41.6174 108.298 40.4923 108.298 39.1208C108.298 38.0707 108.437 37.0849 108.716 36.1634C108.994 35.2418 109.385 34.4275 109.889 33.7203C110.403 33.0131 111.014 32.4612 111.721 32.0648C112.439 31.6576 113.232 31.454 114.1 31.454C115.418 31.454 116.431 31.8933 117.138 32.772C117.856 33.6506 118.215 34.8561 118.215 36.3884C118.215 37.4063 118.086 38.3654 117.829 39.2654C117.572 40.1655 117.202 40.9585 116.72 41.6442C116.238 42.3193 115.654 42.8497 114.968 43.2355C114.293 43.6212 113.538 43.8141 112.702 43.8141ZM128.405 43.9105C127.473 43.9105 126.712 43.6801 126.123 43.2194C125.544 42.7586 125.255 42.1371 125.255 41.3549C125.255 40.5084 125.598 39.8387 126.283 39.3458C126.98 38.8529 127.955 38.5743 129.209 38.51L133.773 38.2689L133.355 40.1334C133.195 40.8727 132.873 41.5264 132.391 42.0943C131.909 42.6622 131.325 43.1069 130.639 43.4283C129.953 43.7498 129.209 43.9105 128.405 43.9105ZM127.666 46.2893C128.351 46.2893 129 46.1929 129.61 46C130.221 45.8178 130.784 45.55 131.298 45.1964C131.812 44.8427 132.257 44.4302 132.632 43.9587H132.68L132.246 46H134.931L137.229 35.1829C137.261 34.99 137.288 34.7757 137.309 34.54C137.331 34.2935 137.342 34.0364 137.342 33.7685C137.342 32.8255 137.095 32.0005 136.602 31.2933C136.109 30.5753 135.418 30.0128 134.529 29.6056C133.65 29.1984 132.616 28.9948 131.427 28.9948C130.13 28.9948 128.978 29.2199 127.971 29.6699C126.975 30.1092 126.16 30.7146 125.528 31.4861C124.906 32.2576 124.51 33.147 124.339 34.1542H127.264C127.382 33.6185 127.601 33.1524 127.923 32.7559C128.255 32.3487 128.694 32.0326 129.241 31.8076C129.798 31.5719 130.452 31.454 131.202 31.454C132.284 31.454 133.109 31.7004 133.677 32.1933C134.245 32.6755 134.529 33.3345 134.529 34.1703C134.529 34.3096 134.523 34.4489 134.513 34.5882C134.513 34.7168 134.497 34.8507 134.464 34.99L134.239 36.0348L129.241 36.2919C127.108 36.3991 125.437 36.9081 124.226 37.8189C123.026 38.7297 122.426 40.0048 122.426 41.6442C122.426 42.555 122.662 43.3587 123.133 44.0552C123.605 44.7517 124.237 45.2981 125.03 45.6946C125.833 46.0911 126.712 46.2893 127.666 46.2893ZM138.435 46H141.231L143.272 36.308C143.487 35.3115 143.798 34.4757 144.205 33.8006C144.612 33.1149 145.137 32.6005 145.78 32.2576C146.433 31.904 147.232 31.7272 148.175 31.7272C148.56 31.7272 148.957 31.7647 149.364 31.8397C149.782 31.9148 150.082 31.9898 150.264 32.0648L150.859 29.4127C150.677 29.327 150.409 29.2466 150.055 29.1716C149.712 29.0859 149.337 29.0431 148.93 29.0431C147.88 29.0431 146.964 29.2627 146.182 29.702C145.41 30.1414 144.762 30.7414 144.237 31.5022H144.173L144.639 29.2841L141.987 29.2841L138.435 46Z" fill="black"/>
<path d="M452.519 46H457.373V37.3367L465.457 22.8068H460.202L455.01 32.7077H454.897L449.69 22.8068H444.45L452.519 37.3367V46ZM471.726 46.3536C472.958 46.3536 474.03 46.1929 474.94 45.8714C475.862 45.55 476.639 45.1213 477.271 44.5856C477.914 44.0498 478.423 43.4605 478.798 42.8176C479.173 42.1746 479.425 41.5371 479.553 40.9049L479.602 40.7281H475.294L475.262 40.8245C475.155 41.146 474.951 41.4621 474.651 41.7728C474.351 42.0836 473.965 42.3407 473.494 42.5443C473.022 42.7479 472.465 42.8497 471.822 42.8497C471.008 42.8497 470.306 42.6729 469.717 42.3193C469.127 41.955 468.672 41.4353 468.35 40.7602C468.04 40.0852 467.884 39.2708 467.884 38.3171V36.5009C467.884 35.5151 468.04 34.6847 468.35 34.0096C468.672 33.3238 469.111 32.8041 469.668 32.4505C470.236 32.0969 470.885 31.9201 471.613 31.9201C472.342 31.9201 472.98 32.0916 473.526 32.4344C474.083 32.7773 474.517 33.2917 474.828 33.9774C475.139 34.6525 475.294 35.4937 475.294 36.5009V38.3011L477.528 35.5365H465.554V38.4939H479.746V37.0474C479.746 35.3115 479.409 33.7953 478.734 32.4987C478.069 31.2022 477.121 30.2003 475.889 29.4931C474.667 28.7752 473.215 28.4162 471.533 28.4162C469.851 28.4162 468.388 28.7859 467.145 29.5252C465.913 30.2539 464.954 31.2933 464.268 32.6434C463.593 33.9828 463.255 35.5687 463.255 37.401V37.4171C463.255 39.2494 463.593 40.8352 464.268 42.1746C464.954 43.5141 465.929 44.5481 467.193 45.2767C468.458 45.9946 469.969 46.3536 471.726 46.3536ZM489.261 46.3536C490.74 46.3536 492.042 46.1232 493.167 45.6625C494.303 45.191 495.192 44.5374 495.835 43.7016C496.478 42.8658 496.8 41.8853 496.8 40.7602V40.7441C496.8 39.4797 496.403 38.4725 495.61 37.7224C494.828 36.9724 493.531 36.4098 491.721 36.0348L488.795 35.4079C488.217 35.2794 487.756 35.1293 487.413 34.9579C487.07 34.7864 486.824 34.5882 486.674 34.3632C486.534 34.1275 486.465 33.8649 486.465 33.5756V33.5595C486.465 33.1845 486.572 32.8631 486.786 32.5952C487 32.3166 487.306 32.1023 487.702 31.9523C488.099 31.8022 488.565 31.7272 489.101 31.7272C489.969 31.7272 490.649 31.9362 491.142 32.3541C491.646 32.7613 491.935 33.2756 492.01 33.8971L492.026 34.0257H496.35V33.8649C496.317 32.8577 496.012 31.9415 495.433 31.1165C494.865 30.2914 494.046 29.6378 492.974 29.1556C491.913 28.6627 490.622 28.4162 489.101 28.4162C487.643 28.4162 486.368 28.6412 485.275 29.0913C484.193 29.5306 483.357 30.1521 482.768 30.9557C482.179 31.7594 481.884 32.713 481.884 33.8167V33.8328C481.884 34.69 482.071 35.4508 482.446 36.1151C482.821 36.7688 483.379 37.3206 484.118 37.7707C484.868 38.21 485.8 38.5475 486.915 38.7833L489.84 39.394C490.687 39.5869 491.276 39.8226 491.608 40.1012C491.94 40.3798 492.106 40.7495 492.106 41.2103V41.2263C492.106 41.6014 491.988 41.9228 491.753 42.1907C491.528 42.4586 491.206 42.6675 490.788 42.8176C490.37 42.9569 489.861 43.0265 489.261 43.0265C488.329 43.0265 487.601 42.839 487.075 42.464C486.55 42.0889 486.213 41.5639 486.063 40.8888L486.031 40.7441H481.45L481.466 40.8888C481.595 41.9711 481.97 42.9247 482.591 43.7498C483.223 44.5642 484.097 45.2017 485.211 45.6625C486.325 46.1232 487.676 46.3536 489.261 46.3536Z" fill="black"/>
<rect x="0.239312" y="0.239312" width="515.521" height="68.5214" rx="4.54694" stroke="black" stroke-width="0.478625"/>
</svg>
