<?xml version="1.0" encoding="UTF-8"?><svg id="_레이어_2" xmlns="http://www.w3.org/2000/svg" xmlns:xlink="http://www.w3.org/1999/xlink" viewBox="0 0 214.72 900.75"><defs><style>.cls-1{fill:#fd5c02;}.cls-1,.cls-2,.cls-3,.cls-4,.cls-5,.cls-6{stroke:#000;stroke-linecap:round;stroke-linejoin:round;stroke-width:.75px;}.cls-2{fill:#fdd405;}.cls-3{fill:none;}.cls-5{fill:#0066fd;}.cls-7{clip-path:url(#clippath);}.cls-6{fill:gray;}</style><clipPath id="clippath"><path class="cls-3" d="M135.5,596.31h-57.25v201.77h57.25v-201.77Z"/></clipPath></defs><g id="_레이어_53"><g><path class="cls-5" d="M83.9,247.2H37.91v6.57h45.99v-6.57Z"/><path class="cls-5" d="M41.67,245.32h-5.63v10.32h5.63v-10.32Z"/><path class="cls-5" d="M83.9,358.41H37.91v6.57h45.99v-6.57Z"/><path class="cls-5" d="M41.67,356.53h-5.63v10.32h5.63v-10.32Z"/><path class="cls-5" d="M83.9,469.62H37.91v6.57h45.99v-6.57Z"/><path class="cls-5" d="M41.67,467.74h-5.63v10.32h5.63v-10.32Z"/><path class="cls-5" d="M123.31,304.44h45.99v-6.57h-45.99v6.57Z"/><path class="cls-5" d="M165.54,306.32h5.63v-10.32h-5.63v10.32Z"/><path class="cls-5" d="M123.31,415.65h45.99v-6.57h-45.99v6.57Z"/><path class="cls-5" d="M165.54,417.53h5.63v-10.32h-5.63v10.32Z"/><path class="cls-5" d="M123.31,526.86h45.99v-6.57h-45.99v6.57Z"/><path class="cls-5" d="M165.54,528.74h5.63v-10.32h-5.63v10.32Z"/><path class="cls-6" d="M135.52,.38h-57.25V900.38h57.25V.38Z"/><path class="cls-1" d="M214.35,52.93H.38v13.14H214.35v-13.14Z"/><path class="cls-1" d="M214.35,145.84H.38v13.14H214.35v-13.14Z"/><path class="cls-5" d="M22.43,120.5H12.11v25.34h10.32v-25.34Z"/><path class="cls-4" d="M19.61,113.93h-4.69v6.57h4.69v-6.57Z"/><path class="cls-5" d="M51.52,120.5h-10.32v25.34h10.32v-25.34Z"/><path class="cls-4" d="M48.71,113.93h-4.69v6.57h4.69v-6.57Z"/><path class="cls-5" d="M173.52,120.5h-10.32v25.34h10.32v-25.34Z"/><path class="cls-4" d="M170.71,113.93h-4.69v6.57h4.69v-6.57Z"/><path class="cls-5" d="M202.62,120.5h-10.32v25.34h10.32v-25.34Z"/><path class="cls-4" d="M199.8,113.93h-4.69v6.57h4.69v-6.57Z"/><path class="cls-5" d="M22.9,27.59H12.58v25.34h10.32V27.59Z"/><path class="cls-4" d="M20.08,21.02h-4.69v6.57h4.69v-6.57Z"/><path class="cls-5" d="M51.99,27.59h-10.32v25.34h10.32V27.59Z"/><path class="cls-4" d="M49.18,21.02h-4.69v6.57h4.69v-6.57Z"/><path class="cls-5" d="M173.99,27.59h-10.32v25.34h10.32V27.59Z"/><path class="cls-4" d="M171.18,21.02h-4.69v6.57h4.69v-6.57Z"/><path class="cls-5" d="M203.09,27.59h-10.32v25.34h10.32V27.59Z"/><path class="cls-4" d="M200.27,21.02h-4.69v6.57h4.69v-6.57Z"/><g><g class="cls-7"><path class="cls-2" d="M211.29,596.06l-35.78-35.78L-5.65,741.44l35.78,35.78,181.16-181.16Z"/><path class="cls-4" d="M247.08,631.83l-35.78-35.78L30.13,777.21l35.78,35.78,181.16-181.16Z"/><path class="cls-2" d="M282.85,667.62l-35.78-35.78-181.16,181.16,35.78,35.78,181.16-181.16Z"/><path class="cls-4" d="M175.52,560.28l-35.78-35.78L-41.43,705.66l35.78,35.78,181.16-181.16Z"/></g><path class="cls-3" d="M135.5,596.31h-57.25v201.77h57.25v-201.77Z"/></g></g></g></svg>