<svg width="113" height="463" viewBox="0 0 113 463" fill="none" xmlns="http://www.w3.org/2000/svg">
<path d="M61.4332 23.1641H50.4453V461.834H61.4332V23.1641Z" fill="black" stroke="black" stroke-width="0.75" stroke-miterlimit="10"/>
<path d="M56.362 220.405C86.9376 220.405 111.724 195.618 111.724 165.043C111.724 134.467 86.9376 109.681 56.362 109.681C25.7864 109.681 1 134.467 1 165.043C1 195.618 25.7864 220.405 56.362 220.405Z" fill="white" stroke="black" stroke-width="0.75" stroke-miterlimit="10"/>
<path d="M56.3611 213.812C83.2956 213.812 105.13 191.977 105.13 165.043C105.13 138.108 83.2956 116.273 56.3611 116.273C29.4265 116.273 7.5918 138.108 7.5918 165.043C7.5918 191.977 29.4265 213.812 56.3611 213.812Z" fill="#00B026" stroke="black" stroke-width="0.75" stroke-miterlimit="10"/>
<path d="M11.7945 99.1079C8.04169 99.1079 4.54247 97.0878 2.66608 93.8337C0.789691 90.5796 0.789691 86.5479 2.66608 83.2938L47.2346 6.10817C49.111 2.85406 52.6102 0.833984 56.363 0.833984C60.1158 0.833984 63.615 2.85406 65.4914 6.09971L110.06 83.2938C111.936 86.5479 111.936 90.5796 110.06 93.8337C108.184 97.0878 104.684 99.1079 100.932 99.1079H11.7945Z" fill="white" stroke="black" stroke-width="0.75" stroke-miterlimit="10"/>
<path d="M52.9399 9.39531L8.3714 86.5894C6.85 89.218 8.75175 92.5144 11.7945 92.5144H100.932C103.974 92.5144 105.868 89.2265 104.355 86.5894L59.7862 9.39531C58.2648 6.76667 54.4698 6.76667 52.9484 9.39531H52.9399Z" fill="#FF0400" stroke="black" stroke-width="0.75" stroke-miterlimit="10"/>
<path d="M109.416 324.848V245.837C109.416 238.172 103.202 231.958 95.5375 231.958H16.5262C8.86126 231.958 2.64764 238.172 2.64764 245.837V324.848C2.64764 332.513 8.86126 338.726 16.5262 338.726H95.5375C103.202 338.726 109.416 332.513 109.416 324.848Z" fill="white" stroke="black" stroke-width="0.75" stroke-miterlimit="10"/>
<path d="M95.5458 238.543H16.526C12.5022 238.543 9.24023 241.805 9.24023 245.829V324.849C9.24023 328.872 12.5022 332.134 16.526 332.134H95.5458C99.5697 332.134 102.832 328.872 102.832 324.849V245.829C102.832 241.805 99.5697 238.543 95.5458 238.543Z" fill="#0066FF" stroke="black" stroke-width="0.75" stroke-miterlimit="10"/>
<path d="M49.7785 77.213C52.0268 77.213 53.9539 76.7904 55.5598 75.9536C57.1657 75.1084 58.3998 73.942 59.2534 72.4544C60.1156 70.9499 60.5551 69.2087 60.5551 67.2394V49.5996H57.1657V67.0196C57.1657 68.4142 56.8784 69.6398 56.3036 70.7132C55.7289 71.7698 54.8836 72.5981 53.7764 73.1982C52.6861 73.7983 51.3506 74.1026 49.7869 74.1026C48.2233 74.1026 46.8794 73.7983 45.7721 73.1982C44.6649 72.5981 43.8197 71.7698 43.228 70.7132C42.6533 69.6483 42.3659 68.4142 42.3659 67.0196V49.5996H38.9766V67.2394C38.9766 69.2087 39.4076 70.9499 40.2782 72.4544C41.1403 73.9504 42.3828 75.1168 43.9887 75.9536C45.6116 76.7988 47.5387 77.213 49.7869 77.213H49.7785Z" fill="white" stroke="black" stroke-width="0.75" stroke-miterlimit="10"/>
<path d="M72.4722 52.3984C71.982 52.3984 71.6608 52.4153 71.5087 52.4407V73.5712L72.4722 73.6135H74.5177V76.7746H65.1104V73.6135H67.2319L68.1954 73.5712V52.4407C68.0433 52.4153 67.7221 52.3984 67.2319 52.3984H65.1104V49.2373H74.5177V52.3984H72.4722V52.3984Z" fill="white" stroke="black" stroke-width="0.75" stroke-miterlimit="10"/>
<path d="M36.0772 296.306C38.148 296.306 39.9314 295.985 41.4274 295.342C42.9319 294.7 44.0899 293.795 44.8928 292.612C45.7127 291.429 46.1184 290.043 46.1184 288.428V288.411C46.1184 287.034 45.8395 285.85 45.2901 284.87C44.7491 283.881 43.8955 283.053 42.7291 282.385C41.5711 281.717 40.0666 281.185 38.2071 280.788L35.1981 280.128C33.4316 279.739 32.1215 279.19 31.2848 278.472C30.448 277.753 30.0254 276.849 30.0254 275.742V275.725C30.0254 274.846 30.2705 274.076 30.7607 273.426C31.2594 272.775 31.9694 272.268 32.8738 271.904C33.7782 271.541 34.8347 271.355 36.0349 271.355C37.2351 271.355 38.1987 271.532 39.0692 271.879C39.9483 272.234 40.6583 272.733 41.1992 273.383C41.7401 274.034 42.0782 274.829 42.2135 275.758L42.2473 276.02H45.6366L45.6197 275.742C45.5183 274.262 45.045 272.952 44.2082 271.828C43.3799 270.696 42.2726 269.817 40.878 269.191C39.4834 268.549 37.9028 268.228 36.1363 268.228C34.2768 268.228 32.6287 268.557 31.1833 269.208C29.7549 269.85 28.6308 270.738 27.8109 271.879C26.991 273.011 26.5769 274.322 26.5684 275.818V275.835C26.5684 277.821 27.2023 279.427 28.4702 280.652C29.7465 281.869 31.7158 282.774 34.3614 283.365L37.3703 284.025C39.2383 284.439 40.5906 285.005 41.419 285.715C42.2473 286.434 42.6614 287.389 42.6614 288.58V288.597C42.6614 289.527 42.3994 290.339 41.8669 291.023C41.3513 291.716 40.616 292.249 39.6609 292.621C38.7058 292.984 37.5732 293.17 36.2716 293.17C34.9699 293.17 33.812 292.993 32.8062 292.646C31.8172 292.283 31.0143 291.775 30.4142 291.125C29.8141 290.457 29.4422 289.671 29.3069 288.775L29.2731 288.513H25.8838L25.9007 288.775C26.0106 290.322 26.5008 291.657 27.3714 292.781C28.2504 293.914 29.4337 294.784 30.9129 295.401C32.4089 296.002 34.1332 296.306 36.0941 296.306H36.0772Z" fill="white" stroke="black" stroke-width="0.75" stroke-miterlimit="10"/>
<path d="M49.5752 302.442H52.8547V292.578H52.9307C53.3449 293.33 53.8605 293.981 54.4775 294.539C55.1029 295.08 55.8214 295.503 56.6243 295.799C57.4273 296.086 58.2894 296.23 59.2023 296.23C60.8505 296.23 62.2873 295.815 63.5129 294.987C64.7554 294.142 65.7189 292.967 66.412 291.446C67.1135 289.924 67.4685 288.141 67.4685 286.078V286.062C67.4685 283.999 67.122 282.216 66.4289 280.694C65.7358 279.165 64.7638 277.981 63.5129 277.153C62.2704 276.308 60.8166 275.894 59.1431 275.894C58.2134 275.894 57.3512 276.046 56.5652 276.342C55.7707 276.646 55.0691 277.068 54.4521 277.618C53.852 278.159 53.3449 278.81 52.9307 279.579H52.8547V276.265H49.5752V302.442V302.442ZM58.5007 293.33C57.3935 293.33 56.413 293.026 55.5594 292.426C54.7141 291.826 54.0549 290.981 53.5646 289.899C53.0744 288.809 52.8293 287.532 52.8293 286.078V286.062C52.8293 284.591 53.066 283.315 53.5477 282.241C54.038 281.151 54.7057 280.306 55.5594 279.697C56.413 279.097 57.3935 278.793 58.5007 278.793C59.608 278.793 60.656 279.089 61.4928 279.68C62.338 280.255 62.9804 281.092 63.4284 282.182C63.8763 283.264 64.1046 284.557 64.1046 286.062V286.078C64.1046 287.558 63.8763 288.842 63.4284 289.941C62.9804 291.023 62.3296 291.851 61.4928 292.443C60.656 293.035 59.6502 293.33 58.5007 293.33Z" fill="white" stroke="black" stroke-width="0.75" stroke-miterlimit="10"/>
<path d="M82.7512 276.274L77.3333 292.579H77.2488L71.8478 276.274H68.3486L75.6175 295.875L75.2203 296.982C74.8315 298.09 74.3244 298.825 73.6989 299.188C73.0819 299.552 72.2536 299.738 71.2139 299.738C71.0111 299.738 70.8167 299.729 70.6307 299.704C70.4532 299.679 70.3011 299.653 70.1574 299.628V302.299C70.3687 302.333 70.6307 302.366 70.9519 302.392C71.2816 302.426 71.5943 302.451 71.9155 302.451C73.0988 302.451 74.0961 302.265 74.9076 301.885C75.7274 301.504 76.4205 300.921 76.9953 300.135C77.57 299.34 78.094 298.326 78.5589 297.084L86.1997 276.274H82.7512V276.274Z" fill="white" stroke="black" stroke-width="0.75" stroke-miterlimit="10"/>
<path d="M89.5536 165.042C82.5721 175.996 70.3164 183.265 56.3618 183.265C42.4072 183.265 30.143 175.996 23.1699 165.042C30.1515 154.088 42.4072 146.819 56.3618 146.819C70.3164 146.819 82.5805 154.088 89.5536 165.042V165.042Z" fill="white" stroke="black" stroke-width="0.75" stroke-miterlimit="10"/>
<path d="M70.5697 165.04C70.5697 173.062 64.2052 179.561 56.3615 179.561C48.5178 179.561 42.1533 173.062 42.1533 165.04C42.1533 157.019 48.5178 150.52 56.3615 150.52C64.2052 150.52 70.5697 157.019 70.5697 165.04Z" fill="#0066FF" stroke="black" stroke-width="0.75"/>
<path d="M64.1542 165.04C64.1542 169.443 60.6635 173.01 56.3613 173.01C52.0591 173.01 48.5684 169.443 48.5684 165.04C48.5684 160.636 52.0591 157.069 56.3613 157.069C60.6635 157.069 64.1542 160.636 64.1542 165.04Z" fill="black" stroke="black" stroke-width="0.75"/>
<path d="M51.273 165.034C53.607 165.034 55.4991 163.142 55.4991 160.808C55.4991 158.474 53.607 156.582 51.273 156.582C48.939 156.582 47.0469 158.474 47.0469 160.808C47.0469 163.142 48.939 165.034 51.273 165.034Z" fill="white" stroke="black" stroke-width="0.75"/>
</svg>
