<svg width="176" height="78" viewBox="0 0 176 78" fill="none" xmlns="http://www.w3.org/2000/svg">
<rect x="1" y="1" width="174" height="76" rx="38" fill="#00B026"/>
<rect x="11.4786" y="11.4786" width="55.0428" height="55.0428" rx="27.5214" fill="#00B026" stroke="black" stroke-width="0.95725"/>
<path d="M82.8906 50H85.7031V29.9844H92.8125V27.4531H75.7812V29.9844H82.8906V50ZM97.875 50.3125C99.375 50.3125 100.688 49.9688 101.812 49.2812C102.938 48.5938 103.812 47.6198 104.438 46.3594C105.073 45.099 105.391 43.6042 105.391 41.875V41.8438C105.391 40.1146 105.073 38.625 104.438 37.375C103.812 36.1146 102.932 35.1458 101.797 34.4688C100.672 33.7812 99.3594 33.4375 97.8594 33.4375C96.3698 33.4375 95.0573 33.7812 93.9219 34.4688C92.7969 35.1458 91.9167 36.1146 91.2812 37.375C90.6562 38.625 90.3438 40.1146 90.3438 41.8438V41.875C90.3438 43.5938 90.6562 45.0885 91.2812 46.3594C91.9167 47.6198 92.7969 48.5938 93.9219 49.2812C95.0573 49.9688 96.375 50.3125 97.875 50.3125ZM97.8906 47.9062C96.9323 47.9062 96.0938 47.6719 95.375 47.2031C94.6667 46.724 94.1146 46.0365 93.7188 45.1406C93.3229 44.2344 93.125 43.1458 93.125 41.875V41.8438C93.125 40.5729 93.3229 39.4948 93.7188 38.6094C94.1146 37.7135 94.6667 37.0312 95.375 36.5625C96.0938 36.0833 96.9219 35.8438 97.8594 35.8438C98.8177 35.8438 99.651 36.0781 100.359 36.5469C101.078 37.0156 101.63 37.6979 102.016 38.5938C102.411 39.4896 102.609 40.5729 102.609 41.8438V41.875C102.609 43.1458 102.411 44.2344 102.016 45.1406C101.63 46.0365 101.083 46.724 100.375 47.2031C99.6771 47.6719 98.849 47.9062 97.8906 47.9062ZM115.016 55.7812C116.484 55.7812 117.755 55.5208 118.828 55C119.901 54.4896 120.729 53.7656 121.312 52.8281C121.896 51.901 122.188 50.8073 122.188 49.5469V33.75H119.469V36.5H119.406C119.073 35.8958 118.651 35.3646 118.141 34.9062C117.641 34.4479 117.068 34.0885 116.422 33.8281C115.776 33.5677 115.068 33.4375 114.297 33.4375C112.922 33.4375 111.714 33.7812 110.672 34.4688C109.63 35.1562 108.812 36.125 108.219 37.375C107.635 38.6146 107.344 40.0781 107.344 41.7656V41.7812C107.344 43.4688 107.63 44.9427 108.203 46.2031C108.786 47.4531 109.594 48.4271 110.625 49.125C111.667 49.8125 112.87 50.1562 114.234 50.1562C115.016 50.1562 115.734 50.0365 116.391 49.7969C117.057 49.5469 117.646 49.2031 118.156 48.7656C118.667 48.3281 119.083 47.8073 119.406 47.2031H119.469V49.2812C119.469 50.5417 119.078 51.5365 118.297 52.2656C117.516 53.0052 116.411 53.375 114.984 53.375C113.88 53.375 112.953 53.2031 112.203 52.8594C111.464 52.526 110.964 52.0677 110.703 51.4844L110.641 51.3438H107.906L107.938 51.4844C108.115 52.2865 108.505 53.0104 109.109 53.6562C109.724 54.3125 110.526 54.8281 111.516 55.2031C112.516 55.5885 113.682 55.7812 115.016 55.7812ZM114.828 47.75C113.87 47.75 113.036 47.5104 112.328 47.0312C111.62 46.5417 111.073 45.8542 110.688 44.9688C110.312 44.0729 110.125 43.0104 110.125 41.7812V41.7656C110.125 40.5573 110.312 39.5104 110.688 38.625C111.073 37.7396 111.62 37.0573 112.328 36.5781C113.036 36.0885 113.87 35.8438 114.828 35.8438C115.745 35.8438 116.552 36.0885 117.25 36.5781C117.948 37.0677 118.49 37.7552 118.875 38.6406C119.271 39.526 119.469 40.5677 119.469 41.7656V41.7812C119.469 42.9792 119.271 44.026 118.875 44.9219C118.49 45.8177 117.948 46.5156 117.25 47.0156C116.562 47.5052 115.755 47.75 114.828 47.75ZM132.578 55.7812C134.047 55.7812 135.318 55.5208 136.391 55C137.464 54.4896 138.292 53.7656 138.875 52.8281C139.458 51.901 139.75 50.8073 139.75 49.5469V33.75H137.031V36.5H136.969C136.635 35.8958 136.214 35.3646 135.703 34.9062C135.203 34.4479 134.63 34.0885 133.984 33.8281C133.339 33.5677 132.63 33.4375 131.859 33.4375C130.484 33.4375 129.276 33.7812 128.234 34.4688C127.193 35.1562 126.375 36.125 125.781 37.375C125.198 38.6146 124.906 40.0781 124.906 41.7656V41.7812C124.906 43.4688 125.193 44.9427 125.766 46.2031C126.349 47.4531 127.156 48.4271 128.188 49.125C129.229 49.8125 130.432 50.1562 131.797 50.1562C132.578 50.1562 133.297 50.0365 133.953 49.7969C134.62 49.5469 135.208 49.2031 135.719 48.7656C136.229 48.3281 136.646 47.8073 136.969 47.2031H137.031V49.2812C137.031 50.5417 136.641 51.5365 135.859 52.2656C135.078 53.0052 133.974 53.375 132.547 53.375C131.443 53.375 130.516 53.2031 129.766 52.8594C129.026 52.526 128.526 52.0677 128.266 51.4844L128.203 51.3438H125.469L125.5 51.4844C125.677 52.2865 126.068 53.0104 126.672 53.6562C127.286 54.3125 128.089 54.8281 129.078 55.2031C130.078 55.5885 131.245 55.7812 132.578 55.7812ZM132.391 47.75C131.432 47.75 130.599 47.5104 129.891 47.0312C129.182 46.5417 128.635 45.8542 128.25 44.9688C127.875 44.0729 127.688 43.0104 127.688 41.7812V41.7656C127.688 40.5573 127.875 39.5104 128.25 38.625C128.635 37.7396 129.182 37.0573 129.891 36.5781C130.599 36.0885 131.432 35.8438 132.391 35.8438C133.307 35.8438 134.115 36.0885 134.812 36.5781C135.51 37.0677 136.052 37.7552 136.438 38.6406C136.833 39.526 137.031 40.5677 137.031 41.7656V41.7812C137.031 42.9792 136.833 44.026 136.438 44.9219C136.052 45.8177 135.51 46.5156 134.812 47.0156C134.125 47.5052 133.318 47.75 132.391 47.75ZM143.406 50H146.125V27.4531H143.406V50ZM156.484 50.3125C157.37 50.3125 158.193 50.1927 158.953 49.9531C159.714 49.7031 160.391 49.3594 160.984 48.9219C161.578 48.474 162.062 47.9583 162.438 47.375C162.823 46.7917 163.083 46.1667 163.219 45.5L163.25 45.3438H160.578L160.531 45.4844C160.375 45.9531 160.115 46.3698 159.75 46.7344C159.385 47.099 158.932 47.3854 158.391 47.5938C157.849 47.8021 157.234 47.9062 156.547 47.9062C155.568 47.9062 154.719 47.6927 154 47.2656C153.281 46.8281 152.724 46.2031 152.328 45.3906C151.943 44.5781 151.75 43.599 151.75 42.4531V41.4062C151.75 40.1979 151.948 39.1823 152.344 38.3594C152.74 37.526 153.281 36.901 153.969 36.4844C154.656 36.0573 155.432 35.8438 156.297 35.8438C157.161 35.8438 157.927 36.0469 158.594 36.4531C159.26 36.849 159.781 37.4583 160.156 38.2812C160.542 39.1042 160.734 40.1458 160.734 41.4062V42.4531L162.109 40.4844H150.359V42.6094H163.453V41.6094C163.453 39.9844 163.167 38.5573 162.594 37.3281C162.021 36.099 161.198 35.1458 160.125 34.4688C159.062 33.7812 157.792 33.4375 156.312 33.4375C154.833 33.4375 153.547 33.7969 152.453 34.5156C151.359 35.224 150.51 36.2188 149.906 37.5C149.302 38.7708 149 40.2448 149 41.9219V41.9375C149 43.6354 149.297 45.1146 149.891 46.375C150.495 47.625 151.354 48.5938 152.469 49.2812C153.594 49.9688 154.932 50.3125 156.484 50.3125Z" fill="black"/>
<rect x="1" y="1" width="174" height="76" rx="38" stroke="black" stroke-width="0.478625"/>
</svg>
