<svg width="58" height="58" viewBox="0 0 58 58" fill="none" xmlns="http://www.w3.org/2000/svg">
<path d="M32.6549 18.5292L39.3085 14.5874L37.6157 22.1334L37.4967 22.664L38.038 22.7147L45.7378 23.4366L39.9329 28.5464L39.5247 28.9057L39.9329 29.265L45.7378 34.3748L38.038 35.0966L37.4967 35.1474L37.6157 35.6779L39.3085 43.224L32.6549 39.2821L32.1871 39.005L31.9716 39.5042L28.9057 46.6041L25.8398 39.5042L25.6242 39.005L25.1564 39.2821L18.5028 43.224L20.1957 35.6779L20.3147 35.1474L19.7733 35.0966L12.0735 34.3748L17.8785 29.265L18.2867 28.9057L17.8785 28.5464L12.0735 23.4366L19.7733 22.7147L20.3147 22.664L20.1957 22.1334L18.5028 14.5874L25.1564 18.5292L25.6242 18.8064L25.8398 18.3072L28.9057 11.2073L31.9716 18.3072L32.1871 18.8064L32.6549 18.5292Z" fill="black" stroke="black" stroke-width="0.95725"/>
</svg>
