<svg width="360" height="360" viewBox="0 0 360 360" fill="none" xmlns="http://www.w3.org/2000/svg">
<path d="M346.804 1H12.8564C6.30829 1 1 6.30829 1 12.8564V346.804C1 353.352 6.30829 358.66 12.8564 358.66H346.804C353.352 358.66 358.66 353.352 358.66 346.804V12.8564C358.66 6.30829 353.352 1 346.804 1Z" fill="#FF0400" stroke="black" stroke-width="0.75" stroke-miterlimit="10"/>
<path d="M179.83 339.879C268.223 339.879 339.879 268.223 339.879 179.83C339.879 91.4368 268.223 19.7803 179.83 19.7803C91.4368 19.7803 19.7803 91.4368 19.7803 179.83C19.7803 268.223 91.4368 339.879 179.83 339.879Z" fill="#FFD600" stroke="black" stroke-width="0.75" stroke-miterlimit="10"/>
<path d="M179.83 321.656C258.159 321.656 321.656 258.158 321.656 179.83C321.656 101.501 258.159 38.0037 179.83 38.0037C101.502 38.0037 38.0039 101.501 38.0039 179.83C38.0039 258.158 101.502 321.656 179.83 321.656Z" fill="#FF85D5" stroke="black" stroke-width="0.75" stroke-miterlimit="10"/>
<path d="M179.83 77.4858L202.037 53.856L214.83 83.6629L243.783 69.0441L245.609 101.436L277.823 97.6061L268.456 128.658L300.03 136.08L280.609 162.057L307.748 179.83L280.609 197.591L300.03 223.58L268.456 230.991L277.823 262.054L245.609 258.213L243.783 290.604L214.83 275.986L202.037 305.804L179.83 282.163L157.611 305.804L144.83 275.986L115.865 290.604L114.05 258.213L81.8367 262.054L91.2032 230.991L59.6178 223.58L79.0504 197.591L51.9111 179.83L79.0504 162.057L59.6178 136.08L91.2032 128.658L81.8367 97.6061L114.05 101.436L115.865 69.0441L144.83 83.6629L157.611 53.856L179.83 77.4858Z" fill="white" stroke="black" stroke-width="0.75" stroke-miterlimit="10"/>
<path d="M145.15 188.141C131.633 188.734 116.493 189.185 106.095 189.185L104.162 179.237C116.339 179.237 129.404 179.237 141.581 178.787V155.477H152.572V178.348C165.199 177.755 178.265 176.712 187.026 175.23L188.212 184.442C176.628 186.375 157.468 187.56 145.15 188.153V188.141ZM133.27 168.246L122.575 166.61C125.847 155.619 127.626 143.443 127.626 133.353H109.355V124.295H138.759C138.759 139.589 136.388 156.959 133.27 168.246V168.246ZM164.748 244.578C138.759 244.578 122.136 236.563 122.136 221.707C122.136 206.851 139.067 198.99 164.606 198.99C190.145 198.99 207.965 207.301 207.965 221.707C207.965 236.112 190.738 244.578 164.748 244.578ZM133.708 221.707C133.708 230.611 146.181 235.365 164.748 235.365C183.315 235.365 196.381 230.765 196.381 221.707C196.381 212.649 183.908 208.345 164.748 208.345C145.588 208.345 133.708 213.241 133.708 221.707ZM175.135 168.104L164.298 166.468C167.262 155.477 168.305 144.19 168.305 133.353H148.256V124.295H179.592C179.592 140.182 177.956 156.959 175.135 168.104V168.104ZM206.175 164.239V199.132H194.887V115.082H206.175V154.73H225.631V164.239H206.175Z" fill="#0066FF" stroke="black" stroke-width="0.75"/>
<path d="M241.969 123.251H255.486L253.707 205.819H243.76L241.981 123.251H241.969ZM242.42 217.842H255.189V231.061H242.42V217.842Z" fill="#0066FF" stroke="black" stroke-width="0.75"/>
</svg>
