<svg width="304" height="304" viewBox="0 0 304 304" fill="none" xmlns="http://www.w3.org/2000/svg">
<path d="M292.66 1H11C5.47715 1 1 5.47715 1 11V292.66C1 298.183 5.47715 302.66 11 302.66H292.66C298.183 302.66 302.66 298.183 302.66 292.66V11C302.66 5.47715 298.183 1 292.66 1Z" fill="#FF0400" stroke="black" stroke-width="0.75" stroke-miterlimit="10"/>
<path d="M151.83 286.82C226.383 286.82 286.82 226.383 286.82 151.83C286.82 77.2769 226.383 16.8398 151.83 16.8398C77.2771 16.8398 16.84 77.2769 16.84 151.83C16.84 226.383 77.2771 286.82 151.83 286.82Z" fill="#FFD600" stroke="black" stroke-width="0.75" stroke-miterlimit="10"/>
<path d="M151.83 271.45C217.894 271.45 271.45 217.894 271.45 151.83C271.45 85.7657 217.894 32.21 151.83 32.21C85.7657 32.21 32.21 85.7657 32.21 151.83C32.21 217.894 85.7657 271.45 151.83 271.45Z" fill="#FF85D5" stroke="black" stroke-width="0.75" stroke-miterlimit="10"/>
<path d="M151.83 65.5101L170.56 45.5801L181.35 70.7201L205.77 58.3901L207.31 85.7101L234.48 82.4801L226.58 108.67L253.21 114.93L236.83 136.84L259.72 151.83L236.83 166.81L253.21 188.73L226.58 194.98L234.48 221.18L207.31 217.94L205.77 245.26L181.35 232.93L170.56 258.08L151.83 238.14L133.09 258.08L122.31 232.93L97.88 245.26L96.35 217.94L69.18 221.18L77.08 194.98L50.44 188.73L66.83 166.81L43.94 151.83L66.83 136.84L50.44 114.93L77.08 108.67L69.18 82.4801L96.35 85.7101L97.88 58.3901L122.31 70.7201L133.09 45.5801L151.83 65.5101Z" fill="white" stroke="black" stroke-width="0.75" stroke-miterlimit="10"/>
<path d="M122.58 158.84C111.18 159.34 98.41 159.72 89.64 159.72L88.01 151.33C98.28 151.33 109.3 151.33 119.57 150.95V131.29H128.84V150.58C139.49 150.08 150.51 149.2 157.9 147.95L158.9 155.72C149.13 157.35 132.97 158.35 122.58 158.85V158.84ZM112.56 142.06L103.54 140.68C106.3 131.41 107.8 121.14 107.8 112.63H92.39V104.99H117.19C117.19 117.89 115.19 132.54 112.56 142.06V142.06ZM139.11 206.44C117.19 206.44 103.17 199.68 103.17 187.15C103.17 174.62 117.45 167.99 138.99 167.99C160.53 167.99 175.56 175 175.56 187.15C175.56 199.3 161.03 206.44 139.11 206.44ZM112.93 187.15C112.93 194.66 123.45 198.67 139.11 198.67C154.77 198.67 165.79 194.79 165.79 187.15C165.79 179.51 155.27 175.88 139.11 175.88C122.95 175.88 112.93 180.01 112.93 187.15ZM147.87 141.94L138.73 140.56C141.23 131.29 142.11 121.77 142.11 112.63H125.2V104.99H151.63C151.63 118.39 150.25 132.54 147.87 141.94V141.94ZM174.05 138.68V168.11H164.53V97.22H174.05V130.66H190.46V138.68H174.05Z" fill="#0066FF" stroke="black" stroke-width="0.75"/>
<path d="M204.24 104.11H215.64L214.14 173.75H205.75L204.25 104.11H204.24ZM204.62 183.89H215.39V195.04H204.62V183.89Z" fill="#0066FF" stroke="black" stroke-width="0.75"/>
</svg>
