<svg width="299" height="285" viewBox="0 0 299 285" fill="none" xmlns="http://www.w3.org/2000/svg">
<path d="M235.656 284.208C233.816 284.208 231.975 283.643 230.416 282.5L149.428 223.659L68.4394 282.5C66.8807 283.629 65.0401 284.208 63.1994 284.208C61.3588 284.208 59.5181 283.643 57.9595 282.5C54.8423 280.229 53.536 276.207 54.7236 272.54L85.6583 177.331L4.66979 118.49C1.55256 116.219 0.246296 112.196 1.43381 108.529C2.62133 104.863 6.05028 102.369 9.9097 102.369H110.032L140.967 7.16027C142.154 3.49382 145.583 1 149.443 1C153.302 1 156.716 3.47897 157.919 7.16027L188.853 102.369H288.961C292.82 102.369 296.234 104.848 297.437 108.529C298.639 112.211 297.318 116.219 294.201 118.49L213.212 177.331L244.147 272.54C245.335 276.207 244.028 280.229 240.911 282.5C239.352 283.629 237.512 284.208 235.671 284.208H235.656Z" fill="white" stroke="black" stroke-width="0.75"/>
<path d="M149.442 9.93604L181.951 109.999L182.381 111.305H288.961L203.846 173.145L202.732 173.947L203.163 175.253L235.671 275.316L150.556 213.476L149.442 212.674L148.329 213.476L63.2141 275.316L95.7223 175.253L96.1527 173.947L95.0395 173.145L9.92432 111.305H116.504L116.934 109.999L149.442 9.93604V9.93604Z" fill="#0066FF" stroke="black" stroke-width="0.75"/>
</svg>
