<svg width="275" height="286" viewBox="0 0 275 286" fill="none" xmlns="http://www.w3.org/2000/svg">
<path d="M9.37292 285.444C6.64164 285.444 4.05867 284.197 2.38131 282.045C0.703942 279.892 0.0805036 277.102 0.718793 274.445L64.9931 7.2538C65.958 3.24594 69.5353 0.425537 73.6471 0.425537C77.7588 0.425537 81.3362 3.24594 82.301 7.2538L105.562 103.918L128.822 7.2538C129.787 3.24594 133.364 0.425537 137.476 0.425537C141.588 0.425537 145.165 3.24594 146.13 7.2538L169.39 103.918L192.651 7.2538C193.616 3.24594 197.193 0.425537 201.305 0.425537C205.417 0.425537 208.994 3.24594 209.959 7.2538L274.233 274.445C274.871 277.102 274.263 279.892 272.571 282.045C270.878 284.197 268.296 285.444 265.579 285.444H9.37292Z" fill="white" stroke="black" stroke-width="0.75" stroke-miterlimit="10"/>
<path d="M73.6472 9.34668L9.37305 276.538H137.936L73.6472 9.34668Z" fill="#FF5C00" stroke="black" stroke-width="0.75" stroke-miterlimit="10"/>
<path d="M137.476 9.34668L73.2021 276.538H201.765L137.476 9.34668Z" fill="#EDEDED" stroke="black" stroke-width="0.75" stroke-miterlimit="10"/>
<path d="M201.305 9.34668L137.031 276.538H265.594L201.305 9.34668Z" fill="#0066FF" stroke="black" stroke-width="0.75" stroke-miterlimit="10"/>
</svg>
