<svg width="227" height="208" viewBox="0 0 227 208" fill="none" xmlns="http://www.w3.org/2000/svg">
<path d="M113.51 207.034C111.343 207.034 109.191 206.248 107.484 204.689L92.3723 190.795C79.0573 178.638 66.7814 167.342 55.9008 157.233C45.8218 148.163 36.1139 138.337 27.163 128.124C19.459 119.44 12.9574 109.807 7.88073 99.5049C2.90802 89.3219 0.399332 78.5155 0.399332 67.3677C0.325112 58.4762 2.00246 49.6887 5.38687 41.3167C8.65254 33.4346 13.3284 26.3391 19.3105 20.1195C19.3402 20.0898 19.3848 20.0454 19.4145 20.0157C25.3966 14.0187 32.4622 9.25377 40.4334 5.86935C48.464 2.35134 57.4891 0.436378 66.4697 0.391846C76.905 0.480909 87.1621 2.91532 96.2763 7.44272C102.422 10.367 108.166 14.2116 113.198 18.7835C118.245 14.2264 124.02 10.3523 130.254 7.38346C139.235 2.93028 149.507 0.495768 159.808 0.406704H160.15C169.116 0.406704 177.799 2.17318 185.963 5.64666C193.935 9.03108 201 13.796 206.982 19.793C207.012 19.8227 207.057 19.8671 207.086 19.8968C213.068 26.1016 217.744 33.2118 220.98 41.0197C224.394 49.4659 226.072 58.2535 225.997 67.2193C225.997 78.3077 223.474 89.0992 218.531 99.2524C213.721 109.465 207.457 119.188 199.991 128.02C199.961 128.065 199.917 128.109 199.887 128.139C190.921 138.351 181.213 148.163 171.045 157.337C162.169 165.367 152.401 174.333 142.055 183.833L134.722 190.572L119.596 204.659C117.889 206.248 115.707 207.049 113.525 207.049L113.51 207.034Z" fill="white" stroke="black" stroke-width="0.75" stroke-miterlimit="10"/>
<path d="M159.883 9.29831C167.676 9.26862 175.38 10.8125 182.475 13.8258C189.348 16.75 195.523 20.9063 200.674 26.0572C205.854 31.4455 209.951 37.6651 212.757 44.4191C215.696 51.6778 217.165 59.367 217.091 67.1156C217.091 76.8532 214.85 86.4572 210.53 95.319C206.003 104.938 200.169 113.993 193.192 122.246C184.42 132.236 175.038 141.736 165.078 150.702C154.108 160.617 142.025 171.75 128.695 183.982L113.525 198.113L98.4138 184.219C85.0098 171.988 72.8673 160.81 61.957 150.687C51.9967 141.721 42.6155 132.221 33.8427 122.231C26.6285 114.097 20.5722 105.131 15.8518 95.5564C11.5323 86.6946 9.29076 77.0757 9.29076 67.3529C9.21654 59.6044 10.6862 51.9005 13.6253 44.6567C16.4308 37.9027 20.5277 31.6831 25.7082 26.2947C30.8442 21.1439 37.0342 16.9727 43.9069 14.0633C50.9726 10.961 58.6914 9.32798 66.4994 9.28345C75.5096 9.35767 84.3566 11.4655 92.313 15.3991C100.492 19.2883 107.617 24.8251 113.198 31.6088C118.78 24.8251 125.905 19.2734 134.084 15.3991C142.04 11.4507 150.887 9.35767 159.897 9.28345L159.883 9.29831Z" fill="#FF0400" stroke="black" stroke-width="0.75" stroke-miterlimit="10"/>
</svg>
