<svg width="906" height="324" viewBox="0 0 906 324" fill="none" xmlns="http://www.w3.org/2000/svg">
<path d="M905.001 1H1V323H905.001V1Z" fill="#FF85D5" stroke="black" stroke-width="0.75"/>
<path d="M65.6087 1H36.6152V323H65.6087V1Z" fill="#FFD600" stroke="black" stroke-width="0.75"/>
<path d="M869.387 1H840.393V323H869.387V1Z" fill="#FFD600" stroke="black" stroke-width="0.75"/>
<path d="M716.841 178.742H705.151V285.173H716.841V178.742Z" fill="white" stroke="black" stroke-width="0.75" stroke-miterlimit="10"/>
<path d="M705.151 178.742V285.173H716.841V178.742H705.151Z" fill="white" stroke="black" stroke-width="0.75" stroke-miterlimit="10"/>
<path d="M716.841 178.742V285.173H728.531V178.742H716.841Z" fill="white" stroke="black" stroke-width="0.75" stroke-miterlimit="10"/>
<path d="M728.531 178.758V285.189H740.221V178.758H728.531Z" fill="white" stroke="black" stroke-width="0.75" stroke-miterlimit="10"/>
<path d="M740.237 285.173V178.742H788.136C792.693 178.742 796.391 182.44 796.391 186.997V276.917C796.391 281.474 792.693 285.173 788.136 285.173H740.237Z" fill="#EDEDED" stroke="black" stroke-width="0.75" stroke-miterlimit="10"/>
<path d="M206.663 183.349C203.097 186.601 200.851 191.274 200.851 196.475C200.851 206.283 208.793 214.224 218.584 214.224C208.793 214.224 200.851 222.166 200.851 231.957C200.851 241.748 208.793 249.69 218.584 249.69C208.793 249.69 200.851 257.632 200.851 267.44C200.851 272.145 202.684 276.438 205.706 279.608L123.117 243.944V219.442L206.663 183.349V183.349Z" fill="#EDEDED" stroke="black" stroke-width="0.75"/>
<path d="M218.584 214.224H705.15V249.69H218.584C208.793 249.69 200.851 241.748 200.851 231.957C200.851 222.166 208.793 214.224 218.584 214.224Z" fill="#FF0400" stroke="black" stroke-width="0.75"/>
<path d="M218.584 178.742H705.15V214.224H218.584C208.793 214.224 200.851 206.282 200.851 196.475C200.851 191.274 203.097 186.601 206.663 183.349L217.181 178.808C217.181 178.808 217.197 178.791 217.214 178.808C217.659 178.758 218.122 178.742 218.584 178.742V178.742Z" fill="#00B026" stroke="black" stroke-width="0.75"/>
<path d="M218.584 249.69H705.15V285.173H218.584L205.705 279.608C202.684 276.438 200.851 272.145 200.851 267.44C200.851 257.632 208.793 249.69 218.584 249.69Z" fill="#FF5C00" stroke="black" stroke-width="0.75"/>
<path d="M123.117 219.442V243.944L94.751 231.693L123.117 219.442Z" fill="black" stroke="black" stroke-width="0.75"/>
<path d="M155.693 51.4578C149.452 47.9574 141.956 46.2073 133.189 46.2073H103.353V134.955H133.189C142.006 134.955 149.535 133.204 155.759 129.688C161.984 126.187 166.772 121.102 170.091 114.464C173.41 107.827 175.077 99.8519 175.077 90.5397V90.4241C175.077 81.1118 173.41 73.17 170.058 66.5985C166.706 60.0271 161.935 54.9747 155.693 51.4743V51.4578ZM163.751 90.6717C163.751 98.0192 162.545 104.227 160.118 109.346C157.691 114.448 154.158 118.328 149.502 121.003C144.846 123.678 139.166 124.998 132.429 124.998H114.416V56.18H132.429C139.149 56.18 144.846 57.5009 149.502 60.1427C154.158 62.7844 157.691 66.6646 160.118 71.7995C162.529 76.918 163.751 83.1757 163.751 90.5562V90.6717Z" fill="#0066FF" stroke="black" stroke-width="0.75"/>
<path d="M229.168 73.7809C224.726 71.0896 219.542 69.7522 213.631 69.7522C207.72 69.7522 202.618 71.0896 198.16 73.7809C193.702 76.4722 190.251 80.2863 187.774 85.2231C185.297 90.1599 184.059 96.0379 184.059 102.841V102.956C184.059 109.726 185.297 115.587 187.774 120.573C190.251 125.56 193.718 129.407 198.16 132.098C202.601 134.806 207.786 136.16 213.697 136.16C219.608 136.16 224.776 134.806 229.201 132.098C233.626 129.39 237.076 125.56 239.569 120.59C242.046 115.637 243.284 109.742 243.284 102.94V102.824C243.284 96.0214 242.046 90.1434 239.569 85.2066C237.093 80.2698 233.626 76.4557 229.168 73.7644V73.7809ZM232.338 102.956C232.338 107.959 231.562 112.235 230.026 115.785C228.491 119.335 226.328 122.043 223.57 123.909C220.796 125.774 217.527 126.699 213.763 126.699C209.998 126.699 206.696 125.774 203.889 123.909C201.082 122.043 198.903 119.335 197.334 115.785C195.782 112.235 194.989 107.959 194.989 102.956V102.841C194.989 97.8376 195.766 93.5777 197.334 90.0774C198.886 86.577 201.082 83.8857 203.889 82.02C206.696 80.1542 209.949 79.2296 213.631 79.2296C217.313 79.2296 220.697 80.1542 223.504 82.0034C226.311 83.8527 228.491 86.5275 230.026 90.0609C231.562 93.5942 232.338 97.8541 232.338 102.857V102.973V102.956Z" fill="#0066FF" stroke="black" stroke-width="0.75"/>
<path d="M335.896 46.2073L311.674 86.0486H311.294L287.072 46.2073H274.458L305.944 96.7479V134.955H317.023V96.7479L348.51 46.2073H335.896Z" fill="#0066FF" stroke="black" stroke-width="0.75"/>
<path d="M387.278 73.7809C382.837 71.0896 377.652 69.7522 371.741 69.7522C365.83 69.7522 360.728 71.0896 356.27 73.7809C351.812 76.4722 348.362 80.2863 345.885 85.2231C343.408 90.1599 342.17 96.0379 342.17 102.841V102.956C342.17 109.726 343.408 115.587 345.885 120.573C348.362 125.56 351.829 129.407 356.27 132.098C360.712 134.806 365.897 136.16 371.808 136.16C377.718 136.16 382.887 134.806 387.311 132.098C391.736 129.39 395.187 125.56 397.68 120.59C400.157 115.637 401.395 109.742 401.395 102.94V102.824C401.395 96.0214 400.157 90.1434 397.68 85.2066C395.204 80.2698 391.736 76.4557 387.278 73.7644V73.7809ZM390.448 102.956C390.448 107.959 389.673 112.235 388.137 115.785C386.602 119.335 384.438 122.043 381.681 123.909C378.907 125.774 375.638 126.699 371.873 126.699C368.109 126.699 364.807 125.774 362 123.909C359.193 122.043 357.013 119.335 355.445 115.785C353.893 112.235 353.1 107.959 353.1 102.956V102.841C353.1 97.8376 353.876 93.5777 355.445 90.0774C356.997 86.577 359.193 83.8857 362 82.02C364.807 80.1542 368.059 79.2296 371.741 79.2296C375.423 79.2296 378.808 80.1542 381.615 82.0034C384.422 83.8527 386.602 86.5275 388.137 90.0609C389.673 93.5942 390.448 97.8541 390.448 102.857V102.973V102.956Z" fill="#0066FF" stroke="black" stroke-width="0.75"/>
<path d="M453.934 108.619C453.934 111.327 453.537 113.804 452.761 116.033C451.985 118.262 450.863 120.177 449.377 121.746C447.907 123.331 446.14 124.536 444.126 125.411C442.112 126.286 439.816 126.699 437.274 126.699C432.353 126.699 428.672 125.312 426.228 122.555C423.784 119.797 422.562 115.802 422.562 110.584V70.9739H411.863V112.483C411.863 117.321 412.738 121.514 414.472 125.064C416.206 128.614 418.732 131.355 422.034 133.27C425.336 135.186 429.315 136.16 434.005 136.16C437.241 136.16 440.13 135.714 442.673 134.806C445.216 133.898 447.395 132.676 449.228 131.124C451.044 129.572 452.53 127.805 453.686 125.84H453.934V134.938H464.633V70.9739H453.934V108.619V108.619Z" fill="#0066FF" stroke="black" stroke-width="0.75"/>
<path d="M568.999 46.2073H555.097L517.452 89.7471H517.088V46.2073H506.026V134.955H517.088V103.914L526.582 93.4621L558.119 134.955H572.252L534.342 85.5203L568.999 46.2073Z" fill="#0066FF" stroke="black" stroke-width="0.75"/>
<path d="M610.641 69.7522C605.803 69.7522 601.741 70.7263 598.456 72.6746C595.17 74.623 592.677 77.0997 590.96 80.0882H590.712V70.9905H580.013V134.955H590.712V97.3093C590.712 93.6603 591.405 90.4901 592.776 87.7823C594.146 85.0745 596.078 82.9776 598.588 81.4751C601.081 79.9726 604.02 79.2296 607.388 79.2296C612.308 79.2296 615.99 80.6165 618.434 83.3739C620.878 86.1312 622.1 90.1269 622.1 95.3444V134.955H632.799V93.4457C632.799 86.1478 630.867 80.3688 626.987 76.1255C623.107 71.8821 617.674 69.7522 610.657 69.7522H610.641Z" fill="#0066FF" stroke="black" stroke-width="0.75"/>
<path d="M688.342 73.7809C683.9 71.0896 678.716 69.7522 672.805 69.7522C666.894 69.7522 661.792 71.0896 657.334 73.7809C652.876 76.4722 649.425 80.2863 646.948 85.2231C644.472 90.1599 643.233 96.0379 643.233 102.841V102.956C643.233 109.726 644.472 115.587 646.948 120.573C649.425 125.56 652.892 129.407 657.334 132.098C661.775 134.806 666.96 136.16 672.871 136.16C678.782 136.16 683.95 134.806 688.375 132.098C692.8 129.39 696.251 125.56 698.744 120.59C701.22 115.637 702.459 109.742 702.459 102.94V102.824C702.459 96.0214 701.22 90.1434 698.744 85.2066C696.267 80.2698 692.8 76.4557 688.342 73.7644V73.7809ZM691.512 102.956C691.512 107.959 690.736 112.235 689.2 115.785C687.665 119.335 685.502 122.043 682.744 123.909C679.971 125.774 676.701 126.699 672.937 126.699C669.172 126.699 665.87 125.774 663.063 123.909C660.256 122.043 658.077 119.335 656.508 115.785C654.956 112.235 654.164 107.959 654.164 102.956V102.841C654.164 97.8376 654.94 93.5777 656.508 90.0774C658.06 86.577 660.256 83.8857 663.063 82.02C665.87 80.1542 669.123 79.2296 672.805 79.2296C676.487 79.2296 679.871 80.1542 682.678 82.0034C685.485 83.8527 687.665 86.5275 689.2 90.0609C690.736 93.5942 691.512 97.8541 691.512 102.857V102.973V102.956Z" fill="#0066FF" stroke="black" stroke-width="0.75"/>
<path d="M784.024 70.9905L771.228 123.017H770.981L756.467 70.9905H746.131L731.684 123.017H731.436L718.64 70.9905H707.991L725.889 134.955H736.786L751.167 85.4377H751.415L765.879 134.955H776.76L794.591 70.9905H784.024Z" fill="#0066FF" stroke="black" stroke-width="0.75"/>
</svg>
