<svg width="361" height="683" viewBox="0 0 361 683" fill="none" xmlns="http://www.w3.org/2000/svg">
<path d="M360 675.107L360 7.9704C360 4.12075 356.879 1 353.03 1L8.2038 1C4.35416 1 1.2334 4.12075 1.2334 7.9704L1.2334 675.107C1.2334 678.957 4.35416 682.078 8.2038 682.078H353.03C356.879 682.078 360 678.957 360 675.107Z" fill="white" stroke="black" stroke-width="0.75"/>
<path d="M353.016 7.9563H8.19043V675.093H353.016V7.9563Z" fill="#0066FF" stroke="black" stroke-width="0.75"/>
<path d="M33.2559 31.8228H108.006V45.652H48.6186V87.9763H103.141V101.624H48.6186V154.948H33.2559V31.8228V31.8228Z" fill="#EDEDED" stroke="black" stroke-width="0.75"/>
<path d="M124.972 48.4547C123.146 46.6285 122.24 44.4398 122.24 41.8886C122.24 39.3375 123.146 37.0651 124.972 35.2807C126.798 33.4823 128.987 32.5901 131.538 32.5901C134.089 32.5901 136.362 33.4823 138.146 35.2807C139.945 37.079 140.837 39.2817 140.837 41.8886C140.837 44.4956 139.945 46.6424 138.146 48.4547C136.348 50.281 134.145 51.1871 131.538 51.1871C128.931 51.1871 126.784 50.281 124.972 48.4547ZM124.122 66.2013H138.969V154.935H124.122V66.2013Z" fill="#EDEDED" stroke="black" stroke-width="0.75"/>
<path d="M159.197 66.201H174.044V78.8314H174.378C176.762 74.6771 180.233 71.2476 184.792 68.5431C189.337 65.8386 194.969 64.4863 201.688 64.4863C211.419 64.4863 218.961 67.4278 224.342 73.3108C229.723 79.1939 232.4 87.2098 232.4 97.3309V154.92H217.553V99.9656C217.553 92.7443 215.866 87.2098 212.479 83.3761C209.091 79.5424 203.989 77.6185 197.158 77.6185C192.487 77.6185 188.431 78.6502 184.959 80.7274C181.488 82.8045 178.798 85.7181 176.902 89.4682C174.992 93.2183 174.044 97.6376 174.044 102.698V154.92H159.197V66.1871V66.201Z" fill="#EDEDED" stroke="black" stroke-width="0.75"/>
<path d="M264.784 150.975C259.125 147.197 254.733 141.844 251.596 134.929C248.474 128.015 246.898 119.901 246.898 110.575V110.491C246.898 101.165 248.474 93.0513 251.638 86.1785C254.789 79.2917 259.194 73.9663 264.826 70.1744C270.458 66.3964 276.969 64.5005 284.371 64.5005C288.581 64.5005 292.485 65.1696 296.109 66.508C299.72 67.8463 302.954 69.7562 305.798 72.2237C308.642 74.6912 310.97 77.6467 312.797 81.0482H313.131V31.8093H327.978V154.934H313.131V139.92H312.797C310.97 143.391 308.67 146.361 305.882 148.842C303.094 151.31 299.929 153.234 296.374 154.6C292.819 155.966 288.902 156.649 284.636 156.649C277.066 156.649 270.458 154.753 264.798 150.975H264.784ZM300.835 139.418C304.697 136.686 307.736 132.852 309.925 127.903C312.114 122.954 313.215 117.183 313.215 110.589V110.505C313.215 103.911 312.1 98.1536 309.883 93.2325C307.666 88.3114 304.641 84.4916 300.794 81.7592C296.96 79.0268 292.527 77.6606 287.522 77.6606C282.517 77.6606 277.763 78.9989 273.958 81.6756C270.152 84.3522 267.21 88.1302 265.175 93.0234C263.126 97.9166 262.108 103.744 262.108 110.519V110.603C262.108 117.378 263.126 123.233 265.175 128.182C267.224 133.131 270.152 136.923 273.958 139.572C277.763 142.22 282.294 143.545 287.522 143.545C292.75 143.545 296.96 142.179 300.835 139.446V139.418Z" fill="#EDEDED" stroke="black" stroke-width="0.75"/>
<path d="M38.9717 249.857C37.1454 248.031 36.2393 245.842 36.2393 243.291C36.2393 240.74 37.1454 238.467 38.9717 236.683C40.7979 234.885 42.9866 233.992 45.5378 233.992C48.0889 233.992 50.3613 234.885 52.1457 236.683C53.9441 238.481 54.8363 240.684 54.8363 243.291C54.8363 245.898 53.9441 248.045 52.1457 249.857C50.3474 251.683 48.1447 252.589 45.5378 252.589C42.9309 252.589 40.784 251.683 38.9717 249.857ZM38.1213 267.604H52.9682V356.337H38.1213V267.604Z" fill="#EDEDED" stroke="black" stroke-width="0.75"/>
<path d="M298.787 352.252C294.744 348.39 292.723 342.215 292.723 333.739V279.899H279.758V267.617H292.723V243.639H308.086V267.617H324.982V279.899H308.086V333.655C308.086 338.381 309.103 341.573 311.152 343.26C313.202 344.933 316.213 345.783 320.2 345.783C321.106 345.783 321.971 345.742 322.807 345.658C323.63 345.574 324.354 345.505 324.982 345.449V357.48C324.076 357.591 322.891 357.717 321.441 357.87C319.991 358.009 318.527 358.079 317.049 358.079C308.908 358.079 302.83 356.141 298.787 352.28V352.252Z" fill="#EDEDED" stroke="black" stroke-width="0.75"/>
<path d="M38.2472 557.447C36.3652 555.565 35.4312 553.265 35.4312 550.533C35.4312 547.8 36.3652 545.43 38.2472 543.576C40.1292 541.722 42.4294 540.802 45.1618 540.802C47.8942 540.802 50.2642 541.722 52.1183 543.576C53.9724 545.43 54.8925 547.745 54.8925 550.533C54.8925 553.321 53.9724 555.565 52.1183 557.447C50.2642 559.329 47.95 560.263 45.1618 560.263C42.3737 560.263 40.1292 559.329 38.2472 557.447ZM37.4804 436.288H52.8432L51.8255 518.539H38.5121L37.4944 436.288H37.4804Z" fill="#EDEDED" stroke="black" stroke-width="0.75"/>
<path d="M279.117 513.506C279.117 509.756 279.73 506.354 280.957 503.315C282.184 500.276 284.052 497.474 286.589 494.909C289.112 492.344 292.319 489.904 296.194 487.576C299.498 485.527 302.147 483.519 304.168 481.554C306.19 479.588 307.653 477.441 308.56 475.113C309.466 472.785 309.926 470.108 309.926 467.097V467.013C309.926 463.431 309.061 460.266 307.319 457.506C305.576 454.745 303.151 452.585 300.028 451.023C296.905 449.462 293.225 448.681 289.015 448.681C284.804 448.681 281.04 449.476 277.876 451.065C274.725 452.654 272.23 454.857 270.404 457.673C268.577 460.489 267.476 463.807 267.072 467.613L266.988 468.463H252.392L252.476 467.348C252.936 461.549 254.567 456.209 257.383 451.344C260.199 446.479 264.284 442.603 269.623 439.703C274.962 436.804 281.626 435.354 289.586 435.354C296.752 435.354 303.053 436.706 308.49 439.411C313.927 442.115 318.165 445.781 321.204 450.424C324.243 455.066 325.763 460.336 325.763 466.247V466.33C325.763 470.763 325.038 474.792 323.588 478.403C322.138 482.014 320.075 485.248 317.398 488.092C314.721 490.936 311.571 493.473 307.932 495.69C304.349 497.795 301.547 499.816 299.526 501.754C297.505 503.692 296.083 505.769 295.26 507.985C294.438 510.202 294.019 512.823 294.019 515.834V521.382H279.089V513.534L279.117 513.506ZM279.716 557.447C277.834 555.565 276.9 553.265 276.9 550.533C276.9 547.8 277.834 545.43 279.716 543.576C281.598 541.722 283.898 540.802 286.631 540.802C289.363 540.802 291.733 541.722 293.587 543.576C295.441 545.43 296.361 547.745 296.361 550.533C296.361 553.321 295.441 555.565 293.587 557.447C291.733 559.329 289.419 560.263 286.631 560.263C283.843 560.263 281.598 559.329 279.716 557.447Z" fill="#EDEDED" stroke="black" stroke-width="0.75"/>
<path d="M186.562 128.907H173.653V644.508H186.562V128.907Z" fill="white" stroke="black" stroke-width="0.75" stroke-miterlimit="10"/>
<path d="M180.61 360.742C216.55 360.742 245.686 331.607 245.686 295.667C245.686 259.726 216.55 230.591 180.61 230.591C144.67 230.591 115.534 259.726 115.534 295.667C115.534 331.607 144.67 360.742 180.61 360.742Z" fill="white" stroke="black" stroke-width="0.75" stroke-miterlimit="10"/>
<path d="M180.61 352.991C212.269 352.991 237.934 327.326 237.934 295.667C237.934 264.007 212.269 238.342 180.61 238.342C148.95 238.342 123.285 264.007 123.285 295.667C123.285 327.326 148.95 352.991 180.61 352.991Z" fill="#FF85D5" stroke="black" stroke-width="0.75" stroke-miterlimit="10"/>
<path d="M128.22 218.17C123.815 218.17 119.702 215.8 117.485 211.98C115.283 208.16 115.283 203.406 117.485 199.587L169.875 108.86C172.078 105.04 176.19 102.67 180.609 102.67C185.029 102.67 189.127 105.04 191.344 108.86L243.733 199.587C245.936 203.406 245.936 208.16 243.733 211.98C241.531 215.8 237.418 218.17 232.999 218.17H128.234H128.22Z" fill="white" stroke="black" stroke-width="0.75" stroke-miterlimit="10"/>
<path d="M174.963 115.538L125.822 200.66C123.312 204.996 126.449 210.433 131.468 210.433H229.75C234.769 210.433 237.892 205.01 235.396 200.66L186.255 115.538C183.746 111.202 177.486 111.202 174.977 115.538H174.963Z" fill="#FF0400" stroke="black" stroke-width="0.75" stroke-miterlimit="10"/>
<path d="M242.981 476.911V397.198C242.981 384.555 232.732 374.307 220.09 374.307H140.377C127.734 374.307 117.486 384.555 117.486 397.198V476.911C117.486 489.553 127.734 499.802 140.377 499.802H220.09C232.732 499.802 242.981 489.553 242.981 476.911Z" fill="white" stroke="black" stroke-width="0.75" stroke-miterlimit="10"/>
<path d="M223.213 382.058H137.24C130.603 382.058 125.223 387.438 125.223 394.075V480.048C125.223 486.685 130.603 492.065 137.24 492.065H223.213C229.849 492.065 235.23 486.685 235.23 480.048V394.075C235.23 387.438 229.849 382.058 223.213 382.058Z" fill="#FF5C00" stroke="black" stroke-width="0.75" stroke-miterlimit="10"/>
<path d="M172.872 192.435C175.507 192.435 177.779 191.947 179.661 190.958C181.543 189.968 182.993 188.602 183.997 186.845C185.015 185.075 185.53 183.025 185.53 180.711V159.967H181.543V180.432C181.543 182.063 181.209 183.513 180.526 184.768C179.843 186.009 178.853 186.985 177.556 187.696C176.274 188.407 174.712 188.755 172.858 188.755C171.004 188.755 169.443 188.407 168.146 187.696C166.85 186.985 165.846 186.009 165.163 184.768C164.48 183.513 164.145 182.063 164.145 180.432V159.967H160.158V180.711C160.158 183.025 160.674 185.075 161.692 186.845C162.709 188.602 164.159 189.968 166.055 190.958C167.965 191.947 170.237 192.435 172.872 192.435Z" fill="white" stroke="black" stroke-width="0.75" stroke-miterlimit="10"/>
<path d="M199.541 163.271C198.969 163.271 198.593 163.285 198.412 163.313V188.155L199.541 188.197H201.939V191.919H190.884V188.197H193.379L194.508 188.155V163.313C194.327 163.285 193.951 163.271 193.379 163.271H190.884V159.549H201.939V163.271H199.541Z" fill="white" stroke="black" stroke-width="0.75" stroke-miterlimit="10"/>
<path d="M156.757 449.95C159.197 449.95 161.288 449.573 163.045 448.82C164.815 448.068 166.167 446.994 167.115 445.614C168.077 444.234 168.551 442.589 168.551 440.707V440.679C168.551 439.062 168.23 437.668 167.575 436.525C166.934 435.354 165.944 434.392 164.564 433.597C163.212 432.816 161.441 432.189 159.253 431.715L155.712 430.934C153.634 430.474 152.101 429.833 151.111 428.983C150.121 428.146 149.633 427.073 149.633 425.776V425.748C149.633 424.717 149.926 423.811 150.498 423.044C151.083 422.277 151.92 421.678 152.979 421.245C154.039 420.813 155.279 420.604 156.701 420.604C158.123 420.604 159.253 420.813 160.27 421.218C161.302 421.636 162.138 422.221 162.766 422.988C163.407 423.755 163.797 424.689 163.965 425.776L164.006 426.083H167.994L167.966 425.748C167.854 424.006 167.296 422.472 166.307 421.148C165.331 419.823 164.02 418.792 162.389 418.053C160.758 417.3 158.89 416.924 156.813 416.924C154.624 416.924 152.686 417.314 150.986 418.081C149.299 418.834 147.988 419.879 147.027 421.218C146.065 422.542 145.577 424.089 145.563 425.846V425.874C145.563 428.202 146.302 430.098 147.793 431.534C149.299 432.97 151.613 434.029 154.722 434.726L158.263 435.507C160.465 435.995 162.041 436.664 163.017 437.5C163.992 438.337 164.48 439.466 164.48 440.86V440.888C164.48 441.975 164.174 442.937 163.546 443.746C162.947 444.554 162.083 445.182 160.953 445.628C159.838 446.06 158.5 446.269 156.966 446.269C155.433 446.269 154.081 446.06 152.896 445.656C151.725 445.224 150.791 444.624 150.08 443.857C149.369 443.077 148.936 442.157 148.769 441.097L148.727 440.79H144.74L144.768 441.097C144.908 442.91 145.479 444.485 146.497 445.809C147.528 447.134 148.922 448.165 150.651 448.89C152.408 449.601 154.429 449.95 156.743 449.95H156.757Z" fill="white" stroke="black" stroke-width="0.75" stroke-miterlimit="10"/>
<path d="M172.636 457.171H176.483V445.572H176.567C177.055 446.45 177.654 447.231 178.379 447.872C179.118 448.513 179.955 449.001 180.903 449.35C181.851 449.684 182.854 449.866 183.928 449.866C185.866 449.866 187.552 449.378 189.002 448.402C190.466 447.412 191.595 446.032 192.404 444.248C193.226 442.463 193.645 440.358 193.645 437.946V437.918C193.645 435.493 193.24 433.402 192.432 431.617C191.623 429.819 190.48 428.425 189.002 427.463C187.538 426.473 185.824 425.985 183.872 425.985C182.785 425.985 181.767 426.166 180.847 426.515C179.913 426.863 179.09 427.365 178.365 428.02C177.654 428.662 177.055 429.428 176.567 430.321H176.483V426.431H172.636V457.199V457.171ZM183.119 446.464C181.823 446.464 180.666 446.116 179.662 445.405C178.672 444.694 177.891 443.704 177.32 442.435C176.748 441.153 176.456 439.661 176.456 437.946V437.918C176.456 436.19 176.734 434.698 177.292 433.43C177.864 432.147 178.658 431.143 179.662 430.446C180.666 429.735 181.823 429.387 183.119 429.387C184.416 429.387 185.656 429.735 186.632 430.432C187.622 431.115 188.375 432.091 188.919 433.374C189.448 434.642 189.713 436.162 189.713 437.932V437.96C189.713 439.703 189.448 441.209 188.919 442.491C188.389 443.76 187.622 444.736 186.632 445.433C185.643 446.13 184.471 446.478 183.119 446.478V446.464Z" fill="white" stroke="black" stroke-width="0.75" stroke-miterlimit="10"/>
<path d="M211.628 426.403L205.257 445.572H205.159L198.816 426.403H194.704L203.249 449.448L202.789 450.758C202.329 452.054 201.73 452.919 200.991 453.351C200.266 453.783 199.29 453.992 198.063 453.992C197.826 453.992 197.603 453.978 197.38 453.95C197.171 453.922 196.99 453.895 196.823 453.867V457.003C197.074 457.045 197.38 457.087 197.757 457.115C198.147 457.157 198.523 457.185 198.886 457.185C200.266 457.185 201.451 456.962 202.399 456.516C203.361 456.069 204.183 455.386 204.853 454.452C205.536 453.518 206.149 452.333 206.693 450.869L215.685 426.417H211.628V426.403Z" fill="white" stroke="black" stroke-width="0.75" stroke-miterlimit="10"/>
<path d="M219.63 295.667C211.433 308.548 197.018 317.094 180.61 317.094C164.201 317.094 149.8 308.548 141.589 295.667C149.787 282.785 164.201 274.24 180.61 274.24C197.018 274.24 211.419 282.785 219.63 295.667Z" fill="white" stroke="black" stroke-width="0.75" stroke-miterlimit="10"/>
<path d="M197.31 295.667C197.31 305.104 189.824 312.73 180.609 312.73C171.394 312.73 163.908 305.091 163.908 295.667C163.908 286.243 171.394 278.603 180.609 278.603C189.824 278.603 197.31 286.243 197.31 295.667Z" fill="#FF0400" stroke="black" stroke-width="0.75"/>
<path d="M189.769 295.667C189.769 300.839 185.656 305.035 180.61 305.035C175.563 305.035 171.451 300.853 171.451 295.667C171.451 290.481 175.563 286.299 180.61 286.299C185.656 286.299 189.769 290.481 189.769 295.667Z" fill="black" stroke="black" stroke-width="0.75"/>
<path d="M174.628 295.653C177.369 295.653 179.591 293.431 179.591 290.69C179.591 287.949 177.369 285.727 174.628 285.727C171.888 285.727 169.666 287.949 169.666 290.69C169.666 293.431 171.888 295.653 174.628 295.653Z" fill="white" stroke="black" stroke-width="0.75"/>
</svg>
