<svg width="260" height="490" viewBox="0 0 260 490" fill="none" xmlns="http://www.w3.org/2000/svg">
<path d="M258.694 484.467L258.694 5.9165C258.694 3.15508 256.455 0.916504 253.694 0.916504L6.34357 0.916504C3.58214 0.916504 1.34357 3.15508 1.34357 5.9165L1.34357 484.467C1.34357 487.228 3.58214 489.467 6.34357 489.467H253.694C256.455 489.467 258.694 487.228 258.694 484.467Z" fill="white" stroke="black" stroke-width="0.75"/>
<path d="M253.683 5.90649H6.3335V484.456H253.683V5.90649Z" fill="#0066FF" stroke="black" stroke-width="0.75"/>
<path d="M24.3135 23.0266H77.9335V32.9466H35.3335V63.3066H74.4435V73.0966H35.3335V111.347H24.3135V23.0266V23.0266Z" fill="#EDEDED" stroke="black" stroke-width="0.75"/>
<path d="M90.1036 34.9567C88.7936 33.6467 88.1436 32.0767 88.1436 30.2467C88.1436 28.4167 88.7936 26.7867 90.1036 25.5067C91.4136 24.2167 92.9836 23.5767 94.8136 23.5767C96.6436 23.5767 98.2736 24.2167 99.5536 25.5067C100.844 26.7967 101.484 28.3767 101.484 30.2467C101.484 32.1167 100.844 33.6567 99.5536 34.9567C98.2636 36.2667 96.6836 36.9167 94.8136 36.9167C92.9436 36.9167 91.4036 36.2667 90.1036 34.9567ZM89.4936 47.6866H100.144V111.337H89.4936V47.6866Z" fill="#EDEDED" stroke="black" stroke-width="0.75"/>
<path d="M114.654 47.6865H125.304V56.7466H125.544C127.254 53.7666 129.744 51.3065 133.014 49.3665C136.274 47.4265 140.314 46.4565 145.134 46.4565C152.114 46.4565 157.524 48.5665 161.384 52.7865C165.244 57.0065 167.164 62.7565 167.164 70.0165V111.327H156.514V71.9065C156.514 66.7265 155.304 62.7565 152.874 60.0065C150.444 57.2565 146.784 55.8765 141.884 55.8765C138.534 55.8765 135.624 56.6165 133.134 58.1065C130.644 59.5965 128.714 61.6865 127.354 64.3765C125.984 67.0665 125.304 70.2365 125.304 73.8665V111.327H114.654V47.6765V47.6865Z" fill="#EDEDED" stroke="black" stroke-width="0.75"/>
<path d="M190.393 108.497C186.333 105.787 183.183 101.947 180.933 96.9866C178.693 92.0266 177.563 86.2066 177.563 79.5166V79.4566C177.563 72.7666 178.693 66.9466 180.963 62.0166C183.223 57.0766 186.383 53.2566 190.423 50.5366C194.463 47.8266 199.133 46.4666 204.443 46.4666C207.463 46.4666 210.263 46.9466 212.863 47.9066C215.453 48.8666 217.773 50.2366 219.813 52.0066C221.853 53.7766 223.523 55.8966 224.833 58.3366H225.073V23.0166H235.723V111.337H225.073V100.567H224.833C223.523 103.057 221.873 105.187 219.873 106.967C217.873 108.737 215.603 110.117 213.053 111.097C210.503 112.077 207.693 112.567 204.633 112.567C199.203 112.567 194.463 111.207 190.403 108.497H190.393ZM216.253 100.207C219.023 98.2466 221.203 95.4966 222.773 91.9466C224.343 88.3966 225.133 84.2566 225.133 79.5266V79.4666C225.133 74.7366 224.333 70.6066 222.743 67.0766C221.153 63.5466 218.983 60.8066 216.223 58.8466C213.473 56.8866 210.293 55.9066 206.703 55.9066C203.113 55.9066 199.703 56.8666 196.973 58.7866C194.243 60.7066 192.133 63.4166 190.673 66.9266C189.203 70.4366 188.473 74.6166 188.473 79.4766V79.5366C188.473 84.3966 189.203 88.5966 190.673 92.1466C192.143 95.6966 194.243 98.4166 196.973 100.317C199.703 102.217 202.953 103.167 206.703 103.167C210.453 103.167 213.473 102.187 216.253 100.227V100.207Z" fill="#EDEDED" stroke="black" stroke-width="0.75"/>
<path d="M28.4136 179.426C27.1036 178.116 26.4536 176.546 26.4536 174.716C26.4536 172.886 27.1036 171.256 28.4136 169.976C29.7236 168.686 31.2936 168.046 33.1236 168.046C34.9536 168.046 36.5836 168.686 37.8636 169.976C39.1536 171.266 39.7936 172.846 39.7936 174.716C39.7936 176.586 39.1536 178.126 37.8636 179.426C36.5736 180.736 34.9936 181.386 33.1236 181.386C31.2536 181.386 29.7136 180.736 28.4136 179.426ZM27.8036 192.156H38.4536V255.806H27.8036V192.156Z" fill="#EDEDED" stroke="black" stroke-width="0.75"/>
<path d="M214.784 252.876C211.884 250.106 210.434 245.676 210.434 239.596V200.976H201.134V192.166H210.434V174.966H221.454V192.166H233.574V200.976H221.454V239.536C221.454 242.926 222.184 245.216 223.654 246.426C225.124 247.626 227.284 248.236 230.144 248.236C230.794 248.236 231.414 248.206 232.014 248.146C232.604 248.086 233.124 248.036 233.574 247.996V256.626C232.924 256.706 232.074 256.796 231.034 256.906C229.994 257.006 228.944 257.056 227.884 257.056C222.044 257.056 217.684 255.666 214.784 252.896V252.876Z" fill="#EDEDED" stroke="black" stroke-width="0.75"/>
<path d="M27.8935 400.067C26.5435 398.717 25.8735 397.067 25.8735 395.107C25.8735 393.147 26.5435 391.447 27.8935 390.117C29.2435 388.787 30.8935 388.127 32.8535 388.127C34.8135 388.127 36.5135 388.787 37.8435 390.117C39.1735 391.447 39.8335 393.107 39.8335 395.107C39.8335 397.107 39.1735 398.717 37.8435 400.067C36.5135 401.417 34.8535 402.087 32.8535 402.087C30.8535 402.087 29.2435 401.417 27.8935 400.067ZM27.3435 313.157H38.3635L37.6335 372.157H28.0835L27.3535 313.157H27.3435Z" fill="#EDEDED" stroke="black" stroke-width="0.75"/>
<path d="M200.673 368.547C200.673 365.857 201.113 363.417 201.993 361.237C202.873 359.057 204.213 357.047 206.033 355.207C207.843 353.367 210.143 351.617 212.923 349.947C215.293 348.477 217.193 347.037 218.643 345.627C220.093 344.217 221.143 342.677 221.793 341.007C222.443 339.337 222.773 337.417 222.773 335.257V335.197C222.773 332.627 222.153 330.357 220.903 328.377C219.653 326.397 217.913 324.847 215.673 323.727C213.433 322.607 210.793 322.047 207.773 322.047C204.753 322.047 202.053 322.617 199.783 323.757C197.523 324.897 195.733 326.477 194.423 328.497C193.113 330.517 192.323 332.897 192.033 335.627L191.973 336.237H181.503L181.563 335.437C181.893 331.277 183.063 327.447 185.083 323.957C187.103 320.467 190.033 317.687 193.863 315.607C197.693 313.527 202.473 312.487 208.183 312.487C213.323 312.487 217.843 313.457 221.743 315.397C225.643 317.337 228.683 319.967 230.863 323.297C233.043 326.627 234.133 330.407 234.133 334.647V334.707C234.133 337.887 233.613 340.777 232.573 343.367C231.533 345.957 230.053 348.277 228.133 350.317C226.213 352.357 223.953 354.177 221.343 355.767C218.773 357.277 216.763 358.727 215.313 360.117C213.863 361.507 212.843 362.997 212.253 364.587C211.663 366.177 211.363 368.057 211.363 370.217V374.197H200.653V368.567L200.673 368.547ZM201.103 400.067C199.753 398.717 199.083 397.067 199.083 395.107C199.083 393.147 199.753 391.447 201.103 390.117C202.453 388.787 204.103 388.127 206.063 388.127C208.023 388.127 209.723 388.787 211.053 390.117C212.383 391.447 213.043 393.107 213.043 395.107C213.043 397.107 212.383 398.717 211.053 400.067C209.723 401.417 208.063 402.087 206.063 402.087C204.063 402.087 202.453 401.417 201.103 400.067Z" fill="#EDEDED" stroke="black" stroke-width="0.75"/>
<path d="M134.283 92.6665H125.023V462.517H134.283V92.6665Z" fill="white" stroke="black" stroke-width="0.75" stroke-miterlimit="10"/>
<path d="M130.013 258.966C155.794 258.966 176.693 238.067 176.693 212.286C176.693 186.506 155.794 165.606 130.013 165.606C104.233 165.606 83.3335 186.506 83.3335 212.286C83.3335 238.067 104.233 258.966 130.013 258.966Z" fill="white" stroke="black" stroke-width="0.75" stroke-miterlimit="10"/>
<path d="M130.014 253.406C152.723 253.406 171.134 234.996 171.134 212.286C171.134 189.577 152.723 171.167 130.014 171.167C107.304 171.167 88.8936 189.577 88.8936 212.286C88.8936 234.996 107.304 253.406 130.014 253.406Z" fill="#FF85D5" stroke="black" stroke-width="0.75" stroke-miterlimit="10"/>
<path d="M92.4336 156.696C89.2736 156.696 86.3236 154.996 84.7336 152.256C83.1536 149.516 83.1536 146.106 84.7336 143.366L122.314 78.2864C123.894 75.5464 126.844 73.8464 130.014 73.8464C133.184 73.8464 136.124 75.5464 137.714 78.2864L175.294 143.366C176.874 146.106 176.874 149.516 175.294 152.256C173.714 154.996 170.764 156.696 167.594 156.696H92.4436H92.4336Z" fill="white" stroke="black" stroke-width="0.75" stroke-miterlimit="10"/>
<path d="M125.964 83.0764L90.7136 144.136C88.9136 147.246 91.1636 151.146 94.7636 151.146H165.264C168.864 151.146 171.104 147.256 169.314 144.136L134.064 83.0764C132.264 79.9664 127.774 79.9664 125.974 83.0764H125.964Z" fill="#FF0400" stroke="black" stroke-width="0.75" stroke-miterlimit="10"/>
<path d="M174.753 342.297V285.117C174.753 276.048 167.402 268.697 158.333 268.697H101.153C92.0849 268.697 84.7334 276.048 84.7334 285.117V342.297C84.7334 351.365 92.0849 358.717 101.153 358.717H158.333C167.402 358.717 174.753 351.365 174.753 342.297Z" fill="white" stroke="black" stroke-width="0.75" stroke-miterlimit="10"/>
<path d="M160.573 274.257H98.9034C94.1427 274.257 90.2834 278.116 90.2834 282.877V344.547C90.2834 349.307 94.1427 353.167 98.9034 353.167H160.573C165.334 353.167 169.193 349.307 169.193 344.547V282.877C169.193 278.116 165.334 274.257 160.573 274.257Z" fill="#FF5C00" stroke="black" stroke-width="0.75" stroke-miterlimit="10"/>
<path d="M124.464 138.237C126.354 138.237 127.984 137.887 129.334 137.177C130.684 136.467 131.724 135.487 132.444 134.227C133.174 132.957 133.544 131.487 133.544 129.827V114.947H130.684V129.627C130.684 130.797 130.444 131.837 129.954 132.737C129.464 133.627 128.754 134.327 127.824 134.837C126.904 135.347 125.784 135.597 124.454 135.597C123.124 135.597 122.004 135.347 121.074 134.837C120.144 134.327 119.424 133.627 118.934 132.737C118.444 131.837 118.204 130.797 118.204 129.627V114.947H115.344V129.827C115.344 131.487 115.714 132.957 116.444 134.227C117.174 135.487 118.214 136.467 119.574 137.177C120.944 137.887 122.574 138.237 124.464 138.237Z" fill="white" stroke="black" stroke-width="0.75" stroke-miterlimit="10"/>
<path d="M143.594 117.316C143.184 117.316 142.914 117.326 142.784 117.346V135.166L143.594 135.196H145.314V137.866H137.384V135.196H139.174L139.984 135.166V117.346C139.854 117.326 139.584 117.316 139.174 117.316H137.384V114.646H145.314V117.316H143.594Z" fill="white" stroke="black" stroke-width="0.75" stroke-miterlimit="10"/>
<path d="M112.903 322.956C114.653 322.956 116.153 322.686 117.413 322.146C118.683 321.606 119.653 320.836 120.333 319.846C121.023 318.856 121.363 317.676 121.363 316.326V316.306C121.363 315.146 121.133 314.146 120.663 313.326C120.203 312.486 119.493 311.796 118.503 311.226C117.533 310.666 116.263 310.216 114.693 309.876L112.153 309.316C110.663 308.986 109.563 308.526 108.853 307.916C108.143 307.316 107.793 306.546 107.793 305.616V305.596C107.793 304.856 108.003 304.206 108.413 303.656C108.833 303.106 109.433 302.676 110.193 302.366C110.953 302.056 111.843 301.906 112.863 301.906C113.883 301.906 114.693 302.056 115.423 302.346C116.163 302.646 116.763 303.066 117.213 303.616C117.673 304.166 117.953 304.836 118.073 305.616L118.103 305.836H120.963L120.943 305.596C120.863 304.346 120.463 303.246 119.753 302.296C119.053 301.346 118.113 300.606 116.943 300.076C115.773 299.536 114.433 299.266 112.943 299.266C111.373 299.266 109.983 299.546 108.763 300.096C107.553 300.636 106.613 301.386 105.923 302.346C105.233 303.296 104.883 304.406 104.873 305.666V305.686C104.873 307.356 105.403 308.716 106.473 309.746C107.553 310.776 109.213 311.536 111.443 312.036L113.983 312.596C115.563 312.946 116.693 313.426 117.393 314.026C118.093 314.626 118.443 315.436 118.443 316.436V316.456C118.443 317.236 118.223 317.926 117.773 318.506C117.343 319.086 116.723 319.536 115.913 319.856C115.113 320.166 114.153 320.316 113.053 320.316C111.953 320.316 110.983 320.166 110.133 319.876C109.293 319.566 108.623 319.136 108.113 318.586C107.603 318.026 107.293 317.366 107.173 316.606L107.143 316.386H104.283L104.303 316.606C104.403 317.906 104.813 319.036 105.543 319.986C106.283 320.936 107.283 321.676 108.523 322.196C109.783 322.706 111.233 322.956 112.893 322.956H112.903Z" fill="white" stroke="black" stroke-width="0.75" stroke-miterlimit="10"/>
<path d="M124.293 328.136H127.053V319.816H127.113C127.463 320.446 127.893 321.006 128.413 321.466C128.943 321.926 129.543 322.276 130.223 322.526C130.903 322.766 131.623 322.896 132.393 322.896C133.783 322.896 134.993 322.546 136.033 321.846C137.083 321.136 137.893 320.146 138.473 318.866C139.063 317.586 139.363 316.076 139.363 314.346V314.326C139.363 312.586 139.073 311.086 138.493 309.806C137.913 308.516 137.093 307.516 136.033 306.826C134.983 306.116 133.753 305.766 132.353 305.766C131.573 305.766 130.843 305.896 130.183 306.146C129.513 306.396 128.923 306.756 128.403 307.226C127.893 307.686 127.463 308.236 127.113 308.876H127.053V306.086H124.293V328.156V328.136ZM131.813 320.456C130.883 320.456 130.053 320.206 129.333 319.696C128.623 319.186 128.063 318.476 127.653 317.566C127.243 316.646 127.033 315.576 127.033 314.346V314.326C127.033 313.086 127.233 312.016 127.633 311.106C128.043 310.186 128.613 309.466 129.333 308.966C130.053 308.456 130.883 308.206 131.813 308.206C132.743 308.206 133.633 308.456 134.333 308.956C135.043 309.446 135.583 310.146 135.973 311.066C136.353 311.976 136.543 313.066 136.543 314.336V314.356C136.543 315.606 136.353 316.686 135.973 317.606C135.593 318.516 135.043 319.216 134.333 319.716C133.623 320.216 132.783 320.466 131.813 320.466V320.456Z" fill="white" stroke="black" stroke-width="0.75" stroke-miterlimit="10"/>
<path d="M152.264 306.066L147.694 319.816H147.624L143.074 306.066H140.124L146.254 322.596L145.924 323.536C145.594 324.466 145.164 325.086 144.634 325.396C144.114 325.706 143.414 325.856 142.534 325.856C142.364 325.856 142.204 325.846 142.044 325.826C141.894 325.806 141.764 325.786 141.644 325.766V328.016C141.824 328.046 142.044 328.076 142.314 328.096C142.594 328.126 142.864 328.146 143.124 328.146C144.114 328.146 144.964 327.986 145.644 327.666C146.334 327.346 146.924 326.856 147.404 326.186C147.894 325.516 148.334 324.666 148.724 323.616L155.174 306.076H152.264V306.066Z" fill="white" stroke="black" stroke-width="0.75" stroke-miterlimit="10"/>
<path d="M158.003 212.286C152.123 221.526 141.783 227.656 130.013 227.656C118.243 227.656 107.913 221.526 102.023 212.286C107.903 203.046 118.243 196.917 130.013 196.917C141.783 196.917 152.113 203.046 158.003 212.286Z" fill="white" stroke="black" stroke-width="0.75" stroke-miterlimit="10"/>
<path d="M141.993 212.286C141.993 219.056 136.623 224.526 130.013 224.526C123.403 224.526 118.033 219.046 118.033 212.286C118.033 205.526 123.403 200.046 130.013 200.046C136.623 200.046 141.993 205.526 141.993 212.286Z" fill="#FF0400" stroke="black" stroke-width="0.75"/>
<path d="M136.583 212.286C136.583 215.996 133.633 219.006 130.013 219.006C126.393 219.006 123.443 216.006 123.443 212.286C123.443 208.566 126.393 205.566 130.013 205.566C133.633 205.566 136.583 208.566 136.583 212.286Z" fill="black" stroke="black" stroke-width="0.75"/>
<path d="M125.724 212.276C127.69 212.276 129.284 210.682 129.284 208.716C129.284 206.75 127.69 205.156 125.724 205.156C123.757 205.156 122.164 206.75 122.164 208.716C122.164 210.682 123.757 212.276 125.724 212.276Z" fill="white" stroke="black" stroke-width="0.75"/>
</svg>
