<svg width="333" height="303" viewBox="0 0 333 303" fill="none" xmlns="http://www.w3.org/2000/svg">
<path d="M240.85 0.730736C253.271 0.672764 265.546 3.13654 276.851 7.94821C287.793 12.6005 297.648 19.2238 305.837 27.4413C314.098 36.0211 320.62 45.9343 325.084 56.6881C329.765 68.239 332.098 80.5001 331.997 92.8626C331.997 108.37 328.417 123.689 321.533 137.805C314.315 153.139 305.025 167.545 293.909 180.705C279.938 196.618 264.981 211.748 249.126 226.039C231.647 241.836 212.401 259.575 191.154 279.068L166.98 301.59L142.907 279.46C121.559 259.967 102.196 242.155 84.8334 226.039C68.9781 211.748 54.0214 196.618 40.0502 180.705C28.5573 167.762 18.9194 153.472 11.383 138.197C4.49886 124.08 0.933626 108.761 0.919133 93.2539C0.803189 80.9059 3.15099 68.6449 7.83223 57.0795C12.2961 46.3257 18.8179 36.4125 27.0789 27.8326C35.2675 19.6151 45.1082 12.9918 56.0649 8.33955C67.326 3.39744 79.616 0.803201 92.0654 0.730736C106.413 0.84668 120.515 4.19453 133.182 10.4845C146.197 16.673 157.574 25.4992 166.458 36.3255C175.342 25.5137 186.719 16.6875 199.734 10.4845C212.401 4.20902 226.502 0.861173 240.85 0.730736V0.730736Z" fill="#00B026" stroke="black" stroke-width="0.75" stroke-miterlimit="10"/>
<path d="M75.9931 116.385C81.1381 112.805 85.1816 108.472 88.0947 103.37C88.4425 102.762 88.6889 102.138 88.9932 101.53C89.3121 102.167 89.573 102.82 89.9208 103.443C92.8194 108.53 96.8486 112.863 101.979 116.428C107.11 119.994 112.907 122.457 119.356 123.791L123.849 115.385C118.24 114.414 113.182 112.472 108.675 109.573C104.168 106.675 100.631 103.225 98.0659 99.2687C95.5006 95.2977 94.2253 91.1816 94.2253 86.9207V80.9207H83.5584V86.9207C83.5294 91.1671 82.2395 95.2686 79.7033 99.2252C77.167 103.182 73.6452 106.631 69.1668 109.53C64.6885 112.443 59.6885 114.385 54.1812 115.385L58.5436 123.791C65.0219 122.428 70.8336 119.965 75.9786 116.385H75.9931Z" fill="#EDEDED" stroke="black" stroke-width="0.75"/>
<path d="M126.965 139.008H51.9199V147.327H126.965V139.008Z" fill="#EDEDED" stroke="black" stroke-width="0.75"/>
<path d="M196.589 75.6885H186.501V157.719H196.589V115.805H209.255V107.53H196.589V75.6885Z" fill="#EDEDED" stroke="black" stroke-width="0.75"/>
<path d="M171.241 128.921V91.9494H179.139V83.7319H133.313V91.9494H141.124V130.022C137.907 130.066 134.631 130.095 131.226 130.109L132.356 138.414C141.979 138.356 150.893 138.11 159.067 137.689C167.241 137.269 175.081 136.414 182.589 135.153L182.139 127.834C178.618 128.269 174.98 128.631 171.241 128.921V128.921ZM158.588 129.631C156.096 129.718 153.516 129.791 150.893 129.849V91.9494H161.516V129.501C160.545 129.544 159.574 129.602 158.588 129.631Z" fill="#EDEDED" stroke="black" stroke-width="0.75"/>
<path d="M280.981 75.6885H270.764V157.951H280.981V75.6885Z" fill="#EDEDED" stroke="black" stroke-width="0.75"/>
<path d="M247.778 85.2253C244.531 82.8629 240.85 81.689 236.734 81.689C232.618 81.689 228.893 82.8629 225.647 85.2253C222.401 87.5876 219.864 90.9645 218.024 95.3703C216.183 99.7762 215.27 104.878 215.299 110.66C215.27 116.501 216.183 121.617 218.024 126.009C219.864 130.4 222.415 133.777 225.647 136.168C228.879 138.545 232.575 139.733 236.734 139.733C240.894 139.733 244.531 138.545 247.778 136.168C251.01 133.791 253.546 130.414 255.358 126.009C257.169 121.617 258.082 116.501 258.082 110.66C258.082 104.82 257.169 99.7762 255.358 95.3703C253.546 90.9645 251.01 87.5876 247.778 85.2253ZM246.908 121.385C245.937 124.385 244.575 126.675 242.821 128.24C241.068 129.82 239.039 130.588 236.734 130.559C234.401 130.588 232.343 129.82 230.575 128.24C228.807 126.661 227.444 124.385 226.488 121.385C225.531 118.385 225.053 114.82 225.053 110.66C225.053 106.501 225.531 103.023 226.488 100.008C227.444 96.9936 228.807 94.7037 230.575 93.1239C232.343 91.5442 234.401 90.7616 236.734 90.7616C239.068 90.7616 241.068 91.5587 242.821 93.153C244.575 94.7472 245.937 97.0226 246.908 100.008C247.879 102.994 248.358 106.544 248.358 110.66C248.358 114.776 247.879 118.385 246.908 121.385Z" fill="#EDEDED" stroke="black" stroke-width="0.75"/>
</svg>
