<svg width="364" height="246" viewBox="0 0 364 246" fill="none" xmlns="http://www.w3.org/2000/svg">
<path d="M181.944 24.8608L200.809 1L211.947 27.0102L237.696 6.32982L240.644 33.3566L272.144 16.7571L266.771 43.6097L302.656 31.8463L289.194 57.3337L327.897 50.9001L306.926 73.9477L346.747 73.1199L319.198 92.6819L358.395 97.5035L325.472 112.767L362.345 123.02L325.472 133.288L358.395 148.536L319.198 153.358L346.747 172.92L306.926 172.092L327.897 195.14L289.194 188.706L302.656 214.194L266.771 202.43L272.144 229.283L240.644 212.683L237.696 239.71L211.947 219.03L200.809 245.04L181.944 221.179L163.093 245.04L151.94 219.03L126.205 239.71L123.243 212.683L91.7428 229.283L97.1162 202.43L61.245 214.194L74.6931 188.706L36.0045 195.14L56.9609 172.092L17.1395 172.92L44.6892 153.358L5.49233 148.536L38.4153 133.288L1.55664 123.02L38.4153 112.767L5.49233 97.5035L44.6892 92.6819L17.1395 73.1199L56.9609 73.9477L36.0045 50.9001L74.6931 57.3337L61.245 31.8463L97.1162 43.6097L91.7428 16.7571L123.243 33.3566L126.205 6.32982L151.94 27.0102L163.093 1L181.944 24.8608Z" fill="#FF5C00" stroke="black" stroke-width="0.75" stroke-miterlimit="10"/>
<path d="M181.944 178.468C143.705 178.468 108.618 159.196 88.0542 126.926L85.5708 123.02L88.0542 119.113C108.604 86.8437 143.705 67.572 181.944 67.572C220.182 67.572 255.269 86.8437 275.833 119.113L278.317 123.02L275.833 126.926C255.283 159.196 220.182 178.468 181.944 178.468Z" fill="#EDEDED" stroke="black" stroke-width="0.75" stroke-miterlimit="10"/>
<path d="M269.705 123.02C251.261 151.993 218.846 171.206 181.944 171.206C145.042 171.206 112.627 151.993 94.1831 123.02C112.627 94.0468 145.042 74.8333 181.944 74.8333C218.846 74.8333 251.261 94.0468 269.705 123.02Z" fill="white" stroke="black" stroke-width="0.75" stroke-miterlimit="10"/>
<path d="M219.515 123.02C219.515 144.238 202.683 161.403 181.944 161.403C161.206 161.403 144.374 144.223 144.374 123.02C144.374 101.817 161.206 84.6362 181.944 84.6362C202.683 84.6362 219.515 101.817 219.515 123.02Z" fill="#FF85D5" stroke="black" stroke-width="0.75"/>
<path d="M202.552 123.02C202.552 134.667 193.315 144.092 181.944 144.092C170.573 144.092 161.336 134.667 161.336 123.02C161.336 111.373 170.573 101.947 181.944 101.947C193.315 101.947 202.552 111.373 202.552 123.02Z" fill="black" stroke="black" stroke-width="0.75"/>
<path d="M168.496 122.976C174.664 122.976 179.664 117.976 179.664 111.808C179.664 105.64 174.664 100.64 168.496 100.64C162.328 100.64 157.328 105.64 157.328 111.808C157.328 117.976 162.328 122.976 168.496 122.976Z" fill="white" stroke="black" stroke-width="0.75"/>
</svg>
