<svg width="194" height="364" viewBox="0 0 194 364" fill="none" xmlns="http://www.w3.org/2000/svg">
<path d="M148.505 199.069C134.2 188.195 116.356 181.761 97.0111 181.761C77.6659 181.761 59.822 188.195 45.5168 199.069C24.9921 214.64 11.7593 239.282 11.7593 267.013C11.7593 294.744 24.9921 319.387 45.5168 334.957C59.822 345.831 77.6659 352.265 97.0111 352.265C116.356 352.265 134.2 345.831 148.505 334.957C169.03 319.387 182.263 294.744 182.263 267.013C182.263 239.282 169.009 214.64 148.505 199.069Z" fill="white" stroke="black" stroke-width="0.75" stroke-miterlimit="10"/>
<path d="M154.982 190.533C150.585 187.187 145.953 184.27 141.149 181.783C149.813 177.3 157.792 171.467 164.869 164.389C179.818 149.441 189.233 130.503 192.085 109.614C196.203 79.5878 186.295 50.0767 164.869 28.6512C146.746 10.5285 122.64 0.53418 97.0107 0.53418C92.6355 0.53418 88.2175 0.83427 83.9066 1.43479C63.0173 4.28724 44.0795 13.7026 29.1309 28.6512C14.1823 43.5997 4.76723 62.5373 1.91478 83.4266C-2.20304 113.452 7.70535 142.964 29.1309 164.389C36.2084 171.467 44.2083 177.3 52.8514 181.783C48.0473 184.292 43.4146 187.209 39.0179 190.533C14.8686 208.849 1.01391 236.73 1.01391 267.034C1.01391 297.339 14.8686 325.199 39.0179 343.515C55.8109 356.254 75.8425 363.01 96.9893 363.01C118.136 363.01 138.168 356.276 154.961 343.536C179.11 325.22 192.965 297.339 192.965 267.034C192.965 236.73 179.11 208.87 154.961 190.555L154.982 190.533Z" fill="white" stroke="black" stroke-width="0.75" stroke-miterlimit="10"/>
<path d="M97.0109 181.762L97.0109 267.014H79.2957C79.2957 239.283 66.0414 214.64 45.5381 199.07C59.8432 188.196 77.6872 181.762 97.0324 181.762H97.0109Z" fill="#FF5C00" stroke="black" stroke-width="0.75" stroke-miterlimit="10"/>
<path d="M148.505 199.07C127.98 214.64 114.747 239.283 114.747 267.014H97.0317L97.0317 181.762C116.377 181.762 134.221 188.196 148.526 199.07H148.505Z" fill="#FF5C00" stroke="black" stroke-width="0.75" stroke-miterlimit="10"/>
<path d="M148.506 334.958C134.2 345.831 116.356 352.266 97.0112 352.266L97.0112 267.014H114.726C114.726 294.745 127.981 319.387 148.484 334.958H148.506Z" fill="#FF5C00" stroke="black" stroke-width="0.75" stroke-miterlimit="10"/>
<path d="M97.0119 267.014L97.0119 352.266C77.6667 352.266 59.8227 345.831 45.5176 334.958C66.0424 319.387 79.2751 294.745 79.2751 267.014H96.9904H97.0119Z" fill="#FF5C00" stroke="black" stroke-width="0.75" stroke-miterlimit="10"/>
<path d="M79.2959 267.013H11.7593C11.7593 239.282 25.0135 214.64 45.5168 199.069C66.0416 214.64 79.2744 239.282 79.2744 267.013H79.2959Z" fill="#FF5C00" stroke="black" stroke-width="0.75" stroke-miterlimit="10"/>
<path d="M79.2949 267.014C79.2949 294.745 66.0407 319.387 45.5374 334.958C25.0126 319.387 11.7798 294.745 11.7798 267.014H79.3164H79.2949Z" fill="#FF5C00" stroke="black" stroke-width="0.75" stroke-miterlimit="10"/>
<path d="M182.262 267.013H114.726C114.726 239.282 127.98 214.64 148.483 199.069C169.008 214.64 182.241 239.282 182.241 267.013H182.262Z" fill="#FF5C00" stroke="black" stroke-width="0.75" stroke-miterlimit="10"/>
<path d="M182.263 267.014C182.263 294.745 169.008 319.387 148.505 334.958C127.98 319.387 114.748 294.745 114.748 267.014H182.284H182.263Z" fill="#FF5C00" stroke="black" stroke-width="0.75" stroke-miterlimit="10"/>
<path d="M36.745 36.2222L97.0325 96.5099L84.5073 109.035C64.9047 89.4323 38.0962 81.3682 12.5957 84.8641C15.0407 67.0631 23.0833 49.9054 36.7665 36.2222H36.745Z" fill="#FF5C00" stroke="black" stroke-width="0.75" stroke-miterlimit="10"/>
<path d="M85.3858 12.0513C81.8899 37.5732 89.9541 64.3603 109.557 83.9629L97.0316 96.4881L36.7441 36.2003C50.4273 22.5172 67.5848 14.4533 85.3858 12.0298V12.0513Z" fill="#FF5C00" stroke="black" stroke-width="0.75" stroke-miterlimit="10"/>
<path d="M181.47 108.155C179.025 125.956 170.982 143.114 157.299 156.797L97.0112 96.5099L109.536 83.9846C129.139 103.587 155.948 111.651 181.448 108.155H181.47Z" fill="#FF5C00" stroke="black" stroke-width="0.75" stroke-miterlimit="10"/>
<path d="M97.0113 96.51L157.299 156.798C143.616 170.481 126.458 178.545 108.657 180.968C112.153 155.446 104.089 128.659 84.4863 109.056L97.0113 96.5312V96.51Z" fill="#FF5C00" stroke="black" stroke-width="0.75" stroke-miterlimit="10"/>
<path d="M84.4861 109.035L36.745 156.776C17.1425 137.173 9.07835 110.364 12.5742 84.864C38.0961 81.3681 64.8835 89.4323 84.4861 109.035Z" fill="#FF5C00" stroke="black" stroke-width="0.75" stroke-miterlimit="10"/>
<path d="M84.4852 109.035C104.088 128.637 112.152 155.446 108.656 180.947C83.1338 184.442 56.3467 176.378 36.7441 156.776L84.4852 109.035Z" fill="#FF5C00" stroke="black" stroke-width="0.75" stroke-miterlimit="10"/>
<path d="M157.298 36.2218L109.557 83.9629C89.9545 64.3603 81.8904 37.5518 85.3862 12.0513C110.908 8.55542 137.696 16.6193 157.298 36.2218Z" fill="#FF5C00" stroke="black" stroke-width="0.75" stroke-miterlimit="10"/>
<path d="M157.299 36.2222C176.901 55.8247 184.965 82.6335 181.469 108.134C155.948 111.63 129.16 103.566 109.558 83.9632L157.299 36.2222Z" fill="#FF5C00" stroke="black" stroke-width="0.75" stroke-miterlimit="10"/>
</svg>
