<svg width="436" height="437" viewBox="0 0 436 437" fill="none" xmlns="http://www.w3.org/2000/svg">
<path d="M154.413 410.03C119.301 374.917 119.301 317.97 154.413 282.857L154.148 282.592L153.883 282.326C118.77 317.439 61.8224 317.439 26.7096 282.326C-8.4032 247.214 -8.4032 190.266 26.7096 155.153C61.8224 120.04 118.77 120.04 153.883 155.153L154.148 154.888L154.413 154.623C119.301 119.51 119.301 62.5622 154.413 27.4494C189.526 -7.66346 246.474 -7.66346 281.587 27.4494C316.699 62.5622 316.699 119.51 281.587 154.623L281.852 154.888L282.117 155.153C317.23 120.04 374.178 120.04 409.29 155.153C444.403 190.266 444.403 247.214 409.29 282.326C374.178 317.439 317.23 317.439 282.117 282.326L281.852 282.592L281.587 282.857C316.699 317.97 316.699 374.917 281.587 410.03C246.474 445.143 189.526 445.143 154.413 410.03Z" fill="#FF5C00" stroke="black" stroke-width="0.75"/>
<path d="M191.256 201.082C198.014 201.082 201.866 206.98 201.866 215.784C201.866 224.588 198.014 230.486 191.256 230.486C184.498 230.486 180.589 224.588 180.589 215.728C180.589 206.867 184.498 201.068 191.256 201.068V201.082ZM191.256 204.229C186.924 204.229 184.117 208.941 184.117 215.798C184.117 222.655 186.924 227.368 191.256 227.368C195.588 227.368 198.353 222.613 198.353 215.798C198.353 208.983 195.588 204.229 191.256 204.229ZM211.997 217.745V239.544H208.385V197.95H211.997V214.698H218.797V217.745H211.997Z" fill="black" stroke="black" stroke-width="0.75"/>
<path d="M233.288 201.082C240.188 201.082 244.039 206.98 244.039 215.784C244.039 224.588 240.188 230.486 233.288 230.486C226.389 230.486 222.579 224.588 222.579 215.728C222.579 206.867 226.473 201.068 233.288 201.068V201.082ZM233.288 204.229C228.914 204.229 226.008 208.941 226.008 215.798C226.008 222.655 228.914 227.368 233.288 227.368C237.662 227.368 240.611 222.613 240.611 215.798C240.611 208.983 237.704 204.229 233.288 204.229ZM251.8 239.544V197.95H255.411V239.544H251.8Z" fill="black" stroke="black" stroke-width="0.75"/>
<path d="M199.044 132.553V101.696H178.741V95.3182H257.287V101.696H236.674V132.553H229.111V101.696H206.607V132.553H199.044ZM217.965 87.2618C198.748 87.2618 187.108 79.6991 187.108 68.4398C187.108 57.1805 198.762 49.5193 217.965 49.5193C237.168 49.5193 248.921 57.0818 248.921 68.4398C248.921 79.7978 237.266 87.2618 217.965 87.2618ZM194.571 68.4398C194.571 75.8049 203.531 80.5879 217.965 80.5879C232.399 80.5879 241.457 75.8049 241.457 68.4398C241.457 61.0747 232.596 56.193 217.965 56.193C203.333 56.193 194.571 60.976 194.571 68.4398Z" fill="#EDEDED" stroke="black" stroke-width="0.75"/>
<path d="M304.201 199.77H335.058V179.467H341.435V258.013H335.058V237.399H304.201V229.837H335.058V207.333H304.201V199.77V199.77ZM349.492 218.69C349.492 199.474 357.054 187.833 368.314 187.833C379.573 187.833 387.234 199.488 387.234 218.69C387.234 237.893 379.672 249.646 368.314 249.646C356.956 249.646 349.492 237.992 349.492 218.69ZM368.314 195.297C360.949 195.297 356.166 204.257 356.166 218.69C356.166 233.124 360.949 242.183 368.314 242.183C375.679 242.183 380.561 233.322 380.561 218.69C380.561 204.059 375.778 195.297 368.314 195.297Z" fill="#EDEDED" stroke="black" stroke-width="0.75"/>
<path d="M131.812 237.71H100.955V258.013H94.5778V179.467H100.955V200.08H131.812V207.643H100.955V230.147H131.812V237.71V237.71ZM86.5213 218.789C86.5213 238.006 78.9588 249.646 67.6995 249.646C56.4402 249.646 48.7788 237.992 48.7788 218.789C48.7788 199.586 56.3415 187.833 67.6995 187.833C79.0575 187.833 86.5213 199.488 86.5213 218.789ZM67.6995 242.183C75.0646 242.183 79.8476 233.223 79.8476 218.789C79.8476 204.355 75.0646 195.297 67.6995 195.297C60.3344 195.297 55.4526 204.158 55.4526 218.789C55.4526 233.421 60.2356 242.183 67.6995 242.183Z" fill="#EDEDED" stroke="black" stroke-width="0.75"/>
<path d="M236.97 304.927V335.784H257.273V342.161H178.727V335.784H199.34V304.927H206.903V335.784H229.407V304.927H236.97V304.927ZM218.049 350.218C237.266 350.218 248.906 357.78 248.906 369.026C248.906 380.271 237.266 387.946 218.049 387.946C198.832 387.946 187.093 380.384 187.093 369.026C187.093 357.879 198.734 350.204 218.049 350.204V350.218ZM241.443 369.026C241.443 361.661 232.483 356.877 218.049 356.877C203.615 356.877 194.557 361.661 194.557 369.026C194.557 376.489 203.418 381.273 218.049 381.273C232.681 381.273 241.443 376.489 241.443 369.026Z" fill="#EDEDED" stroke="black" stroke-width="0.75"/>
</svg>
