<svg width="1084" height="215" viewBox="0 0 1084 215" fill="none" xmlns="http://www.w3.org/2000/svg">
<path d="M0.680664 214L57.7881 1H1083.47L1026.36 214H0.680664Z" fill="white" stroke="black" stroke-width="0.75"/>
<path d="M919.012 203.373H14.5161L65.949 11.6267H970.424L919.012 203.373Z" fill="#FF0400" stroke="black" stroke-width="0.75"/>
<path d="M919.012 203.373H14.5161L65.949 11.6267H970.424L919.012 203.373Z" fill="#FF0400" stroke="black" stroke-width="0.75"/>
<path d="M968.596 203.373H942.072L993.484 11.6267H1020.01L968.596 203.373Z" fill="#FF0400" stroke="black" stroke-width="0.75"/>
<path d="M1018.2 203.373H991.677L1043.09 11.6267H1069.61L1018.2 203.373Z" fill="#FF0400" stroke="black" stroke-width="0.75"/>
<path d="M109.072 166.797H94.5347L87.3936 48.2034H101.293L106.054 144.119H106.373L153.385 48.2034H167.348L175.233 143.949H175.552L219.844 48.2034H235.465L178.761 166.797H164.224L155.999 72.5385H155.68L109.093 166.797H109.072Z" fill="#EDEDED" stroke="black" stroke-width="0.75"/>
<path d="M248.876 48.2034H263.264L253.402 94.6417H253.721C256.123 90.6886 259.672 87.2455 264.369 84.2913C269.066 81.3371 274.719 79.8495 281.351 79.8495C286.94 79.8495 291.765 81.0611 295.845 83.4627C299.926 85.8643 303.093 89.0309 305.345 92.9203C307.598 96.8096 308.725 100.997 308.725 105.502C308.725 107.033 308.618 108.648 308.427 110.306C308.236 111.985 307.938 113.685 307.556 115.449L296.292 166.818H281.903L292.678 117.914C292.997 116.32 293.274 114.832 293.465 113.43C293.656 112.027 293.762 110.73 293.762 109.519C293.762 104.482 292.126 100.38 288.874 97.2348C285.622 94.0893 281.074 92.5163 275.272 92.5163C270.894 92.5163 266.877 93.4942 263.221 95.4283C259.566 97.3623 256.527 100.061 254.104 103.526C251.66 106.969 249.959 110.986 248.961 115.534L238.036 166.818H223.648L248.876 48.2246V48.2034Z" fill="#EDEDED" stroke="black" stroke-width="0.75"/>
<path d="M335.377 163.544C330.148 160.293 326.216 155.83 323.581 150.155C320.946 144.48 319.628 138.04 319.628 130.793C319.628 123.546 320.648 117.191 322.71 111.028C324.771 104.864 327.683 99.4447 331.466 94.7477C335.249 90.0507 339.734 86.4164 344.898 83.781C350.063 81.1456 355.758 79.8279 361.943 79.8279C369.063 79.8279 375.205 81.2945 380.348 84.2274C385.492 87.1604 389.466 91.3047 392.272 96.6818C395.056 102.059 396.458 108.456 396.458 115.916C396.458 117.68 396.395 119.55 396.288 121.591C396.182 123.61 395.991 125.565 395.715 127.435H334.25C334.186 127.924 334.165 128.413 334.165 128.923V130.411C334.165 135.682 335.015 140.209 336.716 144.013C338.416 147.817 340.817 150.75 343.942 152.812C347.066 154.873 350.743 155.893 354.951 155.893C360.711 155.893 365.577 154.491 369.573 151.707C373.569 148.922 376.523 145.182 378.457 140.527H392.505C391.018 145.798 388.488 150.537 384.854 154.746C381.241 158.975 376.863 162.312 371.698 164.777C366.555 167.242 360.902 168.475 354.76 168.475C347.045 168.475 340.562 166.839 335.313 163.587L335.377 163.544ZM381.857 116.001C381.921 115.618 381.942 115.236 381.942 114.853V113.706C381.942 110.093 381.262 106.65 379.881 103.398C378.499 100.146 376.353 97.4895 373.42 95.428C370.487 93.3664 366.619 92.3461 361.794 92.3461C357.353 92.3461 353.421 93.4087 349.999 95.5128C346.577 97.6169 343.687 100.465 341.328 104.014C338.968 107.585 337.226 111.58 336.078 116.022H381.857V116.001Z" fill="#EDEDED" stroke="black" stroke-width="0.75"/>
<path d="M419.985 81.3161H433.545L431.165 92.6653H431.483C434.161 88.7759 437.498 85.7155 441.473 83.4627C445.447 81.2099 450.123 80.0833 455.478 80.0833C457.561 80.0833 459.495 80.2959 461.281 80.6997C463.066 81.1035 464.426 81.5285 465.34 81.9748L462.301 95.5344C461.366 95.1518 459.857 94.7692 457.731 94.3866C455.627 94.0041 453.587 93.813 451.61 93.813C446.786 93.813 442.726 94.7057 439.411 96.491C436.095 98.2762 433.396 100.912 431.313 104.376C429.231 107.861 427.637 112.133 426.553 117.234L416.117 166.797H401.814L419.985 81.3161V81.3161Z" fill="#EDEDED" stroke="black" stroke-width="0.75"/>
<path d="M478.368 163.544C473.14 160.293 469.208 155.83 466.573 150.155C463.937 144.48 462.62 138.04 462.62 130.793C462.62 123.546 463.64 117.191 465.701 111.028C467.763 104.864 470.675 99.4447 474.458 94.7477C478.241 90.0507 482.725 86.4164 487.89 83.781C493.054 81.1456 498.75 79.8279 504.935 79.8279C512.055 79.8279 518.197 81.2945 523.34 84.2274C528.483 87.1604 532.458 91.3047 535.263 96.6818C538.047 102.059 539.45 108.456 539.45 115.916C539.45 117.68 539.386 119.55 539.28 121.591C539.174 123.61 538.983 125.565 538.706 127.435H477.242C477.178 127.924 477.157 128.413 477.157 128.923V130.411C477.157 135.682 478.007 140.209 479.707 144.013C481.407 147.817 483.809 150.75 486.933 152.812C490.058 154.873 493.734 155.893 497.943 155.893C503.702 155.893 508.569 154.491 512.565 151.707C516.56 148.922 519.515 145.182 521.449 140.527H535.497C534.009 145.798 531.48 150.537 527.846 154.746C524.233 158.975 519.855 162.312 514.69 164.777C509.547 167.242 503.893 168.475 497.751 168.475C490.036 168.475 483.554 166.839 478.305 163.587L478.368 163.544ZM524.849 116.001C524.913 115.618 524.934 115.236 524.934 114.853V113.706C524.934 110.093 524.254 106.65 522.873 103.398C521.491 100.146 519.345 97.4895 516.412 95.428C513.479 93.3664 509.61 92.3461 504.786 92.3461C500.344 92.3461 496.412 93.4087 492.99 95.5128C489.569 97.6169 486.678 100.465 484.319 104.014C481.96 107.585 480.217 111.58 479.07 116.022H524.849V116.001Z" fill="#EDEDED" stroke="black" stroke-width="0.75"/>
<path d="M587.546 166.797L612.774 48.2034H627.885L602.658 166.797H587.546Z" fill="#EDEDED" stroke="black" stroke-width="0.75"/>
<path d="M638.385 92.2193C641.041 88.4149 644.761 85.418 649.521 83.2289C654.282 81.0398 659.829 79.9348 666.12 79.9348C672.411 79.9348 677.746 81.0399 682.443 83.2715C687.14 85.5031 690.817 88.5637 693.494 92.4743C696.172 96.3849 697.554 100.891 697.596 105.991H683.952C683.739 103.207 682.804 100.721 681.189 98.5527C679.573 96.3849 677.448 94.6845 674.813 93.4519C672.177 92.2192 669.223 91.6028 665.929 91.6028C662.316 91.6028 659.213 92.1342 656.599 93.1968C654.006 94.2595 651.987 95.7258 650.563 97.5961C649.139 99.4664 648.416 101.592 648.416 104.015C648.416 107.033 649.479 109.477 651.626 111.326C653.772 113.175 657.491 114.939 662.805 116.575L670.201 118.871C677.873 121.23 683.399 124.184 686.757 127.755C690.136 131.325 691.815 135.916 691.815 141.569C691.815 146.67 690.37 151.218 687.501 155.256C684.632 159.294 680.7 162.461 675.705 164.799C670.711 167.137 665.058 168.284 658.703 168.284C651.966 168.284 646.057 167.115 640.999 164.799C635.941 162.461 631.966 159.316 629.076 155.299C626.207 151.303 624.676 146.798 624.506 141.824H638.81C639.469 146.16 641.573 149.688 645.101 152.43C648.629 155.171 653.39 156.532 659.362 156.532C662.805 156.532 665.908 155.894 668.649 154.64C671.391 153.386 673.538 151.686 675.11 149.539C676.662 147.393 677.448 145.012 677.448 142.398C677.448 139.784 676.513 137.531 674.664 135.98C672.794 134.449 669.159 132.834 663.74 131.134L656.344 128.839C648.565 126.437 642.954 123.376 639.532 119.678C636.111 115.98 634.389 111.198 634.389 105.332C634.389 100.402 635.707 96.0236 638.385 92.2193V92.2193Z" fill="#EDEDED" stroke="black" stroke-width="0.75"/>
<path d="M744.034 166.797L769.262 48.2034H784.373L759.145 166.797H744.034Z" fill="#EDEDED" stroke="black" stroke-width="0.75"/>
<path d="M794.808 163.099C790.813 160.187 788.815 155.809 788.815 149.943C788.815 148.838 788.878 147.69 789.027 146.457C789.155 145.225 789.367 143.95 789.644 142.632L800.249 93.1543H787.582L790.047 81.3163H802.778L807.135 60.0205H821.524L816.997 81.3163H835.317L832.852 93.1543H814.531L804.925 138.19C804.606 139.72 804.351 141.123 804.181 142.377C804.011 143.631 803.926 144.821 803.926 145.905C803.926 149.135 804.946 151.473 806.965 152.897C808.984 154.321 811.683 155.044 815.02 155.044C815.891 155.044 816.657 155.044 817.273 155.001C817.91 154.98 818.527 154.938 819.122 154.874C819.717 154.81 820.333 154.767 820.928 154.704L818.378 166.627C816.954 166.839 815.509 167.03 814.064 167.201C812.618 167.371 811.173 167.456 809.749 167.456C803.777 167.456 798.783 166.01 794.787 163.099H794.808Z" fill="#EDEDED" stroke="black" stroke-width="0.75"/>
<path d="M849.789 61.4868C853.084 56.9599 857.334 53.4531 862.563 50.924C867.791 48.3949 873.976 47.1409 881.095 47.1409C888.215 47.1409 893.911 48.3735 899.012 50.8389C904.113 53.3043 908.066 56.5986 910.893 60.7005C913.719 64.8023 915.122 69.3293 915.122 74.26C915.122 81.4436 912.869 87.9259 908.342 93.7068C903.815 99.4877 898.141 103.908 891.297 106.969C885.431 109.604 881.223 112.219 878.673 114.811C876.122 117.426 874.465 120.89 873.699 125.204L872.786 130.135H858.078L859.566 123.398C860.607 118.743 862.031 114.896 863.838 111.9C865.644 108.882 868.004 106.331 870.915 104.206C873.827 102.102 877.376 100.083 881.606 98.1699C887.79 95.2582 892.317 92.0066 895.165 88.3935C898.013 84.7804 899.437 80.5935 899.437 75.8115C899.437 71.7096 897.801 68.0542 894.549 64.845C891.297 61.6358 886.473 60.0417 880.118 60.0417C874.528 60.0417 869.725 61.572 865.729 64.6112C861.734 67.6505 858.928 71.8798 857.356 77.2994H843.052C844.264 71.2634 846.495 65.9925 849.789 61.4868V61.4868ZM853.658 164.905C851.851 163.099 850.937 160.867 850.937 158.253C850.937 155.639 851.851 153.407 853.658 151.601C855.464 149.794 857.696 148.88 860.31 148.88C862.924 148.88 865.156 149.794 866.962 151.601C868.769 153.407 869.683 155.639 869.683 158.253C869.683 160.867 868.769 163.099 866.962 164.905C865.156 166.712 862.924 167.626 860.31 167.626C857.696 167.626 855.464 166.712 853.658 164.905Z" fill="#EDEDED" stroke="black" stroke-width="0.75"/>
</svg>
