<svg width="299" height="526" viewBox="0 0 299 526" fill="none" xmlns="http://www.w3.org/2000/svg">
<path d="M298 263.013C298 291.108 295.5 318.168 290.878 343.548H8.13429C3.50018 318.168 1 291.108 1 263.013C1 118.118 67.4939 0.648926 149.506 0.648926C231.519 0.648926 298 118.118 298 263.013Z" fill="#FF85D5" stroke="black" stroke-width="0.75"/>
<path d="M78.5675 118.547C94.9322 118.547 104.478 132.058 105.728 152.653H128.911V110.984H138.331V219.361H128.911V160.709H105.728C104.731 181.543 95.0584 195.181 78.5675 195.181C61.0791 195.181 51.167 179.927 51.167 156.87C51.167 133.813 61.0918 118.56 78.5675 118.56V118.547ZM78.5675 126.73C67.7841 126.73 60.5867 139.129 60.5867 156.984C60.5867 174.838 67.7841 186.986 78.5675 186.986C89.351 186.986 96.5485 174.586 96.5485 156.984C96.5485 139.382 89.2374 126.73 78.5675 126.73V126.73Z" fill="white" stroke="black" stroke-width="0.75"/>
<path d="M223.513 180.293L224.624 188.109C212.97 190.344 194.862 191.708 176.023 192.074H163.004V121.767H214.712V129.697H172.424V183.766C188.296 184.258 209.257 183.021 223.513 180.293V180.293ZM236.279 219.349V110.984H245.699V219.361H236.279V219.349Z" fill="white" stroke="black" stroke-width="0.75"/>
<path d="M73.4414 259.301C73.4414 265.93 68.1634 270.072 61.7362 270.072C55.3091 270.072 49.9805 265.93 49.9805 259.351C49.9805 252.773 55.3091 248.416 61.7362 248.416C68.1634 248.416 73.4414 252.773 73.4414 259.288V259.301ZM68.3148 287.737C66.042 286.55 63.605 284.214 62.5696 281.726C61.4836 285.148 57.4935 289.492 53.6044 291.361L51.2179 288.557C55.8268 286.537 60.3851 281.562 60.3851 276.069V273.847H64.3247V275.716C64.3247 280.527 67.532 283.696 71.0044 285.035L68.3148 287.724V287.737ZM53.8064 259.301C53.8064 263.809 57.1779 266.864 61.7362 266.864C66.2946 266.864 69.6659 263.809 69.6659 259.351C69.6659 254.894 66.5092 251.636 61.7362 251.636C56.9632 251.636 53.8064 254.843 53.8064 259.301ZM87.7857 291.26C84.6795 289.757 80.5884 285.817 79.5024 282.56C78.366 285.982 74.5779 290.073 70.9034 291.878L68.4159 289.239C73.2899 286.853 77.4821 281.941 77.4821 276.448V273.708H81.4217V276.297C81.4217 281.89 85.9296 286.865 90.2228 288.469L87.8362 291.272H87.7857V291.26ZM81.9268 272.193V245.878H85.8664V272.193H81.9268Z" fill="white" stroke="black" stroke-width="0.75"/>
<path d="M93.7075 268.784V265.463H134.581V268.784H93.7075ZM98.4679 290.742V279.971H125.502V275.981H98.3543V272.824H129.429V282.976H102.395V287.535H130.932V290.742H98.4552H98.4679ZM114.163 262.205C104.428 262.205 98.4174 259.351 98.4174 254.389C98.4174 249.426 104.428 246.51 114.163 246.51C123.899 246.51 130.01 249.414 130.01 254.389C130.01 259.364 124 262.205 114.163 262.205ZM102.458 254.389C102.458 257.192 107.067 258.947 114.163 258.947C121.26 258.947 126.02 257.192 126.02 254.389C126.02 251.586 121.361 249.729 114.163 249.729C106.966 249.729 102.458 251.548 102.458 254.389Z" fill="white" stroke="black" stroke-width="0.75"/>
<path d="M140.276 280.804L137.068 278.468C143.799 272.407 147.486 261.637 147.587 254.174H139.404V250.853H151.577C151.577 262.243 147.852 272.761 140.288 280.792L140.276 280.804ZM153.281 283.595L149.961 281.373C157.423 273.91 160.012 261.119 160.012 254.174H153.635V250.853H163.888C163.888 262.874 161.401 273.897 153.269 283.595H153.281ZM174.002 264.743H180.897V268.064H174.002V291.171H170.113V245.903H174.002V264.755V264.743Z" fill="white" stroke="black" stroke-width="0.75"/>
<path d="M183.322 285.413V282.092H193.423V273.645L197.363 273.544V282.092H210.003V273.544L213.942 273.645V282.092H224.195V285.413H183.322V285.413ZM203.677 272.306C193.941 272.306 187.413 267.647 187.413 260.651C187.413 253.656 193.941 248.896 203.677 248.896C213.412 248.896 220.041 253.656 220.041 260.651C220.041 267.647 213.513 272.306 203.677 272.306ZM203.677 252.154C196.163 252.154 191.188 255.575 191.188 260.651C191.188 265.728 196.163 269.149 203.677 269.149C211.19 269.149 216.266 265.728 216.266 260.651C216.266 255.575 211.291 252.154 203.677 252.154Z" fill="white" stroke="black" stroke-width="0.75"/>
<path d="M234.044 273.077C234.044 269.453 235.963 268.051 239.272 265.26C241.557 263.392 242.643 261.422 242.643 258.48C242.643 254.641 240.206 252.684 236.165 252.684C233.16 252.684 230.988 253.353 228.703 254.187L228.286 250.979C230.622 249.944 233.93 249.275 237.087 249.275C242.58 249.275 246.873 252.381 246.873 258.341C246.873 262.533 245.32 264.604 241.696 267.66C239.259 269.68 237.756 270.766 237.756 273.304V278.115H234.031V273.089L234.044 273.077ZM233.728 281.777H238.186V286.436H233.728V281.777Z" fill="white" stroke="black" stroke-width="0.75"/>
<path d="M8.13428 343.548C9.43486 350.644 10.8869 357.615 12.5158 364.433C14.1952 371.504 16.0388 378.424 18.0591 385.167C19.3344 389.447 20.6729 393.665 22.0745 397.794C23.6023 402.302 25.2186 406.721 26.898 411.052C28.5648 415.358 30.2947 419.563 32.113 423.679C33.4893 426.823 34.9035 429.904 36.3556 432.935C63.5921 489.504 104.175 525.377 149.506 525.377C194.837 525.377 235.421 489.504 262.657 432.935C264.109 429.904 265.523 426.823 266.9 423.679C268.718 419.563 270.448 415.358 272.115 411.052C273.794 406.721 275.41 402.302 276.938 397.794C278.34 393.665 279.678 389.447 280.954 385.167C282.974 378.424 284.817 371.504 286.497 364.433C288.126 357.615 289.578 350.644 290.878 343.548H8.13428V343.548Z" fill="#FF5C00" stroke="black" stroke-width="0.75" stroke-miterlimit="10"/>
<path d="M146.829 434.475C206.273 434.475 254.462 423.067 254.462 408.994C254.462 394.921 206.273 383.512 146.829 383.512C87.3855 383.512 39.1968 394.921 39.1968 408.994C39.1968 423.067 87.3855 434.475 146.829 434.475Z" fill="#FF0400" stroke="black" stroke-width="0.75"/>
<path d="M138.016 379.725C127.005 379.725 119.884 388.955 119.884 403.236C119.884 404.966 119.997 406.62 120.187 408.186C119.581 407.769 118.836 407.517 118.04 407.517H106.36C112.737 404.852 116.449 400.117 116.449 394.018C116.449 384.334 107.143 378.071 92.7484 378.071C78.3536 378.071 69.1106 384.334 69.1106 394.018C69.1106 400.117 72.8229 404.852 79.1743 407.517H67.5195C65.4235 407.517 63.7314 409.209 63.7314 411.305V415.409C63.7314 417.505 65.4235 419.197 67.5195 419.197H76.7878V435.258C76.7878 437.354 78.4798 439.046 80.5759 439.046H85.4373C87.5334 439.046 89.2254 437.354 89.2254 435.258V419.197H96.1198V435.258C96.1198 437.354 97.8118 439.046 99.9079 439.046H104.769C106.865 439.046 108.557 437.354 108.557 435.258V419.197H118.028C120.124 419.197 121.816 417.505 121.816 415.409V414.967C124.644 422.442 130.389 426.874 138.004 426.874C148.976 426.874 156.073 417.618 156.073 403.299C156.073 388.98 148.976 379.725 138.004 379.725H138.016ZM92.761 398.034C85.45 398.034 81.4977 395.963 81.4977 394.006C81.4977 392.049 85.4373 389.915 92.761 389.915C100.085 389.915 104.087 392.023 104.087 394.006C104.087 395.988 100.123 398.034 92.761 398.034ZM138.016 415.068C134.645 415.068 132.195 410.118 132.195 403.299C132.195 396.481 134.582 391.531 138.016 391.531C141.451 391.531 143.761 396.367 143.761 403.299C143.761 410.232 141.4 415.068 138.016 415.068Z" fill="white" stroke="black" stroke-width="0.75"/>
<path d="M194.535 379.725C184.787 379.725 178.094 386.897 176.642 398.387C176.163 398.173 175.632 398.034 175.077 398.034H169.71V379.283C169.71 377.187 168.018 375.495 165.922 375.495H161.061C158.964 375.495 157.272 377.187 157.272 379.283V435.246C157.272 437.342 158.964 439.034 161.061 439.034H165.922C168.018 439.034 169.71 437.342 169.71 435.246V409.714H175.077C175.708 409.714 176.301 409.55 176.819 409.272C178.562 420.131 185.128 426.874 194.535 426.874C205.621 426.874 212.793 417.618 212.793 403.299C212.793 388.98 205.621 379.725 194.535 379.725V379.725ZM194.535 415.068C191.05 415.068 188.524 410.118 188.524 403.299C188.524 396.481 190.999 391.531 194.535 391.531C198.07 391.531 200.608 396.367 200.608 403.299C200.608 410.232 198.108 415.068 194.535 415.068Z" fill="white" stroke="black" stroke-width="0.75"/>
<path d="M224.309 375.495H219.447C217.355 375.495 215.659 377.191 215.659 379.283V435.246C215.659 437.338 217.355 439.034 219.447 439.034H224.309C226.401 439.034 228.097 437.338 228.097 435.246V379.283C228.097 377.191 226.401 375.495 224.309 375.495Z" fill="white" stroke="black" stroke-width="0.75"/>
<path d="M80.5886 435.246V415.396H67.5322V411.292H118.053V415.396H104.795V435.246H99.9332V415.396H85.4626V435.246H80.6012H80.5886ZM92.7484 406.115C80.3866 406.115 72.8987 401.254 72.8987 394.018C72.8987 386.783 80.3866 381.859 92.7484 381.859C105.11 381.859 112.661 386.72 112.661 394.018C112.661 401.317 105.173 406.115 92.7484 406.115ZM77.697 394.018C77.697 398.754 83.4549 401.835 92.7484 401.835C102.042 401.835 107.863 398.766 107.863 394.018C107.863 389.271 102.168 386.139 92.7484 386.139C83.3287 386.139 77.697 389.208 77.697 394.018Z" fill="#0066FF" stroke="black" stroke-width="0.75"/>
<path d="M138.016 383.513C147.108 383.513 152.297 391.455 152.297 403.299C152.297 415.143 147.108 423.086 138.016 423.086C128.925 423.086 123.672 415.143 123.672 403.236C123.672 391.329 128.925 383.513 138.016 383.513ZM138.016 387.743C132.195 387.743 128.407 394.082 128.407 403.299C128.407 412.517 132.182 418.856 138.016 418.856C143.85 418.856 147.55 412.454 147.55 403.299C147.55 394.145 143.837 387.743 138.016 387.743ZM165.934 405.926V435.246H161.073V379.283H165.934V401.822H175.089V405.926H165.934V405.926Z" fill="#0066FF" stroke="black" stroke-width="0.75"/>
<path d="M194.535 383.513C203.816 383.513 209.005 391.455 209.005 403.299C209.005 415.143 203.816 423.086 194.535 423.086C185.254 423.086 180.127 415.143 180.127 403.236C180.127 391.329 185.38 383.513 194.535 383.513ZM194.535 387.743C188.638 387.743 184.736 394.082 184.736 403.299C184.736 412.517 188.638 418.856 194.535 418.856C200.432 418.856 204.397 412.454 204.397 403.299C204.397 394.145 200.495 387.743 194.535 387.743ZM219.435 435.246V379.283H224.297V435.246H219.435V435.246Z" fill="#0066FF" stroke="black" stroke-width="0.75"/>
</svg>
