<svg width="340" height="486" viewBox="0 0 340 486" fill="none" xmlns="http://www.w3.org/2000/svg">
<path d="M1.10059 485V370.652H9.48493C23.1794 370.652 34.3026 359.514 34.3026 345.834C34.3026 332.153 23.1654 321.016 9.48493 321.016H1.10059V48.2737C1.10059 21.9189 22.5365 0.48291 48.8913 0.48291H290.877C317.232 0.48291 338.668 21.9189 338.668 48.2737V321.282L330.046 321.044C329.795 321.044 329.529 321.016 329.278 321.002H329.32C315.625 321.002 304.502 332.139 304.502 345.82C304.502 359.5 315.583 370.582 329.222 370.638C329.571 370.61 329.809 370.596 330.046 370.596L338.668 370.358V485H1.10059V485Z" fill="white" stroke="black" stroke-width="0.75"/>
<path d="M329.347 379.022C311.013 379.022 296.145 364.154 296.145 345.82C296.145 327.486 311.013 312.618 329.347 312.618C329.669 312.618 329.976 312.66 330.297 312.66V48.2736C330.297 26.5023 312.648 8.86719 290.891 8.86719H48.9049C27.1335 8.86719 9.49854 26.5162 9.49854 48.2736V312.604C27.8323 312.604 42.7005 327.472 42.7005 345.806C42.7005 364.14 27.8323 379.008 9.49854 379.008V476.588H330.297V378.952C329.976 378.952 329.669 378.994 329.347 378.994V379.022Z" fill="#0066FF" stroke="black" stroke-width="0.75"/>
<path d="M164.302 168.938C237.11 168.938 296.132 154.968 296.132 137.734C296.132 120.501 237.11 106.531 164.302 106.531C91.4945 106.531 32.4722 120.501 32.4722 137.734C32.4722 154.968 91.4945 168.938 164.302 168.938Z" fill="white" stroke="black" stroke-width="0.75"/>
<path d="M42.7012 345.82H49.6881" stroke="black" stroke-width="0.75" stroke-dasharray="10 10"/>
<path d="M63.7744 345.82H282.103" stroke="black" stroke-width="0.75" stroke-dasharray="10 10"/>
<path d="M289.145 345.82H296.131" stroke="black" stroke-width="0.75" stroke-dasharray="10 10"/>
<path d="M133.252 207.059C122.157 207.059 112.375 204.907 104.187 200.645C95.8581 196.286 89.3463 190.123 84.8327 182.354C80.361 174.584 78.0972 165.585 78.0972 155.607V77.0043C78.0972 73.1475 81.2273 70.0173 85.0841 70.0173H100.19C104.047 70.0173 107.177 73.1475 107.177 77.0043V154.601C107.177 159.674 108.169 163.964 110.195 167.723C112.138 171.202 114.946 173.927 118.719 175.995C122.576 178.105 127.467 179.167 133.238 179.167C139.01 179.167 143.844 178.105 147.645 176.009C151.432 173.941 154.199 171.23 156.141 167.695C158.154 163.978 159.146 159.688 159.146 154.615V77.0043C159.146 73.1475 162.276 70.0173 166.133 70.0173H181.239C185.095 70.0173 188.226 73.1475 188.226 77.0043V155.607C188.226 165.585 185.962 174.57 181.504 182.326C177.06 190.109 170.577 196.272 162.248 200.631C154.115 204.893 144.362 207.045 133.252 207.045V207.059Z" fill="white" stroke="black" stroke-width="0.75" stroke-miterlimit="10"/>
<path d="M133.253 200.072C143.258 200.072 151.852 198.2 159.007 194.455C166.161 190.71 171.639 185.511 175.454 178.846C179.311 172.138 181.239 164.383 181.239 155.607V77.0039H166.133V154.601C166.133 160.805 164.848 166.283 162.276 171.048C159.705 175.743 155.96 179.433 151.042 182.116C146.179 184.799 140.254 186.14 133.253 186.14C126.252 186.14 120.299 184.799 115.38 182.116C110.461 179.433 106.688 175.743 104.061 171.048C101.49 166.297 100.205 160.819 100.205 154.601V77.0039H85.0986V155.607C85.0986 164.383 87.0271 172.138 90.8838 178.846C94.7406 185.497 100.246 190.696 107.415 194.455C114.625 198.2 123.247 200.072 133.253 200.072V200.072Z" fill="#FF0400" stroke="black" stroke-width="0.75" stroke-miterlimit="10"/>
<path d="M201.585 205.047C197.728 205.047 194.598 201.917 194.598 198.06V183.974C194.598 180.118 197.728 176.987 201.585 176.987H208.349V96.4698H201.585C197.728 96.4698 194.598 93.3396 194.598 89.4828V75.3971C194.598 71.5403 197.728 68.4102 201.585 68.4102H243.507C247.364 68.4102 250.494 71.5403 250.494 75.3971V89.4828C250.494 93.3396 247.364 96.4698 243.507 96.4698H237.093V176.987H243.507C247.364 176.987 250.494 180.118 250.494 183.974V198.06C250.494 201.917 247.364 205.047 243.507 205.047H201.585Z" fill="white" stroke="black" stroke-width="0.75" stroke-miterlimit="10"/>
<path d="M234.396 89.4689C232.216 89.4689 230.79 89.5248 230.106 89.6366V183.793L234.396 183.96H243.507V198.046H201.585V183.96H211.031L215.321 183.793V89.6506C214.637 89.5388 213.197 89.4829 211.031 89.4829H201.585V75.3972H243.507V89.4829H234.396V89.4689Z" fill="#FF0400" stroke="black" stroke-width="0.75" stroke-miterlimit="10"/>
<path d="M83.3369 237.453H98.8479V281.149H104.996V237.453H120.521V231.919H83.3369V237.453Z" fill="black"/>
<path d="M127.718 232.226C126.698 232.226 125.818 232.59 125.091 233.302C124.364 234.015 124.001 234.895 124.001 235.943C124.001 236.991 124.364 237.844 125.091 238.57C125.818 239.297 126.698 239.66 127.718 239.66C128.738 239.66 129.647 239.297 130.359 238.57C131.072 237.844 131.435 236.963 131.435 235.943C131.435 234.923 131.072 234.015 130.359 233.302C129.647 232.59 128.766 232.226 127.718 232.226Z" fill="black"/>
<path d="M130.681 245.669H124.742V281.149H130.681V245.669Z" fill="black"/>
<path d="M162.401 269.886C161.898 271.87 160.892 273.477 159.383 274.707C157.873 275.951 155.903 276.566 153.458 276.566C151.417 276.566 149.615 276.049 148.05 275.001C146.499 273.953 145.269 272.457 144.403 270.501C143.522 268.545 143.089 266.197 143.089 263.444V263.416C143.089 260.733 143.522 258.414 144.389 256.443C145.255 254.473 146.457 252.95 148.008 251.874C149.559 250.798 151.347 250.253 153.402 250.253C156.015 250.253 158.055 250.924 159.522 252.265C160.989 253.607 161.94 255.158 162.373 256.932L162.443 257.212H168.242L168.214 256.932C167.962 254.906 167.236 252.992 166.02 251.161C164.804 249.344 163.142 247.863 161.018 246.703C158.907 245.558 156.364 244.985 153.416 244.985C150.146 244.985 147.281 245.739 144.822 247.234C142.362 248.73 140.462 250.868 139.092 253.607C137.723 256.359 137.052 259.601 137.052 263.332V263.36C137.052 267.119 137.723 270.375 139.064 273.128C140.406 275.881 142.306 278.033 144.78 279.542C147.253 281.051 150.146 281.806 153.5 281.806C156.183 281.806 158.572 281.275 160.682 280.213C162.792 279.151 164.497 277.725 165.838 275.909C167.18 274.092 167.99 272.066 168.312 269.816L168.34 269.579H162.513L162.443 269.858L162.401 269.886Z" fill="black"/>
<path d="M203.066 245.669H195.869L180.316 261.32H180.177V231.919H174.238V281.149H180.177V267.762L183.475 264.604L196.652 281.149H203.541L187.695 260.985L203.066 245.669Z" fill="black"/>
<path d="M228.526 247.22C226.192 245.725 223.411 244.985 220.183 244.985C216.955 244.985 214.146 245.767 211.757 247.318C209.367 248.869 207.509 251.049 206.195 253.83C204.882 256.611 204.211 259.839 204.211 263.5V263.528C204.211 267.231 204.868 270.459 206.167 273.198C207.481 275.937 209.353 278.061 211.799 279.556C214.244 281.051 217.165 281.806 220.547 281.806C222.475 281.806 224.278 281.54 225.94 281.009C227.603 280.478 229.085 279.724 230.37 278.76C231.67 277.795 232.732 276.677 233.556 275.406C234.381 274.134 234.954 272.765 235.247 271.311L235.317 270.976H229.49L229.392 271.283C229.057 272.304 228.484 273.212 227.687 274.008C226.891 274.805 225.899 275.434 224.725 275.881C223.537 276.342 222.195 276.566 220.7 276.566C218.562 276.566 216.704 276.091 215.139 275.154C213.574 274.218 212.358 272.849 211.505 271.074C210.695 269.383 210.276 267.357 210.248 264.995H235.778V262.815C235.778 259.266 235.149 256.15 233.905 253.467C232.648 250.784 230.859 248.702 228.54 247.206L228.526 247.22ZM215.069 251.622C216.564 250.7 218.269 250.239 220.155 250.239C222.042 250.239 223.719 250.672 225.172 251.552C226.625 252.433 227.771 253.76 228.595 255.563C229.21 256.904 229.602 258.511 229.755 260.37H210.318C210.485 258.595 210.876 257.044 211.519 255.717C212.386 253.914 213.56 252.544 215.069 251.622V251.622Z" fill="black"/>
<path d="M256.446 250.574V245.655H249.697V236.069H243.562V245.655H238.378V250.574H243.562V272.094C243.562 275.489 244.373 277.949 245.98 279.5C247.601 281.051 250.032 281.82 253.274 281.82C253.861 281.82 254.448 281.792 255.035 281.736C255.608 281.68 256.083 281.624 256.446 281.582V276.775C256.195 276.803 255.901 276.831 255.58 276.859C255.258 276.887 254.909 276.915 254.546 276.915C252.953 276.915 251.751 276.579 250.926 275.909C250.102 275.238 249.697 273.952 249.697 272.066V250.574H256.446Z" fill="black"/>
<path d="M235.597 416.528C221.455 438.732 196.609 453.461 168.312 453.461C140.015 453.461 115.169 438.732 101.028 416.528C115.169 394.323 140.015 379.595 168.312 379.595C196.609 379.595 221.455 394.323 235.597 416.528Z" fill="white" stroke="black" stroke-width="0.75" stroke-miterlimit="10"/>
<path d="M197.112 416.528C197.112 432.794 184.214 445.957 168.312 445.957C152.41 445.957 139.512 432.794 139.512 416.528C139.512 400.263 152.41 387.099 168.312 387.099C184.214 387.099 197.112 400.263 197.112 416.528Z" fill="#FF0400" stroke="black" stroke-width="0.75"/>
<path d="M184.103 416.528C184.103 425.458 177.018 432.682 168.298 432.682C159.579 432.682 152.494 425.458 152.494 416.528C152.494 407.599 159.579 400.375 168.298 400.375C177.018 400.375 184.103 407.599 184.103 416.528Z" fill="black" stroke="black" stroke-width="0.75"/>
<path d="M157.985 416.487C162.716 416.487 166.551 412.651 166.551 407.921C166.551 403.19 162.716 399.354 157.985 399.354C153.255 399.354 149.419 403.19 149.419 407.921C149.419 412.651 153.255 416.487 157.985 416.487Z" fill="white" stroke="black" stroke-width="0.75"/>
</svg>
