<svg width="333" height="303" viewBox="0 0 333 303" fill="none" xmlns="http://www.w3.org/2000/svg">
<path d="M240.886 1.272C253.306 1.21402 265.582 3.6778 276.886 8.48947C287.828 13.1417 297.684 19.765 305.872 27.9826C314.133 36.5624 320.655 46.4756 325.119 57.2294C329.8 68.7803 332.133 81.0414 332.032 93.4039C332.032 108.911 328.452 124.23 321.568 138.347C314.351 153.68 305.061 168.086 293.944 181.246C279.973 197.159 265.016 212.29 249.161 226.58C231.682 242.377 212.436 260.117 191.189 279.61L167.015 302.132L142.942 280.001C121.594 260.508 102.231 242.696 84.8686 226.58C69.0133 212.29 54.0566 197.159 40.0853 181.246C28.5924 168.304 18.9545 154.013 11.4182 138.738C4.53401 124.622 0.968782 109.303 0.954289 93.7951C0.838345 81.4471 3.18615 69.1861 7.86738 57.6207C12.3312 46.8669 18.8531 36.9537 27.1141 28.3739C35.3026 20.1564 45.1434 13.5331 56.1001 8.88081C67.3611 3.9387 79.6511 1.34446 92.1006 1.272C106.449 1.38794 120.55 4.73579 133.217 11.0257C146.232 17.2142 157.609 26.0405 166.493 36.8668C175.377 26.055 186.754 17.2287 199.769 11.0257C212.436 4.75028 226.538 1.40243 240.886 1.272V1.272Z" fill="#FF0400" stroke="black" stroke-width="0.75" stroke-miterlimit="10"/>
<path d="M76.0277 116.926C81.1728 113.346 85.2163 109.013 88.1293 103.912C88.4772 103.303 88.7236 102.68 89.0279 102.071C89.3468 102.709 89.6076 103.361 89.9555 103.984C92.8541 109.071 96.8832 113.404 102.014 116.97C107.144 120.535 112.941 122.999 119.391 124.332L123.884 115.926C118.275 114.955 113.217 113.013 108.709 110.114C104.202 107.216 100.666 103.767 98.1005 99.81C95.5353 95.8389 94.2599 91.7229 94.2599 87.4619V81.4619H83.593V87.4619C83.564 91.7084 82.2742 95.8099 79.7379 99.7665C77.2017 103.723 73.6798 107.172 69.2015 110.071C64.7232 112.984 59.7232 114.926 54.2158 115.926L58.5782 124.332C65.0566 122.97 70.8682 120.506 76.0132 116.926H76.0277Z" fill="#FFD600" stroke="black" stroke-width="0.75"/>
<path d="M127 139.55H51.9551V147.869H127V139.55Z" fill="#FFD600" stroke="black" stroke-width="0.75"/>
<path d="M196.624 76.23H186.537V158.26H196.624V116.347H209.291V108.071H196.624V76.23Z" fill="#FFD600" stroke="black" stroke-width="0.75"/>
<path d="M171.276 129.463V92.4909H179.175V84.2734H133.348V92.4909H141.159V130.564C137.942 130.607 134.667 130.636 131.261 130.651L132.391 138.955C142.015 138.897 150.928 138.651 159.102 138.231C167.276 137.81 175.117 136.955 182.624 135.695L182.175 128.376C178.653 128.81 175.015 129.173 171.276 129.463V129.463ZM158.623 130.173C156.131 130.26 153.551 130.332 150.928 130.39V92.4909H161.551V130.042C160.58 130.086 159.609 130.144 158.623 130.173Z" fill="#FFD600" stroke="black" stroke-width="0.75"/>
<path d="M281.016 76.23H270.799V158.492H281.016V76.23Z" fill="#FFD600" stroke="black" stroke-width="0.75"/>
<path d="M247.812 85.7668C244.566 83.4044 240.885 82.2305 236.769 82.2305C232.653 82.2305 228.928 83.4044 225.682 85.7668C222.435 88.1291 219.899 91.506 218.058 95.9118C216.218 100.318 215.305 105.419 215.334 111.202C215.305 117.043 216.218 122.159 218.058 126.55C219.899 130.941 222.45 134.318 225.682 136.71C228.914 139.086 232.609 140.275 236.769 140.275C240.928 140.275 244.566 139.086 247.812 136.71C251.044 134.333 253.581 130.956 255.392 126.55C257.204 122.159 258.117 117.043 258.117 111.202C258.117 105.361 257.204 100.318 255.392 95.9118C253.581 91.506 251.044 88.1291 247.812 85.7668ZM246.943 121.927C245.972 124.927 244.609 127.217 242.856 128.782C241.102 130.362 239.073 131.13 236.769 131.101C234.435 131.13 232.377 130.362 230.609 128.782C228.841 127.202 227.479 124.927 226.522 121.927C225.566 118.927 225.087 115.361 225.087 111.202C225.087 107.042 225.566 103.564 226.522 100.55C227.479 97.5351 228.841 95.2452 230.609 93.6655C232.377 92.0857 234.435 91.3031 236.769 91.3031C239.102 91.3031 241.102 92.1002 242.856 93.6945C244.609 95.2887 245.972 97.5641 246.943 100.55C247.914 103.535 248.392 107.086 248.392 111.202C248.392 115.318 247.914 118.927 246.943 121.927Z" fill="#FFD600" stroke="black" stroke-width="0.75"/>
</svg>
