<svg width="156" height="554" viewBox="0 0 156 554" fill="none" xmlns="http://www.w3.org/2000/svg">
<mask id="mask0_307_4323" style="mask-type:alpha" maskUnits="userSpaceOnUse" x="1" y="152" width="155" height="328">
<path d="M155.175 152.202H1V479.645H155.175V152.202Z" fill="#D9D9D9"/>
</mask>
<g mask="url(#mask0_307_4323)">
<rect x="103.357" y="141.785" width="18.3685" height="18.3685" fill="#00B026" stroke="black" stroke-width="0.5"/>
<rect x="103.357" y="288.733" width="18.3685" height="18.3685" fill="#00B026" stroke="black" stroke-width="0.5"/>
<rect x="103.357" y="215.26" width="18.3685" height="18.3685" fill="#00B026" stroke="black" stroke-width="0.5"/>
<rect x="103.357" y="362.208" width="18.3685" height="18.3685" fill="#00B026" stroke="black" stroke-width="0.5"/>
<rect x="29.8828" y="141.785" width="18.3685" height="18.3685" fill="#00B026" stroke="black" stroke-width="0.5"/>
<rect x="-6.85449" y="141.786" width="18.3685" height="18.3685" fill="#00B026" stroke="black" stroke-width="0.5"/>
<rect x="29.8828" y="288.733" width="18.3685" height="18.3685" fill="#00B026" stroke="black" stroke-width="0.5"/>
<rect x="-6.85449" y="288.733" width="18.3685" height="18.3685" fill="#00B026" stroke="black" stroke-width="0.5"/>
<rect x="29.8828" y="215.26" width="18.3685" height="18.3685" fill="#00B026" stroke="black" stroke-width="0.5"/>
<rect x="-6.85449" y="215.26" width="18.3685" height="18.3685" fill="#00B026" stroke="black" stroke-width="0.5"/>
<rect x="29.8828" y="362.208" width="18.3685" height="18.3685" fill="#00B026" stroke="black" stroke-width="0.5"/>
<rect x="-6.85449" y="362.208" width="18.3685" height="18.3685" fill="#00B026" stroke="black" stroke-width="0.5"/>
<rect x="103.357" y="178.522" width="18.3685" height="18.3685" fill="#00B026" stroke="black" stroke-width="0.5"/>
<rect x="103.357" y="325.471" width="18.3685" height="18.3685" fill="#00B026" stroke="black" stroke-width="0.5"/>
<rect x="103.357" y="251.997" width="18.3685" height="18.3685" fill="#00B026" stroke="black" stroke-width="0.5"/>
<rect x="103.357" y="398.945" width="18.3685" height="18.3685" fill="#00B026" stroke="black" stroke-width="0.5"/>
<rect x="103.357" y="454.05" width="18.3685" height="18.3685" fill="#00B026" stroke="black" stroke-width="0.5"/>
<rect x="29.8828" y="178.522" width="18.3685" height="18.3685" fill="#00B026" stroke="black" stroke-width="0.5"/>
<rect x="-6.85449" y="178.522" width="18.3685" height="18.3685" fill="#00B026" stroke="black" stroke-width="0.5"/>
<rect x="29.8828" y="325.471" width="18.3685" height="18.3685" fill="#00B026" stroke="black" stroke-width="0.5"/>
<rect x="-6.85449" y="325.471" width="18.3685" height="18.3685" fill="#00B026" stroke="black" stroke-width="0.5"/>
<rect x="29.8828" y="251.997" width="18.3685" height="18.3685" fill="#00B026" stroke="black" stroke-width="0.5"/>
<rect x="-6.85449" y="251.997" width="18.3685" height="18.3685" fill="#00B026" stroke="black" stroke-width="0.5"/>
<rect x="29.8828" y="398.945" width="18.3685" height="18.3685" fill="#00B026" stroke="black" stroke-width="0.5"/>
<rect x="29.8828" y="454.05" width="18.3685" height="18.3685" fill="#00B026" stroke="black" stroke-width="0.5"/>
<rect x="-6.85449" y="398.945" width="18.3685" height="18.3685" fill="#00B026" stroke="black" stroke-width="0.5"/>
<rect x="-6.85449" y="454.05" width="18.3685" height="18.3685" fill="#00B026" stroke="black" stroke-width="0.5"/>
<rect x="140.094" y="141.785" width="18.3685" height="18.3685" fill="#00B026" stroke="black" stroke-width="0.5"/>
<rect x="140.094" y="288.733" width="18.3685" height="18.3685" fill="#00B026" stroke="black" stroke-width="0.5"/>
<rect x="140.094" y="215.26" width="18.3685" height="18.3685" fill="#00B026" stroke="black" stroke-width="0.5"/>
<rect x="140.094" y="362.208" width="18.3685" height="18.3685" fill="#00B026" stroke="black" stroke-width="0.5"/>
<rect x="66.6191" y="141.785" width="18.3685" height="18.3685" fill="#00B026" stroke="black" stroke-width="0.5"/>
<rect x="66.6191" y="288.733" width="18.3685" height="18.3685" fill="#00B026" stroke="black" stroke-width="0.5"/>
<rect x="66.6191" y="215.26" width="18.3685" height="18.3685" fill="#00B026" stroke="black" stroke-width="0.5"/>
<rect x="66.6191" y="362.208" width="18.3685" height="18.3685" fill="#00B026" stroke="black" stroke-width="0.5"/>
<rect x="140.094" y="178.522" width="18.3685" height="18.3685" fill="#00B026" stroke="black" stroke-width="0.5"/>
<rect x="140.094" y="325.471" width="18.3685" height="18.3685" fill="#00B026" stroke="black" stroke-width="0.5"/>
<rect x="140.094" y="251.997" width="18.3685" height="18.3685" fill="#00B026" stroke="black" stroke-width="0.5"/>
<rect x="140.094" y="398.945" width="18.3685" height="18.3685" fill="#00B026" stroke="black" stroke-width="0.5"/>
<rect x="140.094" y="454.05" width="18.3685" height="18.3685" fill="#00B026" stroke="black" stroke-width="0.5"/>
<rect x="66.6191" y="178.522" width="18.3685" height="18.3685" fill="#00B026" stroke="black" stroke-width="0.5"/>
<rect x="66.6191" y="325.471" width="18.3685" height="18.3685" fill="#00B026" stroke="black" stroke-width="0.5"/>
<rect x="66.6191" y="251.997" width="18.3685" height="18.3685" fill="#00B026" stroke="black" stroke-width="0.5"/>
<rect x="66.6191" y="398.945" width="18.3685" height="18.3685" fill="#00B026" stroke="black" stroke-width="0.5"/>
<rect x="66.6191" y="454.05" width="18.3685" height="18.3685" fill="#00B026" stroke="black" stroke-width="0.5"/>
<rect x="103.357" y="160.154" width="18.3685" height="18.3685" fill="#00B026" stroke="black" stroke-width="0.5"/>
<rect x="103.357" y="307.102" width="18.3685" height="18.3685" fill="#00B026" stroke="black" stroke-width="0.5"/>
<rect x="103.357" y="233.628" width="18.3685" height="18.3685" fill="#00B026" stroke="black" stroke-width="0.5"/>
<rect x="103.357" y="380.576" width="18.3685" height="18.3685" fill="#00B026" stroke="black" stroke-width="0.5"/>
<rect x="103.357" y="435.682" width="18.3685" height="18.3685" fill="#00B026" stroke="black" stroke-width="0.5"/>
<rect x="29.8828" y="160.154" width="18.3685" height="18.3685" fill="#00B026" stroke="black" stroke-width="0.5"/>
<rect x="-6.85449" y="160.154" width="18.3685" height="18.3685" fill="#00B026" stroke="black" stroke-width="0.5"/>
<rect x="29.8828" y="307.102" width="18.3685" height="18.3685" fill="#00B026" stroke="black" stroke-width="0.5"/>
<rect x="-6.85449" y="307.102" width="18.3685" height="18.3685" fill="#00B026" stroke="black" stroke-width="0.5"/>
<rect x="29.8828" y="233.628" width="18.3685" height="18.3685" fill="#00B026" stroke="black" stroke-width="0.5"/>
<rect x="-6.85449" y="233.628" width="18.3685" height="18.3685" fill="#00B026" stroke="black" stroke-width="0.5"/>
<rect x="29.8828" y="380.576" width="18.3685" height="18.3685" fill="#00B026" stroke="black" stroke-width="0.5"/>
<rect x="29.8828" y="435.682" width="18.3685" height="18.3685" fill="#00B026" stroke="black" stroke-width="0.5"/>
<rect x="-6.85449" y="380.576" width="18.3685" height="18.3685" fill="#00B026" stroke="black" stroke-width="0.5"/>
<rect x="-6.85449" y="435.682" width="18.3685" height="18.3685" fill="#00B026" stroke="black" stroke-width="0.5"/>
<rect x="103.357" y="196.891" width="18.3685" height="18.3685" fill="#00B026" stroke="black" stroke-width="0.5"/>
<rect x="103.357" y="343.839" width="18.3685" height="18.3685" fill="#00B026" stroke="black" stroke-width="0.5"/>
<rect x="103.357" y="270.365" width="18.3685" height="18.3685" fill="#00B026" stroke="black" stroke-width="0.5"/>
<rect x="103.357" y="417.313" width="18.3685" height="18.3685" fill="#00B026" stroke="black" stroke-width="0.5"/>
<rect x="103.357" y="472.419" width="18.3685" height="18.3685" fill="#00B026" stroke="black" stroke-width="0.5"/>
<rect x="29.8828" y="196.891" width="18.3685" height="18.3685" fill="#00B026" stroke="black" stroke-width="0.5"/>
<rect x="-6.85449" y="196.891" width="18.3685" height="18.3685" fill="#00B026" stroke="black" stroke-width="0.5"/>
<rect x="29.8828" y="343.839" width="18.3685" height="18.3685" fill="#00B026" stroke="black" stroke-width="0.5"/>
<rect x="-6.85449" y="343.839" width="18.3685" height="18.3685" fill="#00B026" stroke="black" stroke-width="0.5"/>
<rect x="29.8828" y="270.365" width="18.3685" height="18.3685" fill="#00B026" stroke="black" stroke-width="0.5"/>
<rect x="-6.85449" y="270.365" width="18.3685" height="18.3685" fill="#00B026" stroke="black" stroke-width="0.5"/>
<rect x="29.8828" y="417.313" width="18.3685" height="18.3685" fill="#00B026" stroke="black" stroke-width="0.5"/>
<rect x="29.8828" y="472.419" width="18.3685" height="18.3685" fill="#00B026" stroke="black" stroke-width="0.5"/>
<rect x="-6.85449" y="417.313" width="18.3685" height="18.3685" fill="#00B026" stroke="black" stroke-width="0.5"/>
<rect x="-6.85449" y="472.419" width="18.3685" height="18.3685" fill="#00B026" stroke="black" stroke-width="0.5"/>
<rect x="140.094" y="160.154" width="18.3685" height="18.3685" fill="#00B026" stroke="black" stroke-width="0.5"/>
<rect x="140.094" y="307.102" width="18.3685" height="18.3685" fill="#00B026" stroke="black" stroke-width="0.5"/>
<rect x="140.094" y="233.628" width="18.3685" height="18.3685" fill="#00B026" stroke="black" stroke-width="0.5"/>
<rect x="140.094" y="380.576" width="18.3685" height="18.3685" fill="#00B026" stroke="black" stroke-width="0.5"/>
<rect x="140.094" y="435.682" width="18.3685" height="18.3685" fill="#00B026" stroke="black" stroke-width="0.5"/>
<rect x="66.6191" y="160.154" width="18.3685" height="18.3685" fill="#00B026" stroke="black" stroke-width="0.5"/>
<rect x="66.6191" y="307.102" width="18.3685" height="18.3685" fill="#00B026" stroke="black" stroke-width="0.5"/>
<rect x="66.6191" y="233.628" width="18.3685" height="18.3685" fill="#00B026" stroke="black" stroke-width="0.5"/>
<rect x="66.6191" y="380.576" width="18.3685" height="18.3685" fill="#00B026" stroke="black" stroke-width="0.5"/>
<rect x="66.6191" y="435.682" width="18.3685" height="18.3685" fill="#00B026" stroke="black" stroke-width="0.5"/>
<rect x="140.094" y="196.891" width="18.3685" height="18.3685" fill="#00B026" stroke="black" stroke-width="0.5"/>
<rect x="140.094" y="343.839" width="18.3685" height="18.3685" fill="#00B026" stroke="black" stroke-width="0.5"/>
<rect x="140.094" y="270.365" width="18.3685" height="18.3685" fill="#00B026" stroke="black" stroke-width="0.5"/>
<rect x="140.094" y="417.313" width="18.3685" height="18.3685" fill="#00B026" stroke="black" stroke-width="0.5"/>
<rect x="140.094" y="472.419" width="18.3685" height="18.3685" fill="#00B026" stroke="black" stroke-width="0.5"/>
<rect x="66.6191" y="196.891" width="18.3685" height="18.3685" fill="#00B026" stroke="black" stroke-width="0.5"/>
<rect x="66.6191" y="343.839" width="18.3685" height="18.3685" fill="#00B026" stroke="black" stroke-width="0.5"/>
<rect x="66.6191" y="270.365" width="18.3685" height="18.3685" fill="#00B026" stroke="black" stroke-width="0.5"/>
<rect x="66.6191" y="417.313" width="18.3685" height="18.3685" fill="#00B026" stroke="black" stroke-width="0.5"/>
<rect x="66.6191" y="472.419" width="18.3685" height="18.3685" fill="#00B026" stroke="black" stroke-width="0.5"/>
<rect x="121.726" y="141.785" width="18.3685" height="18.3685" fill="#00B026" stroke="black" stroke-width="0.5"/>
<rect x="121.726" y="288.733" width="18.3685" height="18.3685" fill="#00B026" stroke="black" stroke-width="0.5"/>
<rect x="121.726" y="215.26" width="18.3685" height="18.3685" fill="#00B026" stroke="black" stroke-width="0.5"/>
<rect x="121.726" y="362.208" width="18.3685" height="18.3685" fill="#00B026" stroke="black" stroke-width="0.5"/>
<rect x="48.251" y="141.785" width="18.3685" height="18.3685" fill="#00B026" stroke="black" stroke-width="0.5"/>
<rect x="11.5146" y="141.785" width="18.3685" height="18.3685" fill="#00B026" stroke="black" stroke-width="0.5"/>
<rect x="48.251" y="288.733" width="18.3685" height="18.3685" fill="#00B026" stroke="black" stroke-width="0.5"/>
<rect x="11.5146" y="288.733" width="18.3685" height="18.3685" fill="#00B026" stroke="black" stroke-width="0.5"/>
<rect x="48.251" y="215.26" width="18.3685" height="18.3685" fill="#00B026" stroke="black" stroke-width="0.5"/>
<rect x="11.5146" y="215.26" width="18.3685" height="18.3685" fill="#00B026" stroke="black" stroke-width="0.5"/>
<rect x="48.251" y="362.208" width="18.3685" height="18.3685" fill="#00B026" stroke="black" stroke-width="0.5"/>
<rect x="11.5146" y="362.208" width="18.3685" height="18.3685" fill="#00B026" stroke="black" stroke-width="0.5"/>
<rect x="121.726" y="178.522" width="18.3685" height="18.3685" fill="#00B026" stroke="black" stroke-width="0.5"/>
<rect x="121.726" y="325.471" width="18.3685" height="18.3685" fill="#00B026" stroke="black" stroke-width="0.5"/>
<rect x="121.726" y="251.997" width="18.3685" height="18.3685" fill="#00B026" stroke="black" stroke-width="0.5"/>
<rect x="121.726" y="398.945" width="18.3685" height="18.3685" fill="#00B026" stroke="black" stroke-width="0.5"/>
<rect x="121.726" y="454.05" width="18.3685" height="18.3685" fill="#00B026" stroke="black" stroke-width="0.5"/>
<rect x="48.251" y="178.522" width="18.3685" height="18.3685" fill="#00B026" stroke="black" stroke-width="0.5"/>
<rect x="11.5146" y="178.522" width="18.3685" height="18.3685" fill="#00B026" stroke="black" stroke-width="0.5"/>
<rect x="48.251" y="325.471" width="18.3685" height="18.3685" fill="#00B026" stroke="black" stroke-width="0.5"/>
<rect x="11.5146" y="325.471" width="18.3685" height="18.3685" fill="#00B026" stroke="black" stroke-width="0.5"/>
<rect x="48.251" y="251.997" width="18.3685" height="18.3685" fill="#00B026" stroke="black" stroke-width="0.5"/>
<rect x="11.5146" y="251.997" width="18.3685" height="18.3685" fill="#00B026" stroke="black" stroke-width="0.5"/>
<rect x="48.251" y="398.945" width="18.3685" height="18.3685" fill="#00B026" stroke="black" stroke-width="0.5"/>
<rect x="48.251" y="454.05" width="18.3685" height="18.3685" fill="#00B026" stroke="black" stroke-width="0.5"/>
<rect x="11.5146" y="398.945" width="18.3685" height="18.3685" fill="#00B026" stroke="black" stroke-width="0.5"/>
<rect x="11.5146" y="454.05" width="18.3685" height="18.3685" fill="#00B026" stroke="black" stroke-width="0.5"/>
<rect x="84.9883" y="141.785" width="18.3685" height="18.3685" fill="#00B026" stroke="black" stroke-width="0.5"/>
<rect x="84.9883" y="288.733" width="18.3685" height="18.3685" fill="#00B026" stroke="black" stroke-width="0.5"/>
<rect x="84.9883" y="215.26" width="18.3685" height="18.3685" fill="#00B026" stroke="black" stroke-width="0.5"/>
<rect x="84.9883" y="362.208" width="18.3685" height="18.3685" fill="#00B026" stroke="black" stroke-width="0.5"/>
<rect x="84.9883" y="178.522" width="18.3685" height="18.3685" fill="#00B026" stroke="black" stroke-width="0.5"/>
<rect x="84.9883" y="325.471" width="18.3685" height="18.3685" fill="#00B026" stroke="black" stroke-width="0.5"/>
<rect x="84.9883" y="251.997" width="18.3685" height="18.3685" fill="#00B026" stroke="black" stroke-width="0.5"/>
<rect x="84.9883" y="398.945" width="18.3685" height="18.3685" fill="#00B026" stroke="black" stroke-width="0.5"/>
<rect x="84.9883" y="454.05" width="18.3685" height="18.3685" fill="#00B026" stroke="black" stroke-width="0.5"/>
<rect x="121.726" y="160.154" width="18.3685" height="18.3685" fill="#00B026" stroke="black" stroke-width="0.5"/>
<rect x="121.726" y="307.102" width="18.3685" height="18.3685" fill="#00B026" stroke="black" stroke-width="0.5"/>
<rect x="121.726" y="233.628" width="18.3685" height="18.3685" fill="#00B026" stroke="black" stroke-width="0.5"/>
<rect x="121.726" y="380.576" width="18.3685" height="18.3685" fill="#00B026" stroke="black" stroke-width="0.5"/>
<rect x="121.726" y="435.682" width="18.3685" height="18.3685" fill="#00B026" stroke="black" stroke-width="0.5"/>
<rect x="48.251" y="160.154" width="18.3685" height="18.3685" fill="#00B026" stroke="black" stroke-width="0.5"/>
<rect x="11.5146" y="160.154" width="18.3685" height="18.3685" fill="#00B026" stroke="black" stroke-width="0.5"/>
<rect x="48.251" y="307.102" width="18.3685" height="18.3685" fill="#00B026" stroke="black" stroke-width="0.5"/>
<rect x="11.5146" y="307.102" width="18.3685" height="18.3685" fill="#00B026" stroke="black" stroke-width="0.5"/>
<rect x="48.251" y="233.628" width="18.3685" height="18.3685" fill="#00B026" stroke="black" stroke-width="0.5"/>
<rect x="11.5146" y="233.628" width="18.3685" height="18.3685" fill="#00B026" stroke="black" stroke-width="0.5"/>
<rect x="48.251" y="380.576" width="18.3685" height="18.3685" fill="#00B026" stroke="black" stroke-width="0.5"/>
<rect x="48.251" y="435.682" width="18.3685" height="18.3685" fill="#00B026" stroke="black" stroke-width="0.5"/>
<rect x="11.5146" y="380.576" width="18.3685" height="18.3685" fill="#00B026" stroke="black" stroke-width="0.5"/>
<rect x="11.5146" y="435.682" width="18.3685" height="18.3685" fill="#00B026" stroke="black" stroke-width="0.5"/>
<rect x="121.726" y="196.891" width="18.3685" height="18.3685" fill="#00B026" stroke="black" stroke-width="0.5"/>
<rect x="121.726" y="343.839" width="18.3685" height="18.3685" fill="#00B026" stroke="black" stroke-width="0.5"/>
<rect x="121.726" y="270.365" width="18.3685" height="18.3685" fill="#00B026" stroke="black" stroke-width="0.5"/>
<rect x="121.726" y="417.313" width="18.3685" height="18.3685" fill="#00B026" stroke="black" stroke-width="0.5"/>
<rect x="121.726" y="472.419" width="18.3685" height="18.3685" fill="#00B026" stroke="black" stroke-width="0.5"/>
<rect x="48.251" y="196.891" width="18.3685" height="18.3685" fill="#00B026" stroke="black" stroke-width="0.5"/>
<rect x="11.5146" y="196.891" width="18.3685" height="18.3685" fill="#00B026" stroke="black" stroke-width="0.5"/>
<rect x="48.251" y="343.839" width="18.3685" height="18.3685" fill="#00B026" stroke="black" stroke-width="0.5"/>
<rect x="11.5146" y="343.839" width="18.3685" height="18.3685" fill="#00B026" stroke="black" stroke-width="0.5"/>
<rect x="48.251" y="270.365" width="18.3685" height="18.3685" fill="#00B026" stroke="black" stroke-width="0.5"/>
<rect x="11.5146" y="270.365" width="18.3685" height="18.3685" fill="#00B026" stroke="black" stroke-width="0.5"/>
<rect x="48.251" y="417.313" width="18.3685" height="18.3685" fill="#00B026" stroke="black" stroke-width="0.5"/>
<rect x="48.251" y="472.419" width="18.3685" height="18.3685" fill="#00B026" stroke="black" stroke-width="0.5"/>
<rect x="11.5146" y="417.313" width="18.3685" height="18.3685" fill="#00B026" stroke="black" stroke-width="0.5"/>
<rect x="11.5146" y="472.419" width="18.3685" height="18.3685" fill="#00B026" stroke="black" stroke-width="0.5"/>
<rect x="84.9883" y="160.154" width="18.3685" height="18.3685" fill="#00B026" stroke="black" stroke-width="0.5"/>
<rect x="84.9883" y="307.102" width="18.3685" height="18.3685" fill="#00B026" stroke="black" stroke-width="0.5"/>
<rect x="84.9883" y="233.628" width="18.3685" height="18.3685" fill="#00B026" stroke="black" stroke-width="0.5"/>
<rect x="84.9883" y="380.576" width="18.3685" height="18.3685" fill="#00B026" stroke="black" stroke-width="0.5"/>
<rect x="84.9883" y="435.682" width="18.3685" height="18.3685" fill="#00B026" stroke="black" stroke-width="0.5"/>
<rect x="84.9883" y="196.891" width="18.3685" height="18.3685" fill="#00B026" stroke="black" stroke-width="0.5"/>
<rect x="84.9883" y="343.839" width="18.3685" height="18.3685" fill="#00B026" stroke="black" stroke-width="0.5"/>
<rect x="84.9883" y="270.365" width="18.3685" height="18.3685" fill="#00B026" stroke="black" stroke-width="0.5"/>
<rect x="84.9883" y="417.313" width="18.3685" height="18.3685" fill="#00B026" stroke="black" stroke-width="0.5"/>
<rect x="84.9883" y="472.419" width="18.3685" height="18.3685" fill="#00B026" stroke="black" stroke-width="0.5"/>
</g>
<path d="M7.04228 1H149.133C152.468 1 155.175 3.70694 155.175 7.04228V152.202H1V7.04228C1 3.70694 3.70694 1 7.04228 1Z" fill="#FFD600" stroke="black" stroke-width="0.75" stroke-miterlimit="10"/>
<path d="M155.175 152.202H1V479.645H155.175V152.202Z" stroke="black" stroke-width="0.75" stroke-miterlimit="10"/>
<path d="M1 479.646H155.175V547.222C155.175 550.558 152.468 553.265 149.133 553.265H7.04228C3.70694 553.265 1 550.558 1 547.222V479.646Z" fill="#FFD600" stroke="black" stroke-width="0.75" stroke-miterlimit="10"/>
<path d="M30.0277 485.627H33.1938C36.1545 485.627 38.5714 488.032 38.5714 491.005V553.264H24.6621V491.005C24.6621 488.044 27.0669 485.627 30.0397 485.627H30.0277Z" fill="#FF5C00" stroke="black" stroke-width="0.75" stroke-miterlimit="10"/>
<path d="M76.5042 485.627H79.6704C82.6311 485.627 85.048 488.032 85.048 491.005V553.264H71.1387V491.005C71.1387 488.044 73.5435 485.627 76.5163 485.627H76.5042Z" fill="#FF5C00" stroke="black" stroke-width="0.75" stroke-miterlimit="10"/>
<path d="M124.975 485.627H128.141C131.102 485.627 133.519 488.032 133.519 491.005V553.264H119.609V491.005C119.609 488.044 122.014 485.627 124.987 485.627H124.975Z" fill="#FF5C00" stroke="black" stroke-width="0.75" stroke-miterlimit="10"/>
<path d="M16.0693 252.347V223.32H32.7581V228.117H21.7853V247.392C25.6766 247.392 29.4832 246.933 34.0512 245.797L34.8125 250.449C29.7128 251.598 24.2989 252.359 16.0693 252.359V252.347ZM60.6372 284.878V265.978H22.9334V261.108H66.5103V284.878H60.6493H60.6372ZM36.8669 252.347V223.32H54.1599V228.117H42.6554V247.392C47.61 247.392 52.9393 246.788 56.8306 245.869L57.5919 250.522C52.3351 251.743 45.169 252.347 36.8669 252.347V252.347ZM66.4257 241.144V257.604H60.7097V218.292H66.4257V236.274H75.4891V241.144H66.4257Z" fill="black"/>
<path d="M87.7547 283.972V269.036H126.462V263.852H87.5251V259.127H107.03V253.036H79.9844V248.311H140.093V253.036H112.818V259.127H132.25V273.374H93.5433V279.09H134.764V283.96H87.7547V283.972ZM85.8454 225.531V220.734H133.845V225.531H85.8454ZM85.9179 243.054V238.329H96.1293L94.5342 228.806L100.552 228.045L101.7 238.329H118.002L119.368 227.888L125.386 228.722L123.561 238.317H133.845V243.042H85.93L85.9179 243.054Z" fill="black"/>
<path d="M19.6826 343.416V340.358H36.6493V330.848H40.2868V340.358H57.3985V343.416H19.6826ZM54.2928 333.374C47.4046 332.129 40.7218 328.165 38.5224 323.621C36.7098 328.213 29.9666 332.177 22.7521 333.519L21.2174 330.461C28.0089 329.7 35.9847 324.914 36.6493 319.561H23.1267V316.504H53.9061V319.561H40.4801C41.1931 324.914 49.7007 329.652 55.9121 330.219L54.2928 333.374V333.374ZM31.6826 311.815V308.516H45.3502V311.815H31.6826Z" fill="black"/>
<path d="M81.906 310.195C81.2897 321.144 73.3018 328.83 62.6432 332.08L60.7822 329.071C68.9997 327.259 76.7459 320.467 77.7973 313.301H62.5466V310.195H81.906V310.195ZM79.61 348.624C70.8608 348.624 65.6523 345.567 65.6523 340.6C65.6523 335.633 70.8608 332.576 79.61 332.576C88.3592 332.576 93.6643 335.633 93.6643 340.6C93.6643 345.567 88.4075 348.624 79.61 348.624ZM69.3864 340.6C69.3864 343.802 73.3018 345.615 79.61 345.615C85.9181 345.615 89.9302 343.802 89.9302 340.6C89.9302 337.398 85.9665 335.537 79.61 335.537C73.2535 335.537 69.3864 337.398 69.3864 340.6V340.6ZM93.1447 321.724V332.672H89.5193V306.957H93.1447V318.715H99.5012V321.724H93.1447Z" fill="black"/>
<path d="M124.734 330.183C120.722 330.848 113.64 331.138 108.77 331.138H103.852V318.377H118.812V312.407H103.852V309.398H122.438V321.35H107.477V328.189H108.915C114.558 328.189 120.383 328.044 124.395 327.331L124.734 330.196V330.183ZM136.492 335.005V349.108H132.855V338.014H108.287V335.005H136.48H136.492ZM132.855 332.709V324.866H125.205V321.905H132.855V316.262H125.205V313.253H132.855V306.945H136.492V332.709H132.855Z" fill="black"/>
</svg>
