<svg width="332" height="302" viewBox="0 0 332 302" fill="none" xmlns="http://www.w3.org/2000/svg">
<path d="M240.332 0.46389C252.752 0.405918 265.028 2.8697 276.332 7.68137C287.275 12.3336 297.13 18.9569 305.318 27.1744C313.579 35.7543 320.101 45.6675 324.565 56.4213C329.246 67.9722 331.58 80.2333 331.478 92.5958C331.478 108.103 327.899 123.422 321.014 137.539C313.797 152.872 304.507 167.278 293.391 180.438C279.419 196.351 264.463 211.482 248.607 225.772C231.129 241.569 211.882 259.309 190.635 278.802L166.461 301.324L142.388 279.193C121.04 259.7 101.677 241.888 84.3149 225.772C68.4596 211.482 53.5029 196.351 39.5316 180.438C28.0387 167.495 18.4008 153.205 10.8645 137.93C3.9803 123.814 0.415071 108.495 0.400578 92.987C0.284634 80.639 2.63244 68.378 7.31367 56.8126C11.7775 46.0588 18.2994 36.1456 26.5604 27.5658C34.7489 19.3483 44.5897 12.725 55.5464 8.07271C66.8074 3.1306 79.0974 0.536355 91.5469 0.46389C105.895 0.579834 119.997 3.92768 132.663 10.2176C145.678 16.4061 157.055 25.2324 165.939 36.0587C174.824 25.2469 186.201 16.4206 199.215 10.2176C211.882 3.94218 225.984 0.594327 240.332 0.46389V0.46389Z" fill="black" stroke="black" stroke-width="0.75" stroke-miterlimit="10"/>
<path d="M75.474 116.118C80.619 112.538 84.6625 108.205 87.5756 103.103C87.9235 102.495 88.1698 101.871 88.4742 101.263C88.793 101.9 89.0539 102.553 89.4018 103.176C92.3004 108.263 96.3295 112.596 101.46 116.162C106.591 119.727 112.388 122.191 118.837 123.524L123.33 115.118C117.721 114.147 112.663 112.205 108.156 109.306C103.648 106.408 100.112 102.958 97.5468 99.0019C94.9816 95.0308 93.7062 90.9148 93.7062 86.6538V80.6538H83.0393V86.6538C83.0103 90.9003 81.7205 95.0018 79.1842 98.9584C76.648 102.915 73.1261 106.364 68.6478 109.263C64.1695 112.176 59.1694 114.118 53.6621 115.118L58.0245 123.524C64.5029 122.162 70.3145 119.698 75.4595 116.118H75.474Z" fill="black" stroke="black" stroke-width="0.75"/>
<path d="M126.446 138.742H51.4014V147.061H126.446V138.742Z" fill="black" stroke="black" stroke-width="0.75"/>
<path d="M196.07 75.4219H185.983V157.452H196.07V115.538H208.737V107.263H196.07V75.4219Z" fill="black" stroke="black" stroke-width="0.75"/>
<path d="M170.722 128.654V91.6828H178.621V83.4653H132.794V91.6828H140.606V129.756C137.388 129.799 134.113 129.828 130.707 129.843L131.838 138.147C141.461 138.089 150.374 137.843 158.548 137.423C166.722 137.002 174.563 136.147 182.07 134.886L181.621 127.567C178.099 128.002 174.461 128.365 170.722 128.654V128.654ZM158.07 129.365C155.577 129.452 152.997 129.524 150.374 129.582V91.6828H160.997V129.234C160.026 129.278 159.055 129.336 158.07 129.365Z" fill="black" stroke="black" stroke-width="0.75"/>
<path d="M280.463 75.4219H270.245V157.684H280.463V75.4219Z" fill="black" stroke="black" stroke-width="0.75"/>
<path d="M247.259 84.9587C244.012 82.5963 240.331 81.4224 236.215 81.4224C232.099 81.4224 228.374 82.5963 225.128 84.9587C221.882 87.321 219.345 90.6979 217.505 95.1037C215.664 99.5096 214.751 104.611 214.78 110.394C214.751 116.234 215.664 121.351 217.505 125.742C219.345 130.133 221.896 133.51 225.128 135.902C228.36 138.278 232.056 139.467 236.215 139.467C240.375 139.467 244.012 138.278 247.259 135.902C250.491 133.525 253.027 130.148 254.839 125.742C256.65 121.351 257.563 116.234 257.563 110.394C257.563 104.553 256.65 99.5096 254.839 95.1037C253.027 90.6979 250.491 87.321 247.259 84.9587ZM246.389 121.119C245.418 124.119 244.056 126.409 242.302 127.974C240.548 129.554 238.52 130.322 236.215 130.293C233.882 130.322 231.824 129.554 230.056 127.974C228.287 126.394 226.925 124.119 225.969 121.119C225.012 118.119 224.534 114.553 224.534 110.394C224.534 106.234 225.012 102.756 225.969 99.7415C226.925 96.727 228.287 94.4371 230.056 92.8573C231.824 91.2776 233.882 90.495 236.215 90.495C238.549 90.495 240.548 91.2921 242.302 92.8864C244.056 94.4806 245.418 96.756 246.389 99.7415C247.36 102.727 247.839 106.278 247.839 110.394C247.839 114.51 247.36 118.119 246.389 121.119Z" fill="black" stroke="black" stroke-width="0.75"/>
<path d="M119.037 162.667H127.475V133.557L151.475 95.0259H141.865L123.396 125.401H123.115L104.646 95.0259H95.0371L119.037 133.557V162.667ZM169.24 163.604C173.74 163.604 177.678 162.573 181.053 160.51C184.428 158.448 187.053 155.526 188.928 151.745C190.834 147.963 191.787 143.479 191.787 138.292V138.198C191.787 133.01 190.834 128.542 188.928 124.792C187.053 121.01 184.412 118.104 181.006 116.073C177.631 114.01 173.693 112.979 169.193 112.979C164.725 112.979 160.787 114.01 157.381 116.073C154.006 118.104 151.365 121.01 149.459 124.792C147.584 128.542 146.646 133.01 146.646 138.198V138.292C146.646 143.448 147.584 147.932 149.459 151.745C151.365 155.526 154.006 158.448 157.381 160.51C160.787 162.573 164.74 163.604 169.24 163.604ZM169.287 156.385C166.412 156.385 163.896 155.682 161.74 154.276C159.615 152.838 157.959 150.776 156.771 148.088C155.584 145.37 154.99 142.104 154.99 138.292V138.198C154.99 134.385 155.584 131.151 156.771 128.495C157.959 125.807 159.615 123.76 161.74 122.354C163.896 120.917 166.381 120.198 169.193 120.198C172.068 120.198 174.568 120.901 176.693 122.307C178.85 123.713 180.506 125.76 181.662 128.448C182.85 131.135 183.443 134.385 183.443 138.198V138.292C183.443 142.104 182.85 145.37 181.662 148.088C180.506 150.776 178.865 152.838 176.74 154.276C174.646 155.682 172.162 156.385 169.287 156.385ZM216.678 163.604C220.396 163.604 223.49 162.87 225.959 161.401C228.459 159.901 230.365 158.01 231.678 155.729H231.865V162.667H240.021V113.917H231.865V142.604C231.865 145.354 231.334 147.776 230.271 149.87C229.24 151.932 227.771 153.542 225.865 154.698C223.959 155.823 221.725 156.385 219.162 156.385C215.412 156.385 212.6 155.338 210.725 153.245C208.881 151.12 207.959 148.073 207.959 144.104V113.917H199.803V145.557C199.803 149.245 200.459 152.448 201.771 155.167C203.115 157.854 205.037 159.932 207.537 161.401C210.068 162.87 213.115 163.604 216.678 163.604Z" fill="white"/>
</svg>
