<svg width="306" height="157" viewBox="0 0 306 157" fill="none" xmlns="http://www.w3.org/2000/svg">
<path d="M0.999993 7.04237L1 150.063C1 153.4 3.70522 156.105 7.04228 156.105L299.247 156.105C302.584 156.105 305.289 153.4 305.289 150.063L305.289 7.04236C305.289 3.70529 302.584 1.00008 299.247 1.00008L7.04227 1.00009C3.70521 1.00009 0.999993 3.70531 0.999993 7.04237Z" fill="black" stroke="black" stroke-width="0.75"/>
<path d="M68.1182 1.00009L68.1182 156.105L289.701 156.105L289.701 1.00008L68.1182 1.00009Z" fill="black" stroke="black" stroke-width="0.75"/>
<path d="M68.1182 119.091L68.1182 131.755L289.701 131.755L289.701 119.091L68.1182 119.091Z" fill="black" stroke="black" stroke-width="0.75"/>
<path d="M137.942 69.9189C133.398 66.9823 127.247 60.8796 125.579 55.1757C123.972 61.218 118.655 67.4294 113.048 71.0306L110.437 67.9249C117.531 63.7678 123.356 55.502 123.356 46.3661L123.356 41.3751L112.045 41.3751L112.045 37.8827L139.042 37.8827L139.042 41.3751L127.731 41.3751L127.731 46.3057C127.731 55.3449 133.882 63.1636 140.54 66.7648L137.93 69.9189L137.942 69.9189ZM150.365 33.0005L150.365 81.4475L146.147 81.4475L146.147 33.0005L150.365 33.0005Z" fill="black"/>
<path d="M178.304 81.5076L178.304 64.6497L158.739 64.6497L158.739 61.0968L202.534 61.0968L202.534 64.6497L182.522 64.6497L182.522 81.5076L178.304 81.5076V81.5076ZM180.407 56.7342C169.603 56.7342 163.053 52.3596 163.053 45.8702C163.053 39.3808 169.591 35.0666 180.407 35.0666C191.223 35.0666 197.76 39.4412 197.76 45.8702C197.76 52.2992 191.271 56.7342 180.407 56.7342ZM167.271 45.8702C167.271 50.3657 172.262 53.0726 180.407 53.0726C188.552 53.0726 193.652 50.3536 193.652 45.8702C193.652 41.3868 188.661 38.7162 180.407 38.7162C172.153 38.7162 167.271 41.4352 167.271 45.8702Z" fill="black"/>
<path d="M209.18 71.3569L206.353 68.2512C216.612 62.4264 222.534 52.1183 222.981 42.2573L208.008 42.2573L208.008 38.7044L227.416 38.7044C227.247 53.1213 220.649 64.4204 209.18 71.3569V71.3569ZM243.223 81.4475L243.223 55.5624L236.902 55.5624L236.902 79.0065L232.745 79.0065L232.745 34.1606L236.902 34.1606L236.902 52.0699L243.223 52.0699L243.223 33.0005L247.38 33.0005L247.38 81.4475L243.223 81.4475V81.4475Z" fill="black"/>
<path d="M110.449 89.1088L110.449 95.1511L247.379 95.1511L247.379 89.1088L110.449 89.1088Z" fill="black" stroke="black" stroke-width="0.75" stroke-miterlimit="10"/>
</svg>
