<svg width="263" height="263" viewBox="0 0 263 263" fill="none" xmlns="http://www.w3.org/2000/svg">
<g clip-path="url(#clip0_313_5916)">
<path d="M131.5 262.226C203.698 262.226 262.226 203.698 262.226 131.5C262.226 59.3017 203.698 0.773438 131.5 0.773438C59.3017 0.773438 0.773438 59.3017 0.773438 131.5C0.773438 203.698 59.3017 262.226 131.5 262.226Z" fill="white" stroke="black" stroke-width="0.75" stroke-miterlimit="10"/>
<path d="M192.64 130.819C192.64 165.087 165.443 192.841 131.949 192.841C98.4551 192.841 71.2578 165.087 71.2578 130.819C71.2578 96.5518 98.4551 68.7976 131.949 68.7976C165.443 68.7976 192.64 96.5518 192.64 130.819V130.819Z" fill="#FF85D5" stroke="black" stroke-width="0.75"/>
<path d="M165.242 130.819C165.242 149.631 150.313 164.855 131.949 164.855C113.585 164.855 98.6562 149.631 98.6562 130.819C98.6562 112.007 113.585 96.7839 131.949 96.7839C150.313 96.7839 165.242 112.007 165.242 130.819Z" fill="black" stroke="black" stroke-width="0.75"/>
<path d="M110.197 130.742C120.159 130.742 128.236 122.666 128.236 112.703C128.236 102.741 120.159 94.6643 110.197 94.6643C100.234 94.6643 92.1582 102.741 92.1582 112.703C92.1582 122.666 100.234 130.742 110.197 130.742Z" fill="white" stroke="black" stroke-width="0.75"/>
</g>
<defs>
<clipPath id="clip0_313_5916">
<rect width="263" height="263" fill="white"/>
</clipPath>
</defs>
</svg>
