<svg width="265" height="265" viewBox="0 0 265 265" fill="none" xmlns="http://www.w3.org/2000/svg">
<path d="M132.338 263.676C204.874 263.676 263.676 204.874 263.676 132.338C263.676 59.8021 204.874 1 132.338 1C59.8021 1 1 59.8021 1 132.338C1 204.874 59.8021 263.676 132.338 263.676Z" fill="black" stroke="black" stroke-width="0.75" stroke-miterlimit="10"/>
<path d="M121.906 166.766C127.5 166.766 132.297 165.719 136.297 163.625C140.297 161.531 143.359 158.625 145.484 154.906C147.641 151.156 148.719 146.828 148.719 141.922V98H140.281V141.359C140.281 146.547 138.688 150.781 135.5 154.062C132.312 157.344 127.781 158.984 121.906 158.984C116.062 158.984 111.516 157.344 108.266 154.062C105.047 150.781 103.438 146.547 103.438 141.359V98H95V141.922C95 146.828 96.0781 151.156 98.2344 154.906C100.391 158.625 103.469 161.531 107.469 163.625C111.5 165.719 116.312 166.766 121.906 166.766Z" fill="white"/>
<path d="M161.844 165.641H170.281V98H161.844V165.641Z" fill="white"/>
</svg>
