<svg width="79" height="480" viewBox="0 0 79 480" fill="none" xmlns="http://www.w3.org/2000/svg">
<path d="M70.3587 102.148H8.66699L27.8935 3.23563C28.2077 1.65255 29.5008 0.468262 30.9026 0.468262H48.1351C49.5369 0.468262 50.8301 1.65255 51.1442 3.23563L70.3708 102.148H70.3587Z" fill="black" stroke="black" stroke-width="0.75"/>
<path d="M6.60087 102.148H72.4134C75.7488 102.148 78.4557 104.855 78.4557 108.19V135.526H0.558594V108.19C0.558594 104.855 3.26554 102.148 6.60087 102.148Z" fill="black" stroke="black" stroke-width="0.75"/>
<path d="M0.558594 445.857H78.4557V473.192C78.4557 476.528 75.7488 479.234 72.4134 479.234H6.60087C3.26554 479.234 0.558594 476.528 0.558594 473.192V445.857Z" fill="black" stroke="black" stroke-width="0.75"/>
<path d="M78.4557 135.525H0.558594V446.304H78.4557V135.525Z" fill="black" stroke="black" stroke-width="0.75"/>
<path d="M78.4557 152.069H0.558594V163.876H78.4557V152.069Z" fill="black" stroke="black" stroke-width="0.75"/>
<path d="M78.4557 419.077H0.558594V430.884H78.4557V419.077Z" fill="black" stroke="black" stroke-width="0.75"/>
<path d="M50.371 349.942C48.3529 348.335 45.9843 347.259 43.2773 346.727L42.9873 346.667V352.032L43.2531 352.117C45.1263 352.721 46.6852 353.591 47.9541 354.715C49.2229 355.839 50.1776 357.18 50.8302 358.739C51.4828 360.298 51.809 362.075 51.809 364.069C51.809 366.884 51.096 369.338 49.6821 371.44C48.2682 373.543 46.2743 375.174 43.7124 376.322C41.1504 377.47 38.1414 378.05 34.6973 378.05H34.6731C31.217 378.05 28.2079 377.47 25.658 376.322C23.1082 375.174 21.1384 373.555 19.7245 371.452C18.3227 369.362 17.6097 366.896 17.6097 364.057C17.6097 362.051 17.936 360.262 18.5886 358.691C19.2412 357.12 20.1717 355.791 21.3801 354.691C22.5886 353.603 24.0629 352.782 25.7909 352.226L26.4436 352.02V346.655L26.1535 346.715C23.4586 347.247 21.1022 348.322 19.0961 349.942C17.0901 351.561 15.5312 353.591 14.4073 356.008C13.2834 358.425 12.7275 361.108 12.7275 364.069C12.7275 368.02 13.6218 371.452 15.4224 374.365C17.223 377.277 19.7608 379.525 23.0478 381.12C26.3348 382.715 30.2019 383.513 34.6731 383.513H34.6973C39.1565 383.513 43.0477 382.715 46.3347 381.12C49.6338 379.525 52.1837 377.265 53.9963 374.353C55.809 371.428 56.7154 368.008 56.7154 364.069C56.7154 361.096 56.1595 358.401 55.0598 355.984C53.9601 353.567 52.4012 351.549 50.3831 349.93L50.371 349.942Z" fill="black"/>
<path d="M30.4916 335.948V336.069H25.2953V341.205H55.978V336.069H37.0414C35.4825 336.069 34.1532 335.803 33.0414 335.259C31.9296 334.715 31.0837 333.954 30.4916 332.963C29.8995 331.972 29.6095 330.812 29.6095 329.495C29.6095 328.866 29.6336 328.298 29.6941 327.803C29.7545 327.307 29.827 326.957 29.8995 326.751H24.9085C24.8723 326.945 24.824 327.223 24.7756 327.597C24.7273 327.96 24.7031 328.371 24.7031 328.818C24.7031 330.546 25.2227 332.045 26.262 333.301C27.3013 334.558 28.7152 335.44 30.4795 335.96L30.4916 335.948Z" fill="black"/>
<path d="M29.223 321.507C30.6007 322.498 32.1354 323.078 33.8272 323.235L34.1536 323.259V318.305L33.8877 318.244C32.51 317.954 31.3982 317.193 30.5402 315.984C29.6822 314.776 29.2592 313.181 29.2592 311.223C29.2592 309.084 29.791 307.416 30.8665 306.256C31.942 305.084 33.4043 304.504 35.2774 304.504H37.8393L38.3469 313.302C38.4798 315.646 38.9269 317.64 39.6761 319.308C40.4254 320.975 41.4405 322.244 42.7094 323.114C43.9782 323.984 45.5009 324.432 47.2532 324.432H47.3136C49.1625 324.432 50.7819 324.009 52.1837 323.151C53.5855 322.293 54.661 321.096 55.4344 319.561C56.1958 318.027 56.5825 316.25 56.5825 314.22C56.5825 312.842 56.3529 311.537 55.8937 310.305C55.4345 309.072 54.7818 307.972 53.948 306.981C53.1142 306.003 52.1353 305.217 51.0115 304.625V304.504H56.0024V299.368H34.794C32.7517 299.368 30.9753 299.852 29.4647 300.818C27.9542 301.785 26.794 303.139 25.9723 304.903C25.1505 306.667 24.7275 308.758 24.7275 311.175C24.7275 313.592 25.1384 315.646 25.9481 317.398C26.7698 319.151 27.8575 320.516 29.2351 321.519L29.223 321.507ZM48.3166 305.628C49.5009 306.389 50.4314 307.404 51.1082 308.697C51.7849 309.99 52.1233 311.441 52.1233 313.048C52.1233 314.897 51.6882 316.371 50.8302 317.483C49.9601 318.595 48.8 319.151 47.3136 319.151H47.2532C45.8151 319.151 44.6671 318.583 43.797 317.459C42.9269 316.335 42.4435 314.74 42.3227 312.697L41.8272 304.492H44.3287C45.803 304.492 47.1323 304.867 48.3166 305.628V305.628Z" fill="black"/>
<path d="M65.4277 285.205C64.8356 283.924 63.9172 282.836 62.6846 281.93C61.4519 281.024 59.8567 280.214 57.899 279.477L25.2949 267.501V272.903L50.8417 281.386V281.519L25.2949 289.978V295.465L56.0139 284.081L57.754 284.697C59.4821 285.302 60.6301 286.099 61.2102 287.078C61.7782 288.057 62.0682 289.35 62.0682 290.981C62.0682 291.295 62.0441 291.598 62.0078 291.876C61.9716 292.166 61.9232 292.407 61.8869 292.625H66.0803C66.1407 292.286 66.1891 291.876 66.2374 291.368C66.2858 290.86 66.3099 290.365 66.3099 289.882C66.3099 288.033 66.0198 286.474 65.4277 285.193V285.205Z" fill="black"/>
<path d="M32.1351 264.359C34.5037 265.543 37.3193 266.148 40.5822 266.148H40.6427C43.8934 266.148 46.7091 265.555 49.0898 264.359C51.4825 263.175 53.3193 261.507 54.6244 259.368C55.9175 257.229 56.5701 254.752 56.5701 251.924C56.5701 249.096 55.9175 246.619 54.6244 244.492C53.3314 242.365 51.4825 240.71 49.1019 239.525C46.7212 238.341 43.8934 237.737 40.6306 237.737H40.5702C37.3073 237.737 34.4916 238.329 32.123 239.525C29.7544 240.71 27.9176 242.377 26.6366 244.516C25.3436 246.655 24.7031 249.133 24.7031 251.96C24.7031 254.788 25.3436 257.241 26.6366 259.38C27.9297 261.519 29.7544 263.175 32.123 264.371L32.1351 264.359ZM30.5883 247.211C31.4705 245.87 32.7635 244.818 34.4554 244.081C36.1472 243.344 38.1894 242.969 40.5943 242.969H40.6547C43.0595 242.969 45.1018 243.344 46.8058 244.081C48.5097 244.818 49.8027 245.846 50.697 247.175C51.5912 248.504 52.0384 250.075 52.0384 251.876C52.0384 253.676 51.5912 255.259 50.697 256.613C49.8027 257.954 48.5097 259.006 46.8058 259.755C45.1018 260.504 43.0595 260.879 40.6547 260.879H40.5943C38.1894 260.879 36.1592 260.504 34.4674 259.755C32.7756 259.006 31.4947 257.954 30.6004 256.613C29.7061 255.272 29.259 253.713 29.259 251.936C29.259 250.16 29.7061 248.552 30.5883 247.199V247.211Z" fill="black"/>
<path d="M29.6702 227.32V227.441H25.3076V232.576H55.9903V227.441H37.936C36.1837 227.441 34.6611 227.114 33.368 226.45C32.075 225.785 31.0599 224.866 30.3469 223.658C29.6339 222.462 29.2713 221.048 29.2713 219.441C29.2713 217.084 29.936 215.32 31.2653 214.147C32.5946 212.975 34.504 212.395 37.0055 212.395H56.0024V207.259H36.0871C32.5825 207.259 29.8152 208.19 27.785 210.051C25.7548 211.912 24.7275 214.522 24.7275 217.882C24.7275 220.202 25.1989 222.147 26.1294 223.718C27.0599 225.289 28.2442 226.486 29.6823 227.32H29.6702Z" fill="black"/>
</svg>
