<svg width="314" height="314" viewBox="0 0 314 314" fill="none" xmlns="http://www.w3.org/2000/svg">
<path d="M313.507 6.58958V307.543C313.507 309.211 312.83 310.722 311.73 311.809L156.987 157.067L311.73 2.32373C312.83 3.41134 313.507 4.92191 313.507 6.58958V6.58958Z" fill="#FFD600" stroke="black" stroke-width="0.75" stroke-miterlimit="10"/>
<path d="M311.73 311.809C310.642 312.908 309.132 313.585 307.464 313.585H6.50999C4.84232 313.585 3.33175 312.908 2.24414 311.809L156.987 157.066L311.73 311.809Z" fill="#FF85D5" stroke="black" stroke-width="0.75" stroke-miterlimit="10"/>
<path d="M156.987 157.067L2.24421 311.809C1.14451 310.722 0.467773 309.211 0.467773 307.543V6.58958C0.467773 4.92191 1.14451 3.41134 2.24421 2.32373L156.987 157.067Z" fill="#00B026" stroke="black" stroke-width="0.75" stroke-miterlimit="10"/>
<path d="M311.73 2.32331L156.987 157.066L2.24414 2.32331C3.33175 1.22361 4.84232 0.546875 6.50999 0.546875H307.464C309.132 0.546875 310.642 1.22361 311.73 2.32331V2.32331Z" fill="#FF0400" stroke="black" stroke-width="0.75" stroke-miterlimit="10"/>
</svg>
