<svg width="314" height="314" viewBox="0 0 314 314" fill="none" xmlns="http://www.w3.org/2000/svg">
<path d="M313.507 6.58958V307.543C313.507 309.211 312.83 310.722 311.73 311.809L156.987 157.067L311.73 2.32373C312.83 3.41134 313.507 4.92191 313.507 6.58958V6.58958Z" fill="black" stroke="black" stroke-width="0.75" stroke-miterlimit="10"/>
<path d="M311.73 311.809C310.642 312.908 309.132 313.585 307.464 313.585H6.50999C4.84232 313.585 3.33175 312.908 2.24414 311.809L156.987 157.066L311.73 311.809Z" fill="black" stroke="black" stroke-width="0.75" stroke-miterlimit="10"/>
<path d="M156.987 157.067L2.24421 311.809C1.14451 310.722 0.467773 309.211 0.467773 307.543V6.58958C0.467773 4.92191 1.14451 3.41134 2.24421 2.32373L156.987 157.067Z" fill="black" stroke="black" stroke-width="0.75" stroke-miterlimit="10"/>
<path d="M311.73 2.32331L156.987 157.066L2.24414 2.32331C3.33175 1.22361 4.84232 0.546875 6.50999 0.546875H307.464C309.132 0.546875 310.642 1.22361 311.73 2.32331V2.32331Z" fill="black" stroke="black" stroke-width="0.75" stroke-miterlimit="10"/>
<path d="M140.182 195.837C145.775 195.837 150.572 194.791 154.572 192.697C158.572 190.603 161.635 187.697 163.76 183.978C165.916 180.228 166.994 175.9 166.994 170.994V127.072H158.557V170.431C158.557 173.9 157.838 176.962 156.4 179.619C154.963 182.244 152.869 184.306 150.119 185.806C147.4 187.306 144.088 188.056 140.182 188.056C136.275 188.056 132.947 187.306 130.197 185.806C127.447 184.306 125.338 182.244 123.869 179.619C122.432 176.962 121.713 173.9 121.713 170.431V127.072H113.275V170.994C113.275 175.9 114.354 180.228 116.51 183.978C118.666 187.697 121.744 190.603 125.744 192.697C129.775 194.791 134.588 195.837 140.182 195.837ZM180.119 194.712H188.557V127.072H180.119V194.712Z" fill="white"/>
</svg>
