<svg width="156" height="554" viewBox="0 0 156 554" fill="none" xmlns="http://www.w3.org/2000/svg">
<mask id="mask0_313_4697" style="mask-type:alpha" maskUnits="userSpaceOnUse" x="0" y="151" width="155" height="329">
<path d="M154.939 151.981H0.764648L0.764648 479.425H154.939V151.981Z" fill="black"/>
</mask>
<g mask="url(#mask0_313_4697)">
<rect x="103.122" y="141.564" width="18.3685" height="18.3685" fill="black" stroke="black" stroke-width="0.75"/>
<rect x="103.122" y="288.513" width="18.3685" height="18.3685" fill="black" stroke="black" stroke-width="0.75"/>
<rect x="103.122" y="215.039" width="18.3685" height="18.3685" fill="black" stroke="black" stroke-width="0.75"/>
<rect x="103.122" y="361.987" width="18.3685" height="18.3685" fill="black" stroke="black" stroke-width="0.75"/>
<rect x="29.6475" y="141.564" width="18.3685" height="18.3685" fill="black" stroke="black" stroke-width="0.75"/>
<rect x="-7.08984" y="141.565" width="18.3685" height="18.3685" fill="black" stroke="black" stroke-width="0.75"/>
<rect x="29.6475" y="288.513" width="18.3685" height="18.3685" fill="black" stroke="black" stroke-width="0.75"/>
<rect x="-7.08984" y="288.513" width="18.3685" height="18.3685" fill="black" stroke="black" stroke-width="0.75"/>
<rect x="29.6475" y="215.039" width="18.3685" height="18.3685" fill="black" stroke="black" stroke-width="0.75"/>
<rect x="-7.08984" y="215.039" width="18.3685" height="18.3685" fill="black" stroke="black" stroke-width="0.75"/>
<rect x="29.6475" y="361.987" width="18.3685" height="18.3685" fill="black" stroke="black" stroke-width="0.75"/>
<rect x="-7.08984" y="361.987" width="18.3685" height="18.3685" fill="black" stroke="black" stroke-width="0.75"/>
<rect x="103.122" y="178.302" width="18.3685" height="18.3685" fill="black" stroke="black" stroke-width="0.75"/>
<rect x="103.122" y="325.25" width="18.3685" height="18.3685" fill="black" stroke="black" stroke-width="0.75"/>
<rect x="103.122" y="251.776" width="18.3685" height="18.3685" fill="black" stroke="black" stroke-width="0.75"/>
<rect x="103.122" y="398.725" width="18.3685" height="18.3685" fill="black" stroke="black" stroke-width="0.75"/>
<rect x="103.122" y="453.83" width="18.3685" height="18.3685" fill="black" stroke="black" stroke-width="0.75"/>
<rect x="29.6475" y="178.302" width="18.3685" height="18.3685" fill="black" stroke="black" stroke-width="0.75"/>
<rect x="-7.08984" y="178.302" width="18.3685" height="18.3685" fill="black" stroke="black" stroke-width="0.75"/>
<rect x="29.6475" y="325.25" width="18.3685" height="18.3685" fill="black" stroke="black" stroke-width="0.75"/>
<rect x="-7.08984" y="325.25" width="18.3685" height="18.3685" fill="black" stroke="black" stroke-width="0.75"/>
<rect x="29.6475" y="251.776" width="18.3685" height="18.3685" fill="black" stroke="black" stroke-width="0.75"/>
<rect x="-7.08984" y="251.776" width="18.3685" height="18.3685" fill="black" stroke="black" stroke-width="0.75"/>
<rect x="29.6475" y="398.725" width="18.3685" height="18.3685" fill="black" stroke="black" stroke-width="0.75"/>
<rect x="29.6475" y="453.83" width="18.3685" height="18.3685" fill="black" stroke="black" stroke-width="0.75"/>
<rect x="-7.08984" y="398.725" width="18.3685" height="18.3685" fill="black" stroke="black" stroke-width="0.75"/>
<rect x="-7.08984" y="453.83" width="18.3685" height="18.3685" fill="black" stroke="black" stroke-width="0.75"/>
<rect x="139.858" y="141.564" width="18.3685" height="18.3685" fill="black" stroke="black" stroke-width="0.75"/>
<rect x="139.858" y="288.513" width="18.3685" height="18.3685" fill="black" stroke="black" stroke-width="0.75"/>
<rect x="139.858" y="215.039" width="18.3685" height="18.3685" fill="black" stroke="black" stroke-width="0.75"/>
<rect x="139.858" y="361.987" width="18.3685" height="18.3685" fill="black" stroke="black" stroke-width="0.75"/>
<rect x="66.3838" y="141.564" width="18.3685" height="18.3685" fill="black" stroke="black" stroke-width="0.75"/>
<rect x="66.3838" y="288.513" width="18.3685" height="18.3685" fill="black" stroke="black" stroke-width="0.75"/>
<rect x="66.3838" y="215.039" width="18.3685" height="18.3685" fill="black" stroke="black" stroke-width="0.75"/>
<rect x="66.3838" y="361.987" width="18.3685" height="18.3685" fill="black" stroke="black" stroke-width="0.75"/>
<rect x="139.858" y="178.302" width="18.3685" height="18.3685" fill="black" stroke="black" stroke-width="0.75"/>
<rect x="139.858" y="325.25" width="18.3685" height="18.3685" fill="black" stroke="black" stroke-width="0.75"/>
<rect x="139.858" y="251.776" width="18.3685" height="18.3685" fill="black" stroke="black" stroke-width="0.75"/>
<rect x="139.858" y="398.725" width="18.3685" height="18.3685" fill="black" stroke="black" stroke-width="0.75"/>
<rect x="139.858" y="453.83" width="18.3685" height="18.3685" fill="black" stroke="black" stroke-width="0.75"/>
<rect x="66.3838" y="178.302" width="18.3685" height="18.3685" fill="black" stroke="black" stroke-width="0.75"/>
<rect x="66.3838" y="325.25" width="18.3685" height="18.3685" fill="black" stroke="black" stroke-width="0.75"/>
<rect x="66.3838" y="251.776" width="18.3685" height="18.3685" fill="black" stroke="black" stroke-width="0.75"/>
<rect x="66.3838" y="398.725" width="18.3685" height="18.3685" fill="black" stroke="black" stroke-width="0.75"/>
<rect x="66.3838" y="453.83" width="18.3685" height="18.3685" fill="black" stroke="black" stroke-width="0.75"/>
<rect x="103.122" y="159.934" width="18.3685" height="18.3685" fill="black" stroke="black" stroke-width="0.75"/>
<rect x="103.122" y="306.882" width="18.3685" height="18.3685" fill="black" stroke="black" stroke-width="0.75"/>
<rect x="103.122" y="233.407" width="18.3685" height="18.3685" fill="black" stroke="black" stroke-width="0.75"/>
<rect x="103.122" y="380.355" width="18.3685" height="18.3685" fill="black" stroke="black" stroke-width="0.75"/>
<rect x="103.122" y="435.461" width="18.3685" height="18.3685" fill="black" stroke="black" stroke-width="0.75"/>
<rect x="29.6475" y="159.934" width="18.3685" height="18.3685" fill="black" stroke="black" stroke-width="0.75"/>
<rect x="-7.08984" y="159.934" width="18.3685" height="18.3685" fill="black" stroke="black" stroke-width="0.75"/>
<rect x="29.6475" y="306.882" width="18.3685" height="18.3685" fill="black" stroke="black" stroke-width="0.75"/>
<rect x="-7.08984" y="306.882" width="18.3685" height="18.3685" fill="black" stroke="black" stroke-width="0.75"/>
<rect x="29.6475" y="233.407" width="18.3685" height="18.3685" fill="black" stroke="black" stroke-width="0.75"/>
<rect x="-7.08984" y="233.407" width="18.3685" height="18.3685" fill="black" stroke="black" stroke-width="0.75"/>
<rect x="29.6475" y="380.355" width="18.3685" height="18.3685" fill="black" stroke="black" stroke-width="0.75"/>
<rect x="29.6475" y="435.461" width="18.3685" height="18.3685" fill="black" stroke="black" stroke-width="0.75"/>
<rect x="-7.08984" y="380.355" width="18.3685" height="18.3685" fill="black" stroke="black" stroke-width="0.75"/>
<rect x="-7.08984" y="435.461" width="18.3685" height="18.3685" fill="black" stroke="black" stroke-width="0.75"/>
<rect x="103.122" y="196.67" width="18.3685" height="18.3685" fill="black" stroke="black" stroke-width="0.75"/>
<rect x="103.122" y="343.619" width="18.3685" height="18.3685" fill="black" stroke="black" stroke-width="0.75"/>
<rect x="103.122" y="270.144" width="18.3685" height="18.3685" fill="black" stroke="black" stroke-width="0.75"/>
<rect x="103.122" y="417.093" width="18.3685" height="18.3685" fill="black" stroke="black" stroke-width="0.75"/>
<rect x="103.122" y="472.198" width="18.3685" height="18.3685" fill="black" stroke="black" stroke-width="0.75"/>
<rect x="29.6475" y="196.67" width="18.3685" height="18.3685" fill="black" stroke="black" stroke-width="0.75"/>
<rect x="-7.08984" y="196.67" width="18.3685" height="18.3685" fill="black" stroke="black" stroke-width="0.75"/>
<rect x="29.6475" y="343.619" width="18.3685" height="18.3685" fill="black" stroke="black" stroke-width="0.75"/>
<rect x="-7.08984" y="343.619" width="18.3685" height="18.3685" fill="black" stroke="black" stroke-width="0.75"/>
<rect x="29.6475" y="270.144" width="18.3685" height="18.3685" fill="black" stroke="black" stroke-width="0.75"/>
<rect x="-7.08984" y="270.144" width="18.3685" height="18.3685" fill="black" stroke="black" stroke-width="0.75"/>
<rect x="29.6475" y="417.093" width="18.3685" height="18.3685" fill="black" stroke="black" stroke-width="0.75"/>
<rect x="29.6475" y="472.198" width="18.3685" height="18.3685" fill="black" stroke="black" stroke-width="0.75"/>
<rect x="-7.08984" y="417.093" width="18.3685" height="18.3685" fill="black" stroke="black" stroke-width="0.75"/>
<rect x="-7.08984" y="472.198" width="18.3685" height="18.3685" fill="black" stroke="black" stroke-width="0.75"/>
<rect x="139.858" y="159.934" width="18.3685" height="18.3685" fill="black" stroke="black" stroke-width="0.75"/>
<rect x="139.858" y="306.882" width="18.3685" height="18.3685" fill="black" stroke="black" stroke-width="0.75"/>
<rect x="139.858" y="233.407" width="18.3685" height="18.3685" fill="black" stroke="black" stroke-width="0.75"/>
<rect x="139.858" y="380.355" width="18.3685" height="18.3685" fill="black" stroke="black" stroke-width="0.75"/>
<rect x="139.858" y="435.461" width="18.3685" height="18.3685" fill="black" stroke="black" stroke-width="0.75"/>
<rect x="66.3838" y="159.934" width="18.3685" height="18.3685" fill="black" stroke="black" stroke-width="0.75"/>
<rect x="66.3838" y="306.882" width="18.3685" height="18.3685" fill="black" stroke="black" stroke-width="0.75"/>
<rect x="66.3838" y="233.407" width="18.3685" height="18.3685" fill="black" stroke="black" stroke-width="0.75"/>
<rect x="66.3838" y="380.355" width="18.3685" height="18.3685" fill="black" stroke="black" stroke-width="0.75"/>
<rect x="66.3838" y="435.461" width="18.3685" height="18.3685" fill="black" stroke="black" stroke-width="0.75"/>
<rect x="139.858" y="196.67" width="18.3685" height="18.3685" fill="black" stroke="black" stroke-width="0.75"/>
<rect x="139.858" y="343.619" width="18.3685" height="18.3685" fill="black" stroke="black" stroke-width="0.75"/>
<rect x="139.858" y="270.144" width="18.3685" height="18.3685" fill="black" stroke="black" stroke-width="0.75"/>
<rect x="139.858" y="417.093" width="18.3685" height="18.3685" fill="black" stroke="black" stroke-width="0.75"/>
<rect x="139.858" y="472.198" width="18.3685" height="18.3685" fill="black" stroke="black" stroke-width="0.75"/>
<rect x="66.3838" y="196.67" width="18.3685" height="18.3685" fill="black" stroke="black" stroke-width="0.75"/>
<rect x="66.3838" y="343.619" width="18.3685" height="18.3685" fill="black" stroke="black" stroke-width="0.75"/>
<rect x="66.3838" y="270.144" width="18.3685" height="18.3685" fill="black" stroke="black" stroke-width="0.75"/>
<rect x="66.3838" y="417.093" width="18.3685" height="18.3685" fill="black" stroke="black" stroke-width="0.75"/>
<rect x="66.3838" y="472.198" width="18.3685" height="18.3685" fill="black" stroke="black" stroke-width="0.75"/>
<rect x="121.49" y="141.564" width="18.3685" height="18.3685" fill="black" stroke="black" stroke-width="0.75"/>
<rect x="121.49" y="288.513" width="18.3685" height="18.3685" fill="black" stroke="black" stroke-width="0.75"/>
<rect x="121.49" y="215.039" width="18.3685" height="18.3685" fill="black" stroke="black" stroke-width="0.75"/>
<rect x="121.49" y="361.987" width="18.3685" height="18.3685" fill="black" stroke="black" stroke-width="0.75"/>
<rect x="48.0156" y="141.564" width="18.3685" height="18.3685" fill="black" stroke="black" stroke-width="0.75"/>
<rect x="11.2793" y="141.564" width="18.3685" height="18.3685" fill="black" stroke="black" stroke-width="0.75"/>
<rect x="48.0156" y="288.513" width="18.3685" height="18.3685" fill="black" stroke="black" stroke-width="0.75"/>
<rect x="11.2793" y="288.513" width="18.3685" height="18.3685" fill="black" stroke="black" stroke-width="0.75"/>
<rect x="48.0156" y="215.039" width="18.3685" height="18.3685" fill="black" stroke="black" stroke-width="0.75"/>
<rect x="11.2793" y="215.039" width="18.3685" height="18.3685" fill="black" stroke="black" stroke-width="0.75"/>
<rect x="48.0156" y="361.987" width="18.3685" height="18.3685" fill="black" stroke="black" stroke-width="0.75"/>
<rect x="11.2793" y="361.987" width="18.3685" height="18.3685" fill="black" stroke="black" stroke-width="0.75"/>
<rect x="121.49" y="178.302" width="18.3685" height="18.3685" fill="black" stroke="black" stroke-width="0.75"/>
<rect x="121.49" y="325.25" width="18.3685" height="18.3685" fill="black" stroke="black" stroke-width="0.75"/>
<rect x="121.49" y="251.776" width="18.3685" height="18.3685" fill="black" stroke="black" stroke-width="0.75"/>
<rect x="121.49" y="398.725" width="18.3685" height="18.3685" fill="black" stroke="black" stroke-width="0.75"/>
<rect x="121.49" y="453.83" width="18.3685" height="18.3685" fill="black" stroke="black" stroke-width="0.75"/>
<rect x="48.0156" y="178.302" width="18.3685" height="18.3685" fill="black" stroke="black" stroke-width="0.75"/>
<rect x="11.2793" y="178.302" width="18.3685" height="18.3685" fill="black" stroke="black" stroke-width="0.75"/>
<rect x="48.0156" y="325.25" width="18.3685" height="18.3685" fill="black" stroke="black" stroke-width="0.75"/>
<rect x="11.2793" y="325.25" width="18.3685" height="18.3685" fill="black" stroke="black" stroke-width="0.75"/>
<rect x="48.0156" y="251.776" width="18.3685" height="18.3685" fill="black" stroke="black" stroke-width="0.75"/>
<rect x="11.2793" y="251.776" width="18.3685" height="18.3685" fill="black" stroke="black" stroke-width="0.75"/>
<rect x="48.0156" y="398.725" width="18.3685" height="18.3685" fill="black" stroke="black" stroke-width="0.75"/>
<rect x="48.0156" y="453.83" width="18.3685" height="18.3685" fill="black" stroke="black" stroke-width="0.75"/>
<rect x="11.2793" y="398.725" width="18.3685" height="18.3685" fill="black" stroke="black" stroke-width="0.75"/>
<rect x="11.2793" y="453.83" width="18.3685" height="18.3685" fill="black" stroke="black" stroke-width="0.75"/>
<rect x="84.7529" y="141.564" width="18.3685" height="18.3685" fill="black" stroke="black" stroke-width="0.75"/>
<rect x="84.7529" y="288.513" width="18.3685" height="18.3685" fill="black" stroke="black" stroke-width="0.75"/>
<rect x="84.7529" y="215.039" width="18.3685" height="18.3685" fill="black" stroke="black" stroke-width="0.75"/>
<rect x="84.7529" y="361.987" width="18.3685" height="18.3685" fill="black" stroke="black" stroke-width="0.75"/>
<rect x="84.7529" y="178.302" width="18.3685" height="18.3685" fill="black" stroke="black" stroke-width="0.75"/>
<rect x="84.7529" y="325.25" width="18.3685" height="18.3685" fill="black" stroke="black" stroke-width="0.75"/>
<rect x="84.7529" y="251.776" width="18.3685" height="18.3685" fill="black" stroke="black" stroke-width="0.75"/>
<rect x="84.7529" y="398.725" width="18.3685" height="18.3685" fill="black" stroke="black" stroke-width="0.75"/>
<rect x="84.7529" y="453.83" width="18.3685" height="18.3685" fill="black" stroke="black" stroke-width="0.75"/>
<rect x="121.49" y="159.934" width="18.3685" height="18.3685" fill="black" stroke="black" stroke-width="0.75"/>
<rect x="121.49" y="306.882" width="18.3685" height="18.3685" fill="black" stroke="black" stroke-width="0.75"/>
<rect x="121.49" y="233.407" width="18.3685" height="18.3685" fill="black" stroke="black" stroke-width="0.75"/>
<rect x="121.49" y="380.355" width="18.3685" height="18.3685" fill="black" stroke="black" stroke-width="0.75"/>
<rect x="121.49" y="435.461" width="18.3685" height="18.3685" fill="black" stroke="black" stroke-width="0.75"/>
<rect x="48.0156" y="159.934" width="18.3685" height="18.3685" fill="black" stroke="black" stroke-width="0.75"/>
<rect x="11.2793" y="159.934" width="18.3685" height="18.3685" fill="black" stroke="black" stroke-width="0.75"/>
<rect x="48.0156" y="306.882" width="18.3685" height="18.3685" fill="black" stroke="black" stroke-width="0.75"/>
<rect x="11.2793" y="306.882" width="18.3685" height="18.3685" fill="black" stroke="black" stroke-width="0.75"/>
<rect x="48.0156" y="233.407" width="18.3685" height="18.3685" fill="black" stroke="black" stroke-width="0.75"/>
<rect x="11.2793" y="233.407" width="18.3685" height="18.3685" fill="black" stroke="black" stroke-width="0.75"/>
<rect x="48.0156" y="380.355" width="18.3685" height="18.3685" fill="black" stroke="black" stroke-width="0.75"/>
<rect x="48.0156" y="435.461" width="18.3685" height="18.3685" fill="black" stroke="black" stroke-width="0.75"/>
<rect x="11.2793" y="380.355" width="18.3685" height="18.3685" fill="black" stroke="black" stroke-width="0.75"/>
<rect x="11.2793" y="435.461" width="18.3685" height="18.3685" fill="black" stroke="black" stroke-width="0.75"/>
<rect x="121.49" y="196.67" width="18.3685" height="18.3685" fill="black" stroke="black" stroke-width="0.75"/>
<rect x="121.49" y="343.619" width="18.3685" height="18.3685" fill="black" stroke="black" stroke-width="0.75"/>
<rect x="121.49" y="270.144" width="18.3685" height="18.3685" fill="black" stroke="black" stroke-width="0.75"/>
<rect x="121.49" y="417.093" width="18.3685" height="18.3685" fill="black" stroke="black" stroke-width="0.75"/>
<rect x="121.49" y="472.198" width="18.3685" height="18.3685" fill="black" stroke="black" stroke-width="0.75"/>
<rect x="48.0156" y="196.67" width="18.3685" height="18.3685" fill="black" stroke="black" stroke-width="0.75"/>
<rect x="11.2793" y="196.67" width="18.3685" height="18.3685" fill="black" stroke="black" stroke-width="0.75"/>
<rect x="48.0156" y="343.619" width="18.3685" height="18.3685" fill="black" stroke="black" stroke-width="0.75"/>
<rect x="11.2793" y="343.619" width="18.3685" height="18.3685" fill="black" stroke="black" stroke-width="0.75"/>
<rect x="48.0156" y="270.144" width="18.3685" height="18.3685" fill="black" stroke="black" stroke-width="0.75"/>
<rect x="11.2793" y="270.144" width="18.3685" height="18.3685" fill="black" stroke="black" stroke-width="0.75"/>
<rect x="48.0156" y="417.093" width="18.3685" height="18.3685" fill="black" stroke="black" stroke-width="0.75"/>
<rect x="48.0156" y="472.198" width="18.3685" height="18.3685" fill="black" stroke="black" stroke-width="0.75"/>
<rect x="11.2793" y="417.093" width="18.3685" height="18.3685" fill="black" stroke="black" stroke-width="0.75"/>
<rect x="11.2793" y="472.198" width="18.3685" height="18.3685" fill="black" stroke="black" stroke-width="0.75"/>
<rect x="84.7529" y="159.934" width="18.3685" height="18.3685" fill="black" stroke="black" stroke-width="0.75"/>
<rect x="84.7529" y="306.882" width="18.3685" height="18.3685" fill="black" stroke="black" stroke-width="0.75"/>
<rect x="84.7529" y="233.407" width="18.3685" height="18.3685" fill="black" stroke="black" stroke-width="0.75"/>
<rect x="84.7529" y="380.355" width="18.3685" height="18.3685" fill="black" stroke="black" stroke-width="0.75"/>
<rect x="84.7529" y="435.461" width="18.3685" height="18.3685" fill="black" stroke="black" stroke-width="0.75"/>
<rect x="84.7529" y="196.67" width="18.3685" height="18.3685" fill="black" stroke="black" stroke-width="0.75"/>
<rect x="84.7529" y="343.619" width="18.3685" height="18.3685" fill="black" stroke="black" stroke-width="0.75"/>
<rect x="84.7529" y="270.144" width="18.3685" height="18.3685" fill="black" stroke="black" stroke-width="0.75"/>
<rect x="84.7529" y="417.093" width="18.3685" height="18.3685" fill="black" stroke="black" stroke-width="0.75"/>
<rect x="84.7529" y="472.198" width="18.3685" height="18.3685" fill="black" stroke="black" stroke-width="0.75"/>
</g>
<path d="M6.80693 0.779297L148.897 0.779297C152.233 0.779297 154.939 3.48624 154.939 6.82158V151.981H0.764648L0.764648 6.82158C0.764648 3.48624 3.47159 0.779297 6.80693 0.779297Z" fill="black" stroke="black" stroke-width="0.75" stroke-miterlimit="10"/>
<path d="M154.939 151.981H0.764648L0.764648 479.425H154.939V151.981Z" fill="black" stroke="black" stroke-width="0.75" stroke-miterlimit="10"/>
<path d="M0.764648 479.425H154.939V547.002C154.939 550.337 152.233 553.044 148.897 553.044H6.80693C3.47159 553.044 0.764648 550.337 0.764648 547.002L0.764648 479.425Z" fill="black" stroke="black" stroke-width="0.75" stroke-miterlimit="10"/>
<path d="M29.7923 485.406H32.9585C35.9192 485.406 38.3361 487.811 38.3361 490.784V553.044H24.4268L24.4268 490.784C24.4268 487.823 26.8316 485.406 29.8044 485.406H29.7923Z" fill="black" stroke="black" stroke-width="0.75" stroke-miterlimit="10"/>
<path d="M76.2689 485.406H79.435C82.3957 485.406 84.8127 487.811 84.8127 490.784V553.044H70.9033V490.784C70.9033 487.823 73.3081 485.406 76.281 485.406H76.2689Z" fill="black" stroke="black" stroke-width="0.75" stroke-miterlimit="10"/>
<path d="M124.74 485.406H127.906C130.866 485.406 133.283 487.811 133.283 490.784V553.044H119.374V490.784C119.374 487.823 121.779 485.406 124.752 485.406H124.74Z" fill="black" stroke="black" stroke-width="0.75" stroke-miterlimit="10"/>
<path d="M15.834 252.126L15.834 223.099H32.5228V227.897H21.55V247.171C25.4412 247.171 29.2478 246.712 33.8158 245.576L34.5771 250.229C29.4775 251.377 24.0636 252.138 15.834 252.138V252.126ZM60.4018 284.658V265.757H22.698V260.887H66.2749V284.658H60.4139H60.4018ZM36.6315 252.126V223.099H53.9245V227.897H42.42V247.171C47.3747 247.171 52.704 246.567 56.5952 245.649L57.3565 250.301C52.0998 251.522 44.9336 252.126 36.6315 252.126V252.126ZM66.1903 240.924V257.383H60.4743V218.072H66.1903V236.054H75.2538V240.924H66.1903Z" fill="black"/>
<path d="M87.5194 283.752V268.815H126.226V263.631H87.2898V258.906H106.794V252.815H79.749V248.09H139.858V252.815H112.583V258.906H132.015V273.154H93.3079V278.87H134.528V283.74H87.5194V283.752ZM85.61 225.311V220.513H133.61V225.311H85.61ZM85.6825 242.833V238.108H95.894L94.2988 228.586L100.317 227.824L101.465 238.108H117.767L119.133 227.667L125.151 228.501L123.326 238.096H133.61V242.821H85.6946L85.6825 242.833Z" fill="black"/>
<path d="M19.4473 343.195V340.138H36.414V330.627H40.0514V340.138H57.1632V343.195H19.4473ZM54.0574 333.153C47.1692 331.908 40.4865 327.944 38.2871 323.401C36.4744 327.993 29.7312 331.956 22.5167 333.298L20.982 330.24C27.7735 329.479 35.7493 324.694 36.414 319.34H22.8914V316.283H53.6707V319.34H40.2448C40.9578 324.694 49.4653 329.431 55.6768 329.999L54.0574 333.153V333.153ZM31.4472 311.594V308.295H45.1149V311.594H31.4472Z" fill="black"/>
<path d="M81.6707 309.974C81.0544 320.923 73.0665 328.609 62.4079 331.86L60.5469 328.851C68.7644 327.038 76.5106 320.246 77.5619 313.08H62.3112V309.974H81.6707V309.974ZM79.3746 348.403C70.6254 348.403 65.417 345.346 65.417 340.379C65.417 335.412 70.6254 332.355 79.3746 332.355C88.1238 332.355 93.429 335.412 93.429 340.379C93.429 345.346 88.1722 348.403 79.3746 348.403ZM69.1511 340.379C69.1511 343.582 73.0665 345.394 79.3746 345.394C85.6828 345.394 89.6948 343.582 89.6948 340.379C89.6948 337.177 85.7311 335.316 79.3746 335.316C73.0181 335.316 69.1511 337.177 69.1511 340.379V340.379ZM92.9093 321.503V332.452H89.284V306.736H92.9093V318.494H99.2658V321.503H92.9093Z" fill="black"/>
<path d="M124.498 329.963C120.486 330.627 113.405 330.917 108.535 330.917H103.616V318.156H118.577V312.186H103.616V309.177H122.202V321.129H107.242V327.969H108.68C114.323 327.969 120.148 327.824 124.16 327.111L124.498 329.975V329.963ZM136.257 334.784V348.887H132.619V337.794H108.051V334.784H136.245H136.257ZM132.619 332.488V324.646H124.97V321.685H132.619V316.041H124.97V313.032H132.619V306.724H136.257V332.488H132.619Z" fill="black"/>
</svg>
