<svg width="226" height="226" viewBox="0 0 226 226" fill="none" xmlns="http://www.w3.org/2000/svg">
<path d="M112.838 224.676C174.605 224.676 224.676 174.605 224.676 112.838C224.676 51.0717 174.605 1 112.838 1C51.0717 1 1 51.0717 1 112.838C1 174.605 51.0717 224.676 112.838 224.676Z" fill="white" stroke="black" stroke-width="0.75" stroke-miterlimit="10"/>
<path d="M165.144 112.256C165.144 141.572 141.876 165.316 113.222 165.316C84.5675 165.316 61.2998 141.572 61.2998 112.256C61.2998 82.9399 84.5675 59.1958 113.222 59.1958C141.876 59.1958 165.144 82.9399 165.144 112.256V112.256Z" fill="#00B026" stroke="black" stroke-width="0.75"/>
<path d="M141.704 112.256C141.704 128.35 128.932 141.374 113.222 141.374C97.5113 141.374 84.7393 128.35 84.7393 112.256C84.7393 96.1622 97.5113 83.1387 113.222 83.1387C128.932 83.1387 141.704 96.1622 141.704 112.256Z" fill="black" stroke="black" stroke-width="0.75"/>
<path d="M94.613 112.19C103.136 112.19 110.045 105.281 110.045 96.7576C110.045 88.2345 103.136 81.3252 94.613 81.3252C86.09 81.3252 79.1807 88.2345 79.1807 96.7576C79.1807 105.281 86.09 112.19 94.613 112.19Z" fill="white" stroke="black" stroke-width="0.75"/>
</svg>
