<svg width="226" height="226" viewBox="0 0 226 226" fill="none" xmlns="http://www.w3.org/2000/svg">
<path d="M112.838 224.676C174.605 224.676 224.676 174.605 224.676 112.838C224.676 51.0717 174.605 1 112.838 1C51.0717 1 1 51.0717 1 112.838C1 174.605 51.0717 224.676 112.838 224.676Z" fill="black" stroke="black" stroke-width="0.75" stroke-miterlimit="10"/>
<path d="M73.1076 155.373L95.0249 149.333C101.502 147.548 106.678 144.744 110.551 140.921C114.416 137.068 116.897 132.365 117.992 126.812C119.087 121.259 118.692 115.063 116.808 108.225L116.783 108.134C114.898 101.295 112.056 95.8062 108.257 91.6667C104.48 87.4888 99.9495 84.7505 94.6644 83.4517C89.3711 82.1228 83.5009 82.3467 77.0538 84.1235L55.1365 90.1637L73.1076 155.373ZM79.2243 145.811L65.2883 95.2428L78.529 91.5938C83.4698 90.2321 87.9122 90.0613 91.8562 91.0814C95.8221 92.063 99.2126 94.1918 102.028 97.4678C104.843 100.744 106.998 105.093 108.493 110.516L108.518 110.606C110.004 115.999 110.377 120.823 109.637 125.079C108.889 129.305 107.068 132.87 104.173 135.775C101.309 138.671 97.4058 140.8 92.465 142.162L79.2243 145.811ZM154.428 133.935C158.766 132.739 162.288 130.699 164.994 127.814C167.7 124.929 169.454 121.414 170.257 117.271C171.09 113.119 170.818 108.543 169.439 103.542L169.415 103.451C168.036 98.4501 165.93 94.3952 163.096 91.2864C160.284 88.1392 156.966 86.039 153.142 84.9857C149.341 83.894 145.271 83.946 140.933 85.1416C136.624 86.3288 133.102 88.3692 130.367 91.2625C127.653 94.1175 125.879 97.6208 125.046 101.773C124.235 105.886 124.518 110.443 125.896 115.444L125.921 115.535C127.291 120.506 129.386 124.58 132.207 127.757C135.049 130.896 138.371 133.011 142.173 134.103C146.005 135.186 150.09 135.13 154.428 133.935ZM152.555 126.963C149.784 127.727 147.172 127.717 144.719 126.934C142.289 126.113 140.144 124.565 138.285 122.289C136.418 119.984 134.978 116.993 133.965 113.318L133.94 113.228C132.927 109.552 132.64 106.276 133.079 103.4C133.51 100.493 134.563 98.0801 136.238 96.1598C137.935 94.2011 140.139 92.8481 142.85 92.1009C145.622 91.337 148.219 91.3507 150.641 92.1418C153.094 92.9246 155.234 94.4579 157.063 96.7416C158.922 99.017 160.358 101.992 161.371 105.668L161.396 105.758C162.408 109.434 162.704 112.74 162.281 115.676C161.881 118.574 160.847 120.999 159.18 122.949C157.535 124.861 155.327 126.199 152.555 126.963Z" fill="white"/>
</svg>
