<svg width="79" height="481" viewBox="0 0 79 481" fill="none" xmlns="http://www.w3.org/2000/svg">
<path d="M8.75854 378.051L70.4502 378.051L51.2237 476.964C50.9095 478.547 49.6164 479.731 48.2146 479.731L30.9821 479.731C29.5802 479.731 28.2871 478.547 27.9729 476.964L8.74644 378.051L8.75854 378.051Z" fill="#FF0400" stroke="black" stroke-width="0.75"/>
<path d="M72.5163 378.051L6.70377 378.051C3.36843 378.051 0.661491 375.344 0.661491 372.009L0.661494 344.674L78.5586 344.674L78.5586 372.009C78.5586 375.344 75.8517 378.051 72.5163 378.051Z" fill="#FF0400" stroke="black" stroke-width="0.75"/>
<path d="M78.5586 34.3423L0.661491 34.3423L0.661493 7.00701C0.661494 3.67167 3.36844 0.964732 6.70377 0.964732L72.5163 0.964738C75.8517 0.964738 78.5586 3.67168 78.5586 7.00702L78.5586 34.3423Z" fill="#FF0400" stroke="black" stroke-width="0.75"/>
<path d="M0.661491 344.674L78.5586 344.674L78.5586 33.8957L0.661519 33.8957L0.661491 344.674Z" fill="#FFD600" stroke="black" stroke-width="0.75"/>
<path d="M0.661491 328.13L78.5586 328.13L78.5586 316.323L0.661492 316.323L0.661491 328.13Z" fill="#FF85D5" stroke="black" stroke-width="0.75"/>
<path d="M0.661491 61.1221L78.5586 61.1221L78.5586 49.3154L0.661492 49.3154L0.661491 61.1221Z" fill="#FF85D5" stroke="black" stroke-width="0.75"/>
<path d="M28.7462 130.257C30.7643 131.865 33.1329 132.94 35.8398 133.472L36.1299 133.532L36.1299 128.167L35.864 128.082C33.9909 127.478 32.432 126.608 31.1631 125.484C29.8942 124.36 28.9396 123.019 28.287 121.46C27.6344 119.901 27.3081 118.125 27.3081 116.131C27.3081 113.315 28.0212 110.862 29.435 108.759C30.8489 106.656 32.8429 105.025 35.4048 103.877C37.9667 102.729 40.9758 102.149 44.4199 102.149L44.444 102.149C47.9002 102.149 50.9093 102.729 53.4592 103.877C56.009 105.025 57.9787 106.644 59.3926 108.747C60.7945 110.838 61.5074 113.303 61.5074 116.143C61.5074 118.149 61.1812 119.937 60.5286 121.508C59.876 123.079 58.9455 124.409 57.7371 125.508C56.5286 126.596 55.0543 127.418 53.3262 127.973L52.6736 128.179L52.6736 133.544L52.9637 133.484C55.6586 132.952 58.015 131.877 60.0211 130.257C62.0271 128.638 63.586 126.608 64.7099 124.191C65.8337 121.774 66.3896 119.091 66.3896 116.131C66.3897 112.179 65.4953 108.747 63.6947 105.835C61.8941 102.922 59.3564 100.674 56.0694 99.0793C52.7824 97.4841 48.9153 96.6865 44.444 96.6865L44.4199 96.6865C39.9607 96.6865 36.0695 97.4841 32.7825 99.0793C29.4834 100.674 26.9335 102.934 25.1208 105.847C23.3082 108.771 22.4018 112.191 22.4018 116.131C22.4018 119.103 22.9577 121.798 24.0574 124.215C25.1571 126.632 26.716 128.65 28.7341 130.27L28.7462 130.257Z" fill="black"/>
<path d="M48.6256 144.251L48.6256 144.131L53.8219 144.131L53.8219 138.995L23.1392 138.995L23.1392 144.131L42.0758 144.131C43.6347 144.131 44.964 144.396 46.0758 144.94C47.1875 145.484 48.0334 146.245 48.6256 147.236C49.2177 148.227 49.5077 149.387 49.5077 150.705C49.5077 151.333 49.4836 151.901 49.4231 152.396C49.3627 152.892 49.2902 153.242 49.2177 153.448L54.2086 153.448C54.2449 153.254 54.2932 152.976 54.3416 152.602C54.3899 152.239 54.4141 151.828 54.4141 151.381C54.4141 149.653 53.8945 148.155 52.8552 146.898C51.8159 145.641 50.402 144.759 48.6377 144.239L48.6256 144.251Z" fill="black"/>
<path d="M49.8942 158.692C48.5165 157.701 46.9818 157.121 45.2899 156.964L44.9636 156.94L44.9636 161.895L45.2295 161.955C46.6072 162.245 47.719 163.006 48.577 164.215C49.435 165.423 49.8579 167.018 49.8579 168.976C49.8579 171.115 49.3262 172.783 48.2507 173.943C47.1751 175.115 45.7129 175.695 43.8398 175.695L41.2779 175.695L40.7703 166.898C40.6374 164.553 40.1903 162.559 39.4411 160.892C38.6918 159.224 37.6767 157.955 36.4078 157.085C35.1389 156.215 33.6163 155.768 31.864 155.768L31.8036 155.768C29.9547 155.768 28.3353 156.191 26.9335 157.049C25.5317 157.907 24.4562 159.103 23.6827 160.638C22.9214 162.173 22.5347 163.949 22.5347 165.979C22.5347 167.357 22.7643 168.662 23.2235 169.895C23.6827 171.127 24.3354 172.227 25.1692 173.218C26.003 174.197 26.9819 174.982 28.1057 175.574L28.1057 175.695L23.1148 175.695L23.1148 180.831L44.3232 180.831C46.3655 180.831 48.1419 180.348 49.6524 179.381C51.163 178.414 52.3232 177.061 53.1449 175.296C53.9667 173.532 54.3896 171.441 54.3896 169.024C54.3896 166.608 53.9788 164.553 53.1691 162.801C52.3473 161.049 51.2597 159.683 49.8821 158.68L49.8942 158.692ZM30.8006 174.571C29.6163 173.81 28.6858 172.795 28.009 171.502C27.3323 170.209 26.9939 168.759 26.9939 167.151C26.9939 165.302 27.429 163.828 28.287 162.716C29.157 161.605 30.3172 161.049 31.8036 161.049L31.864 161.049C33.3021 161.049 34.4501 161.617 35.3202 162.74C36.1903 163.864 36.6737 165.459 36.7945 167.502L37.29 175.707L34.7885 175.707C33.3141 175.707 31.9849 175.333 30.8006 174.571V174.571Z" fill="black"/>
<path d="M13.6885 194.994C14.2807 196.275 15.199 197.363 16.4317 198.269C17.6643 199.176 19.2595 199.985 21.2172 200.722L53.8213 212.698L53.8213 207.296L28.2745 198.813L28.2745 198.68L53.8213 190.221L53.8213 184.735L23.1024 196.118L21.3622 195.502C19.6341 194.898 18.4861 194.1 17.906 193.121C17.338 192.142 17.048 190.849 17.048 189.218C17.048 188.904 17.0721 188.602 17.1084 188.324C17.1446 188.034 17.193 187.792 17.2293 187.574L13.0359 187.574C12.9755 187.913 12.9271 188.324 12.8788 188.831C12.8305 189.339 12.8063 189.834 12.8063 190.318C12.8063 192.167 13.0964 193.725 13.6885 195.006L13.6885 194.994Z" fill="black"/>
<path d="M46.9811 215.84C44.6126 214.656 41.7969 214.052 38.534 214.052L38.4736 214.052C35.2228 214.052 32.4071 214.644 30.0265 215.84C27.6337 217.024 25.7969 218.692 24.4918 220.831C23.1987 222.97 22.5461 225.447 22.5461 228.275C22.5461 231.103 23.1987 233.58 24.4918 235.707C25.7848 237.834 27.6337 239.49 30.0144 240.674C32.395 241.858 35.2228 242.462 38.4856 242.462L38.5461 242.462C41.8089 242.462 44.6246 241.87 46.9932 240.674C49.3618 239.49 51.1986 237.822 52.4796 235.683C53.7726 233.544 54.4131 231.067 54.4131 228.239C54.4131 225.411 53.7726 222.958 52.4796 220.819C51.1865 218.68 49.3618 217.024 46.9932 215.828L46.9811 215.84ZM48.5279 232.988C47.6457 234.329 46.3527 235.381 44.6608 236.118C42.969 236.855 40.9268 237.23 38.5219 237.23L38.4615 237.23C36.0567 237.23 34.0144 236.855 32.3105 236.118C30.6065 235.381 29.3135 234.354 28.4193 233.024C27.525 231.695 27.0778 230.124 27.0778 228.323C27.0778 226.523 27.525 224.94 28.4193 223.586C29.3135 222.245 30.6065 221.194 32.3105 220.444C34.0144 219.695 36.0567 219.32 38.4615 219.32L38.5219 219.32C40.9268 219.32 42.957 219.695 44.6488 220.444C46.3407 221.194 47.6216 222.245 48.5158 223.586C49.4101 224.928 49.8573 226.487 49.8573 228.263C49.8573 230.039 49.4101 231.647 48.5279 233L48.5279 232.988Z" fill="black"/>
<path d="M49.447 252.88L49.447 252.759L53.8095 252.759L53.8095 247.623L23.1269 247.623L23.1269 252.759L41.1812 252.759C42.9335 252.759 44.4561 253.085 45.7492 253.75C47.0422 254.414 48.0573 255.333 48.7703 256.541C49.4833 257.738 49.8458 259.151 49.8458 260.759C49.8458 263.115 49.1812 264.88 47.8519 266.052C46.5226 267.224 44.6132 267.804 42.1117 267.804L23.1148 267.804L23.1148 272.94L43.0301 272.94C46.5347 272.94 49.302 272.009 51.3322 270.148C53.3624 268.287 54.3896 265.677 54.3896 262.318C54.3896 259.997 53.9183 258.052 52.9878 256.481C52.0573 254.91 50.873 253.713 49.4349 252.88L49.447 252.88Z" fill="black"/>
</svg>
