<svg width="80" height="481" viewBox="0 0 80 481" fill="none" xmlns="http://www.w3.org/2000/svg">
<path d="M9.09741 378.087L70.7891 378.087L51.5626 476.999C51.2484 478.582 49.9553 479.766 48.5534 479.766L31.3209 479.766C29.9191 479.766 28.626 478.582 28.3118 476.999L9.08531 378.087L9.09741 378.087Z" fill="black" stroke="black" stroke-width="0.75"/>
<path d="M72.8552 378.086L7.04264 378.086C3.7073 378.086 1.00036 375.379 1.00036 372.044L1.00036 344.709L78.8975 344.709L78.8975 372.044C78.8975 375.379 76.1905 378.086 72.8552 378.086Z" fill="black" stroke="black" stroke-width="0.75"/>
<path d="M78.8975 34.3774L1.00036 34.3774L1.00036 7.04217C1.00036 3.70683 3.7073 0.999888 7.04264 0.999889L72.8552 0.999894C76.1905 0.999895 78.8975 3.70684 78.8975 7.04217L78.8975 34.3774Z" fill="black" stroke="black" stroke-width="0.75"/>
<path d="M1.00036 344.709L78.8975 344.709L78.8975 33.9308L1.00039 33.9308L1.00036 344.709Z" fill="black" stroke="black" stroke-width="0.75"/>
<path d="M1.00036 328.165L78.8975 328.165L78.8975 316.358L1.00036 316.358L1.00036 328.165Z" fill="black" stroke="black" stroke-width="0.75"/>
<path d="M1.00036 61.1572L78.8975 61.1572L78.8975 49.3506L1.00036 49.3506L1.00036 61.1572Z" fill="black" stroke="black" stroke-width="0.75"/>
<path d="M29.0851 130.293C31.1032 131.9 33.4718 132.975 36.1787 133.507L36.4687 133.567L36.4687 128.202L36.2029 128.117C34.3298 127.513 32.7709 126.643 31.502 125.519C30.2331 124.395 29.2784 123.054 28.6259 121.495C27.9733 119.936 27.647 118.16 27.647 116.166C27.647 113.35 28.36 110.897 29.7739 108.794C31.1878 106.691 33.1818 105.06 35.7437 103.912C38.3056 102.764 41.3147 102.184 44.7588 102.184L44.7829 102.184C48.2391 102.184 51.2482 102.764 53.798 103.912C56.3479 105.06 58.3176 106.679 59.7315 108.782C61.1333 110.873 61.8463 113.338 61.8463 116.178C61.8463 118.184 61.52 119.972 60.8675 121.543C60.2149 123.114 59.2844 124.444 58.0759 125.543C56.8675 126.631 55.3932 127.453 53.6651 128.009L53.0125 128.214L53.0125 133.58L53.3026 133.519C55.9974 132.987 58.3539 131.912 60.3599 130.293C62.366 128.673 63.9249 126.643 65.0487 124.226C66.1726 121.809 66.7285 119.126 66.7285 116.166C66.7285 112.214 65.8342 108.782 64.0336 105.87C62.233 102.957 59.6953 100.71 56.4083 99.1144C53.1213 97.5193 49.2542 96.7217 44.7829 96.7217L44.7588 96.7217C40.2996 96.7217 36.4084 97.5193 33.1214 99.1144C29.8223 100.71 27.2724 102.969 25.4597 105.882C23.647 108.806 22.7407 112.226 22.7407 116.166C22.7407 119.139 23.2966 121.833 24.3963 124.25C25.496 126.667 27.0549 128.685 29.073 130.305L29.0851 130.293Z" fill="black"/>
<path d="M48.9645 144.287L48.9645 144.166L54.1608 144.166L54.1608 139.03L23.4781 139.03L23.4781 144.166L42.4146 144.166C43.9735 144.166 45.3028 144.432 46.4146 144.975C47.5264 145.519 48.3723 146.28 48.9645 147.271C49.5566 148.262 49.8466 149.423 49.8466 150.74C49.8466 151.368 49.8224 151.936 49.762 152.432C49.7016 152.927 49.6291 153.277 49.5566 153.483L54.5475 153.483C54.5838 153.29 54.6321 153.012 54.6804 152.637C54.7288 152.274 54.7529 151.864 54.7529 151.416C54.7529 149.688 54.2333 148.19 53.194 146.933C52.1548 145.676 50.7409 144.794 48.9765 144.274L48.9645 144.287Z" fill="black"/>
<path d="M50.233 158.727C48.8554 157.736 47.3206 157.156 45.6288 156.999L45.3025 156.975L45.3025 161.93L45.5684 161.99C46.946 162.28 48.0578 163.041 48.9158 164.25C49.7739 165.458 50.1968 167.054 50.1968 169.011C50.1968 171.15 49.6651 172.818 48.5895 173.978C47.514 175.15 46.0518 175.73 44.1786 175.73L41.6167 175.73L41.1092 166.933C40.9763 164.588 40.5292 162.594 39.7799 160.927C39.0307 159.259 38.0156 157.99 36.7467 157.12C35.4778 156.25 33.9551 155.803 32.2029 155.803L32.1425 155.803C30.2935 155.803 28.6742 156.226 27.2724 157.084C25.8705 157.942 24.795 159.138 24.0216 160.673C23.2603 162.208 22.8736 163.984 22.8736 166.014C22.8736 167.392 23.1032 168.697 23.5624 169.93C24.0216 171.162 24.6742 172.262 25.5081 173.253C26.3419 174.232 27.3207 175.017 28.4446 175.609L28.4446 175.73L23.4537 175.73L23.4537 180.866L44.6621 180.866C46.7043 180.866 48.4807 180.383 49.9913 179.416C51.5019 178.449 52.662 177.096 53.4838 175.331C54.3055 173.567 54.7285 171.477 54.7285 169.06C54.7285 166.643 54.3176 164.588 53.508 162.836C52.6862 161.084 51.5986 159.718 50.2209 158.715L50.233 158.727ZM31.1394 174.606C29.9551 173.845 29.0246 172.83 28.3479 171.537C27.6712 170.244 27.3328 168.794 27.3328 167.186C27.3328 165.338 27.7678 163.863 28.6258 162.751C29.4959 161.64 30.6561 161.084 32.1425 161.084L32.2029 161.084C33.6409 161.084 34.789 161.652 35.659 162.776C36.5291 163.899 37.0126 165.495 37.1334 167.537L37.6288 175.742L35.1273 175.742C33.653 175.742 32.3237 175.368 31.1394 174.606V174.606Z" fill="black"/>
<path d="M14.0274 195.03C14.6195 196.31 15.5379 197.398 16.7705 198.304C18.0031 199.211 19.5983 200.02 21.556 200.758L54.1602 212.733L54.1602 207.332L28.6134 198.848L28.6134 198.715L54.1602 190.256L54.1602 184.77L23.4412 196.153L21.701 195.537C19.973 194.933 18.8249 194.135 18.2449 193.156C17.6769 192.178 17.3868 190.885 17.3868 189.253C17.3868 188.939 17.411 188.637 17.4473 188.359C17.4835 188.069 17.5319 187.827 17.5681 187.61L13.3748 187.61C13.3143 187.948 13.266 188.359 13.2177 188.866C13.1693 189.374 13.1452 189.869 13.1452 190.353C13.1452 192.202 13.4352 193.761 14.0274 195.042L14.0274 195.03Z" fill="black"/>
<path d="M47.32 215.875C44.9514 214.691 42.1357 214.087 38.8729 214.087L38.8124 214.087C35.5617 214.087 32.746 214.679 30.3653 215.875C27.9726 217.06 26.1358 218.727 24.8306 220.866C23.5376 223.005 22.885 225.482 22.885 228.31C22.885 231.138 23.5376 233.615 24.8306 235.742C26.1237 237.869 27.9726 239.525 30.3532 240.709C32.7339 241.893 35.5617 242.498 38.8245 242.498L38.8849 242.498C42.1478 242.498 44.9635 241.905 47.3321 240.709C49.7007 239.525 51.5375 237.857 52.8185 235.718C54.1115 233.579 54.752 231.102 54.752 228.274C54.752 225.446 54.1115 222.993 52.8185 220.854C51.5254 218.715 49.7007 217.06 47.3321 215.863L47.32 215.875ZM48.8668 233.023C47.9846 234.365 46.6915 235.416 44.9997 236.153C43.3079 236.89 41.2656 237.265 38.8608 237.265L38.8004 237.265C36.3956 237.265 34.3532 236.89 32.6493 236.153C30.9454 235.416 29.6524 234.389 28.7581 233.06C27.8639 231.73 27.4167 230.159 27.4167 228.359C27.4167 226.558 27.8639 224.975 28.7581 223.621C29.6524 222.28 30.9454 221.229 32.6493 220.479C34.3532 219.73 36.3956 219.356 38.8004 219.356L38.8608 219.356C41.2656 219.356 43.2958 219.73 44.9877 220.479C46.6795 221.229 47.9604 222.28 48.8547 223.621C49.7489 224.963 50.1961 226.522 50.1961 228.298C50.1961 230.075 49.749 231.682 48.8668 233.035L48.8668 233.023Z" fill="black"/>
<path d="M49.7859 252.915L49.7859 252.794L54.1484 252.794L54.1484 247.658L23.4658 247.658L23.4658 252.794L41.5201 252.794C43.2724 252.794 44.795 253.12 46.088 253.785C47.3811 254.449 48.3962 255.368 49.1092 256.576C49.8222 257.773 50.1847 259.187 50.1847 260.794C50.1847 263.15 49.52 264.915 48.1907 266.087C46.8614 267.259 44.9521 267.839 42.4506 267.839L23.4537 267.839L23.4537 272.975L43.369 272.975C46.8735 272.975 49.6409 272.045 51.6711 270.184C53.7013 268.323 54.7285 265.712 54.7285 262.353C54.7285 260.033 54.2572 258.087 53.3267 256.516C52.3962 254.945 51.2119 253.749 49.7738 252.915L49.7859 252.915Z" fill="black"/>
</svg>
