<svg width="366" height="366" viewBox="0 0 366 366" fill="none" xmlns="http://www.w3.org/2000/svg">
<path d="M365.235 8.04969V358.206C365.235 360.146 364.448 361.903 363.168 363.169L183.127 183.128L363.168 3.08643C364.448 4.35185 365.235 6.10937 365.235 8.04969V8.04969Z" fill="#FF5C00" stroke="black" stroke-width="0.75" stroke-miterlimit="10"/>
<path d="M363.167 363.168C361.902 364.448 360.144 365.235 358.204 365.235H8.04822C6.10791 365.235 4.35038 364.448 3.08496 363.168L183.126 183.127L363.167 363.168Z" fill="#FF85D5" stroke="black" stroke-width="0.75" stroke-miterlimit="10"/>
<path d="M183.127 183.127L3.08541 363.168C1.80593 361.903 1.01855 360.145 1.01855 358.205V8.0492C1.01855 6.10889 1.80593 4.35136 3.08541 3.08594L183.127 183.127Z" fill="#00B026" stroke="black" stroke-width="0.75" stroke-miterlimit="10"/>
<path d="M363.168 3.0859L183.127 183.127L3.08594 3.0859C4.35136 1.80642 6.10889 1.01904 8.0492 1.01904H358.205C360.145 1.01904 361.903 1.80642 363.168 3.0859V3.0859Z" fill="#0066FF" stroke="black" stroke-width="0.75" stroke-miterlimit="10"/>
</svg>
