<svg width="366" height="366" viewBox="0 0 366 366" fill="none" xmlns="http://www.w3.org/2000/svg">
<path d="M365.235 8.04969V358.206C365.235 360.146 364.448 361.903 363.168 363.169L183.127 183.128L363.168 3.08643C364.448 4.35185 365.235 6.10937 365.235 8.04969V8.04969Z" fill="black" stroke="black" stroke-width="0.75" stroke-miterlimit="10"/>
<path d="M363.167 363.168C361.902 364.448 360.144 365.235 358.204 365.235H8.04822C6.10791 365.235 4.35038 364.448 3.08496 363.168L183.126 183.127L363.167 363.168Z" fill="black" stroke="black" stroke-width="0.75" stroke-miterlimit="10"/>
<path d="M183.127 183.127L3.08541 363.168C1.80593 361.903 1.01855 360.145 1.01855 358.205V8.0492C1.01855 6.10889 1.80593 4.35136 3.08541 3.08594L183.127 183.127Z" fill="black" stroke="black" stroke-width="0.75" stroke-miterlimit="10"/>
<path d="M363.168 3.0859L183.127 183.127L3.08594 3.0859C4.35136 1.80642 6.10889 1.01904 8.0492 1.01904H358.205C360.145 1.01904 361.903 1.80642 363.168 3.0859V3.0859Z" fill="black" stroke="black" stroke-width="0.75" stroke-miterlimit="10"/>
<path d="M70.1367 212.537H78.1055L93.8555 158.349H94.043L109.793 212.537H117.762L136.184 144.896H127.371L113.73 200.443H113.543L98.2148 144.896H89.6836L74.3555 200.443H74.168L60.5273 144.896H51.7148L70.1367 212.537ZM144.012 212.537H152.168V184.083C152.168 181.302 152.684 178.865 153.715 176.771C154.777 174.677 156.246 173.037 158.121 171.849C160.027 170.662 162.23 170.068 164.73 170.068C168.543 170.068 171.512 171.302 173.637 173.771C175.762 176.24 176.824 179.677 176.824 184.083V212.537H184.98V182.677C184.98 178.74 184.246 175.287 182.777 172.318C181.309 169.349 179.262 167.037 176.637 165.38C174.043 163.693 171.012 162.849 167.543 162.849C163.918 162.849 160.809 163.615 158.215 165.146C155.621 166.677 153.668 168.818 152.355 171.568H152.168V144.896H144.012V212.537ZM215.402 213.474C218.059 213.474 220.527 213.115 222.809 212.396C225.09 211.646 227.121 210.615 228.902 209.302C230.684 207.958 232.137 206.412 233.262 204.662C234.418 202.912 235.199 201.037 235.605 199.037L235.699 198.568H227.684L227.543 198.99C227.074 200.396 226.293 201.646 225.199 202.74C224.105 203.833 222.746 204.693 221.121 205.318C219.496 205.943 217.652 206.255 215.59 206.255C212.652 206.255 210.105 205.615 207.949 204.333C205.793 203.021 204.121 201.146 202.934 198.708C201.777 196.271 201.199 193.333 201.199 189.896V186.755C201.199 183.13 201.793 180.083 202.98 177.615C204.168 175.115 205.793 173.24 207.855 171.99C209.918 170.708 212.246 170.068 214.84 170.068C217.434 170.068 219.73 170.677 221.73 171.896C223.73 173.083 225.293 174.912 226.418 177.38C227.574 179.849 228.152 182.974 228.152 186.755V189.896L232.277 183.99H197.027V190.365H236.309V187.365C236.309 182.49 235.449 178.208 233.73 174.521C232.012 170.833 229.543 167.974 226.324 165.943C223.137 163.88 219.324 162.849 214.887 162.849C210.449 162.849 206.59 163.927 203.309 166.083C200.027 168.208 197.48 171.193 195.668 175.037C193.855 178.849 192.949 183.271 192.949 188.302V188.349C192.949 193.443 193.84 197.88 195.621 201.662C197.434 205.412 200.012 208.318 203.355 210.38C206.73 212.443 210.746 213.474 215.402 213.474ZM244.559 212.537H252.715V182.443C252.715 179.974 253.137 177.865 253.98 176.115C254.855 174.333 256.074 172.974 257.637 172.037C259.23 171.099 261.074 170.63 263.168 170.63C264.168 170.63 265.059 170.677 265.84 170.771C266.652 170.865 267.215 170.974 267.527 171.099V163.177C267.215 163.115 266.762 163.052 266.168 162.99C265.605 162.896 264.965 162.849 264.246 162.849C261.496 162.849 259.121 163.677 257.121 165.333C255.121 166.99 253.715 169.224 252.902 172.037H252.715V163.787H244.559V212.537ZM291.902 213.474C294.559 213.474 297.027 213.115 299.309 212.396C301.59 211.646 303.621 210.615 305.402 209.302C307.184 207.958 308.637 206.412 309.762 204.662C310.918 202.912 311.699 201.037 312.105 199.037L312.199 198.568H304.184L304.043 198.99C303.574 200.396 302.793 201.646 301.699 202.74C300.605 203.833 299.246 204.693 297.621 205.318C295.996 205.943 294.152 206.255 292.09 206.255C289.152 206.255 286.605 205.615 284.449 204.333C282.293 203.021 280.621 201.146 279.434 198.708C278.277 196.271 277.699 193.333 277.699 189.896V186.755C277.699 183.13 278.293 180.083 279.48 177.615C280.668 175.115 282.293 173.24 284.355 171.99C286.418 170.708 288.746 170.068 291.34 170.068C293.934 170.068 296.23 170.677 298.23 171.896C300.23 173.083 301.793 174.912 302.918 177.38C304.074 179.849 304.652 182.974 304.652 186.755V189.896L308.777 183.99H273.527V190.365H312.809V187.365C312.809 182.49 311.949 178.208 310.23 174.521C308.512 170.833 306.043 167.974 302.824 165.943C299.637 163.88 295.824 162.849 291.387 162.849C286.949 162.849 283.09 163.927 279.809 166.083C276.527 168.208 273.98 171.193 272.168 175.037C270.355 178.849 269.449 183.271 269.449 188.302V188.349C269.449 193.443 270.34 197.88 272.121 201.662C273.934 205.412 276.512 208.318 279.855 210.38C283.23 212.443 287.246 213.474 291.902 213.474Z" fill="white"/>
</svg>
