<svg width="157" height="306" viewBox="0 0 157 306" fill="none" xmlns="http://www.w3.org/2000/svg">
<path d="M149.931 1.27588L6.91044 1.27588C3.57339 1.27588 0.868164 3.9811 0.868164 7.31816L0.868164 299.523C0.868164 302.86 3.57339 305.565 6.91044 305.565H149.931C153.268 305.565 155.974 302.86 155.974 299.523L155.974 7.31816C155.974 3.9811 153.268 1.27588 149.931 1.27588Z" fill="white" stroke="black" stroke-width="0.75"/>
<path d="M155.974 68.3936L0.868164 68.3936L0.868164 289.976H155.974V68.3936Z" fill="#FF5C00" stroke="black" stroke-width="0.75"/>
<path d="M37.8833 68.3936H25.2188L25.2188 289.976H37.8833L37.8833 68.3936Z" fill="#FF85D5" stroke="black" stroke-width="0.75"/>
<path d="M87.055 138.218C89.9916 133.675 96.0943 127.523 101.798 125.856C95.7559 124.249 89.5445 118.931 85.9433 113.324L89.049 110.714C93.2061 117.808 101.472 123.632 110.608 123.632H115.599V112.321H119.091V139.318H115.599V128.007H110.668C101.629 128.007 93.8103 134.158 90.2091 140.817L87.055 138.206V138.218ZM123.973 150.641H75.5264V146.424H123.973V150.641Z" fill="black"/>
<path d="M75.4658 178.581H92.3237V159.016H95.8766V202.811H92.3237V182.799H75.4658V178.581V178.581ZM100.239 180.684C100.239 169.88 104.614 163.33 111.103 163.33C117.593 163.33 121.907 169.868 121.907 180.684C121.907 191.499 117.532 198.037 111.103 198.037C104.674 198.037 100.239 191.548 100.239 180.684ZM111.103 167.548C106.608 167.548 103.901 172.539 103.901 180.684C103.901 188.829 106.62 193.928 111.103 193.928C115.587 193.928 118.257 188.937 118.257 180.684C118.257 172.43 115.538 167.548 111.103 167.548Z" fill="black"/>
<path d="M85.6169 209.457L88.7227 206.629C94.5474 216.889 104.856 222.811 114.717 223.258V208.285H118.269V227.693C103.853 227.524 92.5535 220.925 85.6169 209.457V209.457ZM75.5264 243.499H101.411V237.179H77.9674V233.022H122.813V237.179H104.904V243.499H123.973V247.656H75.5264V243.499V243.499Z" fill="black"/>
<path d="M67.8645 110.726H61.8223L61.8223 247.656H67.8645L67.8645 110.726Z" fill="#FFD600" stroke="black" stroke-width="0.75" stroke-miterlimit="10"/>
</svg>
