<svg width="157" height="306" viewBox="0 0 157 306" fill="none" xmlns="http://www.w3.org/2000/svg">
<path d="M149.931 1.27588L6.91044 1.27588C3.57339 1.27588 0.868164 3.9811 0.868164 7.31816L0.868164 299.523C0.868164 302.86 3.57339 305.565 6.91044 305.565H149.931C153.268 305.565 155.974 302.86 155.974 299.523L155.974 7.31816C155.974 3.9811 153.268 1.27588 149.931 1.27588Z" fill="black" stroke="black" stroke-width="0.75"/>
<path d="M155.974 68.3936L0.868164 68.3936L0.868164 289.976H155.974V68.3936Z" fill="black" stroke="black" stroke-width="0.75"/>
<path d="M37.8833 68.3936H25.2188L25.2188 289.976H37.8833L37.8833 68.3936Z" fill="black" stroke="black" stroke-width="0.75"/>
<path d="M87.055 138.218C89.9916 133.675 96.0943 127.523 101.798 125.856C95.7559 124.249 89.5445 118.931 85.9433 113.324L89.049 110.714C93.2061 117.808 101.472 123.632 110.608 123.632H115.599V112.321H119.091V139.318H115.599V128.007H110.668C101.629 128.007 93.8103 134.158 90.2091 140.817L87.055 138.206V138.218ZM123.973 150.641H75.5264V146.424H123.973V150.641Z" fill="black"/>
<path d="M75.4658 178.581H92.3237V159.016H95.8766V202.811H92.3237V182.799H75.4658V178.581V178.581ZM100.239 180.684C100.239 169.88 104.614 163.33 111.103 163.33C117.593 163.33 121.907 169.868 121.907 180.684C121.907 191.499 117.532 198.037 111.103 198.037C104.674 198.037 100.239 191.548 100.239 180.684ZM111.103 167.548C106.608 167.548 103.901 172.539 103.901 180.684C103.901 188.829 106.62 193.928 111.103 193.928C115.587 193.928 118.257 188.937 118.257 180.684C118.257 172.43 115.538 167.548 111.103 167.548Z" fill="black"/>
<path d="M85.6169 209.457L88.7227 206.629C94.5474 216.889 104.856 222.811 114.717 223.258V208.285H118.269V227.693C103.853 227.524 92.5535 220.925 85.6169 209.457V209.457ZM75.5264 243.499H101.411V237.179H77.9674V233.022H122.813V237.179H104.904V243.499H123.973V247.656H75.5264V243.499V243.499Z" fill="black"/>
<path d="M67.8645 110.726H61.8223L61.8223 247.656H67.8645L67.8645 110.726Z" fill="black" stroke="black" stroke-width="0.75" stroke-miterlimit="10"/>
<path d="M53.9521 183.14H62.1084L62.1084 134.39H53.9521L53.9521 183.14ZM58.0303 126.14C59.4678 126.14 60.6709 125.64 61.6396 124.64C62.6396 123.64 63.1396 122.437 63.1396 121.03C63.1396 119.593 62.6396 118.39 61.6396 117.421C60.6709 116.421 59.4678 115.921 58.0303 115.921C56.624 115.921 55.4209 116.421 54.4209 117.421C53.4209 118.39 52.9209 119.593 52.9209 121.03C52.9209 122.437 53.4209 123.64 54.4209 124.64C55.4209 125.64 56.624 126.14 58.0303 126.14ZM90.5146 184.077C94.1396 184.077 97.374 183.468 100.218 182.249C103.093 180.999 105.343 179.28 106.968 177.093C108.624 174.905 109.452 172.39 109.452 169.546V169.499C109.452 166.03 108.452 163.265 106.452 161.202C104.452 159.108 100.983 157.468 96.0459 156.28L88.3115 154.405C86.5303 153.968 85.0771 153.421 83.9521 152.765C82.8271 152.108 81.999 151.343 81.4678 150.468C80.9678 149.562 80.7178 148.562 80.7178 147.468V147.421C80.7178 145.983 81.0928 144.733 81.8428 143.671C82.624 142.577 83.7334 141.733 85.1709 141.14C86.6084 140.546 88.3115 140.249 90.2803 140.249C93.3115 140.249 95.7021 140.968 97.4521 142.405C99.2334 143.843 100.28 145.749 100.593 148.124L100.64 148.452H108.421L108.374 147.843C108.187 145.124 107.327 142.687 105.796 140.53C104.296 138.343 102.218 136.624 99.5615 135.374C96.9365 134.093 93.8428 133.452 90.2803 133.452C86.7803 133.452 83.6709 134.062 80.9521 135.28C78.2646 136.499 76.1553 138.187 74.624 140.343C73.124 142.499 72.374 144.983 72.374 147.796V147.843C72.374 150.187 72.874 152.233 73.874 153.983C74.874 155.733 76.374 157.218 78.374 158.437C80.4053 159.624 82.9521 160.593 86.0146 161.343L93.749 163.218C96.5303 163.905 98.4521 164.78 99.5146 165.843C100.577 166.905 101.108 168.312 101.108 170.062V170.108C101.108 171.577 100.687 172.858 99.8428 173.952C98.999 175.015 97.7959 175.843 96.2334 176.437C94.6709 176.999 92.7803 177.28 90.5615 177.28C87.249 177.28 84.6709 176.608 82.8271 175.265C80.9834 173.89 79.8115 171.983 79.3115 169.546L79.2178 169.077H71.0615L71.1084 169.499C71.4521 172.405 72.4209 174.952 74.0146 177.14C75.6396 179.327 77.8428 181.03 80.624 182.249C83.4053 183.468 86.7021 184.077 90.5146 184.077Z" fill="white"/>
</svg>
