<svg width="81" height="528" viewBox="0 0 81 528" fill="none" xmlns="http://www.w3.org/2000/svg">
<path d="M80.1477 459.005H0.389648L0.389648 467.763H80.1477V459.005Z" fill="white" stroke="black" stroke-width="0.75" stroke-miterlimit="10"/>
<path d="M80.1477 459.005H0.389648L0.389648 467.763H80.1477V459.005Z" fill="white" stroke="black" stroke-width="0.75" stroke-miterlimit="10"/>
<path d="M80.1477 467.763H0.389648L0.389648 476.521H80.1477V467.763Z" fill="white" stroke="black" stroke-width="0.75" stroke-miterlimit="10"/>
<path d="M80.1477 476.533H0.389648L0.389648 485.291H80.1477V476.533Z" fill="white" stroke="black" stroke-width="0.75" stroke-miterlimit="10"/>
<path d="M0.389648 485.292H80.1477V521.178C80.1477 524.592 77.3761 527.363 73.9611 527.363H6.57628C3.16126 527.363 0.389648 524.592 0.389648 521.178L0.389648 485.292V485.292Z" fill="#FF0400" stroke="black" stroke-width="0.75" stroke-miterlimit="10"/>
<path d="M76.6958 85.5315C74.2582 82.8595 70.7566 81.1771 66.859 81.1771C59.5093 81.1771 53.5577 87.1273 53.5577 94.4629C53.5577 87.1273 47.6062 81.1771 40.2689 81.1771C32.9315 81.1771 26.98 87.1273 26.98 94.4629C26.98 87.1273 21.0284 81.1771 13.6787 81.1771C10.1523 81.1771 6.93524 82.5502 4.55957 84.814L31.2858 22.9375H49.6478L76.6958 85.5315Z" fill="white" stroke="black" stroke-width="0.75"/>
<path d="M53.5573 94.462L53.5573 459.004H26.9795L26.9795 94.462C26.9795 87.1264 32.931 81.1763 40.2684 81.1763C47.6057 81.1763 53.5573 87.1264 53.5573 94.462Z" fill="#0066FF" stroke="black" stroke-width="0.75"/>
<path d="M80.1478 94.462L80.1478 459.004H53.5576L53.5576 94.462C53.5576 87.1264 59.5092 81.1763 66.8589 81.1763C70.7565 81.1763 74.2581 82.8586 76.6957 85.5306L80.0983 93.4106C80.0983 93.4106 80.1107 93.4229 80.0983 93.4353C80.1354 93.7693 80.1478 94.1157 80.1478 94.462Z" fill="#FF5C00" stroke="black" stroke-width="0.75"/>
<path d="M26.9798 94.462L26.9798 459.004H0.389648L0.389648 94.462L4.55944 84.8131C6.9351 82.5494 10.1522 81.1763 13.6786 81.1763C21.0283 81.1763 26.9798 87.1264 26.9798 94.462Z" fill="#FFD600" stroke="black" stroke-width="0.75"/>
<path d="M49.6481 22.9373H31.2861L40.4671 1.68506L49.6481 22.9373Z" fill="black" stroke="black" stroke-width="0.75"/>
</svg>
