<svg width="81" height="528" viewBox="0 0 81 528" fill="none" xmlns="http://www.w3.org/2000/svg">
<path d="M80.2786 459.013H0.520508V467.771H80.2786V459.013Z" fill="black" stroke="black" stroke-width="0.75" stroke-miterlimit="10"/>
<path d="M80.2786 459.013H0.520508V467.771H80.2786V459.013Z" fill="black" stroke="black" stroke-width="0.75" stroke-miterlimit="10"/>
<path d="M80.2786 467.771H0.520508V476.529H80.2786V467.771Z" fill="black" stroke="black" stroke-width="0.75" stroke-miterlimit="10"/>
<path d="M80.2786 476.541H0.520508V485.299H80.2786V476.541Z" fill="black" stroke="black" stroke-width="0.75" stroke-miterlimit="10"/>
<path d="M0.520508 485.299H80.2786V521.186C80.2786 524.6 77.507 527.371 74.092 527.371H6.70714C3.29212 527.371 0.520508 524.6 0.520508 521.186V485.299V485.299Z" fill="black" stroke="black" stroke-width="0.75" stroke-miterlimit="10"/>
<path d="M76.8266 85.5393C74.3891 82.8673 70.8874 81.185 66.9899 81.185C59.6401 81.185 53.6886 87.1351 53.6886 94.4707C53.6886 87.1351 47.7371 81.185 40.3997 81.185C33.0624 81.185 27.1108 87.1351 27.1108 94.4707C27.1108 87.1351 21.1593 81.185 13.8096 81.185C10.2832 81.185 7.0661 82.5581 4.69043 84.8218L31.4167 22.9453H49.7787L76.8266 85.5393Z" fill="black" stroke="black" stroke-width="0.75"/>
<path d="M53.6881 94.4698V459.012H27.1104V94.4698C27.1104 87.1342 33.0619 81.1841 40.3992 81.1841C47.7366 81.1841 53.6881 87.1342 53.6881 94.4698Z" fill="black" stroke="black" stroke-width="0.75"/>
<path d="M80.2786 94.4698V459.012H53.6885V94.4698C53.6885 87.1342 59.64 81.1841 66.9897 81.1841C70.8873 81.1841 74.389 82.8664 76.8265 85.5384L80.2292 93.4184C80.2292 93.4184 80.2415 93.4307 80.2292 93.4431C80.2663 93.7771 80.2786 94.1235 80.2786 94.4698Z" fill="black" stroke="black" stroke-width="0.75"/>
<path d="M27.1107 94.4698V459.012H0.520508V94.4698L4.69029 84.821C7.06596 82.5572 10.283 81.1841 13.8094 81.1841C21.1592 81.1841 27.1107 87.1342 27.1107 94.4698Z" fill="black" stroke="black" stroke-width="0.75"/>
<path d="M49.779 22.9451H31.417L40.5979 1.69287L49.779 22.9451Z" fill="black" stroke="black" stroke-width="0.75"/>
<path d="M12.6719 351.406C12.6719 353.146 13.0052 354.641 13.6719 355.891C14.349 357.151 15.2969 358.125 16.5156 358.813C17.7448 359.5 19.1823 359.844 20.8281 359.844H35.5469V358.609H20.875C19.4375 358.609 18.1875 358.318 17.125 357.734C16.0729 357.161 15.2552 356.333 14.6719 355.25C14.099 354.177 13.8125 352.896 13.8125 351.406C13.8125 349.927 14.099 348.651 14.6719 347.578C15.2552 346.505 16.0729 345.677 17.125 345.094C18.1875 344.51 19.4375 344.219 20.875 344.219H35.5469V343H20.8281C19.1823 343 17.75 343.339 16.5312 344.016C15.3125 344.693 14.3646 345.661 13.6875 346.922C13.0104 348.182 12.6719 349.677 12.6719 351.406ZM12.7344 368.891C12.7344 370.047 12.9271 371.068 13.3125 371.953C13.6979 372.839 14.2292 373.531 14.9062 374.031C15.5937 374.542 16.3802 374.797 17.2656 374.797H17.2812C18.4062 374.797 19.2969 374.448 19.9531 373.75C20.6198 373.052 21.1406 371.906 21.5156 370.313L22.0469 368.031C22.2552 367.167 22.4948 366.464 22.7656 365.922C23.0469 365.391 23.3802 365 23.7656 364.75C24.151 364.51 24.6042 364.391 25.125 364.391H25.1406C25.776 364.391 26.3437 364.573 26.8437 364.938C27.3542 365.302 27.75 365.807 28.0312 366.453C28.3229 367.109 28.4687 367.854 28.4687 368.688C28.4687 370 28.1198 371.068 27.4219 371.891C26.7344 372.714 25.8177 373.203 24.6719 373.359L24.5625 373.375V374.547L24.7031 374.531C25.6719 374.427 26.5156 374.12 27.2344 373.609C27.9531 373.109 28.5104 372.443 28.9062 371.609C29.3125 370.776 29.5156 369.802 29.5156 368.688C29.5156 367.625 29.3281 366.677 28.9531 365.844C28.5781 365.01 28.0573 364.354 27.3906 363.875C26.7344 363.406 25.974 363.172 25.1094 363.172H25.0937C24.3854 363.172 23.7708 363.328 23.25 363.641C22.7292 363.964 22.2812 364.458 21.9062 365.125C21.5417 365.802 21.2344 366.651 20.9844 367.672L20.4531 369.953C20.151 371.266 19.75 372.198 19.25 372.75C18.7604 373.302 18.0833 373.578 17.2187 373.578H17.2031C16.5365 373.578 15.9427 373.38 15.4219 372.984C14.901 372.589 14.4948 372.036 14.2031 371.328C13.9219 370.63 13.7812 369.813 13.7812 368.875C13.7812 367.5 14.1302 366.359 14.8281 365.453C15.5365 364.547 16.4427 364.016 17.5469 363.859L17.6875 363.844V362.641L17.5469 362.656C16.6094 362.76 15.776 363.083 15.0469 363.625C14.3281 364.177 13.7604 364.901 13.3437 365.797C12.9375 366.693 12.7344 367.724 12.7344 368.891ZM12.7344 383.922C12.7344 384.786 12.8437 385.583 13.0625 386.313C13.2917 387.052 13.6146 387.708 14.0312 388.281C14.4479 388.854 14.9479 389.328 15.5312 389.703C16.125 390.089 16.7865 390.365 17.5156 390.531L17.6562 390.563L17.6562 389.344L17.5312 389.313C16.7708 389.104 16.1094 388.755 15.5469 388.266C14.9948 387.786 14.5677 387.182 14.2656 386.453C13.974 385.724 13.8281 384.885 13.8281 383.938C13.8281 382.729 14.1094 381.667 14.6719 380.75C15.2344 379.844 16.0573 379.135 17.1406 378.625C18.224 378.125 19.5469 377.875 21.1094 377.875H21.5156C22.9323 377.875 24.1562 378.125 25.1875 378.625C26.2187 379.125 27.0156 379.813 27.5781 380.688C28.1406 381.573 28.4219 382.589 28.4219 383.734C28.4219 384.88 28.1406 385.891 27.5781 386.766C27.026 387.651 26.2344 388.339 25.2031 388.828C24.1719 389.328 22.9427 389.578 21.5156 389.578H21.1094L21.9375 390.203V377.266H20.9219L20.9219 390.766H21.5C23.125 390.766 24.5365 390.469 25.7344 389.875C26.9323 389.292 27.8594 388.474 28.5156 387.422C29.1823 386.37 29.5156 385.141 29.5156 383.734C29.5156 382.339 29.1771 381.109 28.5 380.047C27.8229 378.984 26.8542 378.156 25.5937 377.563C24.3437 376.969 22.8542 376.672 21.125 376.672H21.1094C19.3802 376.672 17.8854 376.969 16.625 377.563C15.375 378.167 14.4115 379.01 13.7344 380.094C13.0677 381.177 12.7344 382.453 12.7344 383.922ZM13 393.547V394.75H23.1094C24.1406 394.75 25.0521 394.917 25.8437 395.25C26.6458 395.583 27.2656 396.063 27.7031 396.688C28.151 397.313 28.375 398.052 28.375 398.906C28.375 399.292 28.3385 399.625 28.2656 399.906C28.2031 400.188 28.1302 400.411 28.0469 400.578H29.25C29.3125 400.432 29.3698 400.224 29.4219 399.953C29.4844 399.682 29.5156 399.385 29.5156 399.063C29.5156 397.99 29.2135 397.089 28.6094 396.359C28.0156 395.63 27.1823 395.109 26.1094 394.797V394.75H29.25V393.547H13ZM13 409.563V410.781H35.5469V409.563H13ZM13 414.578V415.781H22.7031C23.8385 415.781 24.8333 416.005 25.6875 416.453C26.5417 416.901 27.2083 417.526 27.6875 418.328C28.1667 419.141 28.4062 420.083 28.4062 421.156C28.4062 422.708 27.9531 423.922 27.0469 424.797C26.1406 425.672 24.8177 426.109 23.0781 426.109H13V427.313H23.2187C25.2083 427.313 26.75 426.786 27.8437 425.734C28.9479 424.693 29.5 423.26 29.5 421.438C29.5 420.021 29.1562 418.823 28.4687 417.844C27.7812 416.875 26.9167 416.203 25.875 415.828V415.781H29.25L29.25 414.578H13ZM12.7344 435.078C12.7344 435.307 12.7448 435.526 12.7656 435.734C12.7865 435.953 12.8177 436.135 12.8594 436.281H13.8594C13.8385 436.167 13.8177 436.021 13.7969 435.844C13.7865 435.677 13.7812 435.49 13.7812 435.281C13.7812 434.479 13.9844 433.885 14.3906 433.5C14.8073 433.115 15.4896 432.922 16.4375 432.922H28.2031V436.281H29.25V432.922H33.6406V431.703H29.25V429.281H28.2031V431.703H16.375C15.1354 431.703 14.2187 431.979 13.625 432.531C13.0312 433.094 12.7344 433.943 12.7344 435.078ZM12.7344 444.922C12.7344 445.786 12.8437 446.583 13.0625 447.313C13.2917 448.052 13.6146 448.708 14.0312 449.281C14.4479 449.854 14.9479 450.328 15.5312 450.703C16.125 451.089 16.7865 451.365 17.5156 451.531L17.6562 451.563V450.344L17.5312 450.313C16.7708 450.104 16.1094 449.755 15.5469 449.266C14.9948 448.786 14.5677 448.182 14.2656 447.453C13.974 446.724 13.8281 445.885 13.8281 444.938C13.8281 443.729 14.1094 442.667 14.6719 441.75C15.2344 440.844 16.0573 440.135 17.1406 439.625C18.224 439.125 19.5469 438.875 21.1094 438.875H21.5156C22.9323 438.875 24.1562 439.125 25.1875 439.625C26.2187 440.125 27.0156 440.813 27.5781 441.688C28.1406 442.573 28.4219 443.589 28.4219 444.734C28.4219 445.88 28.1406 446.891 27.5781 447.766C27.026 448.651 26.2344 449.339 25.2031 449.828C24.1719 450.328 22.9427 450.578 21.5156 450.578H21.1094L21.9375 451.203V438.266H20.9219V451.766H21.5C23.125 451.766 24.5365 451.469 25.7344 450.875C26.9323 450.292 27.8594 449.474 28.5156 448.422C29.1823 447.37 29.5156 446.141 29.5156 444.734C29.5156 443.339 29.1771 442.109 28.5 441.047C27.8229 439.984 26.8542 439.156 25.5937 438.563C24.3437 437.969 22.8542 437.672 21.125 437.672H21.1094C19.3802 437.672 17.8854 437.969 16.625 438.563C15.375 439.167 14.4115 440.01 13.7344 441.094C13.0677 442.177 12.7344 443.453 12.7344 444.922ZM13 454.547V455.75H23.1094C24.1406 455.75 25.0521 455.917 25.8437 456.25C26.6458 456.583 27.2656 457.063 27.7031 457.688C28.151 458.313 28.375 459.052 28.375 459.906C28.375 460.292 28.3385 460.625 28.2656 460.906C28.2031 461.188 28.1302 461.411 28.0469 461.578H29.25C29.3125 461.432 29.3698 461.224 29.4219 460.953C29.4844 460.682 29.5156 460.385 29.5156 460.063C29.5156 458.99 29.2135 458.089 28.6094 457.359C28.0156 456.63 27.1823 456.109 26.1094 455.797V455.75H29.25V454.547H13ZM13 465.188V466.391H28.2031V470.094H29.25V466.375H31.875C32.9167 466.375 33.6562 466.615 34.0937 467.094C34.5417 467.573 34.7656 468.229 34.7656 469.063C34.7656 469.281 34.7552 469.49 34.7344 469.688C34.724 469.885 34.6979 470.068 34.6562 470.234H35.6875C35.7187 470.089 35.7448 469.896 35.7656 469.656C35.7969 469.427 35.8125 469.182 35.8125 468.922C35.8125 468.141 35.6771 467.469 35.4062 466.906C35.1354 466.354 34.7135 465.927 34.1406 465.625C33.5781 465.333 32.849 465.188 31.9531 465.188H29.25L29.25 462.922H28.2031L28.2031 465.188H13ZM12.7344 476.094C12.7344 477 12.8906 477.854 13.2031 478.656C13.5156 479.458 13.9479 480.151 14.5 480.734C15.0625 481.328 15.7031 481.76 16.4219 482.031V482.078H13V483.266H23.9844C25.1198 483.266 26.099 483.031 26.9219 482.563C27.7552 482.094 28.3958 481.427 28.8437 480.563C29.2917 479.698 29.5156 478.672 29.5156 477.484C29.5156 476.339 29.3229 475.323 28.9375 474.438C28.5625 473.563 28.0208 472.859 27.3125 472.328C26.6042 471.797 25.75 471.464 24.75 471.328L24.5625 471.297V472.453L24.7344 472.484C25.9219 472.693 26.8333 473.234 27.4687 474.109C28.1042 474.984 28.4219 476.109 28.4219 477.484C28.4219 478.922 28.0208 480.047 27.2187 480.859C26.4167 481.672 25.3073 482.078 23.8906 482.078H19.0312C18.0625 482.078 17.1823 481.813 16.3906 481.281C15.599 480.76 14.9687 480.063 14.5 479.188C14.0417 478.313 13.8125 477.339 13.8125 476.266C13.8125 475.005 14.1458 473.969 14.8125 473.156C15.4792 472.344 16.3333 471.938 17.375 471.938H17.3906C18.474 471.938 19.3229 472.344 19.9375 473.156C20.5625 473.969 20.9323 475.13 21.0469 476.641L21.5 482.672H22.4844L22.0312 476.469C21.9479 475.229 21.7135 474.182 21.3281 473.328C20.9427 472.474 20.4219 471.823 19.7656 471.375C19.1094 470.938 18.3177 470.719 17.3906 470.719H17.375C16.4583 470.719 15.651 470.948 14.9531 471.406C14.2552 471.865 13.7083 472.495 13.3125 473.297C12.9271 474.109 12.7344 475.042 12.7344 476.094ZM12.7344 493.141C12.7344 494.276 12.9427 495.292 13.3594 496.188C13.7865 497.094 14.3698 497.839 15.1094 498.422C15.8594 499.016 16.724 499.401 17.7031 499.578L17.8437 499.609V498.406L17.7031 498.375C16.5365 498.115 15.599 497.51 14.8906 496.563C14.1823 495.625 13.8281 494.484 13.8281 493.141C13.8281 491.943 14.1198 490.891 14.7031 489.984C15.2969 489.089 16.1406 488.396 17.2344 487.906C18.3281 487.417 19.625 487.172 21.125 487.172H21.1406C22.6302 487.172 23.9167 487.417 25 487.906C26.0937 488.396 26.9375 489.083 27.5312 489.969C28.125 490.865 28.4219 491.917 28.4219 493.125C28.4219 494.5 28.0573 495.656 27.3281 496.594C26.6094 497.542 25.6823 498.141 24.5469 498.391L24.4062 498.422V499.625L24.5625 499.594C25.5 499.427 26.3437 499.052 27.0937 498.469C27.8437 497.885 28.4323 497.135 28.8594 496.219C29.2969 495.313 29.5156 494.281 29.5156 493.125C29.5156 491.677 29.1719 490.411 28.4844 489.328C27.8073 488.255 26.8385 487.422 25.5781 486.828C24.3281 486.245 22.849 485.953 21.1406 485.953H21.125C19.4167 485.953 17.9323 486.245 16.6719 486.828C15.4115 487.422 14.4375 488.255 13.75 489.328C13.0729 490.401 12.7344 491.672 12.7344 493.141ZM12.7344 508.734C12.7344 509.599 12.8437 510.396 13.0625 511.125C13.2917 511.865 13.6146 512.521 14.0312 513.094C14.4479 513.667 14.9479 514.141 15.5312 514.516C16.125 514.901 16.7865 515.177 17.5156 515.344L17.6562 515.375V514.156L17.5312 514.125C16.7708 513.917 16.1094 513.568 15.5469 513.078C14.9948 512.599 14.5677 511.995 14.2656 511.266C13.974 510.536 13.8281 509.698 13.8281 508.75C13.8281 507.542 14.1094 506.479 14.6719 505.563C15.2344 504.656 16.0573 503.948 17.1406 503.438C18.224 502.938 19.5469 502.688 21.1094 502.688H21.5156C22.9323 502.688 24.1562 502.938 25.1875 503.438C26.2187 503.938 27.0156 504.625 27.5781 505.5C28.1406 506.385 28.4219 507.401 28.4219 508.547C28.4219 509.693 28.1406 510.703 27.5781 511.578C27.026 512.464 26.2344 513.151 25.2031 513.641C24.1719 514.141 22.9427 514.391 21.5156 514.391H21.1094L21.9375 515.016V502.078H20.9219V515.578H21.5C23.125 515.578 24.5365 515.281 25.7344 514.688C26.9323 514.104 27.8594 513.286 28.5156 512.234C29.1823 511.182 29.5156 509.953 29.5156 508.547C29.5156 507.151 29.1771 505.922 28.5 504.859C27.8229 503.797 26.8542 502.969 25.5937 502.375C24.3437 501.781 22.8542 501.484 21.125 501.484H21.1094C19.3802 501.484 17.8854 501.781 16.625 502.375C15.375 502.979 14.4115 503.823 13.7344 504.906C13.0677 505.99 12.7344 507.266 12.7344 508.734Z" fill="white"/>
</svg>
