<svg width="114" height="70" viewBox="0 0 114 70" fill="none" xmlns="http://www.w3.org/2000/svg">
<path d="M14.6221 0.67041L0.325195 68.311H26.5752C31.9814 68.311 36.9033 67.3423 41.3408 65.4048C45.8096 63.4673 49.6533 60.7173 52.8721 57.1548C56.0908 53.5923 58.5752 49.3735 60.3252 44.4985C62.1064 39.5923 62.9971 34.1704 62.9971 28.2329C62.9971 22.4517 61.8564 17.5142 59.5752 13.4204C57.2939 9.29541 54.0127 6.13916 49.7314 3.95166C45.4502 1.76416 40.3096 0.67041 34.3096 0.67041H14.6221ZM21.6533 8.17041H32.8564C37.5752 8.17041 41.5127 8.96729 44.6689 10.561C47.8564 12.1235 50.2471 14.4673 51.8408 17.5923C53.4658 20.7173 54.2783 24.6079 54.2783 29.2642C54.2783 33.8579 53.5752 38.0767 52.1689 41.9204C50.7939 45.7642 48.8252 49.1079 46.2627 51.9517C43.7314 54.7642 40.7314 56.9517 37.2627 58.5142C33.8252 60.0454 30.0439 60.811 25.9189 60.811H10.4502L21.6533 8.17041ZM88.5439 61.9829C84.8252 61.9829 81.8564 60.6704 79.6377 58.0454C77.4502 55.3892 76.3564 51.8735 76.3564 47.4985C76.3564 43.4048 77.0752 39.7329 78.5127 36.4829C79.9502 33.2017 81.9346 30.6235 84.4658 28.7485C86.9971 26.8423 89.8721 25.8892 93.0908 25.8892C96.8096 25.8892 99.7627 27.2173 101.95 29.8735C104.169 32.4985 105.278 35.9985 105.278 40.3735C105.278 44.4673 104.56 48.1548 103.122 51.436C101.685 54.686 99.7002 57.2642 97.1689 59.1704C94.6689 61.0454 91.7939 61.9829 88.5439 61.9829ZM93.0908 18.7173C89.5283 18.7173 86.2314 19.4673 83.2002 20.9673C80.1689 22.436 77.5283 24.4985 75.2783 27.1548C73.0283 29.7798 71.2627 32.8579 69.9814 36.3892C68.7314 39.8892 68.1064 43.6704 68.1064 47.7329C68.1064 52.0454 68.9346 55.811 70.5908 59.0298C72.2783 62.2173 74.6533 64.7017 77.7158 66.4829C80.7783 68.2642 84.3877 69.1548 88.5439 69.1548C92.1064 69.1548 95.4033 68.4204 98.4346 66.9517C101.466 65.4517 104.106 63.3892 106.356 60.7642C108.606 58.1079 110.356 55.0298 111.606 51.5298C112.888 47.9985 113.528 44.2017 113.528 40.1392C113.528 35.8267 112.685 32.061 110.997 28.8423C109.341 25.6235 106.981 23.1392 103.919 21.3892C100.856 19.6079 97.2471 18.7173 93.0908 18.7173Z" fill="black"/>
</svg>
