<svg width="232" height="70" viewBox="0 0 232 70" fill="none" xmlns="http://www.w3.org/2000/svg">
<path d="M9.46191 68.4883L14.3838 45.332L24.4619 36.4727L42.8369 68.4883H52.6807L31.1182 31.2227L64.5869 0.847656H53.4307L17.0557 33.707H16.8682L23.8525 0.847656H15.2275L0.836914 68.4883H9.46191ZM58.5869 68.4883H66.79L73.0244 39.2383C73.6182 36.5508 74.6182 34.2227 76.0244 32.2539C77.4307 30.2852 79.1338 28.7695 81.1338 27.707C83.1338 26.6445 85.3057 26.1133 87.6494 26.1133C90.7744 26.1133 93.2744 26.957 95.1494 28.6445C97.0557 30.3008 98.0088 32.5977 98.0088 35.5352C98.0088 36.1602 97.9619 36.9102 97.8682 37.7852C97.7744 38.6602 97.6182 39.5977 97.3994 40.5977L91.4463 68.4883H99.6494L105.884 39.1914C106.103 38.1602 106.259 37.1289 106.353 36.0977C106.478 35.0352 106.54 34.082 106.54 33.2383C106.54 30.457 105.853 27.9883 104.478 25.832C103.134 23.6758 101.29 21.9883 98.9463 20.7695C96.6025 19.5195 93.9775 18.8945 91.0713 18.8945C87.54 18.8945 84.4307 19.6602 81.7432 21.1914C79.0869 22.6914 76.9463 24.7383 75.3213 27.332H75.1338L76.7275 19.7383H68.9463L58.5869 68.4883ZM133.212 62.1602C129.493 62.1602 126.524 60.8477 124.306 58.2227C122.118 55.5664 121.024 52.0508 121.024 47.6758C121.024 43.582 121.743 39.9102 123.181 36.6602C124.618 33.3789 126.603 30.8008 129.134 28.9258C131.665 27.0195 134.54 26.0664 137.759 26.0664C141.478 26.0664 144.431 27.3945 146.618 30.0508C148.837 32.6758 149.946 36.1758 149.946 40.5508C149.946 44.6445 149.228 48.332 147.79 51.6133C146.353 54.8633 144.368 57.4414 141.837 59.3477C139.337 61.2227 136.462 62.1602 133.212 62.1602ZM137.759 18.8945C134.196 18.8945 130.899 19.6445 127.868 21.1445C124.837 22.6133 122.196 24.6758 119.946 27.332C117.696 29.957 115.931 33.0352 114.649 36.5664C113.399 40.0664 112.774 43.8477 112.774 47.9102C112.774 52.2227 113.603 55.9883 115.259 59.207C116.946 62.3945 119.321 64.8789 122.384 66.6602C125.446 68.4414 129.056 69.332 133.212 69.332C136.774 69.332 140.071 68.5977 143.103 67.1289C146.134 65.6289 148.774 63.5664 151.024 60.9414C153.274 58.2852 155.024 55.207 156.274 51.707C157.556 48.1758 158.196 44.3789 158.196 40.3164C158.196 36.0039 157.353 32.2383 155.665 29.0195C154.009 25.8008 151.649 23.3164 148.587 21.5664C145.524 19.7852 141.915 18.8945 137.759 18.8945ZM231.274 19.7383H223.212L205.024 59.1133H204.837L202.212 19.7383H194.149L175.353 59.1133H175.212L173.009 19.7383H165.649L168.931 68.4883H177.649L196.071 30.6133H196.259L199.118 68.4883H207.556L231.274 19.7383Z" fill="black"/>
</svg>
