<svg width="143" height="69" viewBox="0 0 143 69" fill="none" xmlns="http://www.w3.org/2000/svg">
<path d="M19.126 67.6479L25.0322 39.3354L57.3291 0.00732422H47.5791L22.4541 30.8511H22.2666L9.79785 0.00732422H0.891602L16.6416 38.1167L10.4541 67.6479H19.126ZM63.376 61.3198C59.6572 61.3198 56.6885 60.0073 54.4697 57.3823C52.2822 54.7261 51.1885 51.2104 51.1885 46.8354C51.1885 42.7417 51.9072 39.0698 53.3447 35.8198C54.7822 32.5386 56.7666 29.9604 59.2979 28.0854C61.8291 26.1792 64.7041 25.2261 67.9229 25.2261C71.6416 25.2261 74.5947 26.5542 76.7822 29.2104C79.001 31.8354 80.1104 35.3354 80.1104 39.7104C80.1104 43.8042 79.3916 47.4917 77.9541 50.7729C76.5166 54.0229 74.5322 56.6011 72.001 58.5073C69.501 60.3823 66.626 61.3198 63.376 61.3198ZM67.9229 18.0542C64.3604 18.0542 61.0635 18.8042 58.0322 20.3042C55.001 21.7729 52.3604 23.8354 50.1104 26.4917C47.8604 29.1167 46.0947 32.1948 44.8135 35.7261C43.5635 39.2261 42.9385 43.0073 42.9385 47.0698C42.9385 51.3823 43.7666 55.1479 45.4229 58.3667C47.1104 61.5542 49.4854 64.0386 52.5479 65.8198C55.6104 67.6011 59.2197 68.4917 63.376 68.4917C66.9385 68.4917 70.2354 67.7573 73.2666 66.2886C76.2979 64.7886 78.9385 62.7261 81.1885 60.1011C83.4385 57.4448 85.1885 54.3667 86.4385 50.8667C87.7197 47.3354 88.3604 43.5386 88.3604 39.4761C88.3604 35.1636 87.5166 31.3979 85.8291 28.1792C84.1729 24.9604 81.8135 22.4761 78.751 20.7261C75.6885 18.9448 72.0791 18.0542 67.9229 18.0542ZM142.501 18.8979H134.345L128.11 48.1479C127.579 50.6792 126.595 52.9448 125.157 54.9448C123.751 56.9136 122.001 58.4604 119.907 59.5854C117.813 60.7104 115.47 61.2729 112.876 61.2729C109.595 61.2729 107.142 60.5542 105.517 59.1167C103.923 57.6479 103.126 55.3823 103.126 52.3198C103.126 51.7573 103.188 50.9136 103.313 49.7886C103.438 48.6636 103.595 47.6636 103.782 46.7886L109.735 18.8979H101.485L95.3916 47.9604C95.1729 48.9604 95.001 50.1323 94.876 51.4761C94.751 52.7886 94.6885 53.9292 94.6885 54.8979C94.6885 57.3979 95.2822 59.6792 96.4697 61.7417C97.6885 63.8042 99.4229 65.4448 101.673 66.6636C103.923 67.8823 106.595 68.4917 109.688 68.4917C112.188 68.4917 114.501 68.1011 116.626 67.3198C118.751 66.5386 120.595 65.5542 122.157 64.3667C123.751 63.1792 124.938 61.9917 125.72 60.8042H125.907L124.36 67.6479H132.142L142.501 18.8979Z" fill="black"/>
</svg>
