<svg width="516" height="55" viewBox="0 0 516 55" fill="none" xmlns="http://www.w3.org/2000/svg">
<rect x="0.239312" y="0.239312" width="514.617" height="53.9801" rx="4.54694" fill="#0066FF"/>
<path d="M22.1099 38.2295H29.2192C30.8234 38.2295 32.1932 37.9795 33.3286 37.4795C34.464 36.9691 35.3338 36.2451 35.938 35.3076C36.5526 34.3597 36.8599 33.2243 36.8599 31.9014V31.8701C36.8599 30.8701 36.6515 29.9795 36.2349 29.1982C35.8182 28.4066 35.2192 27.7607 34.438 27.2607C33.6567 26.7607 32.7244 26.4482 31.6411 26.3232V26.2607C32.4224 26.1462 33.1203 25.8493 33.7349 25.3701C34.3494 24.8805 34.8338 24.2816 35.188 23.5732C35.5422 22.8649 35.7192 22.1201 35.7192 21.3389V21.3076C35.7192 20.1826 35.4484 19.1982 34.9067 18.3545C34.3651 17.5107 33.6099 16.8545 32.6411 16.3857C31.6724 15.917 30.5422 15.6826 29.2505 15.6826H22.1099V18.167H28.6099C29.9744 18.167 31.0265 18.4639 31.7661 19.0576C32.5057 19.641 32.8755 20.4899 32.8755 21.6045V21.6357C32.8755 22.8545 32.4328 23.7868 31.5474 24.4326C30.6724 25.0785 29.4015 25.4014 27.7349 25.4014H22.1099V27.8232H28.5317C29.7297 27.8232 30.7297 27.9691 31.5317 28.2607C32.3442 28.5524 32.9536 28.9899 33.3599 29.5732C33.7661 30.1566 33.9692 30.8857 33.9692 31.7607V31.792C33.9692 33.0837 33.5265 34.068 32.6411 34.7451C31.7661 35.4118 30.4849 35.7451 28.7974 35.7451H22.1099V38.2295ZM20.7036 38.2295H23.5161V15.6826H20.7036V38.2295ZM39.6255 38.2295H42.3442V28.1982C42.3442 27.3753 42.4849 26.6722 42.7661 26.0889C43.0578 25.4951 43.464 25.042 43.9849 24.7295C44.5161 24.417 45.1307 24.2607 45.8286 24.2607C46.1619 24.2607 46.4588 24.2764 46.7192 24.3076C46.9901 24.3389 47.1776 24.3753 47.2817 24.417V21.7764C47.1776 21.7555 47.0265 21.7347 46.8286 21.7139C46.6411 21.6826 46.4276 21.667 46.188 21.667C45.2713 21.667 44.4797 21.943 43.813 22.4951C43.1463 23.0472 42.6776 23.792 42.4067 24.7295H42.3442V21.9795H39.6255V38.2295ZM55.4067 38.542C56.2922 38.542 57.1151 38.4222 57.8755 38.1826C58.6359 37.9326 59.313 37.5889 59.9067 37.1514C60.5005 36.7035 60.9849 36.1878 61.3599 35.6045C61.7453 35.0212 62.0057 34.3962 62.1411 33.7295L62.1724 33.5732H59.5005L59.4536 33.7139C59.2974 34.1826 59.0369 34.5993 58.6724 34.9639C58.3078 35.3285 57.8547 35.6149 57.313 35.8232C56.7713 36.0316 56.1567 36.1357 55.4692 36.1357C54.4901 36.1357 53.6411 35.9222 52.9224 35.4951C52.2036 35.0576 51.6463 34.4326 51.2505 33.6201C50.8651 32.8076 50.6724 31.8285 50.6724 30.6826V29.6357C50.6724 28.4274 50.8703 27.4118 51.2661 26.5889C51.6619 25.7555 52.2036 25.1305 52.8911 24.7139C53.5786 24.2868 54.3547 24.0732 55.2192 24.0732C56.0838 24.0732 56.8494 24.2764 57.5161 24.6826C58.1828 25.0785 58.7036 25.6878 59.0786 26.5107C59.464 27.3337 59.6567 28.3753 59.6567 29.6357V30.6826L61.0317 28.7139H49.2817V30.8389H62.3755V29.8389C62.3755 28.2139 62.089 26.7868 61.5161 25.5576C60.9432 24.3285 60.1203 23.3753 59.0474 22.6982C57.9849 22.0107 56.714 21.667 55.2349 21.667C53.7557 21.667 52.4692 22.0264 51.3755 22.7451C50.2817 23.4535 49.4328 24.4482 48.8286 25.7295C48.2244 27.0003 47.9224 28.4743 47.9224 30.1514V30.167C47.9224 31.8649 48.2192 33.3441 48.813 34.6045C49.4172 35.8545 50.2765 36.8232 51.3911 37.5107C52.5161 38.1982 53.8547 38.542 55.4067 38.542ZM69.8755 38.542C70.6047 38.542 71.2922 38.4222 71.938 38.1826C72.5942 37.9326 73.1828 37.5889 73.7036 37.1514C74.2244 36.7035 74.6411 36.1826 74.9536 35.5889H75.0161V38.2295H77.7349V26.9951C77.7349 25.9118 77.4797 24.9743 76.9692 24.1826C76.4588 23.3805 75.7349 22.7607 74.7974 22.3232C73.8703 21.8857 72.7661 21.667 71.4849 21.667C70.214 21.667 69.1151 21.8857 68.188 22.3232C67.2609 22.7503 66.5317 23.3285 66.0005 24.0576C65.4797 24.7868 65.1776 25.5993 65.0942 26.4951L65.0786 26.667H67.7036L67.7349 26.5264C67.8911 25.7972 68.2869 25.2087 68.9224 24.7607C69.5682 24.3024 70.4119 24.0732 71.4536 24.0732C72.589 24.0732 73.464 24.3597 74.0786 24.9326C74.7036 25.4951 75.0161 26.2712 75.0161 27.2607V32.0576C75.0161 32.8389 74.813 33.542 74.4067 34.167C74.0109 34.792 73.4692 35.2868 72.7817 35.6514C72.1047 36.0055 71.339 36.1826 70.4849 36.1826C69.5057 36.1826 68.7192 35.9535 68.1255 35.4951C67.5422 35.0368 67.2505 34.417 67.2505 33.6357V33.6045C67.2505 32.8441 67.5474 32.2347 68.1411 31.7764C68.7453 31.318 69.589 31.0576 70.6724 30.9951L76.3755 30.6514V28.542L70.3599 28.8857C68.4953 28.9899 67.0474 29.4587 66.0161 30.292C64.9849 31.1149 64.4692 32.2191 64.4692 33.6045V33.6357C64.4692 34.6149 64.6932 35.4743 65.1411 36.2139C65.5994 36.9535 66.2349 37.5264 67.0474 37.9326C67.8599 38.3389 68.8026 38.542 69.8755 38.542ZM87.2974 38.542C88.464 38.542 89.4849 38.2712 90.3599 37.7295C91.2453 37.1774 91.9432 36.4274 92.4536 35.4795H92.5161V38.2295H95.2349V15.6826H92.5161V24.6982H92.4536C91.9432 23.7607 91.2349 23.0212 90.3286 22.4795C89.4224 21.9378 88.3963 21.667 87.2505 21.667C85.8963 21.667 84.7036 22.016 83.6724 22.7139C82.6411 23.4014 81.8338 24.3753 81.2505 25.6357C80.6776 26.8962 80.3911 28.3805 80.3911 30.0889V30.1045C80.3911 31.8128 80.6776 33.3024 81.2505 34.5732C81.8234 35.8337 82.6255 36.8128 83.6567 37.5107C84.6984 38.1982 85.9119 38.542 87.2974 38.542ZM87.8286 36.1357C86.8703 36.1357 86.0422 35.8962 85.3442 35.417C84.6463 34.9274 84.1099 34.2295 83.7349 33.3232C83.3599 32.417 83.1724 31.3441 83.1724 30.1045V30.0889C83.1724 28.8493 83.3599 27.7816 83.7349 26.8857C84.1099 25.9899 84.6463 25.2972 85.3442 24.8076C86.0422 24.318 86.8703 24.0732 87.8286 24.0732C88.7453 24.0732 89.5526 24.3232 90.2505 24.8232C90.9588 25.3232 91.5161 26.0264 91.9224 26.9326C92.3286 27.8285 92.5317 28.8805 92.5317 30.0889V30.1045C92.5317 31.3128 92.3286 32.3701 91.9224 33.2764C91.5265 34.1826 90.9744 34.8857 90.2661 35.3857C89.5578 35.8857 88.7453 36.1357 87.8286 36.1357Z" fill="black"/>
<path d="M127.266 27.6201L111.797 21.6982V24.167L127.11 29.9014V28.3232L111.797 34.0576V36.4639L127.266 30.542V27.6201Z" fill="black"/>
<path d="M153.813 38.6045C155.386 38.6045 156.813 38.3128 158.095 37.7295C159.376 37.1462 160.444 36.3232 161.298 35.2607C162.152 34.1878 162.72 32.9326 163.001 31.4951L163.032 31.3389H160.188L160.142 31.4795C159.819 32.4691 159.36 33.3024 158.767 33.9795C158.173 34.6462 157.459 35.1514 156.626 35.4951C155.803 35.8389 154.866 36.0107 153.813 36.0107C152.324 36.0107 151.022 35.6357 149.907 34.8857C148.793 34.1357 147.928 33.0837 147.313 31.7295C146.709 30.3649 146.407 28.7712 146.407 26.9482V26.9326C146.407 25.0993 146.709 23.5107 147.313 22.167C147.928 20.8128 148.787 19.766 149.892 19.0264C151.006 18.2764 152.313 17.9014 153.813 17.9014C154.876 17.9014 155.824 18.0732 156.657 18.417C157.491 18.7607 158.194 19.2555 158.767 19.9014C159.35 20.5368 159.787 21.3128 160.079 22.2295L160.188 22.5732H163.032L163.001 22.417C162.72 20.9899 162.147 19.7451 161.282 18.6826C160.428 17.6201 159.36 16.792 158.079 16.1982C156.798 15.6045 155.376 15.3076 153.813 15.3076C151.72 15.3076 149.902 15.7868 148.36 16.7451C146.819 17.693 145.626 19.0368 144.782 20.7764C143.938 22.516 143.517 24.568 143.517 26.9326V26.9482C143.517 29.3128 143.938 31.3701 144.782 33.1201C145.626 34.8597 146.819 36.2087 148.36 37.167C149.912 38.1253 151.73 38.6045 153.813 38.6045ZM165.938 38.2295H168.657V28.1982C168.657 27.3753 168.798 26.6722 169.079 26.0889C169.371 25.4951 169.777 25.042 170.298 24.7295C170.829 24.417 171.444 24.2607 172.142 24.2607C172.475 24.2607 172.772 24.2764 173.032 24.3076C173.303 24.3389 173.491 24.3753 173.595 24.417V21.7764C173.491 21.7555 173.34 21.7347 173.142 21.7139C172.954 21.6826 172.741 21.667 172.501 21.667C171.584 21.667 170.793 21.943 170.126 22.4951C169.459 23.0472 168.991 23.792 168.72 24.7295H168.657V21.9795H165.938V38.2295ZM181.36 38.542C182.183 38.542 182.918 38.4274 183.563 38.1982C184.209 37.9691 184.761 37.6566 185.22 37.2607C185.688 36.8649 186.069 36.417 186.36 35.917H186.423V38.2295H189.142V21.9795H186.423V31.542C186.423 32.2295 186.324 32.8597 186.126 33.4326C185.928 33.9951 185.642 34.4795 185.267 34.8857C184.892 35.2816 184.444 35.5889 183.923 35.8076C183.412 36.0264 182.834 36.1357 182.188 36.1357C180.938 36.1357 180.001 35.7868 179.376 35.0889C178.761 34.3805 178.454 33.3649 178.454 32.042V21.9795H175.735V32.5264C175.735 33.7555 175.954 34.8232 176.392 35.7295C176.84 36.6253 177.48 37.318 178.313 37.8076C179.157 38.2972 180.173 38.542 181.36 38.542ZM192.688 38.2295H195.407V28.042C195.407 27.2816 195.569 26.6045 195.892 26.0107C196.215 25.417 196.652 24.9482 197.204 24.6045C197.767 24.2503 198.407 24.0732 199.126 24.0732C199.803 24.0732 200.386 24.2087 200.876 24.4795C201.376 24.7503 201.761 25.1305 202.032 25.6201C202.313 26.1097 202.454 26.6826 202.454 27.3389V38.2295H205.173V27.9014C205.173 27.1618 205.329 26.5055 205.642 25.9326C205.954 25.3493 206.386 24.8962 206.938 24.5732C207.491 24.2399 208.126 24.0732 208.845 24.0732C209.563 24.0732 210.173 24.2139 210.673 24.4951C211.173 24.7764 211.553 25.1826 211.813 25.7139C212.084 26.2451 212.22 26.8857 212.22 27.6357V38.2295H214.938V27.0107C214.938 25.9274 214.72 24.9899 214.282 24.1982C213.845 23.3962 213.23 22.7764 212.438 22.3389C211.647 21.891 210.715 21.667 209.642 21.667C208.881 21.667 208.168 21.792 207.501 22.042C206.845 22.292 206.261 22.6514 205.751 23.1201C205.251 23.5785 204.85 24.1357 204.548 24.792H204.485C204.256 24.1253 203.923 23.5628 203.485 23.1045C203.048 22.6357 202.527 22.2816 201.923 22.042C201.329 21.792 200.662 21.667 199.923 21.667C198.881 21.667 197.97 21.917 197.188 22.417C196.407 22.9066 195.834 23.5524 195.47 24.3545H195.407V21.9795H192.688V38.2295ZM226.485 38.542C227.871 38.542 229.079 38.1982 230.11 37.5107C231.152 36.8128 231.959 35.8337 232.532 34.5732C233.105 33.3024 233.392 31.8128 233.392 30.1045V30.0889C233.392 28.3805 233.1 26.8962 232.517 25.6357C231.944 24.3753 231.142 23.4014 230.11 22.7139C229.09 22.016 227.897 21.667 226.532 21.667C225.772 21.667 225.058 21.792 224.392 22.042C223.725 22.2816 223.131 22.6305 222.61 23.0889C222.1 23.5368 221.673 24.0732 221.329 24.6982H221.267V15.6826H218.548V38.2295H221.267V35.4795H221.329C221.673 36.1149 222.095 36.6618 222.595 37.1201C223.105 37.568 223.688 37.917 224.345 38.167C225.001 38.417 225.715 38.542 226.485 38.542ZM225.954 36.1357C225.037 36.1357 224.225 35.8857 223.517 35.3857C222.808 34.8857 222.251 34.1826 221.845 33.2764C221.449 32.3701 221.251 31.3128 221.251 30.1045V30.0889C221.251 28.8805 221.454 27.8285 221.86 26.9326C222.267 26.0264 222.819 25.3232 223.517 24.8232C224.225 24.3232 225.037 24.0732 225.954 24.0732C226.912 24.0732 227.741 24.318 228.438 24.8076C229.136 25.2972 229.673 25.9899 230.048 26.8857C230.423 27.7816 230.61 28.8493 230.61 30.0889V30.1045C230.61 31.3441 230.423 32.417 230.048 33.3232C229.673 34.2295 229.136 34.9274 228.438 35.417C227.741 35.8962 226.912 36.1357 225.954 36.1357Z" fill="black"/>
<path d="M264.954 27.6201L249.485 21.6982V24.167L264.798 29.9014V28.3232L249.485 34.0576V36.4639L264.954 30.542V27.6201Z" fill="black"/>
<path d="M283.486 38.2295H290.595C292.199 38.2295 293.569 37.9795 294.705 37.4795C295.84 36.9691 296.71 36.2451 297.314 35.3076C297.929 34.3597 298.236 33.2243 298.236 31.9014V31.8701C298.236 30.8701 298.028 29.9795 297.611 29.1982C297.194 28.4066 296.595 27.7607 295.814 27.2607C295.033 26.7607 294.1 26.4482 293.017 26.3232V26.2607C293.798 26.1462 294.496 25.8493 295.111 25.3701C295.725 24.8805 296.21 24.2816 296.564 23.5732C296.918 22.8649 297.095 22.1201 297.095 21.3389V21.3076C297.095 20.1826 296.824 19.1982 296.283 18.3545C295.741 17.5107 294.986 16.8545 294.017 16.3857C293.048 15.917 291.918 15.6826 290.626 15.6826H283.486V18.167H289.986C291.35 18.167 292.403 18.4639 293.142 19.0576C293.882 19.641 294.251 20.4899 294.251 21.6045V21.6357C294.251 22.8545 293.809 23.7868 292.923 24.4326C292.048 25.0785 290.778 25.4014 289.111 25.4014H283.486V27.8232H289.908C291.106 27.8232 292.106 27.9691 292.908 28.2607C293.72 28.5524 294.33 28.9899 294.736 29.5732C295.142 30.1566 295.345 30.8857 295.345 31.7607V31.792C295.345 33.0837 294.903 34.068 294.017 34.7451C293.142 35.4118 291.861 35.7451 290.173 35.7451H283.486V38.2295ZM282.08 38.2295H284.892V15.6826H282.08V38.2295ZM301.001 38.2295H303.72V28.1982C303.72 27.3753 303.861 26.6722 304.142 26.0889C304.434 25.4951 304.84 25.042 305.361 24.7295C305.892 24.417 306.507 24.2607 307.205 24.2607C307.538 24.2607 307.835 24.2764 308.095 24.3076C308.366 24.3389 308.554 24.3753 308.658 24.417V21.7764C308.554 21.7555 308.403 21.7347 308.205 21.7139C308.017 21.6826 307.804 21.667 307.564 21.667C306.647 21.667 305.856 21.943 305.189 22.4951C304.522 23.0472 304.054 23.792 303.783 24.7295H303.72V21.9795H301.001V38.2295ZM316.783 38.542C317.668 38.542 318.491 38.4222 319.251 38.1826C320.012 37.9326 320.689 37.5889 321.283 37.1514C321.876 36.7035 322.361 36.1878 322.736 35.6045C323.121 35.0212 323.382 34.3962 323.517 33.7295L323.548 33.5732H320.876L320.83 33.7139C320.673 34.1826 320.413 34.5993 320.048 34.9639C319.684 35.3285 319.231 35.6149 318.689 35.8232C318.147 36.0316 317.533 36.1357 316.845 36.1357C315.866 36.1357 315.017 35.9222 314.298 35.4951C313.58 35.0576 313.022 34.4326 312.626 33.6201C312.241 32.8076 312.048 31.8285 312.048 30.6826V29.6357C312.048 28.4274 312.246 27.4118 312.642 26.5889C313.038 25.7555 313.58 25.1305 314.267 24.7139C314.955 24.2868 315.731 24.0732 316.595 24.0732C317.46 24.0732 318.225 24.2764 318.892 24.6826C319.559 25.0785 320.08 25.6878 320.455 26.5107C320.84 27.3337 321.033 28.3753 321.033 29.6357V30.6826L322.408 28.7139H310.658V30.8389H323.751V29.8389C323.751 28.2139 323.465 26.7868 322.892 25.5576C322.319 24.3285 321.496 23.3753 320.423 22.6982C319.361 22.0107 318.09 21.667 316.611 21.667C315.132 21.667 313.845 22.0264 312.751 22.7451C311.658 23.4535 310.809 24.4482 310.205 25.7295C309.6 27.0003 309.298 28.4743 309.298 30.1514V30.167C309.298 31.8649 309.595 33.3441 310.189 34.6045C310.793 35.8545 311.653 36.8232 312.767 37.5107C313.892 38.1982 315.231 38.542 316.783 38.542ZM331.251 38.542C331.981 38.542 332.668 38.4222 333.314 38.1826C333.97 37.9326 334.559 37.5889 335.08 37.1514C335.6 36.7035 336.017 36.1826 336.33 35.5889H336.392V38.2295H339.111V26.9951C339.111 25.9118 338.856 24.9743 338.345 24.1826C337.835 23.3805 337.111 22.7607 336.173 22.3232C335.246 21.8857 334.142 21.667 332.861 21.667C331.59 21.667 330.491 21.8857 329.564 22.3232C328.637 22.7503 327.908 23.3285 327.376 24.0576C326.856 24.7868 326.554 25.5993 326.47 26.4951L326.455 26.667H329.08L329.111 26.5264C329.267 25.7972 329.663 25.2087 330.298 24.7607C330.944 24.3024 331.788 24.0732 332.83 24.0732C333.965 24.0732 334.84 24.3597 335.455 24.9326C336.08 25.4951 336.392 26.2712 336.392 27.2607V32.0576C336.392 32.8389 336.189 33.542 335.783 34.167C335.387 34.792 334.845 35.2868 334.158 35.6514C333.481 36.0055 332.715 36.1826 331.861 36.1826C330.882 36.1826 330.095 35.9535 329.501 35.4951C328.918 35.0368 328.626 34.417 328.626 33.6357V33.6045C328.626 32.8441 328.923 32.2347 329.517 31.7764C330.121 31.318 330.965 31.0576 332.048 30.9951L337.751 30.6514V28.542L331.736 28.8857C329.871 28.9899 328.423 29.4587 327.392 30.292C326.361 31.1149 325.845 32.2191 325.845 33.6045V33.6357C325.845 34.6149 326.069 35.4743 326.517 36.2139C326.975 36.9535 327.611 37.5264 328.423 37.9326C329.236 38.3389 330.179 38.542 331.251 38.542ZM348.673 38.542C349.84 38.542 350.861 38.2712 351.736 37.7295C352.621 37.1774 353.319 36.4274 353.83 35.4795H353.892V38.2295H356.611V15.6826H353.892V24.6982H353.83C353.319 23.7607 352.611 23.0212 351.705 22.4795C350.798 21.9378 349.772 21.667 348.626 21.667C347.272 21.667 346.08 22.016 345.048 22.7139C344.017 23.4014 343.21 24.3753 342.626 25.6357C342.054 26.8962 341.767 28.3805 341.767 30.0889V30.1045C341.767 31.8128 342.054 33.3024 342.626 34.5732C343.199 35.8337 344.001 36.8128 345.033 37.5107C346.074 38.1982 347.288 38.542 348.673 38.542ZM349.205 36.1357C348.246 36.1357 347.418 35.8962 346.72 35.417C346.022 34.9274 345.486 34.2295 345.111 33.3232C344.736 32.417 344.548 31.3441 344.548 30.1045V30.0889C344.548 28.8493 344.736 27.7816 345.111 26.8857C345.486 25.9899 346.022 25.2972 346.72 24.8076C347.418 24.318 348.246 24.0732 349.205 24.0732C350.121 24.0732 350.929 24.3232 351.626 24.8232C352.335 25.3232 352.892 26.0264 353.298 26.9326C353.705 27.8285 353.908 28.8805 353.908 30.0889V30.1045C353.908 31.3128 353.705 32.3701 353.298 33.2764C352.903 34.1826 352.35 34.8857 351.642 35.3857C350.934 35.8857 350.121 36.1357 349.205 36.1357Z" fill="black"/>
<path d="M388.643 27.6201L373.174 21.6982V24.167L388.486 29.9014V28.3232L373.174 34.0576V36.4639L388.643 30.542V27.6201Z" fill="black"/>
<path d="M415.189 38.6045C416.762 38.6045 418.189 38.3128 419.471 37.7295C420.752 37.1462 421.82 36.3232 422.674 35.2607C423.528 34.1878 424.096 32.9326 424.377 31.4951L424.408 31.3389H421.564L421.518 31.4795C421.195 32.4691 420.736 33.3024 420.143 33.9795C419.549 34.6462 418.835 35.1514 418.002 35.4951C417.179 35.8389 416.242 36.0107 415.189 36.0107C413.7 36.0107 412.398 35.6357 411.283 34.8857C410.169 34.1357 409.304 33.0837 408.689 31.7295C408.085 30.3649 407.783 28.7712 407.783 26.9482V26.9326C407.783 25.0993 408.085 23.5107 408.689 22.167C409.304 20.8128 410.163 19.766 411.268 19.0264C412.382 18.2764 413.689 17.9014 415.189 17.9014C416.252 17.9014 417.2 18.0732 418.033 18.417C418.867 18.7607 419.57 19.2555 420.143 19.9014C420.726 20.5368 421.163 21.3128 421.455 22.2295L421.564 22.5732H424.408L424.377 22.417C424.096 20.9899 423.523 19.7451 422.658 18.6826C421.804 17.6201 420.736 16.792 419.455 16.1982C418.174 15.6045 416.752 15.3076 415.189 15.3076C413.096 15.3076 411.278 15.7868 409.736 16.7451C408.195 17.693 407.002 19.0368 406.158 20.7764C405.314 22.516 404.893 24.568 404.893 26.9326V26.9482C404.893 29.3128 405.314 31.3701 406.158 33.1201C407.002 34.8597 408.195 36.2087 409.736 37.167C411.288 38.1253 413.106 38.6045 415.189 38.6045ZM427.314 38.2295H430.033V28.1982C430.033 27.3753 430.174 26.6722 430.455 26.0889C430.747 25.4951 431.153 25.042 431.674 24.7295C432.205 24.417 432.82 24.2607 433.518 24.2607C433.851 24.2607 434.148 24.2764 434.408 24.3076C434.679 24.3389 434.867 24.3753 434.971 24.417V21.7764C434.867 21.7555 434.715 21.7347 434.518 21.7139C434.33 21.6826 434.117 21.667 433.877 21.667C432.96 21.667 432.169 21.943 431.502 22.4951C430.835 23.0472 430.367 23.792 430.096 24.7295H430.033V21.9795H427.314V38.2295ZM442.736 38.542C443.559 38.542 444.294 38.4274 444.939 38.1982C445.585 37.9691 446.137 37.6566 446.596 37.2607C447.064 36.8649 447.445 36.417 447.736 35.917H447.799V38.2295H450.518V21.9795H447.799V31.542C447.799 32.2295 447.7 32.8597 447.502 33.4326C447.304 33.9951 447.018 34.4795 446.643 34.8857C446.268 35.2816 445.82 35.5889 445.299 35.8076C444.788 36.0264 444.21 36.1357 443.564 36.1357C442.314 36.1357 441.377 35.7868 440.752 35.0889C440.137 34.3805 439.83 33.3649 439.83 32.042V21.9795H437.111V32.5264C437.111 33.7555 437.33 34.8232 437.768 35.7295C438.215 36.6253 438.856 37.318 439.689 37.8076C440.533 38.2972 441.549 38.542 442.736 38.542ZM454.064 38.2295H456.783V28.042C456.783 27.2816 456.945 26.6045 457.268 26.0107C457.59 25.417 458.028 24.9482 458.58 24.6045C459.143 24.2503 459.783 24.0732 460.502 24.0732C461.179 24.0732 461.762 24.2087 462.252 24.4795C462.752 24.7503 463.137 25.1305 463.408 25.6201C463.689 26.1097 463.83 26.6826 463.83 27.3389V38.2295H466.549V27.9014C466.549 27.1618 466.705 26.5055 467.018 25.9326C467.33 25.3493 467.762 24.8962 468.314 24.5732C468.867 24.2399 469.502 24.0732 470.221 24.0732C470.939 24.0732 471.549 24.2139 472.049 24.4951C472.549 24.7764 472.929 25.1826 473.189 25.7139C473.46 26.2451 473.596 26.8857 473.596 27.6357V38.2295H476.314V27.0107C476.314 25.9274 476.096 24.9899 475.658 24.1982C475.221 23.3962 474.606 22.7764 473.814 22.3389C473.023 21.891 472.09 21.667 471.018 21.667C470.257 21.667 469.544 21.792 468.877 22.042C468.221 22.292 467.637 22.6514 467.127 23.1201C466.627 23.5785 466.226 24.1357 465.924 24.792H465.861C465.632 24.1253 465.299 23.5628 464.861 23.1045C464.424 22.6357 463.903 22.2816 463.299 22.042C462.705 21.792 462.038 21.667 461.299 21.667C460.257 21.667 459.346 21.917 458.564 22.417C457.783 22.9066 457.21 23.5524 456.846 24.3545H456.783V21.9795H454.064V38.2295ZM487.861 38.542C489.247 38.542 490.455 38.1982 491.486 37.5107C492.528 36.8128 493.335 35.8337 493.908 34.5732C494.481 33.3024 494.768 31.8128 494.768 30.1045V30.0889C494.768 28.3805 494.476 26.8962 493.893 25.6357C493.32 24.3753 492.518 23.4014 491.486 22.7139C490.465 22.016 489.273 21.667 487.908 21.667C487.148 21.667 486.434 21.792 485.768 22.042C485.101 22.2816 484.507 22.6305 483.986 23.0889C483.476 23.5368 483.049 24.0732 482.705 24.6982H482.643V15.6826H479.924V38.2295H482.643V35.4795H482.705C483.049 36.1149 483.471 36.6618 483.971 37.1201C484.481 37.568 485.064 37.917 485.721 38.167C486.377 38.417 487.09 38.542 487.861 38.542ZM487.33 36.1357C486.413 36.1357 485.601 35.8857 484.893 35.3857C484.184 34.8857 483.627 34.1826 483.221 33.2764C482.825 32.3701 482.627 31.3128 482.627 30.1045V30.0889C482.627 28.8805 482.83 27.8285 483.236 26.9326C483.643 26.0264 484.195 25.3232 484.893 24.8232C485.601 24.3232 486.413 24.0732 487.33 24.0732C488.288 24.0732 489.117 24.318 489.814 24.8076C490.512 25.2972 491.049 25.9899 491.424 26.8857C491.799 27.7816 491.986 28.8493 491.986 30.0889V30.1045C491.986 31.3441 491.799 32.417 491.424 33.3232C491.049 34.2295 490.512 34.9274 489.814 35.417C489.117 35.8962 488.288 36.1357 487.33 36.1357Z" fill="black"/>
<rect x="0.239312" y="0.239312" width="514.617" height="53.9801" rx="4.54694" stroke="black" stroke-width="0.478625"/>
</svg>
