<svg width="506" height="54" viewBox="0 0 506 54" fill="none" xmlns="http://www.w3.org/2000/svg">
<rect x="0.375" y="0.375" width="505.25" height="53.25" rx="4.41125" fill="black"/>
<path d="M21.5938 38H28.7031C30.3073 38 31.6771 37.75 32.8125 37.25C33.9479 36.7396 34.8177 36.0156 35.4219 35.0781C36.0365 34.1302 36.3438 32.9948 36.3438 31.6719V31.6406C36.3438 30.6406 36.1354 29.75 35.7188 28.9688C35.3021 28.1771 34.7031 27.5312 33.9219 27.0312C33.1406 26.5312 32.2083 26.2188 31.125 26.0938V26.0312C31.9062 25.9167 32.6042 25.6198 33.2188 25.1406C33.8333 24.651 34.3177 24.0521 34.6719 23.3438C35.026 22.6354 35.2031 21.8906 35.2031 21.1094V21.0781C35.2031 19.9531 34.9323 18.9688 34.3906 18.125C33.849 17.2812 33.0938 16.625 32.125 16.1562C31.1562 15.6875 30.026 15.4531 28.7344 15.4531H21.5938V17.9375H28.0938C29.4583 17.9375 30.5104 18.2344 31.25 18.8281C31.9896 19.4115 32.3594 20.2604 32.3594 21.375V21.4062C32.3594 22.625 31.9167 23.5573 31.0312 24.2031C30.1562 24.849 28.8854 25.1719 27.2188 25.1719H21.5938V27.5938H28.0156C29.2135 27.5938 30.2135 27.7396 31.0156 28.0312C31.8281 28.3229 32.4375 28.7604 32.8438 29.3438C33.25 29.9271 33.4531 30.6562 33.4531 31.5312V31.5625C33.4531 32.8542 33.0104 33.8385 32.125 34.5156C31.25 35.1823 29.9688 35.5156 28.2812 35.5156H21.5938V38ZM20.1875 38H23V15.4531H20.1875V38ZM39.1094 38H41.8281V27.9688C41.8281 27.1458 41.9688 26.4427 42.25 25.8594C42.5417 25.2656 42.9479 24.8125 43.4688 24.5C44 24.1875 44.6146 24.0312 45.3125 24.0312C45.6458 24.0312 45.9427 24.0469 46.2031 24.0781C46.474 24.1094 46.6615 24.1458 46.7656 24.1875V21.5469C46.6615 21.526 46.5104 21.5052 46.3125 21.4844C46.125 21.4531 45.9115 21.4375 45.6719 21.4375C44.7552 21.4375 43.9635 21.7135 43.2969 22.2656C42.6302 22.8177 42.1615 23.5625 41.8906 24.5H41.8281V21.75H39.1094V38ZM54.8906 38.3125C55.776 38.3125 56.599 38.1927 57.3594 37.9531C58.1198 37.7031 58.7969 37.3594 59.3906 36.9219C59.9844 36.474 60.4688 35.9583 60.8438 35.375C61.2292 34.7917 61.4896 34.1667 61.625 33.5L61.6562 33.3438H58.9844L58.9375 33.4844C58.7812 33.9531 58.5208 34.3698 58.1562 34.7344C57.7917 35.099 57.3385 35.3854 56.7969 35.5938C56.2552 35.8021 55.6406 35.9062 54.9531 35.9062C53.974 35.9062 53.125 35.6927 52.4062 35.2656C51.6875 34.8281 51.1302 34.2031 50.7344 33.3906C50.349 32.5781 50.1562 31.599 50.1562 30.4531V29.4062C50.1562 28.1979 50.3542 27.1823 50.75 26.3594C51.1458 25.526 51.6875 24.901 52.375 24.4844C53.0625 24.0573 53.8385 23.8438 54.7031 23.8438C55.5677 23.8438 56.3333 24.0469 57 24.4531C57.6667 24.849 58.1875 25.4583 58.5625 26.2812C58.9479 27.1042 59.1406 28.1458 59.1406 29.4062V30.4531L60.5156 28.4844H48.7656V30.6094H61.8594V29.6094C61.8594 27.9844 61.5729 26.5573 61 25.3281C60.4271 24.099 59.6042 23.1458 58.5312 22.4688C57.4688 21.7812 56.1979 21.4375 54.7188 21.4375C53.2396 21.4375 51.9531 21.7969 50.8594 22.5156C49.7656 23.224 48.9167 24.2188 48.3125 25.5C47.7083 26.7708 47.4062 28.2448 47.4062 29.9219V29.9375C47.4062 31.6354 47.7031 33.1146 48.2969 34.375C48.901 35.625 49.7604 36.5938 50.875 37.2812C52 37.9688 53.3385 38.3125 54.8906 38.3125ZM69.3594 38.3125C70.0885 38.3125 70.776 38.1927 71.4219 37.9531C72.0781 37.7031 72.6667 37.3594 73.1875 36.9219C73.7083 36.474 74.125 35.9531 74.4375 35.3594H74.5V38H77.2188V26.7656C77.2188 25.6823 76.9635 24.7448 76.4531 23.9531C75.9427 23.151 75.2188 22.5312 74.2812 22.0938C73.3542 21.6562 72.25 21.4375 70.9688 21.4375C69.6979 21.4375 68.599 21.6562 67.6719 22.0938C66.7448 22.5208 66.0156 23.099 65.4844 23.8281C64.9635 24.5573 64.6615 25.3698 64.5781 26.2656L64.5625 26.4375H67.1875L67.2188 26.2969C67.375 25.5677 67.7708 24.9792 68.4062 24.5312C69.0521 24.0729 69.8958 23.8438 70.9375 23.8438C72.0729 23.8438 72.9479 24.1302 73.5625 24.7031C74.1875 25.2656 74.5 26.0417 74.5 27.0312V31.8281C74.5 32.6094 74.2969 33.3125 73.8906 33.9375C73.4948 34.5625 72.9531 35.0573 72.2656 35.4219C71.5885 35.776 70.8229 35.9531 69.9688 35.9531C68.9896 35.9531 68.2031 35.724 67.6094 35.2656C67.026 34.8073 66.7344 34.1875 66.7344 33.4062V33.375C66.7344 32.6146 67.0312 32.0052 67.625 31.5469C68.2292 31.0885 69.0729 30.8281 70.1562 30.7656L75.8594 30.4219V28.3125L69.8438 28.6562C67.9792 28.7604 66.5312 29.2292 65.5 30.0625C64.4688 30.8854 63.9531 31.9896 63.9531 33.375V33.4062C63.9531 34.3854 64.1771 35.2448 64.625 35.9844C65.0833 36.724 65.7188 37.2969 66.5312 37.7031C67.3438 38.1094 68.2865 38.3125 69.3594 38.3125ZM86.7812 38.3125C87.9479 38.3125 88.9688 38.0417 89.8438 37.5C90.7292 36.9479 91.4271 36.1979 91.9375 35.25H92V38H94.7188V15.4531H92V24.4687H91.9375C91.4271 23.5312 90.7188 22.7917 89.8125 22.25C88.9062 21.7083 87.8802 21.4375 86.7344 21.4375C85.3802 21.4375 84.1875 21.7865 83.1562 22.4844C82.125 23.1719 81.3177 24.1458 80.7344 25.4062C80.1615 26.6667 79.875 28.151 79.875 29.8594V29.875C79.875 31.5833 80.1615 33.0729 80.7344 34.3438C81.3073 35.6042 82.1094 36.5833 83.1406 37.2812C84.1823 37.9688 85.3958 38.3125 86.7812 38.3125ZM87.3125 35.9062C86.3542 35.9062 85.526 35.6667 84.8281 35.1875C84.1302 34.6979 83.5938 34 83.2188 33.0938C82.8438 32.1875 82.6562 31.1146 82.6562 29.875V29.8594C82.6562 28.6198 82.8438 27.5521 83.2188 26.6562C83.5938 25.7604 84.1302 25.0677 84.8281 24.5781C85.526 24.0885 86.3542 23.8438 87.3125 23.8438C88.2292 23.8438 89.0365 24.0937 89.7344 24.5937C90.4427 25.0937 91 25.7969 91.4062 26.7031C91.8125 27.599 92.0156 28.651 92.0156 29.8594V29.875C92.0156 31.0833 91.8125 32.1406 91.4062 33.0469C91.0104 33.9531 90.4583 34.6562 89.75 35.1562C89.0417 35.6562 88.2292 35.9062 87.3125 35.9062Z" fill="black"/>
<path d="M126.406 27.3906L110.938 21.4688V23.9375L126.25 29.6719V28.0938L110.938 33.8281V36.2344L126.406 30.3125V27.3906Z" fill="black"/>
<path d="M152.609 38.375C154.182 38.375 155.609 38.0833 156.891 37.5C158.172 36.9167 159.24 36.0938 160.094 35.0312C160.948 33.9583 161.516 32.7031 161.797 31.2656L161.828 31.1094H158.984L158.938 31.25C158.615 32.2396 158.156 33.0729 157.562 33.75C156.969 34.4167 156.255 34.9219 155.422 35.2656C154.599 35.6094 153.661 35.7812 152.609 35.7812C151.12 35.7812 149.818 35.4062 148.703 34.6562C147.589 33.9062 146.724 32.8542 146.109 31.5C145.505 30.1354 145.203 28.5417 145.203 26.7188V26.7031C145.203 24.8698 145.505 23.2812 146.109 21.9375C146.724 20.5833 147.583 19.5365 148.688 18.7969C149.802 18.0469 151.109 17.6719 152.609 17.6719C153.672 17.6719 154.62 17.8438 155.453 18.1875C156.286 18.5312 156.99 19.026 157.562 19.6719C158.146 20.3073 158.583 21.0833 158.875 22L158.984 22.3438H161.828L161.797 22.1875C161.516 20.7604 160.943 19.5156 160.078 18.4531C159.224 17.3906 158.156 16.5625 156.875 15.9688C155.594 15.375 154.172 15.0781 152.609 15.0781C150.516 15.0781 148.698 15.5573 147.156 16.5156C145.615 17.4635 144.422 18.8073 143.578 20.5469C142.734 22.2865 142.312 24.3385 142.312 26.7031V26.7188C142.312 29.0833 142.734 31.1406 143.578 32.8906C144.422 34.6302 145.615 35.9792 147.156 36.9375C148.708 37.8958 150.526 38.375 152.609 38.375ZM164.734 38H167.453V27.9688C167.453 27.1458 167.594 26.4427 167.875 25.8594C168.167 25.2656 168.573 24.8125 169.094 24.5C169.625 24.1875 170.24 24.0312 170.938 24.0312C171.271 24.0312 171.568 24.0469 171.828 24.0781C172.099 24.1094 172.286 24.1458 172.391 24.1875V21.5469C172.286 21.526 172.135 21.5052 171.938 21.4844C171.75 21.4531 171.536 21.4375 171.297 21.4375C170.38 21.4375 169.589 21.7135 168.922 22.2656C168.255 22.8177 167.786 23.5625 167.516 24.5H167.453V21.75H164.734V38ZM180.156 38.3125C181.396 38.3125 182.427 38.0677 183.25 37.5781C184.083 37.0781 184.719 36.4479 185.156 35.6875H185.219V38H187.938V21.75H185.219V31.3125C185.219 32.2292 185.042 33.0365 184.688 33.7344C184.344 34.4219 183.854 34.9583 183.219 35.3438C182.583 35.7188 181.839 35.9062 180.984 35.9062C179.734 35.9062 178.797 35.5573 178.172 34.8594C177.557 34.151 177.25 33.1354 177.25 31.8125V21.75H174.531V32.2969C174.531 33.526 174.75 34.5938 175.188 35.5C175.635 36.3958 176.276 37.0885 177.109 37.5781C177.953 38.0677 178.969 38.3125 180.156 38.3125ZM191.484 38H194.203V27.8125C194.203 27.0521 194.365 26.375 194.688 25.7812C195.01 25.1875 195.448 24.7187 196 24.375C196.562 24.0208 197.203 23.8438 197.922 23.8438C198.932 23.8438 199.74 24.1406 200.344 24.7344C200.948 25.3281 201.25 26.1198 201.25 27.1094V38H203.969V27.6719C203.969 26.9323 204.125 26.276 204.438 25.7031C204.75 25.1198 205.182 24.6667 205.734 24.3437C206.286 24.0104 206.922 23.8438 207.641 23.8438C208.714 23.8438 209.542 24.1615 210.125 24.7969C210.719 25.4219 211.016 26.2917 211.016 27.4062V38H213.734V26.7812C213.734 25.6979 213.516 24.7604 213.078 23.9688C212.641 23.1667 212.026 22.5469 211.234 22.1094C210.443 21.6615 209.51 21.4375 208.438 21.4375C207.677 21.4375 206.964 21.5625 206.297 21.8125C205.641 22.0625 205.057 22.4219 204.547 22.8906C204.047 23.349 203.646 23.9062 203.344 24.5625H203.281C203.052 23.8958 202.719 23.3333 202.281 22.875C201.844 22.4062 201.323 22.0521 200.719 21.8125C200.125 21.5625 199.458 21.4375 198.719 21.4375C197.677 21.4375 196.766 21.6875 195.984 22.1875C195.203 22.6771 194.63 23.3229 194.266 24.125H194.203V21.75H191.484V38ZM222.969 38.3125C224.177 38.3125 225.255 38.1094 226.203 37.7031C227.161 37.2865 227.911 36.7135 228.453 35.9844C229.005 35.2552 229.281 34.4167 229.281 33.4688V33.4531C229.281 32.2969 228.948 31.375 228.281 30.6875C227.615 29.9896 226.458 29.4427 224.812 29.0469L222.234 28.4219C221.339 28.2031 220.693 27.901 220.297 27.5156C219.901 27.1302 219.703 26.6615 219.703 26.1094V26.0937C219.703 25.6146 219.828 25.1979 220.078 24.8437C220.339 24.4792 220.708 24.1979 221.188 24C221.667 23.8021 222.234 23.7031 222.891 23.7031C223.901 23.7031 224.698 23.9427 225.281 24.4219C225.875 24.901 226.224 25.5365 226.328 26.3281L226.344 26.4375H228.938L228.922 26.2344C228.859 25.3281 228.573 24.5156 228.062 23.7969C227.562 23.0677 226.87 22.4948 225.984 22.0781C225.109 21.651 224.078 21.4375 222.891 21.4375C221.724 21.4375 220.688 21.6406 219.781 22.0469C218.885 22.4531 218.182 23.0156 217.672 23.7344C217.172 24.4531 216.922 25.2812 216.922 26.2187V26.2344C216.922 27.401 217.297 28.3542 218.047 29.0937C218.797 29.8229 219.938 30.3698 221.469 30.7344L224.047 31.3594C224.974 31.5885 225.615 31.8802 225.969 32.2344C226.323 32.5885 226.5 33.0573 226.5 33.6406V33.6562C226.5 34.1458 226.359 34.5729 226.078 34.9375C225.797 35.2917 225.396 35.5677 224.875 35.7656C224.354 35.9531 223.724 36.0469 222.984 36.0469C221.88 36.0469 221.021 35.8229 220.406 35.375C219.792 34.9167 219.401 34.2812 219.234 33.4688L219.203 33.3125H216.484L216.5 33.4531C216.615 34.4219 216.938 35.2708 217.469 36C218.01 36.7292 218.745 37.2969 219.672 37.7031C220.599 38.1094 221.698 38.3125 222.969 38.3125Z" fill="black"/>
<path d="M260.406 27.3906L244.938 21.4688V23.9375L260.25 29.6719V28.0938L244.938 33.8281V36.2344L260.406 30.3125V27.3906Z" fill="black"/>
<path d="M278.594 38H285.703C287.307 38 288.677 37.75 289.812 37.25C290.948 36.7396 291.818 36.0156 292.422 35.0781C293.036 34.1302 293.344 32.9948 293.344 31.6719V31.6406C293.344 30.6406 293.135 29.75 292.719 28.9688C292.302 28.1771 291.703 27.5312 290.922 27.0312C290.141 26.5312 289.208 26.2188 288.125 26.0938V26.0312C288.906 25.9167 289.604 25.6198 290.219 25.1406C290.833 24.651 291.318 24.0521 291.672 23.3438C292.026 22.6354 292.203 21.8906 292.203 21.1094V21.0781C292.203 19.9531 291.932 18.9688 291.391 18.125C290.849 17.2812 290.094 16.625 289.125 16.1562C288.156 15.6875 287.026 15.4531 285.734 15.4531H278.594V17.9375H285.094C286.458 17.9375 287.51 18.2344 288.25 18.8281C288.99 19.4115 289.359 20.2604 289.359 21.375V21.4062C289.359 22.625 288.917 23.5573 288.031 24.2031C287.156 24.849 285.885 25.1719 284.219 25.1719H278.594V27.5938H285.016C286.214 27.5938 287.214 27.7396 288.016 28.0312C288.828 28.3229 289.438 28.7604 289.844 29.3438C290.25 29.9271 290.453 30.6562 290.453 31.5312V31.5625C290.453 32.8542 290.01 33.8385 289.125 34.5156C288.25 35.1823 286.969 35.5156 285.281 35.5156H278.594V38ZM277.188 38H280V15.4531H277.188V38ZM296.109 38H298.828V27.9688C298.828 27.1458 298.969 26.4427 299.25 25.8594C299.542 25.2656 299.948 24.8125 300.469 24.5C301 24.1875 301.615 24.0312 302.312 24.0312C302.646 24.0312 302.943 24.0469 303.203 24.0781C303.474 24.1094 303.661 24.1458 303.766 24.1875V21.5469C303.661 21.526 303.51 21.5052 303.312 21.4844C303.125 21.4531 302.911 21.4375 302.672 21.4375C301.755 21.4375 300.964 21.7135 300.297 22.2656C299.63 22.8177 299.161 23.5625 298.891 24.5H298.828V21.75H296.109V38ZM311.891 38.3125C312.776 38.3125 313.599 38.1927 314.359 37.9531C315.12 37.7031 315.797 37.3594 316.391 36.9219C316.984 36.474 317.469 35.9583 317.844 35.375C318.229 34.7917 318.49 34.1667 318.625 33.5L318.656 33.3438H315.984L315.938 33.4844C315.781 33.9531 315.521 34.3698 315.156 34.7344C314.792 35.099 314.339 35.3854 313.797 35.5938C313.255 35.8021 312.641 35.9062 311.953 35.9062C310.974 35.9062 310.125 35.6927 309.406 35.2656C308.688 34.8281 308.13 34.2031 307.734 33.3906C307.349 32.5781 307.156 31.599 307.156 30.4531V29.4062C307.156 28.1979 307.354 27.1823 307.75 26.3594C308.146 25.526 308.688 24.901 309.375 24.4844C310.062 24.0573 310.839 23.8438 311.703 23.8438C312.568 23.8438 313.333 24.0469 314 24.4531C314.667 24.849 315.188 25.4583 315.562 26.2812C315.948 27.1042 316.141 28.1458 316.141 29.4062V30.4531L317.516 28.4844H305.766V30.6094H318.859V29.6094C318.859 27.9844 318.573 26.5573 318 25.3281C317.427 24.099 316.604 23.1458 315.531 22.4688C314.469 21.7812 313.198 21.4375 311.719 21.4375C310.24 21.4375 308.953 21.7969 307.859 22.5156C306.766 23.224 305.917 24.2188 305.312 25.5C304.708 26.7708 304.406 28.2448 304.406 29.9219V29.9375C304.406 31.6354 304.703 33.1146 305.297 34.375C305.901 35.625 306.76 36.5938 307.875 37.2812C309 37.9688 310.339 38.3125 311.891 38.3125ZM326.359 38.3125C327.089 38.3125 327.776 38.1927 328.422 37.9531C329.078 37.7031 329.667 37.3594 330.188 36.9219C330.708 36.474 331.125 35.9531 331.438 35.3594H331.5V38H334.219V26.7656C334.219 25.6823 333.964 24.7448 333.453 23.9531C332.943 23.151 332.219 22.5312 331.281 22.0938C330.354 21.6562 329.25 21.4375 327.969 21.4375C326.698 21.4375 325.599 21.6562 324.672 22.0938C323.745 22.5208 323.016 23.099 322.484 23.8281C321.964 24.5573 321.661 25.3698 321.578 26.2656L321.562 26.4375H324.188L324.219 26.2969C324.375 25.5677 324.771 24.9792 325.406 24.5312C326.052 24.0729 326.896 23.8438 327.938 23.8438C329.073 23.8438 329.948 24.1302 330.562 24.7031C331.188 25.2656 331.5 26.0417 331.5 27.0312V31.8281C331.5 32.6094 331.297 33.3125 330.891 33.9375C330.495 34.5625 329.953 35.0573 329.266 35.4219C328.589 35.776 327.823 35.9531 326.969 35.9531C325.99 35.9531 325.203 35.724 324.609 35.2656C324.026 34.8073 323.734 34.1875 323.734 33.4062V33.375C323.734 32.6146 324.031 32.0052 324.625 31.5469C325.229 31.0885 326.073 30.8281 327.156 30.7656L332.859 30.4219V28.3125L326.844 28.6562C324.979 28.7604 323.531 29.2292 322.5 30.0625C321.469 30.8854 320.953 31.9896 320.953 33.375V33.4062C320.953 34.3854 321.177 35.2448 321.625 35.9844C322.083 36.724 322.719 37.2969 323.531 37.7031C324.344 38.1094 325.286 38.3125 326.359 38.3125ZM343.781 38.3125C344.948 38.3125 345.969 38.0417 346.844 37.5C347.729 36.9479 348.427 36.1979 348.938 35.25H349V38H351.719V15.4531H349V24.4687H348.938C348.427 23.5312 347.719 22.7917 346.812 22.25C345.906 21.7083 344.88 21.4375 343.734 21.4375C342.38 21.4375 341.188 21.7865 340.156 22.4844C339.125 23.1719 338.318 24.1458 337.734 25.4062C337.161 26.6667 336.875 28.151 336.875 29.8594V29.875C336.875 31.5833 337.161 33.0729 337.734 34.3438C338.307 35.6042 339.109 36.5833 340.141 37.2812C341.182 37.9688 342.396 38.3125 343.781 38.3125ZM344.312 35.9062C343.354 35.9062 342.526 35.6667 341.828 35.1875C341.13 34.6979 340.594 34 340.219 33.0938C339.844 32.1875 339.656 31.1146 339.656 29.875V29.8594C339.656 28.6198 339.844 27.5521 340.219 26.6562C340.594 25.7604 341.13 25.0677 341.828 24.5781C342.526 24.0885 343.354 23.8438 344.312 23.8438C345.229 23.8438 346.036 24.0937 346.734 24.5937C347.443 25.0937 348 25.7969 348.406 26.7031C348.812 27.599 349.016 28.651 349.016 29.8594V29.875C349.016 31.0833 348.812 32.1406 348.406 33.0469C348.01 33.9531 347.458 34.6562 346.75 35.1562C346.042 35.6562 345.229 35.9062 344.312 35.9062Z" fill="black"/>
<path d="M383.406 27.3906L367.938 21.4688V23.9375L383.25 29.6719V28.0938L367.938 33.8281V36.2344L383.406 30.3125V27.3906Z" fill="black"/>
<path d="M409.609 38.375C411.182 38.375 412.609 38.0833 413.891 37.5C415.172 36.9167 416.24 36.0938 417.094 35.0312C417.948 33.9583 418.516 32.7031 418.797 31.2656L418.828 31.1094H415.984L415.938 31.25C415.615 32.2396 415.156 33.0729 414.562 33.75C413.969 34.4167 413.255 34.9219 412.422 35.2656C411.599 35.6094 410.661 35.7812 409.609 35.7812C408.12 35.7812 406.818 35.4062 405.703 34.6562C404.589 33.9062 403.724 32.8542 403.109 31.5C402.505 30.1354 402.203 28.5417 402.203 26.7188V26.7031C402.203 24.8698 402.505 23.2812 403.109 21.9375C403.724 20.5833 404.583 19.5365 405.688 18.7969C406.802 18.0469 408.109 17.6719 409.609 17.6719C410.672 17.6719 411.62 17.8438 412.453 18.1875C413.286 18.5312 413.99 19.026 414.562 19.6719C415.146 20.3073 415.583 21.0833 415.875 22L415.984 22.3438H418.828L418.797 22.1875C418.516 20.7604 417.943 19.5156 417.078 18.4531C416.224 17.3906 415.156 16.5625 413.875 15.9688C412.594 15.375 411.172 15.0781 409.609 15.0781C407.516 15.0781 405.698 15.5573 404.156 16.5156C402.615 17.4635 401.422 18.8073 400.578 20.5469C399.734 22.2865 399.312 24.3385 399.312 26.7031V26.7188C399.312 29.0833 399.734 31.1406 400.578 32.8906C401.422 34.6302 402.615 35.9792 404.156 36.9375C405.708 37.8958 407.526 38.375 409.609 38.375ZM421.734 38H424.453V27.9688C424.453 27.1458 424.594 26.4427 424.875 25.8594C425.167 25.2656 425.573 24.8125 426.094 24.5C426.625 24.1875 427.24 24.0312 427.938 24.0312C428.271 24.0312 428.568 24.0469 428.828 24.0781C429.099 24.1094 429.286 24.1458 429.391 24.1875V21.5469C429.286 21.526 429.135 21.5052 428.938 21.4844C428.75 21.4531 428.536 21.4375 428.297 21.4375C427.38 21.4375 426.589 21.7135 425.922 22.2656C425.255 22.8177 424.786 23.5625 424.516 24.5H424.453V21.75H421.734V38ZM437.156 38.3125C438.396 38.3125 439.427 38.0677 440.25 37.5781C441.083 37.0781 441.719 36.4479 442.156 35.6875H442.219V38H444.938V21.75H442.219V31.3125C442.219 32.2292 442.042 33.0365 441.688 33.7344C441.344 34.4219 440.854 34.9583 440.219 35.3438C439.583 35.7188 438.839 35.9062 437.984 35.9062C436.734 35.9062 435.797 35.5573 435.172 34.8594C434.557 34.151 434.25 33.1354 434.25 31.8125V21.75H431.531V32.2969C431.531 33.526 431.75 34.5938 432.188 35.5C432.635 36.3958 433.276 37.0885 434.109 37.5781C434.953 38.0677 435.969 38.3125 437.156 38.3125ZM448.484 38H451.203V27.8125C451.203 27.0521 451.365 26.375 451.688 25.7812C452.01 25.1875 452.448 24.7187 453 24.375C453.562 24.0208 454.203 23.8438 454.922 23.8438C455.932 23.8438 456.74 24.1406 457.344 24.7344C457.948 25.3281 458.25 26.1198 458.25 27.1094V38H460.969V27.6719C460.969 26.9323 461.125 26.276 461.438 25.7031C461.75 25.1198 462.182 24.6667 462.734 24.3437C463.286 24.0104 463.922 23.8438 464.641 23.8438C465.714 23.8438 466.542 24.1615 467.125 24.7969C467.719 25.4219 468.016 26.2917 468.016 27.4062V38H470.734V26.7812C470.734 25.6979 470.516 24.7604 470.078 23.9688C469.641 23.1667 469.026 22.5469 468.234 22.1094C467.443 21.6615 466.51 21.4375 465.438 21.4375C464.677 21.4375 463.964 21.5625 463.297 21.8125C462.641 22.0625 462.057 22.4219 461.547 22.8906C461.047 23.349 460.646 23.9062 460.344 24.5625H460.281C460.052 23.8958 459.719 23.3333 459.281 22.875C458.844 22.4062 458.323 22.0521 457.719 21.8125C457.125 21.5625 456.458 21.4375 455.719 21.4375C454.677 21.4375 453.766 21.6875 452.984 22.1875C452.203 22.6771 451.63 23.3229 451.266 24.125H451.203V21.75H448.484V38ZM479.969 38.3125C481.177 38.3125 482.255 38.1094 483.203 37.7031C484.161 37.2865 484.911 36.7135 485.453 35.9844C486.005 35.2552 486.281 34.4167 486.281 33.4688V33.4531C486.281 32.2969 485.948 31.375 485.281 30.6875C484.615 29.9896 483.458 29.4427 481.812 29.0469L479.234 28.4219C478.339 28.2031 477.693 27.901 477.297 27.5156C476.901 27.1302 476.703 26.6615 476.703 26.1094V26.0937C476.703 25.6146 476.828 25.1979 477.078 24.8437C477.339 24.4792 477.708 24.1979 478.188 24C478.667 23.8021 479.234 23.7031 479.891 23.7031C480.901 23.7031 481.698 23.9427 482.281 24.4219C482.875 24.901 483.224 25.5365 483.328 26.3281L483.344 26.4375H485.938L485.922 26.2344C485.859 25.3281 485.573 24.5156 485.062 23.7969C484.562 23.0677 483.87 22.4948 482.984 22.0781C482.109 21.651 481.078 21.4375 479.891 21.4375C478.724 21.4375 477.688 21.6406 476.781 22.0469C475.885 22.4531 475.182 23.0156 474.672 23.7344C474.172 24.4531 473.922 25.2812 473.922 26.2187V26.2344C473.922 27.401 474.297 28.3542 475.047 29.0937C475.797 29.8229 476.938 30.3698 478.469 30.7344L481.047 31.3594C481.974 31.5885 482.615 31.8802 482.969 32.2344C483.323 32.5885 483.5 33.0573 483.5 33.6406V33.6562C483.5 34.1458 483.359 34.5729 483.078 34.9375C482.797 35.2917 482.396 35.5677 481.875 35.7656C481.354 35.9531 480.724 36.0469 479.984 36.0469C478.88 36.0469 478.021 35.8229 477.406 35.375C476.792 34.9167 476.401 34.2812 476.234 33.4688L476.203 33.3125H473.484L473.5 33.4531C473.615 34.4219 473.938 35.2708 474.469 36C475.01 36.7292 475.745 37.2969 476.672 37.7031C477.599 38.1094 478.698 38.3125 479.969 38.3125Z" fill="black"/>
<rect x="0.375" y="0.375" width="505.25" height="53.25" rx="4.41125" stroke="black" stroke-width="0.75"/>
</svg>
