<svg width="225" height="225" viewBox="0 0 225 225" fill="none" xmlns="http://www.w3.org/2000/svg">
<g clip-path="url(#clip0_84_603)">
<path d="M112.5 224.338C174.267 224.338 224.338 174.266 224.338 112.5C224.338 50.7333 174.267 0.661621 112.5 0.661621C50.7335 0.661621 0.661765 50.7333 0.661765 112.5C0.661765 174.266 50.7335 224.338 112.5 224.338Z" fill="white" stroke="black" stroke-width="0.75" stroke-miterlimit="10"/>
<path d="M164.806 111.918C164.806 141.234 141.538 164.978 112.884 164.978C84.2294 164.978 60.9618 141.234 60.9618 111.918C60.9618 82.6015 84.2294 58.8574 112.884 58.8574C141.538 58.8574 164.806 82.6015 164.806 111.918Z" fill="#FF85D5" stroke="black" stroke-width="0.75"/>
<path d="M141.366 111.918C141.366 128.012 128.594 141.036 112.884 141.036C97.1735 141.036 84.4015 128.012 84.4015 111.918C84.4015 95.8238 97.1735 82.8003 112.884 82.8003C128.594 82.8003 141.366 95.8238 141.366 111.918Z" fill="black" stroke="black" stroke-width="0.75"/>
<path d="M94.275 111.852C102.798 111.852 109.707 104.942 109.707 96.4192C109.707 87.8961 102.798 80.9868 94.275 80.9868C85.752 80.9868 78.8427 87.8961 78.8427 96.4192C78.8427 104.942 85.752 111.852 94.275 111.852Z" fill="white" stroke="black" stroke-width="0.75"/>
</g>
<defs>
<clipPath id="clip0_84_603">
<rect width="225" height="225" fill="white"/>
</clipPath>
</defs>
</svg>
