<svg width="598" height="478" viewBox="0 0 598 478" fill="none" xmlns="http://www.w3.org/2000/svg">
<path d="M298.741 26.1068C298.751 40.6531 310.454 52.4444 324.893 52.4444H572.097C586.264 52.4444 597.75 64.0185 597.75 78.3012V451.893C597.75 466.176 586.264 477.75 572.097 477.75H25.9028C11.7365 477.75 0.25 466.176 0.25 451.893V26.1068C0.25 11.8241 11.7365 0.25 25.9028 0.25H273.088C287.254 0.25 298.741 11.8241 298.741 26.1068Z" fill="#FF85D5" stroke="black" stroke-width="0.5" stroke-miterlimit="10"/>
<path d="M62.4141 431.562C64.7734 431.562 66.9141 431.125 68.8359 430.25C70.7578 429.375 72.3594 428.141 73.6406 426.547C74.9219 424.938 75.7734 423.055 76.1953 420.898L76.2422 420.664H71.9766L71.9062 420.875C71.4219 422.359 70.7344 423.609 69.8438 424.625C68.9531 425.625 67.8828 426.383 66.6328 426.898C65.3984 427.414 63.9922 427.672 62.4141 427.672C60.1797 427.672 58.2266 427.109 56.5547 425.984C54.8828 424.859 53.5859 423.281 52.6641 421.25C51.7578 419.203 51.3047 416.812 51.3047 414.078V414.055C51.3047 411.305 51.7578 408.922 52.6641 406.906C53.5859 404.875 54.875 403.305 56.5312 402.195C58.2031 401.07 60.1641 400.508 62.4141 400.508C64.0078 400.508 65.4297 400.766 66.6797 401.281C67.9297 401.797 68.9844 402.539 69.8438 403.508C70.7188 404.461 71.375 405.625 71.8125 407L71.9766 407.516H76.2422L76.1953 407.281C75.7734 405.141 74.9141 403.273 73.6172 401.68C72.3359 400.086 70.7344 398.844 68.8125 397.953C66.8906 397.062 64.7578 396.617 62.4141 396.617C59.2734 396.617 56.5469 397.336 54.2344 398.773C51.9219 400.195 50.1328 402.211 48.8672 404.82C47.6016 407.43 46.9688 410.508 46.9688 414.055V414.078C46.9688 417.625 47.6016 420.711 48.8672 423.336C50.1328 425.945 51.9219 427.969 54.2344 429.406C56.5625 430.844 59.2891 431.562 62.4141 431.562ZM80.6016 431H84.6797V415.953C84.6797 414.719 84.8906 413.664 85.3125 412.789C85.75 411.898 86.3594 411.219 87.1406 410.75C87.9375 410.281 88.8594 410.047 89.9062 410.047C90.4062 410.047 90.8516 410.07 91.2422 410.117C91.6484 410.164 91.9297 410.219 92.0859 410.281V406.32C91.9297 406.289 91.7031 406.258 91.4062 406.227C91.125 406.18 90.8047 406.156 90.4453 406.156C89.0703 406.156 87.8828 406.57 86.8828 407.398C85.8828 408.227 85.1797 409.344 84.7734 410.75H84.6797V406.625H80.6016V431ZM103.734 431.469C104.969 431.469 106.07 431.297 107.039 430.953C108.008 430.609 108.836 430.141 109.523 429.547C110.227 428.953 110.797 428.281 111.234 427.531H111.328V431H115.406V406.625H111.328V420.969C111.328 422 111.18 422.945 110.883 423.805C110.586 424.648 110.156 425.375 109.594 425.984C109.031 426.578 108.359 427.039 107.578 427.367C106.812 427.695 105.945 427.859 104.977 427.859C103.102 427.859 101.695 427.336 100.758 426.289C99.8359 425.227 99.375 423.703 99.375 421.719V406.625H95.2969V422.445C95.2969 424.289 95.625 425.891 96.2812 427.25C96.9531 428.594 97.9141 429.633 99.1641 430.367C100.43 431.102 101.953 431.469 103.734 431.469ZM120.727 431H124.805V415.719C124.805 414.578 125.047 413.562 125.531 412.672C126.016 411.781 126.672 411.078 127.5 410.562C128.344 410.031 129.305 409.766 130.383 409.766C131.398 409.766 132.273 409.969 133.008 410.375C133.758 410.781 134.336 411.352 134.742 412.086C135.164 412.82 135.375 413.68 135.375 414.664V431H139.453V415.508C139.453 414.398 139.688 413.414 140.156 412.555C140.625 411.68 141.273 411 142.102 410.516C142.93 410.016 143.883 409.766 144.961 409.766C146.039 409.766 146.953 409.977 147.703 410.398C148.453 410.82 149.023 411.43 149.414 412.227C149.82 413.023 150.023 413.984 150.023 415.109V431H154.102V414.172C154.102 412.547 153.773 411.141 153.117 409.953C152.461 408.75 151.539 407.82 150.352 407.164C149.164 406.492 147.766 406.156 146.156 406.156C145.016 406.156 143.945 406.344 142.945 406.719C141.961 407.094 141.086 407.633 140.32 408.336C139.57 409.023 138.969 409.859 138.516 410.844H138.422C138.078 409.844 137.578 409 136.922 408.312C136.266 407.609 135.484 407.078 134.578 406.719C133.688 406.344 132.688 406.156 131.578 406.156C130.016 406.156 128.648 406.531 127.477 407.281C126.305 408.016 125.445 408.984 124.898 410.188H124.805V406.625H120.727V431ZM171.422 431.469C173.5 431.469 175.312 430.953 176.859 429.922C178.422 428.875 179.633 427.406 180.492 425.516C181.352 423.609 181.781 421.375 181.781 418.812V418.789C181.781 416.227 181.344 414 180.469 412.109C179.609 410.219 178.406 408.758 176.859 407.727C175.328 406.68 173.539 406.156 171.492 406.156C170.352 406.156 169.281 406.344 168.281 406.719C167.281 407.078 166.391 407.602 165.609 408.289C164.844 408.961 164.203 409.766 163.688 410.703H163.594V397.18H159.516V431H163.594V426.875H163.688C164.203 427.828 164.836 428.648 165.586 429.336C166.352 430.008 167.227 430.531 168.211 430.906C169.195 431.281 170.266 431.469 171.422 431.469ZM170.625 427.859C169.25 427.859 168.031 427.484 166.969 426.734C165.906 425.984 165.07 424.93 164.461 423.57C163.867 422.211 163.57 420.625 163.57 418.812V418.789C163.57 416.977 163.875 415.398 164.484 414.055C165.094 412.695 165.922 411.641 166.969 410.891C168.031 410.141 169.25 409.766 170.625 409.766C172.062 409.766 173.305 410.133 174.352 410.867C175.398 411.602 176.203 412.641 176.766 413.984C177.328 415.328 177.609 416.93 177.609 418.789V418.812C177.609 420.672 177.328 422.281 176.766 423.641C176.203 425 175.398 426.047 174.352 426.781C173.305 427.5 172.062 427.859 170.625 427.859Z" fill="black"/>
</svg>
