<svg width="598" height="478" viewBox="0 0 598 478" fill="none" xmlns="http://www.w3.org/2000/svg">
<path d="M298.741 26.1068C298.751 40.6531 310.454 52.4444 324.893 52.4444H572.097C586.264 52.4444 597.75 64.0185 597.75 78.3012V451.893C597.75 466.176 586.264 477.75 572.097 477.75H25.9028C11.7365 477.75 0.25 466.176 0.25 451.893V26.1068C0.25 11.8241 11.7365 0.25 25.9028 0.25H273.088C287.254 0.25 298.741 11.8241 298.741 26.1068Z" fill="#00B026" stroke="black" stroke-width="0.5" stroke-miterlimit="10"/>
<path d="M50.4219 431H61.0859C63.4922 431 65.5469 430.625 67.25 429.875C68.9531 429.109 70.2578 428.023 71.1641 426.617C72.0859 425.195 72.5469 423.492 72.5469 421.508V421.461C72.5469 419.961 72.2344 418.625 71.6094 417.453C70.9844 416.266 70.0859 415.297 68.9141 414.547C67.7422 413.797 66.3438 413.328 64.7188 413.141V413.047C65.8906 412.875 66.9375 412.43 67.8594 411.711C68.7812 410.977 69.5078 410.078 70.0391 409.016C70.5703 407.953 70.8359 406.836 70.8359 405.664V405.617C70.8359 403.93 70.4297 402.453 69.6172 401.188C68.8047 399.922 67.6719 398.938 66.2188 398.234C64.7656 397.531 63.0703 397.18 61.1328 397.18H50.4219V400.906H60.1719C62.2188 400.906 63.7969 401.352 64.9062 402.242C66.0156 403.117 66.5703 404.391 66.5703 406.062V406.109C66.5703 407.938 65.9062 409.336 64.5781 410.305C63.2656 411.273 61.3594 411.758 58.8594 411.758H50.4219V415.391H60.0547C61.8516 415.391 63.3516 415.609 64.5547 416.047C65.7734 416.484 66.6875 417.141 67.2969 418.016C67.9062 418.891 68.2109 419.984 68.2109 421.297V421.344C68.2109 423.281 67.5469 424.758 66.2188 425.773C64.9062 426.773 62.9844 427.273 60.4531 427.273H50.4219V431ZM48.3125 431H52.5312V397.18H48.3125V431ZM76.6953 431H80.7734V415.953C80.7734 414.719 80.9844 413.664 81.4062 412.789C81.8438 411.898 82.4531 411.219 83.2344 410.75C84.0312 410.281 84.9531 410.047 86 410.047C86.5 410.047 86.9453 410.07 87.3359 410.117C87.7422 410.164 88.0234 410.219 88.1797 410.281V406.32C88.0234 406.289 87.7969 406.258 87.5 406.227C87.2188 406.18 86.8984 406.156 86.5391 406.156C85.1641 406.156 83.9766 406.57 82.9766 407.398C81.9766 408.227 81.2734 409.344 80.8672 410.75H80.7734V406.625H76.6953V431ZM100.367 431.469C101.695 431.469 102.93 431.289 104.07 430.93C105.211 430.555 106.227 430.039 107.117 429.383C108.008 428.711 108.734 427.938 109.297 427.062C109.875 426.188 110.266 425.25 110.469 424.25L110.516 424.016H106.508L106.438 424.227C106.203 424.93 105.812 425.555 105.266 426.102C104.719 426.648 104.039 427.078 103.227 427.391C102.414 427.703 101.492 427.859 100.461 427.859C98.9922 427.859 97.7188 427.539 96.6406 426.898C95.5625 426.242 94.7266 425.305 94.1328 424.086C93.5547 422.867 93.2656 421.398 93.2656 419.68V418.109C93.2656 416.297 93.5625 414.773 94.1562 413.539C94.75 412.289 95.5625 411.352 96.5938 410.727C97.625 410.086 98.7891 409.766 100.086 409.766C101.383 409.766 102.531 410.07 103.531 410.68C104.531 411.273 105.312 412.188 105.875 413.422C106.453 414.656 106.742 416.219 106.742 418.109V419.68L108.805 416.727H91.1797V419.914H110.82V418.414C110.82 415.977 110.391 413.836 109.531 411.992C108.672 410.148 107.438 408.719 105.828 407.703C104.234 406.672 102.328 406.156 100.109 406.156C97.8906 406.156 95.9609 406.695 94.3203 407.773C92.6797 408.836 91.4062 410.328 90.5 412.25C89.5938 414.156 89.1406 416.367 89.1406 418.883V418.906C89.1406 421.453 89.5859 423.672 90.4766 425.562C91.3828 427.438 92.6719 428.891 94.3438 429.922C96.0312 430.953 98.0391 431.469 100.367 431.469ZM122.07 431.469C123.164 431.469 124.195 431.289 125.164 430.93C126.148 430.555 127.031 430.039 127.812 429.383C128.594 428.711 129.219 427.93 129.688 427.039H129.781V431H133.859V414.148C133.859 412.523 133.477 411.117 132.711 409.93C131.945 408.727 130.859 407.797 129.453 407.141C128.062 406.484 126.406 406.156 124.484 406.156C122.578 406.156 120.93 406.484 119.539 407.141C118.148 407.781 117.055 408.648 116.258 409.742C115.477 410.836 115.023 412.055 114.898 413.398L114.875 413.656H118.812L118.859 413.445C119.094 412.352 119.688 411.469 120.641 410.797C121.609 410.109 122.875 409.766 124.438 409.766C126.141 409.766 127.453 410.195 128.375 411.055C129.312 411.898 129.781 413.062 129.781 414.547V421.742C129.781 422.914 129.477 423.969 128.867 424.906C128.273 425.844 127.461 426.586 126.43 427.133C125.414 427.664 124.266 427.93 122.984 427.93C121.516 427.93 120.336 427.586 119.445 426.898C118.57 426.211 118.133 425.281 118.133 424.109V424.062C118.133 422.922 118.578 422.008 119.469 421.32C120.375 420.633 121.641 420.242 123.266 420.148L131.82 419.633V416.469L122.797 416.984C120.938 417.094 119.344 417.445 118.016 418.039C116.703 418.633 115.695 419.438 114.992 420.453C114.305 421.469 113.961 422.672 113.961 424.062V424.109C113.961 425.578 114.297 426.867 114.969 427.977C115.656 429.086 116.609 429.945 117.828 430.555C119.047 431.164 120.461 431.469 122.07 431.469ZM148.203 431.469C149.375 431.469 150.445 431.281 151.414 430.906C152.398 430.531 153.273 430.008 154.039 429.336C154.805 428.648 155.438 427.828 155.938 426.875H156.031V431H160.109V397.18H156.031V410.703H155.938C155.438 409.766 154.797 408.961 154.016 408.289C153.234 407.602 152.344 407.078 151.344 406.719C150.359 406.344 149.289 406.156 148.133 406.156C146.102 406.156 144.312 406.68 142.766 407.727C141.219 408.758 140.008 410.219 139.133 412.109C138.273 414 137.844 416.227 137.844 418.789V418.812C137.844 421.375 138.273 423.609 139.133 425.516C139.992 427.406 141.195 428.875 142.742 429.922C144.305 430.953 146.125 431.469 148.203 431.469ZM149 427.859C147.562 427.859 146.32 427.5 145.273 426.781C144.227 426.047 143.422 425 142.859 423.641C142.297 422.281 142.016 420.672 142.016 418.812V418.789C142.016 416.93 142.297 415.328 142.859 413.984C143.422 412.641 144.227 411.602 145.273 410.867C146.32 410.133 147.562 409.766 149 409.766C150.375 409.766 151.586 410.141 152.633 410.891C153.695 411.641 154.531 412.695 155.141 414.055C155.75 415.398 156.055 416.977 156.055 418.789V418.812C156.055 420.625 155.75 422.211 155.141 423.57C154.547 424.93 153.719 425.984 152.656 426.734C151.594 427.484 150.375 427.859 149 427.859Z" fill="black"/>
</svg>
