<svg width="506" height="57" viewBox="0 0 506 57" fill="none" xmlns="http://www.w3.org/2000/svg">
<rect x="0.375" y="0.375" width="505.25" height="55.42" rx="4.41125" fill="#FFD600"/>
<path d="M21.5938 39.085H28.7031C30.3073 39.085 31.6771 38.835 32.8125 38.335C33.9479 37.8245 34.8177 37.1006 35.4219 36.1631C36.0365 35.2152 36.3438 34.0798 36.3438 32.7568V32.7256C36.3438 31.7256 36.1354 30.835 35.7188 30.0537C35.3021 29.262 34.7031 28.6162 33.9219 28.1162C33.1406 27.6162 32.2083 27.3037 31.125 27.1787V27.1162C31.9062 27.0016 32.6042 26.7048 33.2188 26.2256C33.8333 25.736 34.3177 25.137 34.6719 24.4287C35.026 23.7204 35.2031 22.9756 35.2031 22.1943V22.1631C35.2031 21.0381 34.9323 20.0537 34.3906 19.21C33.849 18.3662 33.0938 17.71 32.125 17.2412C31.1562 16.7725 30.026 16.5381 28.7344 16.5381H21.5938V19.0225H28.0938C29.4583 19.0225 30.5104 19.3193 31.25 19.9131C31.9896 20.4964 32.3594 21.3454 32.3594 22.46V22.4912C32.3594 23.71 31.9167 24.6423 31.0312 25.2881C30.1562 25.9339 28.8854 26.2568 27.2188 26.2568H21.5938V28.6787H28.0156C29.2135 28.6787 30.2135 28.8245 31.0156 29.1162C31.8281 29.4079 32.4375 29.8454 32.8438 30.4287C33.25 31.012 33.4531 31.7412 33.4531 32.6162V32.6475C33.4531 33.9391 33.0104 34.9235 32.125 35.6006C31.25 36.2673 29.9688 36.6006 28.2812 36.6006H21.5938V39.085ZM20.1875 39.085H23V16.5381H20.1875V39.085ZM39.1094 39.085H41.8281V29.0537C41.8281 28.2308 41.9688 27.5277 42.25 26.9443C42.5417 26.3506 42.9479 25.8975 43.4688 25.585C44 25.2725 44.6146 25.1162 45.3125 25.1162C45.6458 25.1162 45.9427 25.1318 46.2031 25.1631C46.474 25.1943 46.6615 25.2308 46.7656 25.2725V22.6318C46.6615 22.611 46.5104 22.5902 46.3125 22.5693C46.125 22.5381 45.9115 22.5225 45.6719 22.5225C44.7552 22.5225 43.9635 22.7985 43.2969 23.3506C42.6302 23.9027 42.1615 24.6475 41.8906 25.585H41.8281V22.835H39.1094V39.085ZM54.8906 39.3975C55.776 39.3975 56.599 39.2777 57.3594 39.0381C58.1198 38.7881 58.7969 38.4443 59.3906 38.0068C59.9844 37.5589 60.4688 37.0433 60.8438 36.46C61.2292 35.8766 61.4896 35.2516 61.625 34.585L61.6562 34.4287H58.9844L58.9375 34.5693C58.7812 35.0381 58.5208 35.4548 58.1562 35.8193C57.7917 36.1839 57.3385 36.4704 56.7969 36.6787C56.2552 36.887 55.6406 36.9912 54.9531 36.9912C53.974 36.9912 53.125 36.7777 52.4062 36.3506C51.6875 35.9131 51.1302 35.2881 50.7344 34.4756C50.349 33.6631 50.1562 32.6839 50.1562 31.5381V30.4912C50.1562 29.2829 50.3542 28.2673 50.75 27.4443C51.1458 26.611 51.6875 25.986 52.375 25.5693C53.0625 25.1423 53.8385 24.9287 54.7031 24.9287C55.5677 24.9287 56.3333 25.1318 57 25.5381C57.6667 25.9339 58.1875 26.5433 58.5625 27.3662C58.9479 28.1891 59.1406 29.2308 59.1406 30.4912V31.5381L60.5156 29.5693H48.7656V31.6943H61.8594V30.6943C61.8594 29.0693 61.5729 27.6423 61 26.4131C60.4271 25.1839 59.6042 24.2308 58.5312 23.5537C57.4688 22.8662 56.1979 22.5225 54.7188 22.5225C53.2396 22.5225 51.9531 22.8818 50.8594 23.6006C49.7656 24.3089 48.9167 25.3037 48.3125 26.585C47.7083 27.8558 47.4062 29.3298 47.4062 31.0068V31.0225C47.4062 32.7204 47.7031 34.1995 48.2969 35.46C48.901 36.71 49.7604 37.6787 50.875 38.3662C52 39.0537 53.3385 39.3975 54.8906 39.3975ZM69.3594 39.3975C70.0885 39.3975 70.776 39.2777 71.4219 39.0381C72.0781 38.7881 72.6667 38.4443 73.1875 38.0068C73.7083 37.5589 74.125 37.0381 74.4375 36.4443H74.5V39.085H77.2188V27.8506C77.2188 26.7673 76.9635 25.8298 76.4531 25.0381C75.9427 24.236 75.2188 23.6162 74.2812 23.1787C73.3542 22.7412 72.25 22.5225 70.9688 22.5225C69.6979 22.5225 68.599 22.7412 67.6719 23.1787C66.7448 23.6058 66.0156 24.1839 65.4844 24.9131C64.9635 25.6423 64.6615 26.4548 64.5781 27.3506L64.5625 27.5225H67.1875L67.2188 27.3818C67.375 26.6527 67.7708 26.0641 68.4062 25.6162C69.0521 25.1579 69.8958 24.9287 70.9375 24.9287C72.0729 24.9287 72.9479 25.2152 73.5625 25.7881C74.1875 26.3506 74.5 27.1266 74.5 28.1162V32.9131C74.5 33.6943 74.2969 34.3975 73.8906 35.0225C73.4948 35.6475 72.9531 36.1423 72.2656 36.5068C71.5885 36.861 70.8229 37.0381 69.9688 37.0381C68.9896 37.0381 68.2031 36.8089 67.6094 36.3506C67.026 35.8923 66.7344 35.2725 66.7344 34.4912V34.46C66.7344 33.6995 67.0312 33.0902 67.625 32.6318C68.2292 32.1735 69.0729 31.9131 70.1562 31.8506L75.8594 31.5068V29.3975L69.8438 29.7412C67.9792 29.8454 66.5312 30.3141 65.5 31.1475C64.4688 31.9704 63.9531 33.0745 63.9531 34.46V34.4912C63.9531 35.4704 64.1771 36.3298 64.625 37.0693C65.0833 37.8089 65.7188 38.3818 66.5312 38.7881C67.3438 39.1943 68.2865 39.3975 69.3594 39.3975ZM86.7812 39.3975C87.9479 39.3975 88.9688 39.1266 89.8438 38.585C90.7292 38.0329 91.4271 37.2829 91.9375 36.335H92V39.085H94.7188V16.5381H92V25.5537H91.9375C91.4271 24.6162 90.7188 23.8766 89.8125 23.335C88.9062 22.7933 87.8802 22.5225 86.7344 22.5225C85.3802 22.5225 84.1875 22.8714 83.1562 23.5693C82.125 24.2568 81.3177 25.2308 80.7344 26.4912C80.1615 27.7516 79.875 29.236 79.875 30.9443V30.96C79.875 32.6683 80.1615 34.1579 80.7344 35.4287C81.3073 36.6891 82.1094 37.6683 83.1406 38.3662C84.1823 39.0537 85.3958 39.3975 86.7812 39.3975ZM87.3125 36.9912C86.3542 36.9912 85.526 36.7516 84.8281 36.2725C84.1302 35.7829 83.5938 35.085 83.2188 34.1787C82.8438 33.2725 82.6562 32.1995 82.6562 30.96V30.9443C82.6562 29.7048 82.8438 28.637 83.2188 27.7412C83.5938 26.8454 84.1302 26.1527 84.8281 25.6631C85.526 25.1735 86.3542 24.9287 87.3125 24.9287C88.2292 24.9287 89.0365 25.1787 89.7344 25.6787C90.4427 26.1787 91 26.8818 91.4062 27.7881C91.8125 28.6839 92.0156 29.736 92.0156 30.9443V30.96C92.0156 32.1683 91.8125 33.2256 91.4062 34.1318C91.0104 35.0381 90.4583 35.7412 89.75 36.2412C89.0417 36.7412 88.2292 36.9912 87.3125 36.9912Z" fill="black"/>
<path d="M126.406 28.4756L110.938 22.5537V25.0225L126.25 30.7568V29.1787L110.938 34.9131V37.3193L126.406 31.3975V28.4756Z" fill="black"/>
<path d="M152.609 39.46C154.182 39.46 155.609 39.1683 156.891 38.585C158.172 38.0016 159.24 37.1787 160.094 36.1162C160.948 35.0433 161.516 33.7881 161.797 32.3506L161.828 32.1943H158.984L158.938 32.335C158.615 33.3245 158.156 34.1579 157.562 34.835C156.969 35.5016 156.255 36.0068 155.422 36.3506C154.599 36.6943 153.661 36.8662 152.609 36.8662C151.12 36.8662 149.818 36.4912 148.703 35.7412C147.589 34.9912 146.724 33.9391 146.109 32.585C145.505 31.2204 145.203 29.6266 145.203 27.8037V27.7881C145.203 25.9548 145.505 24.3662 146.109 23.0225C146.724 21.6683 147.583 20.6214 148.688 19.8818C149.802 19.1318 151.109 18.7568 152.609 18.7568C153.672 18.7568 154.62 18.9287 155.453 19.2725C156.286 19.6162 156.99 20.111 157.562 20.7568C158.146 21.3923 158.583 22.1683 158.875 23.085L158.984 23.4287H161.828L161.797 23.2725C161.516 21.8454 160.943 20.6006 160.078 19.5381C159.224 18.4756 158.156 17.6475 156.875 17.0537C155.594 16.46 154.172 16.1631 152.609 16.1631C150.516 16.1631 148.698 16.6423 147.156 17.6006C145.615 18.5485 144.422 19.8923 143.578 21.6318C142.734 23.3714 142.312 25.4235 142.312 27.7881V27.8037C142.312 30.1683 142.734 32.2256 143.578 33.9756C144.422 35.7152 145.615 37.0641 147.156 38.0225C148.708 38.9808 150.526 39.46 152.609 39.46ZM164.734 39.085H167.453V29.0537C167.453 28.2308 167.594 27.5277 167.875 26.9443C168.167 26.3506 168.573 25.8975 169.094 25.585C169.625 25.2725 170.24 25.1162 170.938 25.1162C171.271 25.1162 171.568 25.1318 171.828 25.1631C172.099 25.1943 172.286 25.2308 172.391 25.2725V22.6318C172.286 22.611 172.135 22.5902 171.938 22.5693C171.75 22.5381 171.536 22.5225 171.297 22.5225C170.38 22.5225 169.589 22.7985 168.922 23.3506C168.255 23.9027 167.786 24.6475 167.516 25.585H167.453V22.835H164.734V39.085ZM180.156 39.3975C181.396 39.3975 182.427 39.1527 183.25 38.6631C184.083 38.1631 184.719 37.5329 185.156 36.7725H185.219V39.085H187.938V22.835H185.219V32.3975C185.219 33.3141 185.042 34.1214 184.688 34.8193C184.344 35.5068 183.854 36.0433 183.219 36.4287C182.583 36.8037 181.839 36.9912 180.984 36.9912C179.734 36.9912 178.797 36.6423 178.172 35.9443C177.557 35.236 177.25 34.2204 177.25 32.8975V22.835H174.531V33.3818C174.531 34.611 174.75 35.6787 175.188 36.585C175.635 37.4808 176.276 38.1735 177.109 38.6631C177.953 39.1527 178.969 39.3975 180.156 39.3975ZM191.484 39.085H194.203V28.8975C194.203 28.137 194.365 27.46 194.688 26.8662C195.01 26.2725 195.448 25.8037 196 25.46C196.562 25.1058 197.203 24.9287 197.922 24.9287C198.932 24.9287 199.74 25.2256 200.344 25.8193C200.948 26.4131 201.25 27.2048 201.25 28.1943V39.085H203.969V28.7568C203.969 28.0173 204.125 27.361 204.438 26.7881C204.75 26.2048 205.182 25.7516 205.734 25.4287C206.286 25.0954 206.922 24.9287 207.641 24.9287C208.714 24.9287 209.542 25.2464 210.125 25.8818C210.719 26.5068 211.016 27.3766 211.016 28.4912V39.085H213.734V27.8662C213.734 26.7829 213.516 25.8454 213.078 25.0537C212.641 24.2516 212.026 23.6318 211.234 23.1943C210.443 22.7464 209.51 22.5225 208.438 22.5225C207.677 22.5225 206.964 22.6475 206.297 22.8975C205.641 23.1475 205.057 23.5068 204.547 23.9756C204.047 24.4339 203.646 24.9912 203.344 25.6475H203.281C203.052 24.9808 202.719 24.4183 202.281 23.96C201.844 23.4912 201.323 23.137 200.719 22.8975C200.125 22.6475 199.458 22.5225 198.719 22.5225C197.677 22.5225 196.766 22.7725 195.984 23.2725C195.203 23.762 194.63 24.4079 194.266 25.21H194.203V22.835H191.484V39.085ZM222.969 39.3975C224.177 39.3975 225.255 39.1943 226.203 38.7881C227.161 38.3714 227.911 37.7985 228.453 37.0693C229.005 36.3402 229.281 35.5016 229.281 34.5537V34.5381C229.281 33.3818 228.948 32.46 228.281 31.7725C227.615 31.0745 226.458 30.5277 224.812 30.1318L222.234 29.5068C221.339 29.2881 220.693 28.986 220.297 28.6006C219.901 28.2152 219.703 27.7464 219.703 27.1943V27.1787C219.703 26.6995 219.828 26.2829 220.078 25.9287C220.339 25.5641 220.708 25.2829 221.188 25.085C221.667 24.887 222.234 24.7881 222.891 24.7881C223.901 24.7881 224.698 25.0277 225.281 25.5068C225.875 25.986 226.224 26.6214 226.328 27.4131L226.344 27.5225H228.938L228.922 27.3193C228.859 26.4131 228.573 25.6006 228.062 24.8818C227.562 24.1527 226.87 23.5798 225.984 23.1631C225.109 22.736 224.078 22.5225 222.891 22.5225C221.724 22.5225 220.688 22.7256 219.781 23.1318C218.885 23.5381 218.182 24.1006 217.672 24.8193C217.172 25.5381 216.922 26.3662 216.922 27.3037V27.3193C216.922 28.486 217.297 29.4391 218.047 30.1787C218.797 30.9079 219.938 31.4548 221.469 31.8193L224.047 32.4443C224.974 32.6735 225.615 32.9652 225.969 33.3193C226.323 33.6735 226.5 34.1423 226.5 34.7256V34.7412C226.5 35.2308 226.359 35.6579 226.078 36.0225C225.797 36.3766 225.396 36.6527 224.875 36.8506C224.354 37.0381 223.724 37.1318 222.984 37.1318C221.88 37.1318 221.021 36.9079 220.406 36.46C219.792 36.0016 219.401 35.3662 219.234 34.5537L219.203 34.3975H216.484L216.5 34.5381C216.615 35.5068 216.938 36.3558 217.469 37.085C218.01 37.8141 218.745 38.3818 219.672 38.7881C220.599 39.1943 221.698 39.3975 222.969 39.3975Z" fill="black"/>
<path d="M260.406 28.4756L244.938 22.5537V25.0225L260.25 30.7568V29.1787L244.938 34.9131V37.3193L260.406 31.3975V28.4756Z" fill="black"/>
<path d="M278.594 39.085H285.703C287.307 39.085 288.677 38.835 289.812 38.335C290.948 37.8245 291.818 37.1006 292.422 36.1631C293.036 35.2152 293.344 34.0798 293.344 32.7568V32.7256C293.344 31.7256 293.135 30.835 292.719 30.0537C292.302 29.262 291.703 28.6162 290.922 28.1162C290.141 27.6162 289.208 27.3037 288.125 27.1787V27.1162C288.906 27.0016 289.604 26.7048 290.219 26.2256C290.833 25.736 291.318 25.137 291.672 24.4287C292.026 23.7204 292.203 22.9756 292.203 22.1943V22.1631C292.203 21.0381 291.932 20.0537 291.391 19.21C290.849 18.3662 290.094 17.71 289.125 17.2412C288.156 16.7725 287.026 16.5381 285.734 16.5381H278.594V19.0225H285.094C286.458 19.0225 287.51 19.3193 288.25 19.9131C288.99 20.4964 289.359 21.3454 289.359 22.46V22.4912C289.359 23.71 288.917 24.6423 288.031 25.2881C287.156 25.9339 285.885 26.2568 284.219 26.2568H278.594V28.6787H285.016C286.214 28.6787 287.214 28.8245 288.016 29.1162C288.828 29.4079 289.438 29.8454 289.844 30.4287C290.25 31.012 290.453 31.7412 290.453 32.6162V32.6475C290.453 33.9391 290.01 34.9235 289.125 35.6006C288.25 36.2673 286.969 36.6006 285.281 36.6006H278.594V39.085ZM277.188 39.085H280V16.5381H277.188V39.085ZM296.109 39.085H298.828V29.0537C298.828 28.2308 298.969 27.5277 299.25 26.9443C299.542 26.3506 299.948 25.8975 300.469 25.585C301 25.2725 301.615 25.1162 302.312 25.1162C302.646 25.1162 302.943 25.1318 303.203 25.1631C303.474 25.1943 303.661 25.2308 303.766 25.2725V22.6318C303.661 22.611 303.51 22.5902 303.312 22.5693C303.125 22.5381 302.911 22.5225 302.672 22.5225C301.755 22.5225 300.964 22.7985 300.297 23.3506C299.63 23.9027 299.161 24.6475 298.891 25.585H298.828V22.835H296.109V39.085ZM311.891 39.3975C312.776 39.3975 313.599 39.2777 314.359 39.0381C315.12 38.7881 315.797 38.4443 316.391 38.0068C316.984 37.5589 317.469 37.0433 317.844 36.46C318.229 35.8766 318.49 35.2516 318.625 34.585L318.656 34.4287H315.984L315.938 34.5693C315.781 35.0381 315.521 35.4548 315.156 35.8193C314.792 36.1839 314.339 36.4704 313.797 36.6787C313.255 36.887 312.641 36.9912 311.953 36.9912C310.974 36.9912 310.125 36.7777 309.406 36.3506C308.688 35.9131 308.13 35.2881 307.734 34.4756C307.349 33.6631 307.156 32.6839 307.156 31.5381V30.4912C307.156 29.2829 307.354 28.2673 307.75 27.4443C308.146 26.611 308.688 25.986 309.375 25.5693C310.062 25.1423 310.839 24.9287 311.703 24.9287C312.568 24.9287 313.333 25.1318 314 25.5381C314.667 25.9339 315.188 26.5433 315.562 27.3662C315.948 28.1891 316.141 29.2308 316.141 30.4912V31.5381L317.516 29.5693H305.766V31.6943H318.859V30.6943C318.859 29.0693 318.573 27.6423 318 26.4131C317.427 25.1839 316.604 24.2308 315.531 23.5537C314.469 22.8662 313.198 22.5225 311.719 22.5225C310.24 22.5225 308.953 22.8818 307.859 23.6006C306.766 24.3089 305.917 25.3037 305.312 26.585C304.708 27.8558 304.406 29.3298 304.406 31.0068V31.0225C304.406 32.7204 304.703 34.1995 305.297 35.46C305.901 36.71 306.76 37.6787 307.875 38.3662C309 39.0537 310.339 39.3975 311.891 39.3975ZM326.359 39.3975C327.089 39.3975 327.776 39.2777 328.422 39.0381C329.078 38.7881 329.667 38.4443 330.188 38.0068C330.708 37.5589 331.125 37.0381 331.438 36.4443H331.5V39.085H334.219V27.8506C334.219 26.7673 333.964 25.8298 333.453 25.0381C332.943 24.236 332.219 23.6162 331.281 23.1787C330.354 22.7412 329.25 22.5225 327.969 22.5225C326.698 22.5225 325.599 22.7412 324.672 23.1787C323.745 23.6058 323.016 24.1839 322.484 24.9131C321.964 25.6423 321.661 26.4548 321.578 27.3506L321.562 27.5225H324.188L324.219 27.3818C324.375 26.6527 324.771 26.0641 325.406 25.6162C326.052 25.1579 326.896 24.9287 327.938 24.9287C329.073 24.9287 329.948 25.2152 330.562 25.7881C331.188 26.3506 331.5 27.1266 331.5 28.1162V32.9131C331.5 33.6943 331.297 34.3975 330.891 35.0225C330.495 35.6475 329.953 36.1423 329.266 36.5068C328.589 36.861 327.823 37.0381 326.969 37.0381C325.99 37.0381 325.203 36.8089 324.609 36.3506C324.026 35.8923 323.734 35.2725 323.734 34.4912V34.46C323.734 33.6995 324.031 33.0902 324.625 32.6318C325.229 32.1735 326.073 31.9131 327.156 31.8506L332.859 31.5068V29.3975L326.844 29.7412C324.979 29.8454 323.531 30.3141 322.5 31.1475C321.469 31.9704 320.953 33.0745 320.953 34.46V34.4912C320.953 35.4704 321.177 36.3298 321.625 37.0693C322.083 37.8089 322.719 38.3818 323.531 38.7881C324.344 39.1943 325.286 39.3975 326.359 39.3975ZM343.781 39.3975C344.948 39.3975 345.969 39.1266 346.844 38.585C347.729 38.0329 348.427 37.2829 348.938 36.335H349V39.085H351.719V16.5381H349V25.5537H348.938C348.427 24.6162 347.719 23.8766 346.812 23.335C345.906 22.7933 344.88 22.5225 343.734 22.5225C342.38 22.5225 341.188 22.8714 340.156 23.5693C339.125 24.2568 338.318 25.2308 337.734 26.4912C337.161 27.7516 336.875 29.236 336.875 30.9443V30.96C336.875 32.6683 337.161 34.1579 337.734 35.4287C338.307 36.6891 339.109 37.6683 340.141 38.3662C341.182 39.0537 342.396 39.3975 343.781 39.3975ZM344.312 36.9912C343.354 36.9912 342.526 36.7516 341.828 36.2725C341.13 35.7829 340.594 35.085 340.219 34.1787C339.844 33.2725 339.656 32.1995 339.656 30.96V30.9443C339.656 29.7048 339.844 28.637 340.219 27.7412C340.594 26.8454 341.13 26.1527 341.828 25.6631C342.526 25.1735 343.354 24.9287 344.312 24.9287C345.229 24.9287 346.036 25.1787 346.734 25.6787C347.443 26.1787 348 26.8818 348.406 27.7881C348.812 28.6839 349.016 29.736 349.016 30.9443V30.96C349.016 32.1683 348.812 33.2256 348.406 34.1318C348.01 35.0381 347.458 35.7412 346.75 36.2412C346.042 36.7412 345.229 36.9912 344.312 36.9912Z" fill="black"/>
<path d="M383.406 28.4756L367.938 22.5537V25.0225L383.25 30.7568V29.1787L367.938 34.9131V37.3193L383.406 31.3975V28.4756Z" fill="black"/>
<path d="M409.609 39.46C411.182 39.46 412.609 39.1683 413.891 38.585C415.172 38.0016 416.24 37.1787 417.094 36.1162C417.948 35.0433 418.516 33.7881 418.797 32.3506L418.828 32.1943H415.984L415.938 32.335C415.615 33.3245 415.156 34.1579 414.562 34.835C413.969 35.5016 413.255 36.0068 412.422 36.3506C411.599 36.6943 410.661 36.8662 409.609 36.8662C408.12 36.8662 406.818 36.4912 405.703 35.7412C404.589 34.9912 403.724 33.9391 403.109 32.585C402.505 31.2204 402.203 29.6266 402.203 27.8037V27.7881C402.203 25.9548 402.505 24.3662 403.109 23.0225C403.724 21.6683 404.583 20.6214 405.688 19.8818C406.802 19.1318 408.109 18.7568 409.609 18.7568C410.672 18.7568 411.62 18.9287 412.453 19.2725C413.286 19.6162 413.99 20.111 414.562 20.7568C415.146 21.3923 415.583 22.1683 415.875 23.085L415.984 23.4287H418.828L418.797 23.2725C418.516 21.8454 417.943 20.6006 417.078 19.5381C416.224 18.4756 415.156 17.6475 413.875 17.0537C412.594 16.46 411.172 16.1631 409.609 16.1631C407.516 16.1631 405.698 16.6423 404.156 17.6006C402.615 18.5485 401.422 19.8923 400.578 21.6318C399.734 23.3714 399.312 25.4235 399.312 27.7881V27.8037C399.312 30.1683 399.734 32.2256 400.578 33.9756C401.422 35.7152 402.615 37.0641 404.156 38.0225C405.708 38.9808 407.526 39.46 409.609 39.46ZM421.734 39.085H424.453V29.0537C424.453 28.2308 424.594 27.5277 424.875 26.9443C425.167 26.3506 425.573 25.8975 426.094 25.585C426.625 25.2725 427.24 25.1162 427.938 25.1162C428.271 25.1162 428.568 25.1318 428.828 25.1631C429.099 25.1943 429.286 25.2308 429.391 25.2725V22.6318C429.286 22.611 429.135 22.5902 428.938 22.5693C428.75 22.5381 428.536 22.5225 428.297 22.5225C427.38 22.5225 426.589 22.7985 425.922 23.3506C425.255 23.9027 424.786 24.6475 424.516 25.585H424.453V22.835H421.734V39.085ZM437.156 39.3975C438.396 39.3975 439.427 39.1527 440.25 38.6631C441.083 38.1631 441.719 37.5329 442.156 36.7725H442.219V39.085H444.938V22.835H442.219V32.3975C442.219 33.3141 442.042 34.1214 441.688 34.8193C441.344 35.5068 440.854 36.0433 440.219 36.4287C439.583 36.8037 438.839 36.9912 437.984 36.9912C436.734 36.9912 435.797 36.6423 435.172 35.9443C434.557 35.236 434.25 34.2204 434.25 32.8975V22.835H431.531V33.3818C431.531 34.611 431.75 35.6787 432.188 36.585C432.635 37.4808 433.276 38.1735 434.109 38.6631C434.953 39.1527 435.969 39.3975 437.156 39.3975ZM448.484 39.085H451.203V28.8975C451.203 28.137 451.365 27.46 451.688 26.8662C452.01 26.2725 452.448 25.8037 453 25.46C453.562 25.1058 454.203 24.9287 454.922 24.9287C455.932 24.9287 456.74 25.2256 457.344 25.8193C457.948 26.4131 458.25 27.2048 458.25 28.1943V39.085H460.969V28.7568C460.969 28.0173 461.125 27.361 461.438 26.7881C461.75 26.2048 462.182 25.7516 462.734 25.4287C463.286 25.0954 463.922 24.9287 464.641 24.9287C465.714 24.9287 466.542 25.2464 467.125 25.8818C467.719 26.5068 468.016 27.3766 468.016 28.4912V39.085H470.734V27.8662C470.734 26.7829 470.516 25.8454 470.078 25.0537C469.641 24.2516 469.026 23.6318 468.234 23.1943C467.443 22.7464 466.51 22.5225 465.438 22.5225C464.677 22.5225 463.964 22.6475 463.297 22.8975C462.641 23.1475 462.057 23.5068 461.547 23.9756C461.047 24.4339 460.646 24.9912 460.344 25.6475H460.281C460.052 24.9808 459.719 24.4183 459.281 23.96C458.844 23.4912 458.323 23.137 457.719 22.8975C457.125 22.6475 456.458 22.5225 455.719 22.5225C454.677 22.5225 453.766 22.7725 452.984 23.2725C452.203 23.762 451.63 24.4079 451.266 25.21H451.203V22.835H448.484V39.085ZM479.969 39.3975C481.177 39.3975 482.255 39.1943 483.203 38.7881C484.161 38.3714 484.911 37.7985 485.453 37.0693C486.005 36.3402 486.281 35.5016 486.281 34.5537V34.5381C486.281 33.3818 485.948 32.46 485.281 31.7725C484.615 31.0745 483.458 30.5277 481.812 30.1318L479.234 29.5068C478.339 29.2881 477.693 28.986 477.297 28.6006C476.901 28.2152 476.703 27.7464 476.703 27.1943V27.1787C476.703 26.6995 476.828 26.2829 477.078 25.9287C477.339 25.5641 477.708 25.2829 478.188 25.085C478.667 24.887 479.234 24.7881 479.891 24.7881C480.901 24.7881 481.698 25.0277 482.281 25.5068C482.875 25.986 483.224 26.6214 483.328 27.4131L483.344 27.5225H485.938L485.922 27.3193C485.859 26.4131 485.573 25.6006 485.062 24.8818C484.562 24.1527 483.87 23.5798 482.984 23.1631C482.109 22.736 481.078 22.5225 479.891 22.5225C478.724 22.5225 477.688 22.7256 476.781 23.1318C475.885 23.5381 475.182 24.1006 474.672 24.8193C474.172 25.5381 473.922 26.3662 473.922 27.3037V27.3193C473.922 28.486 474.297 29.4391 475.047 30.1787C475.797 30.9079 476.938 31.4548 478.469 31.8193L481.047 32.4443C481.974 32.6735 482.615 32.9652 482.969 33.3193C483.323 33.6735 483.5 34.1423 483.5 34.7256V34.7412C483.5 35.2308 483.359 35.6579 483.078 36.0225C482.797 36.3766 482.396 36.6527 481.875 36.8506C481.354 37.0381 480.724 37.1318 479.984 37.1318C478.88 37.1318 478.021 36.9079 477.406 36.46C476.792 36.0016 476.401 35.3662 476.234 34.5537L476.203 34.3975H473.484L473.5 34.5381C473.615 35.5068 473.938 36.3558 474.469 37.085C475.01 37.8141 475.745 38.3818 476.672 38.7881C477.599 39.1943 478.698 39.3975 479.969 39.3975Z" fill="black"/>
<rect x="0.375" y="0.375" width="505.25" height="55.42" rx="4.41125" stroke="black" stroke-width="0.75"/>
</svg>
