<svg width="81" height="528" viewBox="0 0 81 528" fill="none" xmlns="http://www.w3.org/2000/svg">
<path d="M80.2786 459.013H0.520508V467.771H80.2786V459.013Z" fill="white" stroke="black" stroke-width="0.75" stroke-miterlimit="10"/>
<path d="M80.2786 459.013H0.520508V467.771H80.2786V459.013Z" fill="white" stroke="black" stroke-width="0.75" stroke-miterlimit="10"/>
<path d="M80.2786 467.771H0.520508V476.529H80.2786V467.771Z" fill="white" stroke="black" stroke-width="0.75" stroke-miterlimit="10"/>
<path d="M80.2786 476.541H0.520508V485.299H80.2786V476.541Z" fill="white" stroke="black" stroke-width="0.75" stroke-miterlimit="10"/>
<path d="M0.520508 485.299H80.2786V521.186C80.2786 524.6 77.507 527.371 74.092 527.371H6.70714C3.29212 527.371 0.520508 524.6 0.520508 521.186V485.299V485.299Z" fill="#FF0400" stroke="black" stroke-width="0.75" stroke-miterlimit="10"/>
<path d="M76.8266 85.5393C74.3891 82.8673 70.8874 81.185 66.9899 81.185C59.6401 81.185 53.6886 87.1351 53.6886 94.4707C53.6886 87.1351 47.7371 81.185 40.3997 81.185C33.0624 81.185 27.1108 87.1351 27.1108 94.4707C27.1108 87.1351 21.1593 81.185 13.8096 81.185C10.2832 81.185 7.0661 82.5581 4.69043 84.8218L31.4167 22.9453H49.7787L76.8266 85.5393Z" fill="white" stroke="black" stroke-width="0.75"/>
<path d="M53.6881 94.4698V459.012H27.1104V94.4698C27.1104 87.1342 33.0619 81.1841 40.3992 81.1841C47.7366 81.1841 53.6881 87.1342 53.6881 94.4698Z" fill="#FF85D5" stroke="black" stroke-width="0.75"/>
<path d="M80.2786 94.4698V459.012H53.6885V94.4698C53.6885 87.1342 59.64 81.1841 66.9897 81.1841C70.8873 81.1841 74.389 82.8664 76.8265 85.5384L80.2292 93.4184C80.2292 93.4184 80.2415 93.4307 80.2292 93.4431C80.2663 93.7771 80.2786 94.1235 80.2786 94.4698Z" fill="#0066FF" stroke="black" stroke-width="0.75"/>
<path d="M27.1107 94.4698V459.012H0.520508V94.4698L4.69029 84.821C7.06596 82.5572 10.283 81.1841 13.8094 81.1841C21.1592 81.1841 27.1107 87.1342 27.1107 94.4698Z" fill="#00B026" stroke="black" stroke-width="0.75"/>
<path d="M49.779 22.9451H31.417L40.5979 1.69287L49.779 22.9451Z" fill="black" stroke="black" stroke-width="0.75"/>
</svg>
