<svg width="67" height="437" viewBox="0 0 67 437" fill="none" xmlns="http://www.w3.org/2000/svg">
<path d="M66.4697 379.573H0.469727V386.82H66.4697V379.573Z" fill="white" stroke="black" stroke-width="0.75" stroke-miterlimit="10"/>
<path d="M66.4697 379.573H0.469727V386.82H66.4697V379.573Z" fill="white" stroke="black" stroke-width="0.75" stroke-miterlimit="10"/>
<path d="M66.4697 386.82H0.469727V394.068H66.4697V386.82Z" fill="white" stroke="black" stroke-width="0.75" stroke-miterlimit="10"/>
<path d="M66.4697 394.078H0.469727V401.325H66.4697V394.078Z" fill="white" stroke="black" stroke-width="0.75" stroke-miterlimit="10"/>
<path d="M0.469727 401.325H66.4697V431.021C66.4697 433.847 64.1762 436.14 61.3503 436.14H5.58918C2.76324 436.14 0.469727 433.847 0.469727 431.021V401.325V401.325Z" fill="#FF0400" stroke="black" stroke-width="0.75" stroke-miterlimit="10"/>
<path d="M63.6133 70.5228C61.5962 68.3117 58.6986 66.9195 55.4733 66.9195C49.3914 66.9195 44.4665 71.8433 44.4665 77.9135C44.4665 71.8433 39.5416 66.9195 33.4699 66.9195C27.3982 66.9195 22.4733 71.8433 22.4733 77.9135C22.4733 71.8433 17.5484 66.9195 11.4665 66.9195C8.54842 66.9195 5.88628 68.0558 3.92041 69.929L26.0365 18.7261H41.231L63.6133 70.5228Z" fill="white" stroke="black" stroke-width="0.75"/>
<path d="M44.4663 77.9129V379.572H22.4731V77.9129C22.4731 71.8427 27.398 66.9189 33.4697 66.9189C39.5414 66.9189 44.4663 71.8427 44.4663 77.9129Z" fill="#FF85D5" stroke="black" stroke-width="0.75"/>
<path d="M66.4697 77.9129V379.572H44.4663V77.9129C44.4663 71.8427 49.3912 66.9189 55.4731 66.9189C58.6984 66.9189 61.596 68.3111 63.6131 70.5222L66.4288 77.0428C66.4288 77.0428 66.439 77.0531 66.4288 77.0633C66.4595 77.3397 66.4697 77.6263 66.4697 77.9129Z" fill="#0066FF" stroke="black" stroke-width="0.75"/>
<path d="M22.4732 77.9129V379.572H0.469727V77.9129L3.92023 69.9285C5.8861 68.0552 8.54825 66.9189 11.4663 66.9189C17.5482 66.9189 22.4732 71.8427 22.4732 77.9129Z" fill="#00B026" stroke="black" stroke-width="0.75"/>
<path d="M41.2312 18.726H26.0366L33.6339 1.13965L41.2312 18.726Z" fill="black" stroke="black" stroke-width="0.75"/>
</svg>
