<svg width="193" height="272" viewBox="0 0 193 272" fill="none" xmlns="http://www.w3.org/2000/svg">
<g clip-path="url(#clip0_9_27527)">
<rect x="0.663818" width="191.673" height="272" fill="white"/>
<rect x="0.663818" width="191.673" height="272" fill="#FFD600" stroke="black" stroke-width="0.75"/>
<circle cx="97.693" cy="82.7134" r="45.7537" fill="#FF0400" stroke="black" stroke-width="0.75"/>
<rect x="1.83411" y="67.9773" width="190.127" height="30.2675" fill="#0066FF" stroke="black" stroke-width="0.75"/>
<path d="M41.2518 81.1215C43.9096 82.0122 46.9633 82.4504 50.4411 82.4504C53.9189 82.4504 56.9867 82.0122 59.6587 81.1215C62.3307 80.2309 64.4089 78.9868 65.8933 77.3751C67.3777 75.7634 68.1129 73.8691 68.1129 71.706C68.1129 69.543 67.3777 67.5921 65.8933 65.9521C64.4089 64.3122 62.3307 63.0257 59.6587 62.1209C56.9867 61.2161 53.9189 60.7637 50.4411 60.7637C46.9633 60.7637 43.8955 61.2161 41.2518 62.1209C38.594 63.0257 36.5299 64.298 35.0455 65.9521C33.5611 67.6062 32.8259 69.5147 32.8259 71.706C32.8259 73.8973 33.5611 75.7634 35.0455 77.3751C36.5299 78.9868 38.594 80.2309 41.2518 81.1215ZM40.4318 68.4262C41.3649 67.5072 42.6797 66.8145 44.3903 66.3338C46.1009 65.8531 48.1084 65.5987 50.427 65.5845C52.7596 65.5987 54.7813 65.8531 56.4919 66.3338C58.2026 66.8145 59.5315 67.5072 60.4645 68.4262C61.4117 69.3451 61.8783 70.4337 61.8783 71.6919C61.8783 72.9501 61.4117 74.0104 60.4645 74.9011C59.5173 75.7917 58.1884 76.4703 56.4778 76.9369C54.753 77.4034 52.7455 77.6437 50.427 77.6437C48.1084 77.6437 46.1009 77.4034 44.3903 76.9369C42.6797 76.4703 41.3649 75.7776 40.4318 74.887C39.4988 73.9963 39.0464 72.9218 39.0605 71.6919C39.0464 70.4195 39.4988 69.331 40.4318 68.4262Z" fill="white" stroke="black" stroke-width="0.75" stroke-miterlimit="10"/>
<path d="M73.0042 86.5208H28.1462V91.4123H38.8482V108.024H45.0404V91.4123H55.9262V108.024H62.0335V91.4123H73.0042V86.5208Z" fill="white" stroke="black" stroke-width="0.75" stroke-miterlimit="10"/>
<path d="M95.9925 64.6939C94.0698 63.2801 91.8785 62.5732 89.4327 62.5732C86.9869 62.5732 84.7532 63.2801 82.8164 64.6939C80.8937 66.1076 79.381 68.1292 78.2924 70.7588C77.2038 73.3884 76.6666 76.442 76.6666 79.8915C76.6666 83.3411 77.2038 86.4654 78.2924 89.0809C79.381 91.6963 80.8796 93.7179 82.8164 95.1317C84.7391 96.5595 86.9445 97.2664 89.4327 97.2664C91.9209 97.2664 94.0556 96.5595 95.9925 95.1317C97.9293 93.7038 99.4278 91.6822 100.531 89.0667C101.619 86.4372 102.185 83.3835 102.199 79.8915C102.185 76.4279 101.619 73.3884 100.531 70.7588C99.442 68.1292 97.9293 66.1076 95.9925 64.6939V64.6939ZM95.5118 86.3099C94.9463 88.1054 94.1405 89.4626 93.0802 90.4098C92.0199 91.357 90.804 91.8094 89.4327 91.7953C88.0614 91.8094 86.8456 91.357 85.8135 90.4098C84.7674 89.4626 83.9474 88.1054 83.3536 86.3099C82.7599 84.5145 82.463 82.3797 82.4912 79.9057C82.4771 77.4458 82.7599 75.3252 83.3536 73.5439C83.9474 71.7626 84.7674 70.3912 85.8135 69.444C86.8597 68.4968 88.0614 68.0161 89.4327 68.0161C90.804 68.0161 92.0199 68.4827 93.0802 69.4299C94.1405 70.3771 94.9463 71.7343 95.5118 73.5297C96.0772 75.3252 96.36 77.4458 96.36 79.9057C96.36 82.3656 96.0772 84.5286 95.5118 86.3099Z" fill="white" stroke="black" stroke-width="0.75" stroke-miterlimit="10"/>
<path d="M122.26 77.8683H114.682V58.9949H108.66V108.023H114.682V82.9436H122.26V77.8683Z" fill="white" stroke="black" stroke-width="0.75" stroke-miterlimit="10"/>
<path d="M145.289 64.6913C147.226 66.105 148.739 68.1267 149.827 70.7562C150.916 73.3858 151.453 76.4394 151.453 79.889C151.453 83.3385 150.916 86.4487 149.827 89.0642C148.739 91.6937 147.226 93.7153 145.289 95.1291C143.352 96.5569 141.147 97.2638 138.687 97.2638C136.227 97.2638 133.993 96.5569 132.057 95.1291C130.12 93.7012 128.593 91.6796 127.49 89.0642C126.387 86.4346 125.836 83.3809 125.864 79.889C125.85 76.4253 126.387 73.3858 127.49 70.7562C128.593 68.1267 130.12 66.105 132.057 64.6913C133.993 63.2775 136.199 62.5707 138.687 62.5707C141.175 62.5707 143.352 63.2775 145.289 64.6913ZM135.011 69.4131C133.951 70.3604 133.145 71.7317 132.565 73.5271C131.986 75.3226 131.717 77.4573 131.717 79.889C131.717 82.3206 132 84.5119 132.565 86.2932C133.131 88.0886 133.951 89.4459 135.011 90.3931C136.072 91.3403 137.301 91.7926 138.687 91.7785C140.058 91.7926 141.274 91.3403 142.32 90.3931C143.366 89.4459 144.186 88.0886 144.766 86.2932C145.346 84.4977 145.628 82.363 145.628 79.889C145.628 77.4149 145.346 75.3084 144.766 73.5271C144.186 71.7458 143.366 70.3745 142.32 69.4273C141.274 68.4801 140.058 67.9994 138.687 67.9994C137.316 67.9994 136.072 68.4659 135.011 69.4131V69.4131ZM165.138 108.164H159.031V58.9939H165.138V108.164V108.164Z" fill="white" stroke="black" stroke-width="0.75" stroke-miterlimit="10"/>
<path d="M57.4287 134.627C57.4685 134.627 57.5043 134.62 57.5359 134.606C57.5677 134.592 57.594 134.573 57.6147 134.548C57.6354 134.522 57.6489 134.492 57.6551 134.458V134.458H57.5844L57.5836 134.458C57.5779 134.48 57.5678 134.498 57.5533 134.514C57.5388 134.53 57.521 134.542 57.4997 134.55C57.4785 134.559 57.4548 134.563 57.4287 134.563C57.3927 134.563 57.3615 134.553 57.3351 134.535C57.3089 134.516 57.2887 134.49 57.2745 134.456C57.2603 134.421 57.2531 134.381 57.2531 134.334V134.334C57.2531 134.287 57.2603 134.246 57.2745 134.212C57.2887 134.178 57.3089 134.151 57.3351 134.133C57.3615 134.114 57.3926 134.105 57.4283 134.105C57.4542 134.105 57.4776 134.11 57.4986 134.119C57.5198 134.129 57.5378 134.142 57.5526 134.16C57.5673 134.177 57.5778 134.198 57.584 134.222L57.5844 134.223H57.6547L57.6551 134.222C57.6496 134.186 57.6364 134.155 57.6155 134.128C57.5945 134.1 57.5678 134.079 57.5355 134.064C57.5034 134.048 57.4676 134.04 57.4283 134.04C57.3775 134.04 57.3337 134.052 57.2966 134.076C57.2599 134.1 57.2314 134.134 57.2112 134.178C57.1913 134.221 57.1813 134.273 57.1813 134.334V134.334C57.1813 134.394 57.1913 134.446 57.2112 134.49C57.2314 134.534 57.26 134.568 57.297 134.591C57.334 134.615 57.3779 134.627 57.4287 134.627ZM57.7677 134.614H57.8353V134.029H57.7677V134.614ZM58.0799 134.621C58.0988 134.621 58.1162 134.619 58.132 134.614C58.1477 134.608 58.1619 134.6 58.1743 134.59C58.187 134.58 58.1977 134.567 58.2065 134.552H58.2127V134.614H58.2803V134.327C58.2803 134.298 58.2741 134.274 58.2617 134.253C58.2495 134.232 58.2315 134.216 58.2077 134.205C58.1841 134.194 58.1553 134.188 58.1211 134.188C58.0913 134.188 58.0648 134.193 58.0415 134.202C58.0182 134.211 57.9991 134.224 57.9844 134.24C57.9699 134.257 57.9608 134.276 57.9572 134.298L57.9568 134.3H58.0244L58.0248 134.299C58.0302 134.283 58.041 134.27 58.057 134.261C58.0731 134.252 58.0936 134.248 58.1188 134.248C58.1501 134.248 58.1735 134.255 58.189 134.268C58.2048 134.282 58.2127 134.302 58.2127 134.327V134.458C58.2127 134.478 58.2076 134.496 58.1972 134.511C58.1871 134.527 58.1731 134.54 58.1553 134.549C58.1374 134.558 58.1169 134.563 58.0939 134.563C58.0696 134.563 58.0494 134.557 58.0333 134.545C58.0173 134.533 58.0092 134.517 58.0092 134.496V134.495C58.0092 134.474 58.0165 134.458 58.031 134.447C58.0457 134.435 58.069 134.429 58.1009 134.427L58.2465 134.418V134.364L58.0927 134.373C58.0604 134.375 58.0328 134.381 58.01 134.391C57.9872 134.401 57.9699 134.415 57.958 134.433C57.9461 134.45 57.9401 134.471 57.9401 134.496V134.497C57.9401 134.522 57.9462 134.545 57.9584 134.563C57.9708 134.582 57.9875 134.596 58.0085 134.606C58.0297 134.616 58.0535 134.621 58.0799 134.621ZM58.5475 134.621C58.5793 134.621 58.6078 134.616 58.6329 134.605C58.6583 134.595 58.6784 134.58 58.6931 134.561C58.7079 134.542 58.7152 134.52 58.7152 134.495V134.494C58.7152 134.464 58.7055 134.44 58.6861 134.423C58.667 134.405 58.6377 134.391 58.5984 134.381L58.5339 134.366C58.5176 134.362 58.5042 134.357 58.4939 134.351C58.4835 134.346 58.4759 134.34 58.471 134.332C58.4661 134.325 58.4636 134.317 58.4636 134.308V134.307C58.4636 134.294 58.4674 134.284 58.4749 134.274C58.4824 134.265 58.4926 134.258 58.5055 134.252C58.5185 134.247 58.5332 134.244 58.5498 134.244C58.5752 134.244 58.5958 134.249 58.6116 134.26C58.6274 134.27 58.6374 134.284 58.6418 134.3H58.7083C58.7051 134.277 58.6966 134.258 58.6826 134.241C58.6689 134.224 58.6507 134.211 58.6279 134.202C58.6053 134.193 58.5795 134.188 58.5502 134.188C58.5207 134.188 58.4941 134.193 58.4706 134.204C58.447 134.215 58.4284 134.229 58.4147 134.247C58.4012 134.266 58.3945 134.287 58.3945 134.31V134.31C58.3945 134.33 58.3985 134.348 58.4065 134.362C58.4145 134.377 58.427 134.389 58.4438 134.399C58.4606 134.409 58.4821 134.417 58.5083 134.423L58.5731 134.439C58.599 134.445 58.6176 134.453 58.629 134.463C58.6404 134.473 58.6461 134.485 58.6461 134.499V134.5C58.6461 134.513 58.642 134.524 58.6337 134.534C58.6254 134.544 58.614 134.551 58.5995 134.557C58.5853 134.562 58.5687 134.565 58.5498 134.565C58.5231 134.565 58.5015 134.56 58.485 134.549C58.4684 134.539 58.4573 134.525 58.4516 134.507H58.3824C58.385 134.53 58.3934 134.55 58.4077 134.567C58.4222 134.584 58.4413 134.598 58.4652 134.607C58.489 134.617 58.5164 134.621 58.5475 134.621ZM58.956 134.621C58.9879 134.621 59.0163 134.616 59.0415 134.605C59.0668 134.595 59.0869 134.58 59.1016 134.561C59.1164 134.542 59.1238 134.52 59.1238 134.495V134.494C59.1238 134.464 59.1141 134.44 59.0947 134.423C59.0755 134.405 59.0462 134.391 59.0069 134.381L58.9424 134.366C58.9261 134.362 58.9128 134.357 58.9024 134.351C58.8921 134.346 58.8844 134.34 58.8795 134.332C58.8746 134.325 58.8721 134.317 58.8721 134.308V134.307C58.8721 134.294 58.8759 134.284 58.8834 134.274C58.8909 134.265 58.9011 134.258 58.9141 134.252C58.927 134.247 58.9418 134.244 58.9583 134.244C58.9837 134.244 59.0043 134.249 59.0201 134.26C59.0359 134.27 59.046 134.284 59.0504 134.3H59.1168C59.1137 134.277 59.1051 134.258 59.0912 134.241C59.0774 134.224 59.0592 134.211 59.0364 134.202C59.0139 134.193 58.988 134.188 58.9587 134.188C58.9292 134.188 58.9027 134.193 58.8791 134.204C58.8556 134.215 58.8369 134.229 58.8232 134.247C58.8097 134.266 58.803 134.287 58.803 134.31V134.31C58.803 134.33 58.807 134.348 58.815 134.362C58.8231 134.377 58.8355 134.389 58.8523 134.399C58.8692 134.409 58.8906 134.417 58.9168 134.423L58.9816 134.439C59.0075 134.445 59.0262 134.453 59.0376 134.463C59.049 134.473 59.0547 134.485 59.0547 134.499V134.5C59.0547 134.513 59.0505 134.524 59.0422 134.534C59.0339 134.544 59.0226 134.551 59.0081 134.557C58.9938 134.562 58.9772 134.565 58.9583 134.565C58.9317 134.565 58.9101 134.56 58.8935 134.549C58.8769 134.539 58.8658 134.525 58.8601 134.507H58.791C58.7936 134.53 58.802 134.55 58.8162 134.567C58.8307 134.584 58.8499 134.598 58.8737 134.607C58.8975 134.617 58.9249 134.621 58.956 134.621ZM59.2302 134.614H59.2978V134.195H59.2302V134.614ZM59.2644 134.115C59.2773 134.115 59.2883 134.11 59.2974 134.101C59.3064 134.092 59.311 134.081 59.311 134.068C59.311 134.055 59.3064 134.044 59.2974 134.035C59.2883 134.026 59.2773 134.021 59.2644 134.021C59.2517 134.021 59.2407 134.026 59.2313 134.035C59.2223 134.044 59.2178 134.055 59.2178 134.068C59.2178 134.081 59.2223 134.092 59.2313 134.101C59.2407 134.11 59.2517 134.115 59.2644 134.115ZM59.5964 134.621C59.63 134.621 59.6588 134.616 59.6826 134.605C59.7064 134.594 59.7256 134.578 59.7401 134.559C59.7546 134.539 59.7647 134.517 59.7704 134.492L59.7711 134.487L59.7043 134.488L59.7036 134.49C59.6958 134.513 59.683 134.531 59.6651 134.543C59.6473 134.556 59.6242 134.562 59.596 134.562C59.5711 134.562 59.5495 134.555 59.5311 134.542C59.5128 134.529 59.4985 134.511 59.4884 134.487C59.4783 134.464 59.4733 134.436 59.4733 134.404V134.403C59.4733 134.371 59.4782 134.344 59.488 134.321C59.4981 134.298 59.5124 134.28 59.5308 134.267C59.5491 134.254 59.5709 134.248 59.596 134.248C59.626 134.248 59.6502 134.255 59.6686 134.27C59.687 134.284 59.6988 134.302 59.704 134.322L59.7043 134.324H59.7715L59.7711 134.321C59.767 134.296 59.7576 134.274 59.7428 134.254C59.728 134.234 59.7084 134.218 59.6838 134.206C59.6592 134.194 59.6299 134.188 59.596 134.188C59.5569 134.188 59.523 134.197 59.4943 134.215C59.4655 134.232 59.4433 134.257 59.4275 134.289C59.4119 134.321 59.4042 134.359 59.4042 134.403V134.404C59.4042 134.448 59.4121 134.486 59.4279 134.519C59.4436 134.551 59.4659 134.577 59.4946 134.595C59.5234 134.612 59.5573 134.621 59.5964 134.621ZM59.8741 134.614H59.9416V134.366C59.9416 134.342 59.946 134.321 59.9548 134.303C59.9639 134.285 59.9766 134.272 59.9929 134.262C60.0092 134.253 60.0285 134.248 60.0507 134.248C60.0841 134.248 60.1087 134.257 60.1245 134.275C60.1406 134.294 60.1486 134.321 60.1486 134.359V134.614H60.2162V134.343C60.2162 134.31 60.2105 134.282 60.1991 134.259C60.1877 134.236 60.1711 134.218 60.1494 134.206C60.1276 134.194 60.1011 134.188 60.0698 134.188C60.039 134.188 60.0136 134.194 59.9937 134.207C59.9737 134.219 59.9585 134.236 59.9478 134.258H59.9416V134.029H59.8741V134.614ZM60.5094 134.621C60.534 134.621 60.5561 134.618 60.5758 134.612C60.5957 134.606 60.6129 134.597 60.6274 134.586C60.6419 134.576 60.6537 134.564 60.6628 134.55C60.6721 134.537 60.6786 134.523 60.6822 134.509L60.683 134.506H60.6154L60.6138 134.509C60.6102 134.517 60.6039 134.526 60.5948 134.534C60.5858 134.542 60.5742 134.548 60.5603 134.553C60.5463 134.559 60.5298 134.561 60.5109 134.561C60.4856 134.561 60.4636 134.556 60.4449 134.545C60.4263 134.533 60.4119 134.517 60.4018 134.496C60.3917 134.475 60.3867 134.449 60.3867 134.419V134.393C60.3867 134.361 60.3918 134.335 60.4022 134.313C60.4126 134.292 60.4265 134.276 60.4441 134.265C60.462 134.254 60.4822 134.248 60.5047 134.248C60.5272 134.248 60.5472 134.254 60.5645 134.264C60.5819 134.274 60.5955 134.29 60.6053 134.311C60.6151 134.333 60.6201 134.36 60.6201 134.393V134.419L60.6535 134.37H60.3525V134.424H60.688V134.398C60.688 134.356 60.6806 134.32 60.6659 134.288C60.6514 134.257 60.6304 134.232 60.603 134.214C60.5758 134.197 60.5432 134.188 60.5051 134.188C60.4673 134.188 60.4343 134.197 60.4061 134.216C60.3779 134.234 60.356 134.259 60.3405 134.292C60.3252 134.325 60.3175 134.363 60.3175 134.406V134.406C60.3175 134.45 60.3252 134.488 60.3405 134.52C60.356 134.553 60.378 134.577 60.4065 134.595C60.4352 134.613 60.4695 134.621 60.5094 134.621Z" fill="#FFD600"/>
<circle cx="90.1375" cy="243.766" r="27.8589" fill="#FF5C00" stroke="black" stroke-width="0.75"/>
<circle cx="172.056" cy="187.298" r="27.8589" fill="#FF5C00" stroke="black" stroke-width="0.75"/>
<circle cx="129.903" cy="215.93" r="27.8589" fill="white" stroke="black" stroke-width="0.75"/>
<rect x="0.663818" width="191.673" height="5.56725" fill="#FFD600" stroke="black" stroke-width="0.75"/>
<rect x="0.663696" y="256.094" width="191.673" height="5.56725" fill="#FFD600" stroke="black" stroke-width="0.75"/>
<rect x="0.663696" y="5.56714" width="191.673" height="4.77193" fill="white" stroke="black" stroke-width="0.75"/>
<rect x="0.663696" y="261.661" width="191.673" height="4.77193" fill="white" stroke="black" stroke-width="0.75"/>
<rect x="0.663696" y="10.3391" width="191.673" height="5.56725" fill="#FFD600" stroke="black" stroke-width="0.75"/>
<rect x="0.663696" y="266.433" width="191.673" height="5.56725" fill="#FFD600" stroke="black" stroke-width="0.75"/>
<path d="M50.3713 156.573L57.024 166.853L57.1895 167.109L57.4738 167L68.8985 162.593L68.238 174.82L68.2216 175.125L68.516 175.203L80.3489 178.353L72.6276 187.857L72.4355 188.094L72.6276 188.33L80.3489 197.834L68.516 200.984L68.2216 201.063L68.238 201.367L68.8985 213.594L57.4738 209.188L57.1895 209.078L57.024 209.334L50.3713 219.614L43.7186 209.334L43.5531 209.078L43.2688 209.188L31.8441 213.594L32.5045 201.367L32.521 201.063L32.2266 200.984L20.3937 197.834L28.115 188.33L28.3071 188.094L28.115 187.857L20.3937 178.353L32.2266 175.203L32.521 175.125L32.5045 174.82L31.8441 162.593L43.2688 167L43.5531 167.109L43.7186 166.853L50.3713 156.573Z" fill="#FF5C00" stroke="black" stroke-width="0.75"/>
<path d="M114.792 136.69L121.445 146.97L121.611 147.226L121.895 147.117L133.32 142.71L132.659 154.937L132.643 155.242L132.937 155.32L144.77 158.47L137.049 167.974L136.857 168.211L137.049 168.447L144.77 177.951L132.937 181.101L132.643 181.18L132.659 181.484L133.32 193.711L121.895 189.304L121.611 189.195L121.445 189.451L114.792 199.731L108.14 189.451L107.974 189.195L107.69 189.304L96.2653 193.711L96.9257 181.484L96.9421 181.18L96.6477 181.101L84.8149 177.951L92.5361 168.447L92.7282 168.211L92.5361 167.974L84.8149 158.47L96.6477 155.32L96.9421 155.242L96.9257 154.937L96.2653 142.71L107.69 147.117L107.974 147.226L108.14 146.97L114.792 136.69Z" fill="#FF85D5" stroke="black" stroke-width="0.75"/>
<circle cx="14.5818" cy="215.135" r="27.8589" fill="white" stroke="black" stroke-width="0.75"/>
</g>
<rect x="1.03882" y="0.375" width="190.923" height="271.25" stroke="black" stroke-width="0.75"/>
<defs>
<clipPath id="clip0_9_27527">
<rect x="0.663818" width="191.673" height="272" fill="white"/>
</clipPath>
</defs>
</svg>
