<svg width="194" height="274" viewBox="0 0 194 274" fill="none" xmlns="http://www.w3.org/2000/svg">
<path d="M192.645 9.12866H1V264.871H192.645V9.12866Z" fill="#FFD600" stroke="#211815" stroke-width="0.75" stroke-miterlimit="10"/>
<path d="M192.645 9.12866H1V13.2875H192.645V9.12866Z" fill="white" stroke="#030000" stroke-width="0.75" stroke-miterlimit="10"/>
<path d="M192.645 13.2605H1V17.4194H192.645V13.2605Z" fill="#FFD600" stroke="#211815" stroke-width="0.75" stroke-miterlimit="10"/>
<path d="M192.645 256.581H1V260.739H192.645V256.581Z" fill="#FFD600" stroke="#211815" stroke-width="0.75" stroke-miterlimit="10"/>
<path d="M192.645 260.74H1V264.898H192.645V260.74Z" fill="white" stroke="#030000" stroke-width="0.75" stroke-miterlimit="10"/>
<path d="M187.591 4.80779L182.51 1L177.456 4.80779L172.402 1L167.348 4.80779L162.321 1L157.267 4.80779L152.213 1L147.186 4.80779L142.132 1L137.078 4.80779L132.024 1L126.997 4.80779L121.943 1L116.889 4.80779L111.862 1L106.808 4.80779L101.781 1L96.727 4.80779L91.7003 1L86.6462 4.80779L81.6194 1L76.5653 4.80779L71.5386 1L66.5118 4.80779L61.485 1L56.4583 4.80779L51.4315 1L46.3774 4.80779L41.3234 1L36.2966 4.80779L31.2698 1L26.2158 4.80779L21.189 1L16.1349 4.80779L11.1082 1L6.05408 4.80779L1.02732 1V4.96982H1V9.12868H192.645V4.96982H192.673V1L187.591 4.80779Z" fill="#FFD600" stroke="#211815" stroke-width="0.75" stroke-miterlimit="10"/>
<path d="M6.0814 269.192L11.1901 273L16.2442 269.192L21.271 273L26.3524 269.192L31.3518 273L36.4332 269.192L41.46 273L46.514 269.192L51.5408 273L56.6222 269.192L61.6763 273L66.703 269.192L71.7571 273L76.7839 269.192L81.838 273L86.8647 269.192L91.9188 273L96.9456 269.192L102 273L107.026 269.192L112.08 273L117.107 269.192L122.161 273L127.161 269.192L132.215 273L137.214 269.192L142.268 273L147.295 269.192L152.377 273L157.376 269.192L162.43 273L167.457 269.192L172.511 273L177.538 269.192L182.592 273L187.618 269.192L192.673 273V269.03V264.871H1.02732V269.03H1V273L6.0814 269.192Z" fill="#FFD600" stroke="#211815" stroke-width="0.75" stroke-miterlimit="10"/>
<path d="M97.2339 170.403C127.542 170.403 152.111 145.656 152.111 115.129C152.111 84.6012 127.542 59.8538 97.2339 59.8538C66.926 59.8538 42.3567 84.6012 42.3567 115.129C42.3567 145.656 66.926 170.403 97.2339 170.403Z" fill="#FF0400" stroke="black" stroke-width="0.75" stroke-miterlimit="10"/>
<path d="M46.4014 230.034L48.6505 236.975V237.056H56.0134L50.1498 241.35L50.0695 241.404V241.485L52.3453 248.425L46.4817 244.131L46.4014 244.077L46.3211 244.131L40.4575 248.425L42.7066 241.485V241.404L42.653 241.35L36.7894 237.056H44.1256V236.975L46.4014 230.034V230.034Z" fill="#FF85D5" stroke="black" stroke-width="0.75" stroke-miterlimit="10"/>
<path d="M71.5158 230.034L73.7648 236.975V237.056H81.1278L75.2642 241.35L75.1839 241.404V241.485L77.4597 248.425L71.5961 244.131L71.5158 244.077L71.4355 244.131L65.5719 248.425L67.8209 241.485V241.404L67.7674 241.35L61.9038 237.056H69.24V236.975L71.5158 230.034V230.034Z" fill="#FF5C00" stroke="black" stroke-width="0.75" stroke-miterlimit="10"/>
<path d="M96.6302 230.034L98.8792 236.975V237.056H106.242L100.379 241.35L100.298 241.404V241.485L102.574 248.425L96.7105 244.131L96.6302 244.077L96.5498 244.131L90.6863 248.425L92.9353 241.485V241.404L92.8818 241.35L87.0182 237.056H94.3543V236.975L96.6302 230.034V230.034Z" fill="#FF85D5" stroke="black" stroke-width="0.75" stroke-miterlimit="10"/>
<path d="M121.744 230.034L123.993 236.975V237.056H131.356L125.493 241.35L125.413 241.404V241.485L127.688 248.425L121.825 244.131L121.744 244.077L121.664 244.131L115.801 248.425L118.05 241.485V241.404L117.996 241.35L112.132 237.056H119.469V236.975L121.744 230.034V230.034Z" fill="#FF5C00" stroke="black" stroke-width="0.75" stroke-miterlimit="10"/>
<path d="M146.859 230.034L149.108 236.975V237.056H156.471L150.607 241.35L150.527 241.404V241.485L152.803 248.425L146.939 244.131L146.859 244.077L146.778 244.131L140.915 248.425L143.164 241.485V241.404L143.11 241.35L137.247 237.056H144.583V236.975L146.859 230.034V230.034Z" fill="#FF85D5" stroke="black" stroke-width="0.75" stroke-miterlimit="10"/>
<path d="M51.7199 25.3591L53.7012 31.5164V31.5974H60.2341L55.0399 35.4052L54.9596 35.4592V35.5402L56.9677 41.6975L51.7734 37.8897L51.6931 37.8357L51.6128 37.8897L46.4186 41.6975L48.3999 35.5402V35.4592L48.3463 35.4052L43.1521 31.5974H49.6583V31.5164L51.6663 25.3591H51.7199Z" fill="#FF85D5" stroke="black" stroke-width="0.75" stroke-miterlimit="10"/>
<path d="M73.996 25.3591L75.9773 31.5164V31.5974H82.5102L77.316 35.4052L77.2357 35.4592V35.5402L79.2438 41.6975L74.0496 37.8897L73.9692 37.8357L73.8889 37.8897L68.6947 41.6975L70.676 35.5402V35.4592L70.6224 35.4052L65.4282 31.5974H71.9344V31.5164L73.9425 25.3591H73.996Z" fill="#FF5C00" stroke="black" stroke-width="0.75" stroke-miterlimit="10"/>
<path d="M96.2991 25.3591L98.2804 31.5164V31.5974H104.813L99.6191 35.4052L99.5388 35.4592V35.5402L101.547 41.6975L96.3527 37.8897L96.2723 37.8357L96.192 37.8897L90.9978 41.6975L92.9791 35.5402V35.4592L92.9255 35.4052L87.7313 31.5974H94.2375V31.5164L96.2456 25.3591H96.2991Z" fill="#FF85D5" stroke="black" stroke-width="0.75" stroke-miterlimit="10"/>
<path d="M118.575 25.3591L120.557 31.5164V31.5974H127.09L121.895 35.4052L121.815 35.4592V35.5402L123.823 41.6975L118.629 37.8897L118.549 37.8357L118.468 37.8897L113.274 41.6975L115.255 35.5402V35.4592L115.202 35.4052L110.008 31.5974H116.514V31.5164L118.522 25.3591H118.575Z" fill="#FF5C00" stroke="black" stroke-width="0.75" stroke-miterlimit="10"/>
<path d="M140.878 25.3591L142.86 31.5164V31.5974H149.393L144.198 35.4052L144.118 35.4592V35.5402L146.126 41.6975L140.932 37.8897L140.852 37.8357L140.771 37.8897L135.577 41.6975L137.558 35.5402V35.4592L137.505 35.4052L132.311 31.5974H138.817V31.5164L140.825 25.3591H140.878Z" fill="#FF85D5" stroke="black" stroke-width="0.75" stroke-miterlimit="10"/>
<path d="M1.00005 144.953L192.673 144.953V85.3042L1.00005 85.3042V144.953Z" fill="white" stroke="black" stroke-width="0.75" stroke-miterlimit="10"/>
<path d="M1.00005 144.953L192.673 144.953V85.3042L1.00005 85.3042V144.953Z" fill="white" stroke="black" stroke-width="0.75" stroke-miterlimit="10"/>
<path d="M20.9806 122.025C21.0782 124.31 21.7285 126.301 22.9967 127.932C24.2649 129.564 25.8908 130.837 27.9395 131.718C29.9881 132.599 32.2644 133.024 34.7032 133.024C37.4998 133.024 39.841 132.501 41.6946 131.457C43.5806 130.38 45.0114 129.009 45.9544 127.345C46.93 125.68 47.3852 123.918 47.3852 122.058C47.3852 119.806 46.6373 117.946 45.1415 116.444C43.6457 114.911 41.4344 113.703 38.5078 112.789L36.1665 112.039C34.0203 111.353 32.4595 110.57 31.4514 109.689C30.4759 108.775 29.9881 107.633 29.9881 106.262C29.9881 105.25 30.2808 104.337 30.8336 103.423C31.4189 102.542 32.2644 101.824 33.37 101.269C34.5081 100.714 35.9389 100.42 37.5973 100.42C39.2557 100.42 40.654 100.681 41.8246 101.236C42.9953 101.758 43.9058 102.509 44.5562 103.455C45.239 104.402 45.5967 105.479 45.6293 106.686H50.0517C50.0517 104.565 49.4989 102.737 48.4258 101.204C47.3527 99.6697 45.8894 98.4948 44.0034 97.6789C42.1498 96.8303 40.0036 96.4387 37.5973 96.4387C35.191 96.4387 33.0773 96.863 31.2238 97.7115C29.4028 98.5601 27.972 99.7676 26.8989 101.269C25.8583 102.803 25.3705 104.565 25.3705 106.588C25.3705 108.971 26.0859 110.929 27.5167 112.43C28.98 113.932 31.1587 115.139 34.0854 116.053L36.4267 116.803C38.6054 117.489 40.1987 118.305 41.1743 119.219C42.1823 120.132 42.6701 121.405 42.6701 123.004C42.6701 124.31 42.3124 125.387 41.597 126.301C40.8816 127.182 39.9386 127.867 38.7354 128.357C37.5323 128.813 36.1665 129.042 34.6382 129.042C32.8497 129.042 31.2888 128.748 29.9556 128.161C28.6223 127.573 27.5492 126.757 26.7363 125.713C25.9233 124.669 25.4681 123.461 25.3055 122.091H20.8831L20.9806 122.025ZM49.8891 132.436H54.1815L57.4333 117.097C57.7585 115.694 58.2788 114.454 58.9941 113.442C59.7421 112.398 60.6201 111.614 61.6606 111.06C62.7012 110.505 63.8393 110.211 65.075 110.211C66.7009 110.211 68.0016 110.668 68.9772 111.549C69.9852 112.43 70.473 113.638 70.473 115.172C70.473 115.498 70.473 115.89 70.408 116.347C70.3429 116.803 70.2779 117.293 70.1478 117.815L67.0261 132.436H71.3185L74.5703 117.065C74.7003 116.51 74.7654 115.988 74.8304 115.433C74.8955 114.878 74.928 114.388 74.928 113.932C74.928 112.463 74.5703 111.19 73.8549 110.048C73.1395 108.906 72.1965 108.024 70.9608 107.404C69.7251 106.752 68.3593 106.425 66.831 106.425C64.9775 106.425 63.3516 106.817 61.9533 107.633C60.555 108.416 59.4494 109.493 58.6039 110.864H58.5064L59.3518 106.882H55.2871L49.8891 132.436V132.436ZM86.3418 129.238C84.911 129.238 83.7729 128.879 82.8624 128.193C81.9844 127.475 81.5291 126.529 81.5291 125.354C81.5291 124.049 82.0494 123.037 83.09 122.286C84.1631 121.536 85.6264 121.111 87.545 121.014L94.5038 120.655L93.8534 123.494C93.5933 124.636 93.1055 125.615 92.3901 126.496C91.6422 127.378 90.7642 128.03 89.7237 128.552C88.6831 129.042 87.545 129.303 86.3093 129.303L86.3418 129.238ZM85.2037 132.86C86.2442 132.86 87.2523 132.697 88.1628 132.403C89.1058 132.11 89.9513 131.718 90.7317 131.163C91.5122 130.608 92.195 129.988 92.7803 129.27H92.8454L92.195 132.403H96.2923L99.8042 115.857C99.8693 115.563 99.9018 115.237 99.9343 114.878C99.9668 114.486 99.9993 114.095 99.9993 113.703C99.9993 112.267 99.6091 110.994 98.8612 109.917C98.1133 108.808 97.0727 107.959 95.707 107.339C94.3737 106.719 92.7803 106.393 90.9919 106.393C89.0083 106.393 87.2523 106.752 85.7239 107.437C84.1956 108.122 82.9599 109.036 82.0169 110.211C81.0739 111.386 80.456 112.757 80.1959 114.291H84.6509C84.846 113.475 85.1711 112.757 85.6589 112.137C86.1792 111.516 86.8296 111.027 87.675 110.701C88.5205 110.342 89.5286 110.146 90.6667 110.146C92.3251 110.146 93.5608 110.537 94.4388 111.288C95.3168 112.039 95.7395 113.018 95.7395 114.323C95.7395 114.552 95.7395 114.747 95.7395 114.976C95.7395 115.172 95.7395 115.368 95.6745 115.596L95.3168 117.195L87.7075 117.587C84.4557 117.75 81.9193 118.533 80.0658 119.937C78.2448 121.34 77.3343 123.265 77.3343 125.778C77.3343 127.182 77.692 128.389 78.4074 129.466C79.1228 130.543 80.0983 131.359 81.3015 131.979C82.5372 132.599 83.8704 132.893 85.3337 132.893L85.2037 132.86ZM116.193 106.425C113.657 106.425 111.381 107.111 109.397 108.481C107.446 109.819 105.918 111.647 104.779 113.964C103.674 116.249 103.121 118.827 103.121 121.699C103.121 123.853 103.511 125.778 104.292 127.475C105.105 129.172 106.275 130.478 107.804 131.457C109.365 132.403 111.283 132.893 113.592 132.893C115.38 132.893 117.039 132.501 118.567 131.751C120.095 131 121.396 129.988 122.469 128.716C123.542 127.41 124.29 125.974 124.713 124.342H120.518C119.965 125.778 119.12 126.953 117.917 127.834C116.714 128.716 115.283 129.14 113.624 129.14C112.389 129.14 111.283 128.846 110.373 128.226C109.462 127.606 108.747 126.757 108.226 125.615C107.706 124.473 107.478 123.135 107.478 121.568C107.478 119.904 107.706 118.37 108.129 116.999C108.552 115.596 109.137 114.421 109.917 113.409C110.698 112.398 111.576 111.614 112.649 111.06C113.722 110.505 114.893 110.211 116.161 110.211C118.047 110.211 119.51 110.733 120.551 111.778C121.591 112.822 122.144 114.062 122.209 115.498H126.339V115.335C126.339 113.801 125.949 112.365 125.201 110.994C124.453 109.624 123.315 108.547 121.819 107.698C120.323 106.85 118.437 106.425 116.193 106.425V106.425ZM131.314 132.436L133.395 122.678L136.972 119.871L143.411 132.436H148.191L140.419 117.424L153.134 106.882H147.671L134.533 117.717H134.436L138.858 96.9609H134.533L127.022 132.436H131.347H131.314ZM153.101 114.062C153.101 115.824 153.622 117.26 154.63 118.37C155.67 119.48 157.329 120.393 159.637 121.111L161.849 121.797C163.474 122.319 164.548 122.776 165.1 123.233C165.653 123.69 165.946 124.342 165.946 125.158C165.946 125.974 165.718 126.66 165.23 127.312C164.775 127.965 164.125 128.454 163.312 128.846C162.499 129.238 161.588 129.401 160.548 129.401C158.759 129.401 157.361 128.977 156.288 128.161C155.247 127.345 154.63 126.301 154.434 124.995H150.175C150.24 126.496 150.662 127.834 151.508 129.042C152.386 130.249 153.556 131.196 155.052 131.881C156.581 132.567 158.337 132.926 160.353 132.926C162.239 132.926 163.93 132.567 165.426 131.881C166.921 131.163 168.092 130.217 168.937 129.042C169.815 127.834 170.238 126.464 170.238 124.93C170.238 123.233 169.718 121.862 168.71 120.785C167.702 119.708 166.076 118.827 163.8 118.142L161.588 117.456C159.995 116.967 158.889 116.445 158.272 115.89C157.654 115.335 157.329 114.617 157.329 113.703C157.329 112.985 157.556 112.332 157.979 111.778C158.402 111.223 158.987 110.798 159.767 110.472C160.548 110.146 161.491 109.983 162.564 109.983C163.54 109.983 164.417 110.178 165.198 110.537C165.978 110.896 166.596 111.419 167.084 112.071C167.572 112.724 167.864 113.442 167.929 114.291H171.994C171.994 112.757 171.571 111.419 170.759 110.244C169.946 109.069 168.872 108.155 167.442 107.502C166.043 106.817 164.45 106.491 162.596 106.491C160.743 106.491 159.085 106.817 157.654 107.47C156.223 108.122 155.117 109.036 154.337 110.178C153.556 111.321 153.166 112.626 153.166 114.095L153.101 114.062Z" fill="#030000"/>
</svg>
