<svg width="516" height="68" viewBox="0 0 516 68" fill="none" xmlns="http://www.w3.org/2000/svg">
<rect x="0.375" y="0.375" width="515.25" height="67.25" rx="3.625" fill="#FFD600"/>
<path d="M18.7656 38.375C18.8177 39.8333 19.2448 41.0833 20.0469 42.125C20.849 43.1667 21.901 43.9688 23.2031 44.5312C24.5156 45.0833 25.9531 45.3594 27.5156 45.3594C29.2969 45.3594 30.7865 45.026 31.9844 44.3594C33.1927 43.6823 34.099 42.8125 34.7031 41.75C35.3177 40.6875 35.625 39.5677 35.625 38.3906C35.625 36.9635 35.151 35.7708 34.2031 34.8125C33.2552 33.8438 31.8438 33.0677 29.9688 32.4844L28.4688 32.0156C27.1042 31.5885 26.1042 31.0885 25.4688 30.5156C24.8438 29.9323 24.5312 29.2083 24.5312 28.3438C24.5312 27.7083 24.7083 27.1094 25.0625 26.5469C25.4271 25.9844 25.9688 25.526 26.6875 25.1719C27.4167 24.8177 28.3177 24.6406 29.3906 24.6406C30.4427 24.6406 31.3438 24.8125 32.0938 25.1562C32.8438 25.4896 33.4271 25.9583 33.8438 26.5625C34.2708 27.1562 34.5 27.8438 34.5312 28.625H37.3438C37.3438 27.2708 37 26.1094 36.3125 25.1406C35.6354 24.1615 34.6979 23.4115 33.5 22.8906C32.3125 22.3594 30.9531 22.0938 29.4219 22.0938C27.8906 22.0938 26.5365 22.3646 25.3594 22.9062C24.1927 23.4479 23.276 24.2031 22.6094 25.1719C21.9531 26.1406 21.625 27.2708 21.625 28.5625C21.625 30.0833 22.0833 31.3229 23 32.2812C23.9271 33.2292 25.3229 33.9948 27.1875 34.5781L28.6875 35.0469C30.0833 35.4844 31.0938 35.9948 31.7188 36.5781C32.3542 37.1615 32.6719 37.9635 32.6719 38.9844C32.6719 39.8073 32.4427 40.5052 31.9844 41.0781C31.5365 41.6406 30.9271 42.0729 30.1562 42.375C29.3854 42.6667 28.5156 42.8125 27.5469 42.8125C26.4115 42.8125 25.4167 42.625 24.5625 42.25C23.7083 41.875 23.026 41.3542 22.5156 40.6875C22.0052 40.0208 21.6979 39.25 21.5938 38.375H18.7656ZM37.2031 45H39.9375L42.0156 35.25C42.2135 34.3542 42.5469 33.5781 43.0156 32.9219C43.4844 32.2656 44.0521 31.7604 44.7188 31.4062C45.3854 31.0521 46.1094 30.875 46.8906 30.875C47.9323 30.875 48.7656 31.1562 49.3906 31.7188C50.026 32.2708 50.3438 33.0365 50.3438 34.0156C50.3438 34.224 50.3281 34.474 50.2969 34.7656C50.2656 35.0573 50.2135 35.3698 50.1406 35.7031L48.1562 45H50.8906L52.9688 35.2344C53.0417 34.8906 53.0938 34.5469 53.125 34.2031C53.1667 33.849 53.1875 33.5312 53.1875 33.25C53.1875 32.3229 52.9583 31.5 52.5 30.7812C52.0521 30.0625 51.4375 29.5 50.6562 29.0938C49.875 28.6771 49 28.4688 48.0312 28.4688C46.8542 28.4688 45.8177 28.724 44.9219 29.2344C44.0365 29.7344 43.3229 30.4167 42.7812 31.2812H42.7188L43.25 28.75H40.6562L37.2031 45ZM60.4531 42.9688C59.5469 42.9688 58.8073 42.7448 58.2344 42.2969C57.6719 41.849 57.3906 41.2448 57.3906 40.4844C57.3906 39.6615 57.724 39.0104 58.3906 38.5312C59.0677 38.0521 60.0156 37.7812 61.2344 37.7188L65.6719 37.4844L65.2656 39.2969C65.1094 40.0156 64.7969 40.651 64.3281 41.2031C63.8594 41.7552 63.2917 42.1875 62.625 42.5C61.9583 42.8125 61.2344 42.9688 60.4531 42.9688ZM59.7344 45.2812C60.401 45.2812 61.0312 45.1875 61.625 45C62.2188 44.8229 62.7656 44.5625 63.2656 44.2188C63.7656 43.875 64.1979 43.474 64.5625 43.0156H64.6094L64.1875 45H66.7969L69.0312 34.4844C69.0625 34.2969 69.0885 34.0885 69.1094 33.8594C69.1302 33.6198 69.1406 33.3698 69.1406 33.1094C69.1406 32.1927 68.901 31.3906 68.4219 30.7031C67.9427 30.0052 67.2708 29.4583 66.4062 29.0625C65.5521 28.6667 64.5469 28.4688 63.3906 28.4688C62.1302 28.4688 61.0104 28.6875 60.0312 29.125C59.0625 29.5521 58.2708 30.1406 57.6562 30.8906C57.0521 31.6406 56.6667 32.5052 56.5 33.4844H59.3438C59.4583 32.9635 59.6719 32.5104 59.9844 32.125C60.3073 31.7292 60.7344 31.4219 61.2656 31.2031C61.8073 30.974 62.4427 30.8594 63.1719 30.8594C64.224 30.8594 65.026 31.099 65.5781 31.5781C66.1302 32.0469 66.4062 32.6875 66.4062 33.5C66.4062 33.6354 66.401 33.7708 66.3906 33.9062C66.3906 34.0312 66.375 34.1615 66.3438 34.2969L66.125 35.3125L61.2656 35.5625C59.1927 35.6667 57.5677 36.1615 56.3906 37.0469C55.224 37.9323 54.6406 39.1719 54.6406 40.7656C54.6406 41.651 54.8698 42.4323 55.3281 43.1094C55.7865 43.7865 56.401 44.3177 57.1719 44.7031C57.9531 45.0885 58.8073 45.2812 59.7344 45.2812ZM79.5 28.4688C77.875 28.4688 76.4323 28.901 75.1719 29.7656C73.9219 30.6198 72.9427 31.7812 72.2344 33.25C71.526 34.7083 71.1719 36.349 71.1719 38.1719C71.1719 39.5469 71.4219 40.7708 71.9219 41.8438C72.4323 42.9167 73.1823 43.7604 74.1719 44.375C75.1719 44.9792 76.401 45.2812 77.8594 45.2812C79.0052 45.2812 80.0625 45.0417 81.0312 44.5625C82.0104 44.0833 82.8438 43.4375 83.5312 42.625C84.2188 41.8021 84.6927 40.875 84.9531 39.8438H82.2812C81.9375 40.7604 81.3854 41.5 80.625 42.0625C79.8646 42.6146 78.9531 42.8906 77.8906 42.8906C77.099 42.8906 76.4062 42.6979 75.8125 42.3125C75.2292 41.9271 74.7708 41.375 74.4375 40.6562C74.1146 39.9375 73.9531 39.0781 73.9531 38.0781C73.9531 37.0156 74.0885 36.0469 74.3594 35.1719C74.6302 34.2865 75.0104 33.526 75.5 32.8906C75.9896 32.2448 76.5677 31.7448 77.2344 31.3906C77.9115 31.0365 78.6562 30.8594 79.4688 30.8594C80.6771 30.8594 81.6094 31.1927 82.2656 31.8594C82.9323 32.526 83.2865 33.3177 83.3281 34.2344H85.9688C85.9688 34.1927 85.9688 34.1719 85.9688 34.1719C85.9688 34.1719 85.9688 34.1562 85.9688 34.125C85.9688 33.1562 85.7292 32.2396 85.25 31.375C84.7708 30.5104 84.0521 29.8125 83.0938 29.2812C82.1354 28.7396 80.9375 28.4688 79.5 28.4688ZM89.1406 45L90.4688 38.7969L92.75 37.0156L96.8594 45H99.9062L94.9531 35.4531L103.062 28.75H99.5781L91.1875 35.6406H91.125L93.9375 22.4531H91.1875L86.3906 45H89.1406ZM110.094 45.2812C111.354 45.2812 112.479 45.0104 113.469 44.4688C114.469 43.9271 115.312 43.1927 116 42.2656C116.698 41.3385 117.229 40.3021 117.594 39.1562C117.958 38 118.141 36.8125 118.141 35.5938C118.141 34.0938 117.885 32.8125 117.375 31.75C116.875 30.6875 116.167 29.875 115.25 29.3125C114.344 28.75 113.276 28.4687 112.047 28.4687C111.016 28.4687 110.042 28.7344 109.125 29.2656C108.219 29.7969 107.542 30.474 107.094 31.2969C107.083 31.2969 107.073 31.2969 107.062 31.2969C107.062 31.2969 107.057 31.2969 107.047 31.2969L108.906 22.4531H106.219L101.422 45H104L104.703 41.6406H104.781C104.958 42.3281 105.302 42.9479 105.812 43.5C106.333 44.0521 106.964 44.4896 107.703 44.8125C108.443 45.125 109.24 45.2812 110.094 45.2812ZM110.062 42.875C108.781 42.875 107.745 42.4479 106.953 41.5938C106.172 40.7396 105.781 39.6458 105.781 38.3125C105.781 37.2917 105.917 36.3333 106.188 35.4375C106.458 34.5417 106.839 33.75 107.328 33.0625C107.828 32.375 108.422 31.8385 109.109 31.4531C109.807 31.0573 110.578 30.8594 111.422 30.8594C112.703 30.8594 113.688 31.2865 114.375 32.1406C115.073 32.9948 115.422 34.1667 115.422 35.6562C115.422 36.6458 115.297 37.5781 115.047 38.4531C114.797 39.3281 114.438 40.099 113.969 40.7656C113.5 41.4219 112.932 41.9375 112.266 42.3125C111.609 42.6875 110.875 42.875 110.062 42.875ZM125.328 42.9688C124.422 42.9688 123.682 42.7448 123.109 42.2969C122.547 41.849 122.266 41.2448 122.266 40.4844C122.266 39.6615 122.599 39.0104 123.266 38.5312C123.943 38.0521 124.891 37.7812 126.109 37.7188L130.547 37.4844L130.141 39.2969C129.984 40.0156 129.672 40.651 129.203 41.2031C128.734 41.7552 128.167 42.1875 127.5 42.5C126.833 42.8125 126.109 42.9688 125.328 42.9688ZM124.609 45.2812C125.276 45.2812 125.906 45.1875 126.5 45C127.094 44.8229 127.641 44.5625 128.141 44.2188C128.641 43.875 129.073 43.474 129.438 43.0156H129.484L129.062 45H131.672L133.906 34.4844C133.938 34.2969 133.964 34.0885 133.984 33.8594C134.005 33.6198 134.016 33.3698 134.016 33.1094C134.016 32.1927 133.776 31.3906 133.297 30.7031C132.818 30.0052 132.146 29.4583 131.281 29.0625C130.427 28.6667 129.422 28.4687 128.266 28.4687C127.005 28.4687 125.885 28.6875 124.906 29.125C123.938 29.5521 123.146 30.1406 122.531 30.8906C121.927 31.6406 121.542 32.5052 121.375 33.4844H124.219C124.333 32.9635 124.547 32.5104 124.859 32.125C125.182 31.7292 125.609 31.4219 126.141 31.2031C126.682 30.974 127.318 30.8594 128.047 30.8594C129.099 30.8594 129.901 31.099 130.453 31.5781C131.005 32.0469 131.281 32.6875 131.281 33.5C131.281 33.6354 131.276 33.7708 131.266 33.9062C131.266 34.0312 131.25 34.1615 131.219 34.2969L131 35.3125L126.141 35.5625C124.068 35.6667 122.443 36.1615 121.266 37.0469C120.099 37.9323 119.516 39.1719 119.516 40.7656C119.516 41.651 119.745 42.4323 120.203 43.1094C120.661 43.7865 121.276 44.3177 122.047 44.7031C122.828 45.0885 123.682 45.2812 124.609 45.2812ZM135.078 45H137.797L139.781 35.5781C139.99 34.6094 140.292 33.7969 140.688 33.1406C141.083 32.474 141.594 31.974 142.219 31.6406C142.854 31.2969 143.63 31.125 144.547 31.125C144.922 31.125 145.307 31.1615 145.703 31.2344C146.109 31.3073 146.401 31.3802 146.578 31.4531L147.156 28.875C146.979 28.7917 146.719 28.7135 146.375 28.6406C146.042 28.5573 145.677 28.5156 145.281 28.5156C144.26 28.5156 143.37 28.7292 142.609 29.1562C141.859 29.5833 141.229 30.1667 140.719 30.9062H140.656L141.109 28.75H138.531L135.078 45Z" fill="black"/>
<path d="M453.281 45H458V36.5781L465.859 22.4531H460.75L455.703 32.0781H455.594L450.531 22.4531H445.438L453.281 36.5781V45ZM471.953 45.3438C473.151 45.3438 474.193 45.1875 475.078 44.875C475.974 44.5625 476.729 44.1458 477.344 43.625C477.969 43.1042 478.464 42.5312 478.828 41.9062C479.193 41.2812 479.438 40.6615 479.562 40.0469L479.609 39.875H475.422L475.391 39.9688C475.286 40.2812 475.089 40.5885 474.797 40.8906C474.505 41.1927 474.13 41.4427 473.672 41.6406C473.214 41.8385 472.672 41.9375 472.047 41.9375C471.255 41.9375 470.573 41.7656 470 41.4219C469.427 41.0677 468.984 40.5625 468.672 39.9062C468.37 39.25 468.219 38.4583 468.219 37.5312V35.7656C468.219 34.8073 468.37 34 468.672 33.3438C468.984 32.6771 469.411 32.1719 469.953 31.8281C470.505 31.4844 471.135 31.3125 471.844 31.3125C472.552 31.3125 473.172 31.4792 473.703 31.8125C474.245 32.1458 474.667 32.6458 474.969 33.3125C475.271 33.9688 475.422 34.7865 475.422 35.7656V37.5156L477.594 34.8281H465.953V37.7031H479.75V36.2969C479.75 34.6094 479.422 33.1354 478.766 31.875C478.12 30.6146 477.198 29.6406 476 28.9531C474.812 28.2552 473.401 27.9062 471.766 27.9062C470.13 27.9062 468.708 28.2656 467.5 28.9844C466.302 29.6927 465.37 30.7031 464.703 32.0156C464.047 33.3177 463.719 34.8594 463.719 36.6406V36.6562C463.719 38.4375 464.047 39.9792 464.703 41.2812C465.37 42.5833 466.318 43.5885 467.547 44.2969C468.776 44.9948 470.245 45.3438 471.953 45.3438ZM489 45.3438C490.438 45.3438 491.703 45.1198 492.797 44.6719C493.901 44.2135 494.766 43.5781 495.391 42.7656C496.016 41.9531 496.328 41 496.328 39.9062V39.8906C496.328 38.6615 495.943 37.6823 495.172 36.9531C494.411 36.224 493.151 35.6771 491.391 35.3125L488.547 34.7031C487.984 34.5781 487.536 34.4323 487.203 34.2656C486.87 34.099 486.63 33.9062 486.484 33.6875C486.349 33.4583 486.281 33.2031 486.281 32.9219V32.9062C486.281 32.5417 486.385 32.2292 486.594 31.9688C486.802 31.6979 487.099 31.4896 487.484 31.3438C487.87 31.1979 488.323 31.125 488.844 31.125C489.688 31.125 490.349 31.3281 490.828 31.7344C491.318 32.1302 491.599 32.6302 491.672 33.2344L491.688 33.3594H495.891V33.2031C495.859 32.224 495.562 31.3333 495 30.5312C494.448 29.7292 493.651 29.0938 492.609 28.625C491.578 28.1458 490.323 27.9062 488.844 27.9062C487.427 27.9062 486.188 28.125 485.125 28.5625C484.073 28.9896 483.26 29.5938 482.688 30.375C482.115 31.1562 481.828 32.0833 481.828 33.1562V33.1719C481.828 34.0052 482.01 34.7448 482.375 35.3906C482.74 36.026 483.281 36.5625 484 37C484.729 37.4271 485.635 37.7552 486.719 37.9844L489.562 38.5781C490.385 38.7656 490.958 38.9948 491.281 39.2656C491.604 39.5365 491.766 39.8958 491.766 40.3438V40.3594C491.766 40.724 491.651 41.0365 491.422 41.2969C491.203 41.5573 490.891 41.7604 490.484 41.9062C490.078 42.0417 489.583 42.1094 489 42.1094C488.094 42.1094 487.385 41.9271 486.875 41.5625C486.365 41.1979 486.036 40.6875 485.891 40.0312L485.859 39.8906H481.406L481.422 40.0312C481.547 41.0833 481.911 42.0104 482.516 42.8125C483.13 43.6042 483.979 44.224 485.062 44.6719C486.146 45.1198 487.458 45.3438 489 45.3438Z" fill="black"/>
<rect x="0.375" y="0.375" width="515.25" height="67.25" rx="3.625" stroke="black" stroke-width="0.75"/>
</svg>
