<svg width="243" height="344" viewBox="0 0 243 344" fill="none" xmlns="http://www.w3.org/2000/svg">
<path d="M241.966 11.2207H1V332.78H241.966V11.2207Z" fill="#FFD600" stroke="#211815" stroke-width="0.75" stroke-miterlimit="10"/>
<path d="M241.966 11.2207H1V16.4499H241.966V11.2207Z" fill="white" stroke="#030000" stroke-width="0.75" stroke-miterlimit="10"/>
<path d="M241.966 16.4158H1V21.6449H241.966V16.4158Z" fill="#FFD600" stroke="#211815" stroke-width="0.75" stroke-miterlimit="10"/>
<path d="M241.966 322.355H1V327.584H241.966V322.355Z" fill="#FFD600" stroke="#211815" stroke-width="0.75" stroke-miterlimit="10"/>
<path d="M241.966 327.584H1V332.813H241.966V327.584Z" fill="white" stroke="#030000" stroke-width="0.75" stroke-miterlimit="10"/>
<path d="M235.611 5.78773L229.222 1L222.867 5.78773L216.512 1L210.158 5.78773L203.837 1L197.482 5.78773L191.128 1L184.807 5.78773L178.452 1L172.098 5.78773L165.743 1L159.422 5.78773L153.068 1L146.713 5.78773L140.393 1L134.038 5.78773L127.717 1L121.363 5.78773L115.042 1L108.687 5.78773L102.367 1L96.0123 5.78773L89.6919 1L83.3714 5.78773L77.051 1L70.7306 5.78773L64.4102 1L58.0554 5.78773L51.7007 1L45.3803 5.78773L39.0599 1L32.7051 5.78773L26.3847 1L20.0299 5.78773L13.7095 1L7.35476 5.78773L1.03435 1V5.99146H1V11.2206H241.966V5.99146H242V1L235.611 5.78773Z" fill="#FFD600" stroke="#211815" stroke-width="0.75" stroke-miterlimit="10"/>
<path d="M7.38911 338.212L13.8126 343L20.1673 338.212L26.4877 343L32.8769 338.212L39.1629 343L45.552 338.212L51.8724 343L58.2272 338.212L64.5476 343L70.9367 338.212L77.2915 343L83.6119 338.212L89.9667 343L96.2871 338.212L102.642 343L108.962 338.212L115.317 343L121.637 338.212L127.992 343L134.313 338.212L140.667 343L146.988 338.212L153.343 343L159.629 338.212L165.983 343L172.269 338.212L178.624 343L184.945 338.212L191.334 343L197.62 338.212L203.974 343L210.295 338.212L216.65 343L222.97 338.212L229.325 343L235.645 338.212L242 343V338.008V332.779H1.03435V338.008H1V343L7.38911 338.212Z" fill="#FFD600" stroke="#211815" stroke-width="0.75" stroke-miterlimit="10"/>
<path d="M122 214C160.108 214 191 182.884 191 144.5C191 106.116 160.108 75 122 75C83.8923 75 53 106.116 53 144.5C53 182.884 83.8923 214 122 214Z" fill="#FF0400" stroke="black" stroke-width="0.75" stroke-miterlimit="10"/>
<path d="M58.0857 288.977L60.9135 297.703V297.805H70.1713L62.7987 303.204L62.6977 303.272V303.374L65.5592 312.101L58.1866 306.702L58.0857 306.634L57.9847 306.702L50.6121 312.101L53.4399 303.374V303.272L53.3726 303.204L46 297.805H55.2241V297.703L58.0857 288.977V288.977Z" fill="#FF85D5" stroke="black" stroke-width="0.75" stroke-miterlimit="10"/>
<path d="M89.6632 288.977L92.491 297.703V297.805H101.749L94.3763 303.204L94.2753 303.272V303.374L97.1368 312.101L89.7642 306.702L89.6632 306.634L89.5622 306.702L82.1896 312.101L85.0175 303.374V303.272L84.9501 303.204L77.5775 297.805H86.8017V297.703L89.6632 288.977V288.977Z" fill="#FF5C00" stroke="black" stroke-width="0.75" stroke-miterlimit="10"/>
<path d="M121.241 288.977L124.069 297.703V297.805H133.326L125.954 303.204L125.853 303.272V303.374L128.714 312.101L121.342 306.702L121.241 306.634L121.14 306.702L113.767 312.101L116.595 303.374V303.272L116.528 303.204L109.155 297.805H118.379V297.703L121.241 288.977V288.977Z" fill="#FF85D5" stroke="black" stroke-width="0.75" stroke-miterlimit="10"/>
<path d="M152.818 288.977L155.646 297.703V297.805H164.904L157.531 303.204L157.43 303.272V303.374L160.292 312.101L152.919 306.702L152.818 306.634L152.717 306.702L145.345 312.101L148.173 303.374V303.272L148.105 303.204L140.733 297.805H149.957V297.703L152.818 288.977V288.977Z" fill="#FF5C00" stroke="black" stroke-width="0.75" stroke-miterlimit="10"/>
<path d="M184.396 288.977L187.224 297.703V297.805H196.482L189.109 303.204L189.008 303.272V303.374L191.869 312.101L184.497 306.702L184.396 306.634L184.295 306.702L176.922 312.101L179.75 303.374V303.272L179.683 303.204L172.31 297.805H181.534V297.703L184.396 288.977V288.977Z" fill="#FF85D5" stroke="black" stroke-width="0.75" stroke-miterlimit="10"/>
<path d="M64.7727 31.6279L67.2639 39.3698V39.4717H75.4781L68.9472 44.2594L68.8462 44.3273V44.4292L71.371 52.171L64.8401 47.3833L64.7391 47.3154L64.6381 47.3833L58.1071 52.171L60.5983 44.4292V44.3273L60.531 44.2594L54 39.4717H62.1805V39.3698L64.7054 31.6279H64.7727Z" fill="#FF85D5" stroke="black" stroke-width="0.75" stroke-miterlimit="10"/>
<path d="M92.7818 31.6279L95.273 39.3698V39.4717H103.487L96.9562 44.2594L96.8553 44.3273V44.4292L99.3801 52.171L92.8491 47.3833L92.7482 47.3154L92.6472 47.3833L86.1162 52.171L88.6074 44.4292V44.3273L88.5401 44.2594L82.0091 39.4717H90.1896V39.3698L92.7145 31.6279H92.7818Z" fill="#FF5C00" stroke="black" stroke-width="0.75" stroke-miterlimit="10"/>
<path d="M120.825 31.6279L123.316 39.3698V39.4717H131.53L124.999 44.2594L124.898 44.3273V44.4292L127.423 52.171L120.892 47.3833L120.791 47.3154L120.69 47.3833L114.159 52.171L116.65 44.4292V44.3273L116.583 44.2594L110.052 39.4717H118.232V39.3698L120.757 31.6279H120.825Z" fill="#FF85D5" stroke="black" stroke-width="0.75" stroke-miterlimit="10"/>
<path d="M148.834 31.6279L151.325 39.3698V39.4717H159.539L153.008 44.2594L152.907 44.3273V44.4292L155.432 52.171L148.901 47.3833L148.8 47.3154L148.699 47.3833L142.168 52.171L144.659 44.4292V44.3273L144.592 44.2594L138.061 39.4717H146.241V39.3698L148.766 31.6279H148.834Z" fill="#FF5C00" stroke="black" stroke-width="0.75" stroke-miterlimit="10"/>
<path d="M176.876 31.6279L179.368 39.3698V39.4717H187.582L181.051 44.2594L180.95 44.3273V44.4292L183.475 52.171L176.944 47.3833L176.843 47.3154L176.742 47.3833L170.211 52.171L172.702 44.4292V44.3273L172.635 44.2594L166.104 39.4717H174.284V39.3698L176.809 31.6279H176.876Z" fill="#FF85D5" stroke="black" stroke-width="0.75" stroke-miterlimit="10"/>
<path d="M1 182L242 182V107L1 107V182Z" fill="white" stroke="black" stroke-width="0.75" stroke-miterlimit="10"/>
<path d="M1 182L242 182V107L1 107V182Z" fill="white" stroke="black" stroke-width="0.75" stroke-miterlimit="10"/>
<path d="M26.1227 153.171C26.2453 156.044 27.0631 158.547 28.6576 160.599C30.2522 162.65 32.2965 164.251 34.8724 165.359C37.4482 166.467 40.3103 167 43.3768 167C46.893 167 49.8369 166.343 52.1674 165.03C54.5388 163.676 56.3379 161.953 57.5236 159.86C58.7502 157.767 59.3226 155.551 59.3226 153.212C59.3226 150.381 58.3822 148.042 56.5014 146.154C54.6206 144.226 51.8403 142.707 48.1605 141.558L45.2167 140.615C42.5182 139.753 40.5556 138.768 39.2881 137.66C38.0615 136.511 37.4482 135.075 37.4482 133.351C37.4482 132.079 37.8162 130.93 38.5113 129.781C39.2473 128.674 40.3103 127.771 41.7005 127.073C43.1315 126.376 44.9305 126.006 47.0157 126.006C49.1009 126.006 50.8591 126.335 52.331 127.032C53.8029 127.689 54.9477 128.632 55.7654 129.822C56.6241 131.012 57.0738 132.367 57.1147 133.885H62.6753C62.6753 131.218 61.9802 128.92 60.6309 126.991C59.2817 125.062 57.4418 123.585 55.0704 122.559C52.7398 121.492 50.0413 121 47.0157 121C43.9901 121 41.3325 121.533 39.0019 122.6C36.7123 123.667 34.9133 125.186 33.564 127.073C32.2557 129.002 31.6424 131.218 31.6424 133.762C31.6424 136.757 32.5419 139.219 34.3409 141.107C36.1808 142.995 38.9202 144.513 42.6 145.662L45.5438 146.606C48.2832 147.467 50.2866 148.493 51.5132 149.642C52.7807 150.791 53.394 152.392 53.394 154.402C53.394 156.044 52.9443 157.398 52.0448 158.547C51.1453 159.655 49.9595 160.517 48.4467 161.132C46.9339 161.707 45.2167 161.994 43.295 161.994C41.0463 161.994 39.0837 161.624 37.4074 160.886C35.731 160.147 34.3818 159.121 33.3596 157.808C32.3374 156.495 31.765 154.977 31.5606 153.253H26L26.1227 153.171ZM62.4708 166.261H67.8679L71.9565 146.975C72.3654 145.211 73.0196 143.651 73.9191 142.379C74.8595 141.066 75.9634 140.081 77.2718 139.384C78.5802 138.686 80.0112 138.317 81.5649 138.317C83.6092 138.317 85.2447 138.891 86.4713 139.999C87.7388 141.107 88.3521 142.625 88.3521 144.554C88.3521 144.964 88.3521 145.457 88.2703 146.031C88.1885 146.606 88.1067 147.221 87.9432 147.878L84.0181 166.261H89.4151L93.5038 146.934C93.6673 146.236 93.7491 145.58 93.8309 144.882C93.9126 144.185 93.9535 143.569 93.9535 142.995C93.9535 141.148 93.5038 139.548 92.6043 138.112C91.7048 136.675 90.519 135.567 88.9654 134.788C87.4117 133.967 85.6944 133.557 83.7728 133.557C81.4422 133.557 79.3979 134.049 77.6398 135.075C75.8816 136.06 74.4915 137.414 73.4284 139.137H73.3058L74.3688 134.131H69.258L62.4708 166.261V166.261ZM108.305 162.24C106.506 162.24 105.075 161.789 103.93 160.927C102.826 160.024 102.253 158.834 102.253 157.357C102.253 155.715 102.908 154.443 104.216 153.5C105.565 152.556 107.405 152.022 109.818 151.899L118.567 151.448L117.75 155.018C117.422 156.454 116.809 157.685 115.91 158.793C114.969 159.901 113.865 160.722 112.557 161.378C111.249 161.994 109.818 162.322 108.264 162.322L108.305 162.24ZM106.874 166.795C108.182 166.795 109.45 166.59 110.594 166.22C111.78 165.851 112.843 165.359 113.824 164.661C114.806 163.963 115.664 163.184 116.4 162.281H116.482L115.664 166.22H120.816L125.232 145.416C125.314 145.046 125.354 144.636 125.395 144.185C125.436 143.692 125.477 143.2 125.477 142.707C125.477 140.902 124.986 139.302 124.046 137.947C123.106 136.552 121.797 135.485 120.08 134.706C118.404 133.926 116.4 133.516 114.151 133.516C111.657 133.516 109.45 133.967 107.528 134.829C105.606 135.69 104.053 136.839 102.867 138.317C101.681 139.794 100.904 141.517 100.577 143.446H106.179C106.424 142.42 106.833 141.517 107.446 140.738C108.1 139.958 108.918 139.343 109.981 138.932C111.044 138.481 112.312 138.235 113.743 138.235C115.828 138.235 117.382 138.727 118.485 139.671C119.589 140.615 120.121 141.846 120.121 143.487C120.121 143.774 120.121 144.021 120.121 144.308C120.121 144.554 120.121 144.8 120.039 145.087L119.589 147.098L110.022 147.591C105.933 147.796 102.744 148.781 100.414 150.545C98.124 152.31 96.9791 154.731 96.9791 157.89C96.9791 159.655 97.4289 161.173 98.3284 162.527C99.2279 163.881 100.454 164.907 101.967 165.687C103.521 166.467 105.197 166.836 107.037 166.836L106.874 166.795ZM145.839 133.557C142.649 133.557 139.787 134.418 137.293 136.142C134.84 137.824 132.918 140.122 131.487 143.036C130.097 145.908 129.402 149.15 129.402 152.761C129.402 155.469 129.893 157.89 130.874 160.024C131.896 162.158 133.368 163.799 135.29 165.03C137.252 166.22 139.665 166.836 142.568 166.836C144.816 166.836 146.902 166.343 148.823 165.4C150.745 164.456 152.38 163.184 153.73 161.583C155.079 159.942 156.019 158.136 156.551 156.085H151.277C150.581 157.89 149.518 159.368 148.006 160.475C146.493 161.583 144.694 162.117 142.609 162.117C141.055 162.117 139.665 161.748 138.52 160.968C137.375 160.188 136.476 159.121 135.821 157.685C135.167 156.249 134.881 154.566 134.881 152.597C134.881 150.504 135.167 148.575 135.699 146.852C136.23 145.087 136.966 143.61 137.947 142.338C138.929 141.066 140.033 140.081 141.382 139.384C142.731 138.686 144.203 138.317 145.798 138.317C148.169 138.317 150.009 138.973 151.317 140.286C152.626 141.599 153.321 143.159 153.403 144.964H158.595V144.759C158.595 142.83 158.105 141.025 157.164 139.302C156.224 137.578 154.793 136.224 152.912 135.157C151.031 134.09 148.66 133.557 145.839 133.557V133.557ZM164.851 166.261L167.468 153.992L171.965 150.463L180.061 166.261H186.071L176.299 147.385L192.286 134.131H185.417L168.899 147.755H168.776L174.337 121.657H168.899L159.454 166.261H164.892H164.851ZM192.245 143.159C192.245 145.375 192.899 147.18 194.167 148.575C195.475 149.971 197.56 151.12 200.463 152.022L203.243 152.884C205.288 153.541 206.637 154.115 207.332 154.69C208.027 155.264 208.395 156.085 208.395 157.111C208.395 158.136 208.109 158.998 207.496 159.819C206.923 160.64 206.105 161.255 205.083 161.748C204.061 162.24 202.916 162.445 201.608 162.445C199.359 162.445 197.601 161.912 196.252 160.886C194.943 159.86 194.167 158.547 193.921 156.905H188.565C188.647 158.793 189.178 160.475 190.241 161.994C191.345 163.512 192.817 164.702 194.698 165.564C196.62 166.426 198.828 166.877 201.363 166.877C203.734 166.877 205.86 166.426 207.741 165.564C209.622 164.661 211.094 163.471 212.157 161.994C213.261 160.475 213.792 158.752 213.792 156.823C213.792 154.69 213.138 152.966 211.87 151.612C210.603 150.258 208.559 149.15 205.697 148.288L202.916 147.426C200.913 146.811 199.523 146.154 198.746 145.457C197.969 144.759 197.56 143.856 197.56 142.707C197.56 141.805 197.846 140.984 198.378 140.286C198.909 139.589 199.645 139.055 200.627 138.645C201.608 138.235 202.794 138.029 204.143 138.029C205.369 138.029 206.473 138.276 207.455 138.727C208.436 139.178 209.213 139.835 209.826 140.656C210.439 141.476 210.807 142.379 210.889 143.446H216C216 141.517 215.468 139.835 214.446 138.358C213.424 136.88 212.075 135.731 210.276 134.911C208.518 134.049 206.514 133.639 204.184 133.639C201.853 133.639 199.768 134.049 197.969 134.87C196.17 135.69 194.78 136.839 193.799 138.276C192.817 139.712 192.327 141.353 192.327 143.2L192.245 143.159Z" fill="#030000"/>
</svg>
